<svg width="158" height="126" viewBox="0 0 158 126" fill="none" xmlns="http://www.w3.org/2000/svg">
<path fill-rule="evenodd" clip-rule="evenodd" d="M2.36408 32.6108C0.029582 54.3016 0.133665 79.3183 3.38217 100.921C5.17966 112.874 14.9352 122.037 26.9775 123.085L39.5627 124.178C65.805 126.46 92.195 126.46 118.437 124.178L131.023 123.085C143.065 122.037 152.821 112.874 154.618 100.921C157.867 79.3183 157.971 54.3033 155.636 32.6121C155.334 30.0974 154.995 27.5861 154.618 25.0791C152.821 13.1258 143.065 3.96206 131.023 2.91523L118.437 1.82123C92.195 -0.45994 65.805 -0.45994 39.5627 1.82123L26.9775 2.91523C14.9352 3.96206 5.17966 13.1258 3.38217 25.0791C3.00525 27.5856 2.66592 30.0966 2.36408 32.6108ZM40.6452 14.2743C66.1667 12.0557 91.8333 12.0557 117.355 14.2743L129.94 15.3683C136.226 15.9147 141.318 20.6982 142.257 26.9378C142.354 27.5858 142.449 28.2341 142.542 28.8826L96.2 54.6283C85.5033 60.5708 72.4967 60.5708 61.7999 54.6283L15.4587 28.883C15.5509 28.2343 15.6458 27.5859 15.7432 26.9378C16.6815 20.6982 21.7739 15.9147 28.06 15.3683L40.6452 14.2743ZM144.071 42.3324C145.687 61.23 145.082 80.2708 142.257 99.0616C141.318 105.302 136.226 110.085 129.94 110.632L117.355 111.726C91.8333 113.944 66.1667 113.944 40.6452 111.726L28.06 110.632C21.7739 110.085 16.6815 105.302 15.7432 99.0616C12.9174 80.2708 12.3128 61.2308 13.9292 42.3326L55.7293 65.555C70.2017 73.595 87.7983 73.595 102.27 65.555L144.071 42.3324Z" fill="white"/>
</svg>
