<svg width="200" height="200" viewBox="0 0 200 200" fill="none" xmlns="http://www.w3.org/2000/svg">
<path fill-rule="evenodd" clip-rule="evenodd" d="M48.6689 82.1363C63.5633 114.568 90.0675 140.353 123.015 154.325L123.119 154.369L129.484 157.206C137.59 160.818 147.117 158.253 152.313 151.06L162.933 136.363C163.582 135.465 163.414 134.217 162.553 133.521L144.013 118.564C143.092 117.821 141.736 117.994 141.031 118.945L133.816 128.682C132.063 131.047 128.898 131.868 126.218 130.655C101.581 119.505 81.783 99.7075 70.6336 75.0709C69.4201 72.3895 70.2418 69.2249 72.6063 67.4726L82.3428 60.2571C83.2943 59.552 83.4675 58.1969 82.7238 57.2752L67.7652 38.7332C67.0699 37.8714 65.8221 37.704 64.9243 38.3521L50.1468 49.0201C42.9069 54.2467 40.3573 63.8537 44.0528 71.9824L48.664 82.1254C48.6657 82.1291 48.6673 82.1327 48.6689 82.1363ZM118.083 165.811C82.2826 150.614 53.4878 122.589 37.3042 87.3409L37.2944 87.32L32.6736 77.1557C26.5144 63.6078 30.7637 47.596 42.8303 38.8851L57.6078 28.2171C63.8921 23.6804 72.6273 24.8521 77.4939 30.8845L92.4525 49.4266C97.6575 55.878 96.445 65.3646 89.785 70.3L84.2058 74.4346C93.6308 92.7209 108.567 107.658 126.853 117.082L130.988 111.503C135.923 104.843 145.41 103.631 151.862 108.836L170.401 123.792C176.435 128.66 177.606 137.399 173.065 143.683L162.445 158.381C153.784 170.368 137.906 174.643 124.398 168.624L118.083 165.811Z" fill="white"/>
</svg>
