<svg width="200" height="200" viewBox="0 0 200 200" fill="none" xmlns="http://www.w3.org/2000/svg">
<path fill-rule="evenodd" clip-rule="evenodd" d="M60.4166 83.3333C60.4166 61.4721 78.1387 43.75 100 43.75C121.861 43.75 139.583 61.4721 139.583 83.3333C139.583 105.195 121.861 122.917 100 122.917C78.1387 122.917 60.4166 105.195 60.4166 83.3333ZM100 56.25C85.0425 56.25 72.9166 68.3756 72.9166 83.3333C72.9166 98.2908 85.0425 110.417 100 110.417C114.958 110.417 127.083 98.2908 127.083 83.3333C127.083 68.3756 114.958 56.25 100 56.25Z" fill="white"/>
<path fill-rule="evenodd" clip-rule="evenodd" d="M29.3697 73.8071C32.3224 37.9853 62.257 10.4167 98.2 10.4167H101.8C137.743 10.4167 167.678 37.9853 170.63 73.8071C172.217 93.05 166.273 112.158 154.05 127.105L114.108 175.953C106.817 184.871 93.1833 184.871 85.8917 175.953L45.9497 127.105C33.7275 112.158 27.7835 93.05 29.3697 73.8071ZM98.2 22.9167C68.7624 22.9167 44.2457 45.4957 41.8274 74.834C40.5073 90.8492 45.4543 106.752 55.6265 119.193L95.5683 168.041C97.8592 170.842 102.141 170.842 104.432 168.041L144.373 119.193C154.546 106.752 159.493 90.8492 158.173 74.834C155.754 45.4957 131.238 22.9167 101.8 22.9167H98.2Z" fill="white"/>
</svg>
