<svg width="200" height="200" viewBox="0 0 200 200" fill="none" xmlns="http://www.w3.org/2000/svg">
<path d="M175 166.667H160.833V118.333C160.833 113.333 157.5 110 152.5 110C147.5 110 144.167 113.333 144.167 118.333V166.667H125.833V118.333C125.833 113.333 122.5 110 117.5 110C112.5 110 109.167 113.333 109.167 118.333V166.667H90.8333V118.333C90.8333 113.333 87.5 110 82.5 110C77.5 110 74.1667 113.333 74.1667 118.333V166.667H55.8333V118.333C55.8333 113.333 52.5 110 47.5 110C42.5 110 39.1667 113.333 39.1667 118.333V166.667H25C20 166.667 16.6667 170 16.6667 175C16.6667 180 20 183.333 25 183.333H175C180 183.333 183.333 180 183.333 175C183.333 170 180 166.667 175 166.667Z" fill="white"/>
<path d="M175 50L112.5 19.1666C104.167 15 95 15 87.5 19.1666L25 50C20 52.5 16.6667 58.3333 16.6667 63.3333V82.5C16.6667 90.8333 23.3333 97.5 31.6667 97.5H168.333C176.667 97.5 183.333 90.8333 183.333 82.5V63.3333C183.333 57.5 180 52.5 175 50ZM166.667 80.8333H33.3333V64.1666L95 34.1666C98.3333 32.5 102.5 32.5 105.833 34.1666L166.667 65V80.8333Z" fill="white"/>
</svg>
