<svg xmlns="http://www.w3.org/2000/svg" viewBox="0 0 228.27 141.21"><defs><style>.cls-1{fill:red;}</style></defs><g id="Capa_2" data-name="Capa 2"><g id="Capa_1-2" data-name="Capa 1"><path class="cls-1" d="M68.84,83.06a10.6,10.6,0,0,0,.2,21.2,10.6,10.6,0,1,0-.2-21.2Zm.34,3.8c6.6,0,5.41,4.69,5.41,4.69h-11S62.16,86.87,69.18,86.86Zm-3.44,11a.39.39,0,0,1-.39.39H65v1a.74.74,0,0,1-.74.74h0a.74.74,0,0,1-.74-.74v-1h-.38a.39.39,0,0,1-.39-.39V96.33a.14.14,0,0,1,.14-.14h1.27l.1,0h0l.1,0h1.29a.11.11,0,0,1,.11.11ZM65,95h-.94a1,1,0,1,1,0-2.07H65A1,1,0,0,1,65,95Zm5.78,2.51a1.7,1.7,0,0,1-1.7,1.7h-.43a1.7,1.7,0,0,1-1.7-1.7V94.28a1.71,1.71,0,0,1,1.7-1.7h.43a1.7,1.7,0,0,1,1.7,1.7ZM73.12,93h.94a1,1,0,1,1,0,2.07h-.94a1,1,0,1,1,0-2.07Zm2.1,4.93a.39.39,0,0,1-.39.39h-.37v1a.74.74,0,0,1-.74.74h0a.74.74,0,0,1-.74-.74v-1H72.6a.39.39,0,0,1-.39-.39V96.33a.14.14,0,0,1,.14-.14h1.27l.1,0h0l.1,0h1.29a.11.11,0,0,1,.11.11Z"/><path class="cls-1" d="M113.77,94.33a10.6,10.6,0,0,0,.19,21.2,10.6,10.6,0,1,0-.19-21.2Zm.11,3.37c1.67,0,4.64,2.79,4.64,5.69s-2.93,4.44-4.68,4.36c-2.14-.1-4.57-1.41-4.57-4.31S112.37,97.66,113.88,97.7Zm5.65,13.44h-.38v.52c0,.77-.32.9-1.09.9s-1.08-.13-1.08-.9v-.52l-5.91,0v.52c0,.77-.27,1-1,1s-1.09-.17-1.09-.94v-.52l-.38,0c-.45,0-1.09-.37-1.09-.82a.82.82,0,0,1,.82-.81l.65,0v-.4c0-.77.21-1.44,1-1.44s1.15.65,1.15,1.42v.4l5.86,0v-.4c0-.77.3-1.4,1.07-1.4a1.28,1.28,0,0,1,1.24,1.4v.4h.64a.82.82,0,0,1,.82.81C120.7,110.77,120,111.14,119.53,111.14Z"/><path class="cls-1" d="M159.1,82.67a10.66,10.66,0,1,0,10.64,10.74C169.76,87.79,164.66,82.64,159.1,82.67Zm-4.65,9a4.94,4.94,0,0,1,1.23-.64,8.85,8.85,0,0,1,2.19-.28V86.36h2.26v4.39s1.51.12,2.22.25a3.5,3.5,0,0,1,1.45.79,6.53,6.53,0,0,1,.43,1.14h-.63s-2.25-.64-2.84-.75a20.92,20.92,0,0,0-3.56.08c-.48.17-2.43.75-2.43.75H154A8.34,8.34,0,0,1,154.45,91.67Zm10,5.09-.8,1.79A1.83,1.83,0,0,1,162,99.63H156.5a2.1,2.1,0,0,1-1.79-1l-1.12-1.86a1.39,1.39,0,0,1,.06-1.49l.2-.28,2.87-1.14a2.41,2.41,0,0,1,.84-.16h2.86a2.46,2.46,0,0,1,.76.12L164.53,95l0,.15A2.42,2.42,0,0,1,164.43,96.76Z"/><path class="cls-1" d="M114.09,76.53a28.37,28.37,0,1,0,28.37,28.37A28.37,28.37,0,0,0,114.09,76.53Zm0,53.54a25.18,25.18,0,1,1,25.17-25.17A25.17,25.17,0,0,1,114.09,130.07Z"/><path class="cls-1" d="M68.8,65.17A28.37,28.37,0,1,0,97.17,93.54,28.37,28.37,0,0,0,68.8,65.17Zm0,53.54A25.17,25.17,0,1,1,94,93.54,25.17,25.17,0,0,1,68.8,118.71Z"/><path class="cls-1" d="M159.37,65.17a28.37,28.37,0,1,0,28.37,28.37A28.37,28.37,0,0,0,159.37,65.17Zm0,53.54a25.17,25.17,0,1,1,25.17-25.17A25.17,25.17,0,0,1,159.37,118.71Z"/><path class="cls-1" d="M103.77,45.32H97.05V14c2.62,0,9.54.12,9.54.12s5.12,15.06,7.56,22.29C115,34.58,121.91,14,121.91,14l9.3,0V45.32h-6.06V24c-.33-.07-8.43,21.33-8.43,21.33h-5.19S106.6,30.05,103.77,24Z"/><path class="cls-1" d="M81.54,16.3s.94,3.42,1.32,5L66.8,25.42c.52,2.39,1,4.5,1.59,7.21,4-.91,14.88-3.38,14.88-3.38l.94,4.58S75,35.93,69.78,37.29c.65,2.82,1.26,5.44,1.93,8.29l16.25-4,1.11,4.81L66.8,52,59.6,21.94Z"/><path class="cls-1" d="M47.27,35.89C45.38,37.39,42,39.46,42,39.46a6.66,6.66,0,0,0-1.73-1.89c-2.41-1.63-8.29.84-9.27,3.68-.93,2.68.73,5.63,3.64,5.08,3.35-.63,6.83-2.23,10.14-3.1,4.25-1.12,7.54,0,9.68,3.18a9.15,9.15,0,0,1-.24,10.69c-4.4,6-12.5,9.49-18.3,6.2-1.38-.79-2.35-2.2-3.91-3.44a49.6,49.6,0,0,1,5-3.6,13.6,13.6,0,0,0,2.23,2.35c2.57,2,9.78-1.25,11-4.45,1.09-2.88-.46-5.44-3.56-5.1-3.58.4-7.26,1.67-10.79,2.52-5.29,1.26-9.1-.93-10.4-6.21a9.35,9.35,0,0,1,.24-4.06c1.51-6.08,11.6-11.31,16.92-8.88A15.71,15.71,0,0,1,47.27,35.89Z"/><path class="cls-1" d="M143.29,48.13l-5.74-1.6,19.77-26.64,6.28,1.88L166,54.92l-5.78-1.59-.5-7.78L148.28,42Zm7.22-9.79,8.83,2.39c-.24-4.45-1.09-13.53-1.09-13.53S153.15,34.57,150.51,38.34Z"/><polygon class="cls-1" points="201.95 46.64 194.08 41.78 180.35 62.96 175.41 59.53 188.47 38.35 180.6 33.24 183.5 28.73 204.59 42.1 201.95 46.64"/><path class="cls-1" d="M114.14,0C51.1,0,0,31.61,0,70.61s51.1,70.6,114.14,70.6,114.13-31.61,114.13-70.6S177.17,0,114.14,0Zm-.4,137.07C53.15,137.07,4,107.3,4,70.59S53.15,4.11,113.74,4.11,223.46,33.87,223.46,70.59,174.34,137.07,113.74,137.07Z"/></g></g></svg>