<svg width="37" height="25" viewBox="0 0 37 25" fill="none" xmlns="http://www.w3.org/2000/svg">
<path d="M12.2442 21.6856C11.7489 23.3705 10.6875 24.4577 8.89926 24.8883C6.81965 25.3889 4.39112 24.1514 3.79055 22.2077C3.65655 21.774 3.46134 21.6682 3.012 21.6751C1.43105 21.6996 0.421841 21.0222 0.0863969 19.7473C0.0239035 19.5099 0.0187535 19.2545 0.0185554 19.0074C0.0148909 13.5704 0.0395516 8.13325 0.00033224 2.69656C-0.010562 1.18479 1.20167 -0.00782531 2.90128 -0.000331085C9.19608 0.0273976 15.4911 0.0098798 21.786 0.011285C23.5499 0.0116597 24.6485 1.04774 24.6613 2.72082C24.667 3.46491 24.6623 4.20918 24.6623 5.01012C24.9097 5.01012 25.1025 5.00937 25.2953 5.01022C26.8769 5.01724 28.4584 5.01837 30.0399 5.0342C30.9289 5.0431 31.6115 5.4475 32.1324 6.10184C33.4793 7.79404 34.8209 9.49017 36.156 11.1908C36.7795 11.9849 36.9918 12.9045 36.9957 13.8736C37.0023 15.5405 37.0004 17.2074 36.9969 18.8744C36.993 20.6599 35.9072 21.681 34.0155 21.6856C33.8189 21.6861 33.6224 21.6857 33.4971 21.6857C33.1645 22.2754 32.9197 22.8586 32.5418 23.3502C31.5154 24.6858 30.0499 25.1826 28.375 24.9383C26.6902 24.6925 25.4911 23.7594 24.9381 22.2024C24.7904 21.7866 24.5976 21.6726 24.1463 21.6749C20.3727 21.6941 16.599 21.6858 12.8254 21.6858C12.6452 21.6856 12.465 21.6856 12.2442 21.6856ZM22.8818 19.9917C22.8818 19.8176 22.8818 19.6664 22.8818 19.5152C22.8818 13.9564 22.8821 8.39761 22.8815 2.83876C22.8814 1.91679 22.6404 1.6914 21.6589 1.6913C15.433 1.69112 9.20717 1.6913 2.9813 1.69149C2.84958 1.69149 2.71776 1.6913 2.58614 1.69636C2.19067 1.71154 1.93555 1.9196 1.82928 2.26049C1.7656 2.4649 1.76233 2.69103 1.76223 2.90743C1.75886 8.20154 1.75926 13.4957 1.76114 18.7898C1.76124 18.9603 1.76867 19.1332 1.79898 19.3007C1.88048 19.7516 2.20276 19.9893 2.74301 20.0149C3.58316 20.0547 3.55909 20.0465 3.78302 19.4641C4.90533 16.544 8.62146 15.8481 10.8553 17.7459C11.5738 18.3564 11.9996 19.1282 12.2395 19.9918C15.7941 19.9917 19.3125 19.9917 22.8818 19.9917ZM24.6932 20.0197C24.787 19.8371 24.8257 19.7852 24.8414 19.7278C25.3458 17.8876 27.3181 16.376 29.7621 16.7463C31.4981 17.0093 32.6397 17.9869 33.2172 19.5262C33.3587 19.9032 33.4915 20.0794 33.9109 20.0186C34.0559 19.9976 34.208 20.024 34.3548 20.0096C34.8934 19.9571 35.2122 19.6309 35.2287 19.1167C35.2365 18.8732 35.1931 14.4647 35.1931 13.366C34.975 13.366 34.7946 13.366 34.6142 13.366C32.2753 13.366 29.9364 13.3686 27.5975 13.3646C26.7564 13.3631 26.4335 13.0524 26.4312 12.2613C26.4285 11.3114 26.4279 10.3616 26.4314 9.41167C26.4342 8.6466 26.7506 8.34749 27.5767 8.34253C28.6637 8.33597 29.7509 8.34084 30.8379 8.34084C31.0937 8.34084 31.3495 8.34084 31.717 8.34084C31.2872 7.81615 30.9555 7.35413 30.556 6.95244C30.4008 6.79637 30.0945 6.71384 29.8531 6.70588C28.9812 6.67721 28.1075 6.69445 27.2346 6.69445C26.3974 6.69445 25.5602 6.69445 24.6931 6.69445C24.6932 11.1232 24.6932 15.5042 24.6932 20.0197ZM7.9166 23.3193C9.39802 23.316 10.5445 22.232 10.5447 20.8343C10.5449 19.4598 9.33969 18.3291 7.8956 18.3484C6.48272 18.3675 5.27395 19.5098 5.26969 20.8299C5.26533 22.1888 6.47093 23.3226 7.9166 23.3193ZM31.7012 20.9029C31.7498 19.5451 30.593 18.4006 29.1214 18.3505C27.7288 18.3031 26.479 19.4226 26.4319 20.7594C26.3834 22.1364 27.5169 23.2662 28.996 23.3151C30.4615 23.3636 31.6511 22.3028 31.7012 20.9029ZM28.2167 11.6565C30.2682 11.6565 32.2623 11.6565 34.3429 11.6565C33.9474 11.1595 33.6134 10.7035 33.2341 10.2842C33.1079 10.1447 32.8664 10.0258 32.6755 10.0227C31.3116 10.0006 29.9471 10.01 28.5828 10.0126C28.4592 10.0128 28.3357 10.0356 28.2167 10.0474C28.2167 10.5985 28.2167 11.1085 28.2167 11.6565Z" fill="white"/>
</svg>
