<svg width="46" height="82" viewBox="0 0 46 82" fill="none" xmlns="http://www.w3.org/2000/svg">
<path d="M0 0H46V62C46 73.0457 37.0457 82 26 82H20C8.95431 82 0 73.0457 0 62V0Z" fill="#FD9009"/>
<g clip-path="url(#clip0_338_826)">
<path d="M15.988 64.9072C14.6919 64.806 13.7517 64.0363 13.4118 62.8246C13.028 61.4567 13.4456 60.1024 14.513 59.3164C14.6866 59.1887 14.7495 59.0634 14.7492 58.8474C14.7428 54.9382 14.742 51.029 14.7507 47.1199C14.7513 46.8839 14.6763 46.795 14.4693 46.7174C13.1746 46.2321 11.8855 45.7309 10.5953 45.2329C10.4821 45.1892 10.364 45.1463 10.266 45.0766C10.0169 44.8998 9.93574 44.6473 10.0519 44.3618C10.1607 44.0945 10.3741 43.965 10.6632 44.0093C10.7713 44.0258 10.8788 44.0588 10.9814 44.0983C12.4393 44.6584 13.8965 45.2204 15.3533 45.7835C15.8227 45.965 15.9267 46.1236 15.9283 46.6479C15.9295 47.0544 15.9285 47.4609 15.9285 47.9273C16.0985 47.9273 16.2469 47.9273 16.3953 47.9273C22.6053 47.9273 28.8154 47.9271 35.0255 47.9284C35.1796 47.9284 35.335 47.9328 35.4874 47.9539C35.7611 47.9918 35.9422 48.1693 35.967 48.4392C36.0164 48.9771 36.0443 49.5026 35.7926 50.0288C34.295 53.1602 32.8151 56.3006 31.3467 59.4464C31.1409 59.8872 30.86 60.0617 30.3931 60.0608C25.6747 60.0518 20.9563 60.0644 16.2381 60.0471C15.3688 60.0439 14.9132 60.3068 14.578 61.1109C14.2628 61.8674 14.4798 62.8293 15.0724 63.3196C15.3085 63.5149 15.6284 63.6036 15.8528 63.713C16.1788 63.205 16.3983 62.7236 16.7373 62.3592C18.0608 60.9364 20.446 61.4955 21.0605 63.358C21.1446 63.6128 21.2522 63.6773 21.5005 63.675C22.8706 63.662 24.2409 63.6688 25.6111 63.6688C25.7202 63.6688 25.8293 63.6688 25.8978 63.6688C26.0816 63.2442 26.2093 62.8281 26.4265 62.4689C27.1834 61.2167 28.9478 60.8848 30.1318 61.7452C31.3553 62.6344 31.6337 64.4098 30.7353 65.5936C29.4858 67.24 27.0997 66.9943 26.2256 65.1246C26.1498 64.9623 26.0733 64.8879 25.8848 64.889C24.3931 64.8982 22.9013 64.8971 21.4095 64.8903C21.2251 64.8894 21.1478 64.9461 21.0854 65.132C20.701 66.2763 19.7207 66.998 18.5796 67.0005C17.4476 67.003 16.496 66.3036 16.0832 65.1659C16.0527 65.0819 16.0214 64.998 15.988 64.9072ZM15.9491 49.1484C15.9491 52.3913 15.9491 55.5931 15.9491 58.8138C16.0432 58.8199 16.1182 58.8291 16.1931 58.8291C20.812 58.8297 25.4309 58.828 30.0498 58.8352C30.2546 58.8355 30.3325 58.747 30.412 58.5789C31.8415 55.5564 33.2768 52.5369 34.7086 49.5156C34.7618 49.4033 34.7918 49.2794 34.837 49.1484C28.5165 49.1484 22.2433 49.1484 15.9491 49.1484ZM27.1465 63.9899C27.1504 64.8148 27.8292 65.4995 28.632 65.4886C29.4468 65.4775 30.0965 64.7956 30.0871 63.9615C30.0776 63.1231 29.4091 62.448 28.6042 62.4638C27.788 62.48 27.1424 63.1557 27.1465 63.9899ZM18.5612 62.7785C17.735 62.7847 17.0959 63.4567 17.1098 64.3047C17.1235 65.1428 17.7575 65.7837 18.5731 65.7844C19.3995 65.785 20.0502 65.1186 20.0463 64.2755C20.0425 63.4315 19.3885 62.7723 18.5612 62.7785Z" fill="white"/>
</g>
<defs>
<clipPath id="clip0_338_826">
<rect width="26" height="23" fill="white" transform="translate(10 44)"/>
</clipPath>
</defs>
</svg>
