<svg width="74" height="59" viewBox="0 0 74 59" fill="none" xmlns="http://www.w3.org/2000/svg">
<path d="M72.069 24.442H54.8336L29.1734 0.480026C28.4889 -0.159358 27.4152 -0.159358 26.7301 0.480026L0.555362 24.922C0.202417 25.2515 0 25.7157 0 26.1954V57.2467C0 58.2135 0.797506 59.0001 1.77743 59.0001C2.75735 59.0001 3.55486 58.2132 3.55486 57.2467V26.9507L27.9519 4.16777L49.6637 24.442H41.5765C33.0863 24.442 26.1788 31.2571 26.1788 39.6342V57.247C26.1788 58.2137 26.976 59.0004 27.9559 59.0004H54.1342C55.1141 59.0004 55.9113 58.2135 55.9113 57.247V27.9491H72.0693C73.0492 27.9491 73.8464 27.1622 73.8464 26.1954C73.8464 25.2286 73.0489 24.442 72.069 24.442ZM41.5762 27.9491H52.3567V55.4933H29.7331V39.6342C29.7331 33.1909 35.0459 27.9491 41.5762 27.9491Z" fill="white"/>
</svg>
