<svg width="34" height="25" viewBox="0 0 34 25" fill="none" xmlns="http://www.w3.org/2000/svg">
<path d="M16.9829 0.000299561C22.302 3.99199e-06 27.6212 -9.4531e-05 32.9404 0.000102515C33.9066 0.000201038 33.9977 0.0854233 33.9976 0.975874C33.9973 2.50229 34.0047 4.0288 33.995 5.55522C33.9884 6.58636 33.5185 7.40213 32.5855 7.93159C32.2593 8.11682 32.1868 8.32096 32.1874 8.64184C32.194 13.3361 32.1887 18.0303 32.192 22.7246C32.1933 24.6049 31.7777 25.0002 29.7769 25C21.3287 24.9989 12.8807 24.9991 4.43262 24.9994C2.90579 24.9995 2.34892 24.4803 2.34881 23.0493C2.3486 18.3223 2.34453 13.5952 2.35685 8.86815C2.35789 8.47574 2.25626 8.27642 1.8367 8.11839C0.676427 7.68154 0.0513168 6.81789 0.0225185 5.64517C-0.017966 4.00476 0.00686726 2.36268 0.0132321 0.721389C0.0154233 0.147493 0.20689 0.000989221 0.921108 0.000792176C6.17074 -0.000488623 11.4204 0.000398084 16.67 0.000496607C16.7743 0.00059513 16.8786 0.00059513 16.9829 0.000299561ZM9.94822 7.29415C9.32071 7.99012 8.54305 8.35504 7.60377 8.35179C6.67064 8.34854 5.91938 7.92992 5.35708 7.37041C4.84957 7.66351 4.43084 7.96381 3.96245 8.15593C3.6343 8.29051 3.52818 8.43455 3.52892 8.76352C3.53977 13.5576 3.5358 18.3518 3.53768 23.1459C3.53789 23.7842 3.63879 23.8738 4.33433 23.8739C8.6813 23.8748 13.0283 23.8744 17.3752 23.8741C18.0634 23.874 18.0647 23.8732 18.0648 23.2404C18.0655 19.7116 18.0644 16.1828 18.0662 12.654C18.0665 11.9556 18.2181 11.7984 18.9416 11.7967C21.5277 11.7907 24.1139 11.7918 26.7 11.7962C27.3293 11.7972 27.494 11.9609 27.5017 12.5686C27.5093 13.1595 27.504 13.7507 27.504 14.3417C27.5041 17.3462 27.5116 20.3508 27.4952 23.3553C27.493 23.7644 27.6194 23.9013 28.0541 23.8823C28.7482 23.8519 29.4447 23.8753 30.1402 23.8739C30.9469 23.8723 31.0013 23.8215 31.0014 23.0639C31.0016 18.6967 31.0012 14.3294 31.001 9.96215C31.001 9.53525 31.0151 9.10766 30.9905 8.68204C30.9838 8.56697 30.8726 8.3713 30.7868 8.35958C29.9637 8.24746 29.288 7.88243 28.7401 7.31139C27.1477 8.77731 25.3506 8.60874 24.0479 7.33592C22.1053 8.71465 21.1752 8.71515 19.35 7.33819C17.4626 8.71495 16.67 8.71544 14.6466 7.34095C13.0818 8.805 11.2896 8.58342 9.94822 7.29415ZM32.7966 1.1406C22.2437 1.1406 11.7579 1.1406 1.24916 1.1406C1.2333 1.301 1.21003 1.42878 1.20972 1.55657C1.20721 2.86948 1.20095 4.1825 1.21128 5.49532C1.21879 6.45986 1.89837 7.17188 2.83264 7.22302C3.80657 7.27642 4.56962 6.6504 4.69097 5.66616C4.7351 5.30812 4.87273 5.05118 5.27382 5.03906C5.68065 5.02664 5.82871 5.28172 5.88495 5.63739C6.04449 6.64607 6.72458 7.24095 7.66616 7.22548C8.59021 7.21031 9.24965 6.60666 9.37966 5.62645C9.42494 5.28477 9.57488 5.05433 9.94905 5.043C10.3476 5.03088 10.521 5.25226 10.5708 5.6233C10.703 6.60981 11.3639 7.21415 12.281 7.2244C13.2348 7.23513 13.9374 6.6305 14.074 5.64458C14.1238 5.28546 14.2583 5.03541 14.671 5.04132C15.0809 5.04724 15.1978 5.31404 15.2749 5.65729C15.3484 5.98508 15.4533 6.33877 15.6586 6.60143C16.088 7.1508 16.7218 7.35317 17.4199 7.17809C18.1995 6.98262 18.6567 6.47454 18.7371 5.70064C18.775 5.3367 18.9019 5.04241 19.3457 5.04132C19.795 5.04024 19.89 5.33473 19.9407 5.70133C20.0703 6.63779 20.7974 7.2372 21.736 7.2242C22.6277 7.21178 23.3142 6.59602 23.4338 5.6631C23.4796 5.30625 23.6085 5.04832 24.018 5.04339C24.4569 5.03817 24.5869 5.31029 24.6343 5.68655C24.7503 6.60774 25.4491 7.21661 26.3548 7.22656C27.2594 7.23651 27.9759 6.63562 28.1109 5.72369C28.1667 5.34734 28.2659 5.02004 28.7459 5.04034C29.1842 5.05886 29.2761 5.3628 29.3235 5.72645C29.4457 6.66498 30.2306 7.27819 31.1882 7.22183C32.1022 7.16804 32.782 6.46518 32.7929 5.5368C32.8044 4.5358 32.7963 3.53461 32.7966 2.53352C32.7967 2.07864 32.7966 1.62406 32.7966 1.1406ZM26.2694 23.8744C26.2694 20.1845 26.2694 16.5703 26.2694 12.944C23.924 12.944 21.6232 12.944 19.2624 12.944C19.2624 13.1984 19.2624 13.408 19.2624 13.6175C19.2624 15.6668 19.2622 17.7161 19.2623 19.7655C19.2623 20.9798 19.2754 22.1943 19.255 23.4083C19.2487 23.7785 19.3792 23.8858 19.7638 23.8815C21.3103 23.864 22.8571 23.8743 24.4038 23.8744C25.0094 23.8744 25.6152 23.8744 26.2694 23.8744Z" fill="white"/>
<path d="M10.4144 21.8039C8.95426 21.8033 7.494 21.8048 6.03385 21.8027C5.29886 21.8016 5.1363 21.652 5.13588 20.9751C5.1339 18.2011 5.13359 15.4272 5.13453 12.6532C5.13473 11.9397 5.2878 11.795 6.05941 11.7944C8.9624 11.7922 11.8654 11.7922 14.7684 11.7951C15.6089 11.7959 15.7456 11.9279 15.7457 12.7029C15.746 15.444 15.7457 18.1851 15.745 20.9262C15.7448 21.672 15.6013 21.8042 14.795 21.8044C13.3347 21.8048 11.8746 21.8045 10.4144 21.8039ZM14.5474 12.9601C11.7581 12.9601 9.06132 12.9601 6.36993 12.9601C6.35261 13.0532 6.33591 13.1014 6.33581 13.1497C6.33268 15.5284 6.33831 17.9073 6.32204 20.286C6.31932 20.6757 6.53072 20.6974 6.84333 20.6966C9.22357 20.691 11.604 20.6814 13.9841 20.7033C14.4693 20.7078 14.5588 20.532 14.5554 20.1258C14.5385 18.0752 14.5475 16.0245 14.5474 13.9737C14.5474 13.648 14.5474 13.3223 14.5474 12.9601Z" fill="white"/>
</svg>
