<svg width="32" height="32" viewBox="0 0 32 32" fill="none" xmlns="http://www.w3.org/2000/svg">
<path d="M8.06376 21V11.76H14.5458V12.81H9.18376V15.792H13.3558V16.842H9.18376V19.95H14.7558V21H8.06376ZM19.9595 11.62C20.7715 11.62 21.4715 11.788 22.0595 12.124C22.6475 12.4507 23.1375 12.936 23.5295 13.58L22.5915 14.308C22.2462 13.7107 21.8542 13.2907 21.4155 13.048C20.9862 12.796 20.4635 12.67 19.8475 12.67C19.3528 12.67 18.9422 12.74 18.6155 12.88C18.2982 13.02 18.0648 13.2067 17.9155 13.44C17.7662 13.664 17.6915 13.9207 17.6915 14.21C17.6915 14.5367 17.7942 14.826 17.9995 15.078C18.2048 15.3207 18.6155 15.512 19.2315 15.652L21.2335 16.1C22.1202 16.296 22.7362 16.5947 23.0815 16.996C23.4362 17.388 23.6135 17.878 23.6135 18.466C23.6135 18.9887 23.4642 19.4553 23.1655 19.866C22.8762 20.2673 22.4655 20.58 21.9335 20.804C21.4015 21.028 20.7762 21.14 20.0575 21.14C19.3855 21.14 18.7928 21.0513 18.2795 20.874C17.7755 20.6873 17.3415 20.44 16.9775 20.132C16.6135 19.824 16.3148 19.4787 16.0815 19.096L17.0615 18.298C17.2388 18.6527 17.4675 18.9653 17.7475 19.236C18.0275 19.5067 18.3635 19.7167 18.7555 19.866C19.1568 20.0153 19.6142 20.09 20.1275 20.09C20.6035 20.09 21.0142 20.034 21.3595 19.922C21.7142 19.8007 21.9848 19.628 22.1715 19.404C22.3582 19.1707 22.4515 18.8907 22.4515 18.564C22.4515 18.2653 22.3535 17.9993 22.1575 17.766C21.9615 17.5233 21.5928 17.3413 21.0515 17.22L18.8815 16.73C18.3122 16.5993 17.8502 16.422 17.4955 16.198C17.1502 15.9647 16.8982 15.694 16.7395 15.386C16.5902 15.0687 16.5155 14.728 16.5155 14.364C16.5155 13.8693 16.6508 13.4167 16.9215 13.006C17.2015 12.586 17.5982 12.25 18.1115 11.998C18.6342 11.746 19.2502 11.62 19.9595 11.62Z" fill="#423EAF"/>
<circle cx="16" cy="16" r="15.5" stroke="#423EAF"/>
</svg>
