<svg width="748" height="599" viewBox="0 0 748 599" fill="none" xmlns="http://www.w3.org/2000/svg">
<g clip-path="url(#clip0_338_199)">
<path d="M581.972 551.8C754.847 488.413 820.229 266.48 643.199 240.376C394.454 203.698 336.557 104.647 235.4 89.2672C56.7814 62.1104 -35.2078 221.103 12.4952 368.154C85.1967 592.265 307.136 652.573 581.972 551.8Z" fill="url(#paint0_linear_338_199)"/>
<path d="M607.142 213.669L316.887 219.533C308.161 219.533 125.398 333.893 125.398 333.893C121.037 336.413 121.037 340.535 125.398 343.054L391.859 496.92C394.053 498.187 396.949 498.815 399.84 498.809V498.81H406.771L594.358 390.488L602.102 386.016L607.142 213.669Z" fill="url(#paint1_linear_338_199)"/>
<path d="M583.758 373.15C583.758 378.189 580.19 380.249 575.827 377.73L309.367 223.865C305.003 221.346 301.435 215.163 301.435 210.125V9.11048C301.435 4.07131 305.003 2.01098 309.367 4.53013L575.827 158.396C580.19 160.915 583.758 167.1 583.758 172.137V373.15Z" fill="#423EAF"/>
<path d="M581.814 154.938L315.353 1.07229C313.143 -0.203101 311.141 -0.300668 309.699 0.564246V0.56073L303.998 3.86656L304.014 3.86832C305.427 3.1836 307.304 3.34093 309.366 4.53019L575.826 158.396C580.189 160.915 583.758 167.1 583.758 172.137V373.15C583.758 375.651 582.877 377.417 581.458 378.255V378.257L587.154 374.952L587.136 374.949C588.733 374.193 589.745 372.368 589.745 369.694V168.681C589.746 163.641 586.175 157.458 581.814 154.938Z" fill="url(#paint2_linear_338_199)"/>
<path d="M575.827 365.416L309.366 211.55V13.6909L575.827 167.557V365.416Z" fill="white"/>
<path d="M395.136 485.55C390.776 488.07 383.636 488.07 379.273 485.55L112.812 331.685C108.451 329.165 108.451 325.043 112.812 322.524L294.436 217.647C298.797 215.129 305.937 215.129 310.299 217.647L576.759 371.514C581.123 374.031 581.123 378.153 576.759 380.673L395.136 485.55Z" fill="#E9EDF6"/>
<path d="M310.578 239.468L297.547 231.942L304.064 228.181L317.094 235.705L310.578 239.468Z" fill="#D8DEF0"/>
<path d="M332.526 252.142L319.493 244.616L326.01 240.853L339.04 248.378L332.526 252.142Z" fill="#D8DEF0"/>
<path d="M354.473 264.813L341.442 257.288L347.956 253.526L360.989 261.052L354.473 264.813Z" fill="#D8DEF0"/>
<path d="M376.419 277.489L363.39 269.965L369.906 266.2L382.936 273.726L376.419 277.489Z" fill="#D8DEF0"/>
<path d="M398.368 290.161L385.337 282.637L391.853 278.875L404.884 286.4L398.368 290.161Z" fill="#D8DEF0"/>
<path d="M420.317 302.837L407.286 295.31L413.799 291.549L426.833 299.072L420.317 302.837Z" fill="#D8DEF0"/>
<path d="M442.263 315.51L429.233 307.986L435.75 304.221L448.779 311.745L442.263 315.51Z" fill="#D8DEF0"/>
<path d="M464.212 328.182L451.18 320.658L457.697 316.894L470.727 324.421L464.212 328.182Z" fill="#D8DEF0"/>
<path d="M486.16 340.856L473.128 333.332L479.643 329.567L492.676 337.093L486.16 340.856Z" fill="#D8DEF0"/>
<path d="M508.106 353.529L495.075 346.004L501.592 342.242L514.622 349.766L508.106 353.529Z" fill="#D8DEF0"/>
<path d="M530.055 366.204L517.023 358.677L523.541 354.916L536.571 362.442L530.055 366.204Z" fill="#D8DEF0"/>
<path d="M552.003 378.877L538.971 371.351L545.487 367.588L558.519 375.114L552.003 378.877Z" fill="#D8DEF0"/>
<path d="M299.026 258.143L275.6 244.616L288.629 237.092L312.058 250.62L299.026 258.143Z" fill="#D8DEF0"/>
<path d="M286.906 275.44L254.564 256.763L267.596 249.237L299.94 267.916L286.906 275.44Z" fill="#D8DEF0"/>
<path d="M273.876 293.263L232.616 269.437L245.645 261.912L286.905 285.739L273.876 293.263Z" fill="#D8DEF0"/>
<path d="M229.485 298.301L206.056 284.774L223.698 274.586L247.128 288.114L229.485 298.301Z" fill="#D8DEF0"/>
<path d="M261.83 316.98L238.401 303.451L256.043 293.263L279.472 306.792L261.83 316.98Z" fill="#D8DEF0"/>
<path d="M294.173 335.656L270.747 322.129L288.389 311.941L311.816 325.47L294.173 335.656Z" fill="#D8DEF0"/>
<path d="M405.697 400.056L382.268 386.525L399.911 376.339L423.342 389.869L405.697 400.056Z" fill="#D8DEF0"/>
<path d="M460.513 431.708L414.559 405.172L432.202 394.984L478.154 421.52L460.513 431.708Z" fill="#D8DEF0"/>
<path d="M373.405 381.409L303.092 340.807L320.734 330.618L391.05 371.223L373.405 381.409Z" fill="#D8DEF0"/>
<path d="M327.118 274.365L307.945 263.294L320.973 255.77L340.149 266.841L327.118 274.365Z" fill="#D8DEF0"/>
<path d="M314.998 291.66L295.823 280.59L308.855 273.063L328.029 284.134L314.998 291.66Z" fill="#D8DEF0"/>
<path d="M302.567 309.137L283.394 298.066L296.424 290.54L315.598 301.612L302.567 309.137Z" fill="#D8DEF0"/>
<path d="M330.656 325.356L311.483 314.285L324.513 306.759L343.687 317.832L330.656 325.356Z" fill="#D8DEF0"/>
<path d="M358.745 341.576L339.571 330.505L352.602 322.981L371.775 334.052L358.745 341.576Z" fill="#D8DEF0"/>
<path d="M386.836 357.796L367.662 346.726L380.694 339.201L399.864 350.271L386.836 357.796Z" fill="#D8DEF0"/>
<path d="M414.924 374.016L395.751 362.945L408.782 355.42L427.955 366.492L414.924 374.016Z" fill="#D8DEF0"/>
<path d="M443.013 390.237L423.84 379.165L436.871 371.639L456.044 382.71L443.013 390.237Z" fill="#D8DEF0"/>
<path d="M487.673 416.025L451.928 395.385L464.96 387.86L500.704 408.5L487.673 416.025Z" fill="#D8DEF0"/>
<path d="M343.088 307.88L323.914 296.809L336.947 289.285L356.118 300.356L343.088 307.88Z" fill="#D8DEF0"/>
<path d="M371.176 324.101L352.002 313.028L365.035 305.504L384.208 316.575L371.176 324.101Z" fill="#D8DEF0"/>
<path d="M399.264 340.321L380.091 329.25L393.125 321.724L412.297 332.797L399.264 340.321Z" fill="#D8DEF0"/>
<path d="M427.355 356.54L408.182 345.47L421.215 337.944L440.386 349.015L427.355 356.54Z" fill="#D8DEF0"/>
<path d="M455.444 372.762L436.271 361.689L449.304 354.165L468.478 365.235L455.444 372.762Z" fill="#D8DEF0"/>
<path d="M509.019 403.698L464.359 377.909L477.392 370.384L522.052 396.173L509.019 403.698Z" fill="#D8DEF0"/>
<path d="M355.207 290.585L336.033 279.514L349.065 271.99L368.237 283.062L355.207 290.585Z" fill="#D8DEF0"/>
<path d="M383.296 306.803L364.122 295.733L377.153 288.209L396.326 299.279L383.296 306.803Z" fill="#D8DEF0"/>
<path d="M411.384 323.023L392.212 311.952L405.241 304.43L424.415 315.501L411.384 323.023Z" fill="#D8DEF0"/>
<path d="M439.473 339.246L420.3 328.172L433.331 320.648L452.504 331.721L439.473 339.246Z" fill="#D8DEF0"/>
<path d="M467.564 355.465L448.39 344.394L461.42 336.871L480.595 347.94L467.564 355.465Z" fill="#D8DEF0"/>
<path d="M495.653 371.684L476.48 360.613L489.511 353.089L508.683 364.16L495.653 371.684Z" fill="#D8DEF0"/>
<path d="M530.055 391.549L504.57 376.833L517.601 369.309L543.086 384.025L530.055 391.549Z" fill="#D8DEF0"/>
<path d="M542.486 359.025L331.925 237.436L338.25 233.785L548.811 355.373L542.486 359.025Z" fill="#5652CC"/>
<path d="M373.402 397.12L265.955 335.074L199.187 373.628L306.635 435.673L373.402 397.12Z" fill="#D8DEF0"/>
<path d="M576.759 380.673L395.136 485.55C391.672 487.551 386.463 487.958 382.276 486.781C382.245 486.773 379.672 485.782 379.274 485.55L112.812 331.685C112.509 331.51 112.232 331.325 111.97 331.135C111.955 331.125 111.943 331.114 111.929 331.104H111.93C111.86 331.052 111.8 330.998 111.733 330.944C111.579 330.824 111.431 330.701 111.293 330.576C111.223 330.512 111.157 330.447 111.091 330.383C110.924 330.22 110.773 330.054 110.634 329.883C110.618 329.863 110.598 329.843 110.581 329.821C110.569 329.808 110.559 329.794 110.548 329.782C110.392 329.579 110.257 329.376 110.137 329.169C109.78 328.552 109.583 327.909 109.555 327.264H109.542V331.104H109.573C109.548 332.78 110.613 334.459 112.814 335.731L379.275 489.595C385.633 492.749 394.715 492.134 397.421 491.544C400.125 490.952 402.553 490.273 405.39 489.654L576.76 390.698C578.966 389.423 580.054 387.74 580.027 386.06V376.142C580.007 377.785 578.919 379.425 576.759 380.673Z" fill="url(#paint3_linear_338_199)"/>
<path d="M294.436 217.647L203.427 270.198H267.251L328.538 234.807L296.943 216.563C296.044 216.849 295.197 217.208 294.436 217.647Z" fill="url(#paint4_linear_338_199)"/>
<path d="M309.366 13.6909C309.366 15.8119 309.366 38.0729 309.366 40.1938C323.918 48.5969 561.274 185.657 575.826 194.06C575.826 191.939 575.826 169.678 575.826 167.556C561.274 159.154 323.918 22.0939 309.366 13.6909Z" fill="#20196F"/>
<path d="M356.054 50.665L454.413 107.462V113.936L356.054 57.1396V50.665Z" fill="#362E94"/>
<path d="M472.258 117.767L489.561 127.758V134.233L472.258 124.242V117.767Z" fill="#362E94"/>
<path d="M497.78 132.504L515.082 142.494V148.969L497.78 138.978V132.504Z" fill="#362E94"/>
<path d="M523.3 147.241L540.603 157.231V163.707L523.3 153.715V147.241Z" fill="#362E94"/>
<path d="M548.821 161.977L566.122 171.968V178.442L548.821 168.452V161.977Z" fill="#362E94"/>
<path d="M554.174 224.793V226.856L405.861 141.214V255.237L556.258 342.085V228.059L554.174 224.793Z" fill="url(#paint5_linear_338_199)"/>
<path d="M402.011 252.992L552.408 339.839V225.814L402.011 138.968V252.992Z" fill="#5652CC"/>
<path d="M547.648 228.562L406.771 147.213V250.246L547.648 331.595V228.562Z" fill="#E8EDF9"/>
<path d="M554.175 224.793L552.408 225.813V339.839L554.175 338.817V224.793Z" fill="#362E94"/>
<path d="M403.781 137.948L402.011 138.968L552.408 225.814L554.175 224.793L403.781 137.948Z" fill="#6D6C93"/>
<path d="M407.928 147.881L406.771 147.213V250.246L407.928 249.576V147.881Z" fill="#362E94"/>
<path d="M407.928 249.576L406.771 250.246L547.648 331.595V330.259L407.928 249.576Z" fill="#807DFB"/>
<path d="M392.407 240.93L334.676 207.593V96.5459L392.408 129.884L392.407 240.93Z" fill="#5652CC"/>
<path d="M326.26 101.402L334.676 96.5432V207.593L326.262 212.452L326.26 101.402Z" fill="#BDC3E3"/>
<path d="M326.26 212.452L334.676 207.593L392.407 240.93L383.995 245.79L326.26 212.452Z" fill="#E9EDF6"/>
<path d="M339.432 204.846L367.726 188.51L387.649 200.016V232.688L339.432 204.846Z" fill="url(#paint6_linear_338_199)"/>
<path d="M338.498 104.201L341.305 105.871V203.768L338.498 205.385V104.201Z" fill="#423EAF"/>
<path d="M339.432 104.79L340.37 105.331L340.368 204.307L339.432 204.846V104.79Z" fill="#BDC3E3"/>
<path d="M338.498 205.385L341.305 203.768L387.649 230.527V233.767L338.498 205.385Z" fill="#807DFB"/>
<path d="M339.432 204.846L340.37 204.307L387.649 231.608V232.688L339.432 204.846Z" fill="#BDC3E3"/>
<path d="M339.432 104.79C339.432 114.246 339.432 195.389 339.432 204.846C346.728 209.058 380.353 228.475 387.648 232.688C387.648 223.23 387.648 142.087 387.648 132.631C380.355 128.42 346.728 109.002 339.432 104.79Z" fill="#362E94"/>
<path d="M383.994 134.74L392.407 129.882V240.93L383.995 245.79L383.994 134.74Z" fill="white"/>
<path d="M326.26 101.402L334.676 96.5432L392.407 129.882L383.994 134.74L326.26 101.402Z" fill="white"/>
<path d="M339.432 200.846L387.649 145.317V132.631L339.432 104.79V200.846Z" fill="url(#paint7_linear_338_199)"/>
<path d="M354.983 213.823L387.649 200.016V232.688L354.983 213.823Z" fill="url(#paint8_linear_338_199)"/>
<path d="M574.206 234.369L560.734 196.721V216.873L552.322 221.731L538.921 229.468V229.469C538.921 229.5 538.918 229.527 538.918 229.558C539.681 230.359 540.516 231.041 541.391 231.546C545.016 233.641 547.954 231.943 547.954 227.758C547.954 231.943 550.893 237.033 554.517 239.126C558.142 241.219 561.083 239.524 561.083 235.339C561.083 239.524 564.018 244.614 567.646 246.707C571.269 248.801 574.206 247.103 574.21 242.918L574.206 234.369Z" fill="url(#paint9_linear_338_199)"/>
<path d="M504.57 264.473L560.734 216.815V196.664L506.711 251.568L504.57 264.473Z" fill="#BDC3E3"/>
<path d="M283.104 123.162L269.979 115.582L324.459 60.2266L337.585 67.806L283.104 123.162Z" fill="#FFAD02"/>
<path d="M296.232 130.742L283.104 123.162L337.585 67.8059L350.711 75.3853L296.232 130.742Z" fill="white"/>
<path d="M309.358 138.322L296.232 130.742L350.711 75.3855L363.838 82.9658L309.358 138.322Z" fill="#FFAD02"/>
<path d="M322.485 145.901L309.358 138.322L363.838 82.9658L376.965 90.5452L322.485 145.901Z" fill="white"/>
<path d="M335.613 153.482L322.485 145.901L376.965 90.5452L390.09 98.1255L335.613 153.482Z" fill="#FFAD02"/>
<path d="M348.739 161.062L335.613 153.482L390.09 98.1255L403.216 105.705L348.739 161.062Z" fill="white"/>
<path d="M361.866 168.641L348.739 161.062L403.216 105.705L416.343 113.285L361.866 168.641Z" fill="#FFAD02"/>
<path d="M374.992 176.221L361.866 168.641L416.343 113.285L429.47 120.865L374.992 176.221Z" fill="white"/>
<path d="M388.119 183.801L374.992 176.221L429.47 120.865L442.596 128.444L388.119 183.801Z" fill="#FFAD02"/>
<path d="M401.245 191.382L388.119 183.801L442.596 128.444L455.725 136.024L401.245 191.382Z" fill="white"/>
<path d="M414.374 198.961L401.245 191.382L455.725 136.024L468.849 143.604L414.374 198.961Z" fill="#FFAD02"/>
<path d="M427.952 206.088L414.374 198.961L468.849 143.604L481.975 151.183L427.952 206.088Z" fill="white"/>
<path d="M441.078 213.669L427.952 206.088L481.975 151.183L495.104 158.764L441.078 213.669Z" fill="#FFAD02"/>
<path d="M454.205 221.249L441.078 213.669L495.104 158.764L508.228 166.343L454.205 221.249Z" fill="white"/>
<path d="M467.332 228.828L454.205 221.249L508.228 166.343L521.355 173.923L467.332 228.828Z" fill="#FFAD02"/>
<path d="M480.458 236.409L467.332 228.828L521.355 173.923L534.482 181.503L480.458 236.409Z" fill="white"/>
<path d="M493.586 243.989L480.458 236.409L534.482 181.502L547.608 189.082L493.586 243.989Z" fill="#FFAD02"/>
<path d="M506.711 251.569L493.586 243.989L547.608 189.082L560.734 196.664L506.711 251.569Z" fill="white"/>
<path d="M269.979 115.582V124.133C269.979 128.318 272.917 133.408 276.542 135.502C280.167 137.596 283.105 135.898 283.105 131.714V123.163L269.979 115.582Z" fill="#FC780B"/>
<path d="M283.104 123.162V131.713C283.104 135.898 286.043 140.989 289.668 143.082C293.294 145.175 296.232 143.478 296.232 139.293V130.742L283.104 123.162Z" fill="#D8DEF0"/>
<path d="M296.232 130.742V139.292C296.232 143.477 299.17 148.568 302.795 150.661C306.42 152.755 309.359 151.057 309.361 146.873L309.359 138.322L296.232 130.742Z" fill="#FC780B"/>
<path d="M309.358 138.322L309.36 146.873C309.358 151.058 312.295 156.149 315.92 158.241C319.545 160.335 322.484 158.639 322.484 154.453V145.902L309.358 138.322Z" fill="#D8DEF0"/>
<path d="M322.485 145.901V154.452C322.485 158.637 325.423 163.727 329.05 165.82C332.673 167.914 335.613 166.216 335.613 162.031V153.481L322.485 145.901Z" fill="#FC780B"/>
<path d="M335.613 153.482V162.032C335.613 166.217 338.549 171.308 342.177 173.401C345.8 175.494 348.74 173.797 348.74 169.613V161.062L335.613 153.482Z" fill="#D8DEF0"/>
<path d="M348.739 161.062V169.613C348.739 173.797 351.678 178.888 355.302 180.981C358.927 183.073 361.866 181.377 361.866 177.192V168.641L348.739 161.062Z" fill="#FC780B"/>
<path d="M361.866 168.641V177.192C361.866 181.377 364.804 186.467 368.429 188.56C372.055 190.654 374.993 188.957 374.993 184.772V176.221L361.866 168.641Z" fill="#D8DEF0"/>
<path d="M374.992 176.221V184.772C374.992 188.957 377.931 194.047 381.556 196.14C385.181 198.234 388.119 196.537 388.121 192.353L388.119 183.801L374.992 176.221Z" fill="#FC780B"/>
<path d="M388.119 183.801L388.121 192.353C388.119 196.537 391.057 201.627 394.683 203.72C398.307 205.813 401.246 204.117 401.246 199.932V191.381L388.119 183.801Z" fill="#D8DEF0"/>
<path d="M401.245 191.382V199.933C401.245 204.118 404.182 209.208 407.81 211.302C411.433 213.395 414.374 211.699 414.374 207.513V198.963L401.245 191.382Z" fill="#FC780B"/>
<path d="M414.826 198.509V207.06C414.826 211.245 417.761 216.335 421.389 218.429C425.012 220.523 427.952 218.826 427.952 214.641V206.089L414.826 198.509Z" fill="#D8DEF0"/>
<path d="M427.952 206.088V214.64C427.952 218.825 430.891 223.915 434.516 226.01C438.141 228.102 441.079 226.405 441.079 222.221V213.67L427.952 206.088Z" fill="#FC780B"/>
<path d="M441.078 213.669V222.22C441.078 226.404 444.017 231.495 447.641 233.588C451.267 235.681 454.205 233.984 454.205 229.8V221.249L441.078 213.669Z" fill="#D8DEF0"/>
<path d="M454.205 221.249V229.8C454.205 233.985 457.142 239.075 460.768 241.169C464.394 243.261 467.332 241.566 467.332 237.38V228.829L454.205 221.249Z" fill="#FC780B"/>
<path d="M467.332 228.828V237.379C467.332 241.565 470.269 246.655 473.895 248.747C477.52 250.841 480.458 249.144 480.458 244.958V236.409L467.332 228.828Z" fill="#D8DEF0"/>
<path d="M480.458 236.409V244.958C480.458 249.144 483.397 254.233 487.022 256.328C490.646 258.422 493.587 256.726 493.587 252.541V243.99L480.458 236.409Z" fill="#FC780B"/>
<path d="M493.586 243.989V252.54C493.586 256.725 496.522 261.815 500.15 263.908C503.772 266.003 506.711 264.306 506.713 260.12L506.711 251.569L493.586 243.989Z" fill="#D8DEF0"/>
<path d="M500.119 61.2198C500.593 60.398 501.646 60.1176 502.47 60.5931C503.294 61.0695 503.578 62.1216 503.105 62.9426C502.631 63.7644 501.578 64.044 500.753 63.5684C499.929 63.0929 499.645 62.0408 500.119 61.2198Z" fill="#D8DEF0"/>
<path d="M507.584 65.5286C508.058 64.7068 509.11 64.4264 509.936 64.9028C510.76 65.3783 511.044 66.4305 510.57 67.2523C510.096 68.0741 509.044 68.3537 508.218 67.8781C507.394 67.4008 507.11 66.3496 507.584 65.5286Z" fill="#D8DEF0"/>
<path d="M515.049 69.8363C515.522 69.0145 516.575 68.735 517.4 69.2105C518.225 69.686 518.509 70.7382 518.035 71.56C517.56 72.381 516.508 72.6614 515.683 72.1858C514.859 71.7103 514.574 70.6582 515.049 69.8363Z" fill="#D8DEF0"/>
<path d="M522.514 74.1452C522.987 73.3243 524.04 73.0439 524.864 73.5194C525.689 73.9949 525.973 75.0471 525.499 75.8689C525.024 76.6907 523.972 76.9703 523.147 76.4947C522.324 76.0192 522.039 74.9671 522.514 74.1452Z" fill="#D8DEF0"/>
<path d="M529.978 78.4538C530.452 77.6329 531.505 77.3525 532.33 77.828C533.154 78.3035 533.438 79.3557 532.965 80.1775C532.49 80.9993 531.438 81.2789 530.613 80.8033C529.789 80.3278 529.504 79.2765 529.978 78.4538Z" fill="#D8DEF0"/>
<path d="M537.442 82.7636C537.917 81.9417 538.97 81.6622 539.795 82.1377C540.619 82.6133 540.903 83.6663 540.429 84.4872C539.955 85.3082 538.903 85.5886 538.078 85.1131C537.253 84.6367 536.969 83.5845 537.442 82.7636Z" fill="#D8DEF0"/>
<path d="M544.907 87.0715C545.382 86.2505 546.434 85.9701 547.26 86.4457C548.084 86.9212 548.368 87.9733 547.893 88.7952C547.42 89.6161 546.368 89.8965 545.543 89.421C544.718 88.9455 544.433 87.8933 544.907 87.0715Z" fill="#D8DEF0"/>
<path d="M552.372 91.3809C552.846 90.5591 553.898 90.2787 554.724 90.7551C555.549 91.2306 555.833 92.2827 555.358 93.1046C554.884 93.9264 553.832 94.2059 553.008 93.7304C552.183 93.254 551.898 92.2019 552.372 91.3809Z" fill="#D8DEF0"/>
<path d="M559.837 95.6898C560.311 94.868 561.365 94.5885 562.189 95.064C563.014 95.5395 563.297 96.5917 562.823 97.4135C562.349 98.2354 561.297 98.5149 560.473 98.0394C559.647 97.563 559.363 96.5108 559.837 95.6898Z" fill="#D8DEF0"/>
<path d="M567.302 99.9985C567.776 99.1775 568.828 98.8971 569.654 99.3727C570.478 99.8491 570.762 100.9 570.288 101.722C569.814 102.543 568.762 102.824 567.938 102.348C567.112 101.872 566.828 100.819 567.302 99.9985Z" fill="#D8DEF0"/>
<path d="M574.766 104.307C575.24 103.485 576.293 103.205 577.119 103.681C577.943 104.157 578.226 105.209 577.753 106.031C577.279 106.853 576.227 107.132 575.402 106.657C574.576 106.18 574.293 105.128 574.766 104.307Z" fill="#D8DEF0"/>
<path d="M582.232 108.616C582.706 107.794 583.758 107.515 584.583 107.99C585.407 108.466 585.691 109.518 585.217 110.34C584.744 111.162 583.692 111.441 582.866 110.966C582.042 110.489 581.757 109.438 582.232 108.616Z" fill="#D8DEF0"/>
<path d="M589.697 112.925C590.17 112.103 591.223 111.823 592.048 112.299C592.873 112.775 593.157 113.827 592.683 114.648C592.209 115.47 591.156 115.751 590.332 115.274C589.507 114.798 589.223 113.746 589.697 112.925Z" fill="#D8DEF0"/>
<path d="M597.162 117.233C597.635 116.412 598.688 116.131 599.513 116.607C600.338 117.082 600.622 118.134 600.148 118.956C599.673 119.778 598.621 120.058 597.796 119.582C596.972 119.107 596.686 118.054 597.162 117.233Z" fill="#D8DEF0"/>
<path d="M604.626 121.542C605.1 120.72 606.153 120.441 606.977 120.916C607.802 121.392 608.085 122.444 607.612 123.266C607.137 124.088 606.085 124.367 605.26 123.892C604.437 123.415 604.153 122.364 604.626 121.542Z" fill="#D8DEF0"/>
<path d="M612.091 125.851C612.565 125.029 613.618 124.75 614.442 125.225C615.266 125.702 615.55 126.753 615.077 127.575C614.602 128.396 613.55 128.676 612.725 128.2C611.901 127.724 611.617 126.673 612.091 125.851Z" fill="#D8DEF0"/>
<path d="M619.556 130.16C620.03 129.338 621.082 129.058 621.908 129.534C622.732 130.01 623.016 131.062 622.541 131.883C622.068 132.705 621.016 132.985 620.191 132.509C619.366 132.033 619.081 130.981 619.556 130.16Z" fill="#D8DEF0"/>
<path d="M627.021 134.469C627.494 133.647 628.547 133.366 629.373 133.843C630.197 134.318 630.481 135.37 630.006 136.192C629.533 137.014 628.481 137.294 627.656 136.818C626.831 136.342 626.546 135.29 627.021 134.469Z" fill="#D8DEF0"/>
<path d="M634.485 138.777C634.959 137.955 636.012 137.676 636.837 138.151C637.662 138.627 637.945 139.679 637.471 140.501C636.997 141.323 635.945 141.602 635.121 141.127C634.296 140.65 634.011 139.599 634.485 138.777Z" fill="#D8DEF0"/>
<path d="M641.95 143.086C642.424 142.264 643.477 141.985 644.302 142.46C645.127 142.937 645.41 143.988 644.936 144.81C644.462 145.632 643.41 145.911 642.586 145.435C641.761 144.96 641.476 143.908 641.95 143.086Z" fill="#D8DEF0"/>
<path d="M650.274 153.995C651.222 153.995 651.992 154.759 651.992 155.699C651.992 156.64 651.223 157.404 650.274 157.404C649.326 157.404 648.556 156.64 648.556 155.699C648.556 154.758 649.325 153.995 650.274 153.995Z" fill="#D8DEF0"/>
<path d="M650.274 146.767C651.222 146.767 651.992 147.53 651.992 148.471C651.992 149.412 651.223 150.175 650.274 150.175C649.326 150.175 648.556 149.412 648.556 148.471C648.556 147.529 649.325 146.767 650.274 146.767Z" fill="#D8DEF0"/>
<path d="M650.274 162.516C651.222 162.516 651.992 163.28 651.992 164.22C651.992 165.162 651.223 165.925 650.274 165.925C649.326 165.925 648.556 165.161 648.556 164.22C648.556 163.28 649.325 162.516 650.274 162.516Z" fill="#D8DEF0"/>
<path d="M650.274 171.037C651.222 171.037 651.992 171.801 651.992 172.742C651.992 173.682 651.223 174.446 650.274 174.446C649.326 174.446 648.556 173.682 648.556 172.742C648.556 171.8 649.325 171.037 650.274 171.037Z" fill="#D8DEF0"/>
<path d="M650.274 179.558C651.222 179.558 651.992 180.321 651.992 181.262C651.992 182.204 651.223 182.966 650.274 182.966C649.326 182.966 648.556 182.203 648.556 181.262C648.556 180.321 649.325 179.558 650.274 179.558Z" fill="#D8DEF0"/>
<path d="M650.274 188.08C651.222 188.08 651.992 188.843 651.992 189.784C651.992 190.726 651.223 191.488 650.274 191.488C649.326 191.488 648.556 190.725 648.556 189.784C648.556 188.842 649.325 188.08 650.274 188.08Z" fill="#D8DEF0"/>
<path d="M650.274 196.6C651.222 196.6 651.992 197.364 651.992 198.304C651.992 199.246 651.223 200.009 650.274 200.009C649.326 200.009 648.556 199.246 648.556 198.304C648.556 197.364 649.325 196.6 650.274 196.6Z" fill="#D8DEF0"/>
<path d="M650.274 205.122C651.222 205.122 651.992 205.885 651.992 206.826C651.992 207.767 651.223 208.529 650.274 208.529C649.326 208.529 648.556 207.767 648.556 206.826C648.556 205.885 649.325 205.122 650.274 205.122Z" fill="#D8DEF0"/>
<path d="M650.274 213.642C651.222 213.642 651.992 214.405 651.992 215.347C651.992 216.289 651.223 217.05 650.274 217.05C649.326 217.05 648.556 216.288 648.556 215.347C648.556 214.405 649.325 213.642 650.274 213.642Z" fill="#D8DEF0"/>
<path d="M650.274 222.163C651.222 222.163 651.992 222.927 651.992 223.868C651.992 224.809 651.223 225.572 650.274 225.572C649.326 225.572 648.556 224.809 648.556 223.868C648.556 222.927 649.325 222.163 650.274 222.163Z" fill="#D8DEF0"/>
<path d="M650.274 230.684C651.222 230.684 651.992 231.448 651.992 232.389C651.992 233.33 651.223 234.093 650.274 234.093C649.326 234.093 648.556 233.33 648.556 232.389C648.556 231.448 649.325 230.684 650.274 230.684Z" fill="#D8DEF0"/>
<path d="M650.274 239.206C651.222 239.206 651.992 239.969 651.992 240.911C651.992 241.85 651.223 242.614 650.274 242.614C649.326 242.614 648.556 241.85 648.556 240.911C648.556 239.969 649.325 239.206 650.274 239.206Z" fill="#D8DEF0"/>
<path d="M650.274 247.727C651.222 247.727 651.992 248.491 651.992 249.432C651.992 250.372 651.223 251.136 650.274 251.136C649.326 251.136 648.556 250.372 648.556 249.432C648.556 248.49 649.325 247.727 650.274 247.727Z" fill="#D8DEF0"/>
<path d="M650.274 256.248C651.222 256.248 651.992 257.012 651.992 257.952C651.992 258.893 651.223 259.656 650.274 259.656C649.326 259.656 648.556 258.893 648.556 257.952C648.556 257.012 649.325 256.248 650.274 256.248Z" fill="#D8DEF0"/>
<path d="M650.274 264.77C651.222 264.77 651.992 265.533 651.992 266.474C651.992 267.415 651.223 268.178 650.274 268.178C649.326 268.178 648.556 267.415 648.556 266.474C648.556 265.532 649.325 264.77 650.274 264.77Z" fill="#D8DEF0"/>
<path d="M650.274 273.291C651.222 273.291 651.992 274.053 651.992 274.995C651.992 275.935 651.223 276.698 650.274 276.698C649.326 276.698 648.556 275.935 648.556 274.995C648.556 274.053 649.325 273.291 650.274 273.291Z" fill="#D8DEF0"/>
<path d="M650.274 281.812C651.222 281.812 651.992 282.575 651.992 283.516C651.992 284.458 651.223 285.22 650.274 285.22C649.326 285.22 648.556 284.457 648.556 283.516C648.556 282.574 649.325 281.812 650.274 281.812Z" fill="#D8DEF0"/>
<path d="M650.274 290.332C651.222 290.332 651.992 291.096 651.992 292.037C651.992 292.979 651.223 293.741 650.274 293.741C649.326 293.741 648.556 292.978 648.556 292.037C648.556 291.096 649.325 290.332 650.274 290.332Z" fill="#D8DEF0"/>
<path d="M650.274 298.854C651.222 298.854 651.992 299.618 651.992 300.558C651.992 301.499 651.223 302.262 650.274 302.262C649.326 302.262 648.556 301.499 648.556 300.558C648.556 299.618 649.325 298.854 650.274 298.854Z" fill="#D8DEF0"/>
<path d="M650.274 307.375C651.222 307.375 651.992 308.137 651.992 309.079C651.992 310.02 651.223 310.783 650.274 310.783C649.326 310.783 648.556 310.02 648.556 309.079C648.556 308.138 649.325 307.375 650.274 307.375Z" fill="#D8DEF0"/>
<path d="M650.274 315.896C651.222 315.896 651.992 316.659 651.992 317.601C651.992 318.541 651.223 319.304 650.274 319.304C649.326 319.304 648.556 318.541 648.556 317.601C648.556 316.659 649.325 315.896 650.274 315.896Z" fill="#D8DEF0"/>
<path d="M650.274 324.416C651.222 324.416 651.992 325.18 651.992 326.121C651.992 327.063 651.223 327.825 650.274 327.825C649.326 327.825 648.556 327.063 648.556 326.121C648.556 325.18 649.325 324.416 650.274 324.416Z" fill="#D8DEF0"/>
<path d="M650.274 332.938C651.222 332.938 651.992 333.702 651.992 334.642C651.992 335.585 651.223 336.347 650.274 336.347C649.326 336.347 648.556 335.584 648.556 334.642C648.556 333.702 649.325 332.938 650.274 332.938Z" fill="#D8DEF0"/>
<path d="M650.274 341.46C651.222 341.46 651.992 342.224 651.992 343.164C651.992 344.105 651.223 344.868 650.274 344.868C649.326 344.868 648.556 344.105 648.556 343.164C648.556 342.223 649.325 341.46 650.274 341.46Z" fill="#D8DEF0"/>
<path d="M650.274 349.98C651.222 349.98 651.992 350.744 651.992 351.685C651.992 352.625 651.223 353.388 650.274 353.388C649.326 353.388 648.556 352.625 648.556 351.685C648.556 350.744 649.325 349.98 650.274 349.98Z" fill="#D8DEF0"/>
<path d="M650.274 358.502C651.222 358.502 651.992 359.265 651.992 360.207C651.992 361.148 651.223 361.91 650.274 361.91C649.326 361.91 648.556 361.148 648.556 360.207C648.556 359.264 649.325 358.502 650.274 358.502Z" fill="#D8DEF0"/>
<path d="M650.274 367.022C651.222 367.022 651.992 367.786 651.992 368.726C651.992 369.669 651.223 370.431 650.274 370.431C649.326 370.431 648.556 369.668 648.556 368.726C648.556 367.786 649.325 367.022 650.274 367.022Z" fill="#D8DEF0"/>
<path d="M650.274 375.544C651.222 375.544 651.992 376.308 651.992 377.248C651.992 378.19 651.223 378.952 650.274 378.952C649.326 378.952 648.556 378.189 648.556 377.248C648.556 376.307 649.325 375.544 650.274 375.544Z" fill="#D8DEF0"/>
<path d="M650.274 384.064C651.222 384.064 651.992 384.828 651.992 385.769C651.992 386.711 651.223 387.473 650.274 387.473C649.326 387.473 648.556 386.71 648.556 385.769C648.556 384.828 649.325 384.064 650.274 384.064Z" fill="#D8DEF0"/>
<path d="M650.274 392.586C651.222 392.586 651.992 393.35 651.992 394.291C651.992 395.231 651.223 395.994 650.274 395.994C649.326 395.994 648.556 395.231 648.556 394.291C648.556 393.35 649.325 392.586 650.274 392.586Z" fill="#D8DEF0"/>
<path d="M650.274 401.107C651.222 401.107 651.992 401.87 651.992 402.811C651.992 403.752 651.223 404.515 650.274 404.515C649.326 404.515 648.556 403.752 648.556 402.811C648.556 401.87 649.325 401.107 650.274 401.107Z" fill="#D8DEF0"/>
<path d="M650.274 409.629C651.222 409.629 651.992 410.392 651.992 411.333C651.992 412.273 651.223 413.036 650.274 413.036C649.326 413.036 648.556 412.273 648.556 411.333C648.556 410.392 649.325 409.629 650.274 409.629Z" fill="#D8DEF0"/>
<path d="M97.7789 405.708C98.2535 404.887 99.3125 404.611 100.145 405.091C100.976 405.572 101.264 406.627 100.791 407.448C100.316 408.27 99.258 408.546 98.4266 408.065C97.5935 407.584 97.3043 406.529 97.7789 405.708Z" fill="#D8DEF0"/>
<path d="M105.305 410.058C105.78 409.236 106.84 408.96 107.671 409.441C108.502 409.922 108.792 410.977 108.317 411.797C107.842 412.619 106.783 412.896 105.952 412.415C105.121 411.935 104.832 410.88 105.305 410.058Z" fill="#D8DEF0"/>
<path d="M112.834 414.409C113.309 413.587 114.367 413.311 115.198 413.792C116.03 414.272 116.32 415.327 115.844 416.148C115.37 416.97 114.311 417.247 113.481 416.765C112.649 416.285 112.359 415.23 112.834 414.409Z" fill="#D8DEF0"/>
<path d="M120.36 418.759C120.835 417.937 121.895 417.662 122.726 418.142C123.558 418.623 123.847 419.678 123.372 420.499C122.898 421.321 121.839 421.597 121.008 421.115C120.176 420.635 119.886 419.581 120.36 418.759Z" fill="#D8DEF0"/>
<path d="M127.889 423.11C128.362 422.288 129.422 422.012 130.254 422.493C131.085 422.974 131.373 424.027 130.899 424.849C130.424 425.671 129.367 425.948 128.535 425.466C127.703 424.985 127.413 423.932 127.889 423.11Z" fill="#D8DEF0"/>
<path d="M135.415 427.46C135.889 426.638 136.948 426.362 137.78 426.843C138.611 427.323 138.899 428.377 138.426 429.199C137.951 430.021 136.893 430.296 136.062 429.816C135.23 429.336 134.94 428.281 135.415 427.46Z" fill="#D8DEF0"/>
<path d="M142.942 431.81C143.417 430.988 144.477 430.712 145.308 431.193C146.139 431.674 146.428 432.73 145.953 433.55C145.478 434.371 144.42 434.648 143.589 434.166C142.758 433.687 142.468 432.632 142.942 431.81Z" fill="#D8DEF0"/>
<path d="M150.471 436.161C150.945 435.339 152.004 435.063 152.835 435.544C153.667 436.024 153.955 437.078 153.48 437.9C153.006 438.722 151.948 438.999 151.117 438.517C150.286 438.037 149.996 436.983 150.471 436.161Z" fill="#D8DEF0"/>
<path d="M157.998 440.511C158.473 439.69 159.531 439.414 160.362 439.894C161.195 440.375 161.483 441.43 161.009 442.251C160.535 443.073 159.476 443.349 158.644 442.868C157.813 442.388 157.523 441.333 157.998 440.511Z" fill="#D8DEF0"/>
<path d="M165.525 444.861C165.999 444.039 167.058 443.763 167.89 444.244C168.722 444.725 169.011 445.78 168.535 446.6C168.061 447.422 167.002 447.699 166.171 447.218C165.34 446.738 165.051 445.683 165.525 444.861Z" fill="#D8DEF0"/>
<path d="M173.053 449.212C173.527 448.39 174.585 448.114 175.418 448.595C176.249 449.075 176.537 450.129 176.063 450.951C175.589 451.773 174.531 452.05 173.699 451.568C172.867 451.088 172.578 450.033 173.053 449.212Z" fill="#D8DEF0"/>
<path d="M180.579 453.562C181.054 452.74 182.113 452.465 182.944 452.945C183.775 453.426 184.065 454.481 183.59 455.302C183.115 456.123 182.057 456.399 181.225 455.919C180.394 455.439 180.104 454.384 180.579 453.562Z" fill="#D8DEF0"/>
<path d="M188.106 457.913C188.581 457.091 189.64 456.815 190.472 457.296C191.303 457.776 191.592 458.83 191.117 459.652C190.643 460.474 189.584 460.75 188.753 460.269C187.923 459.789 187.633 458.735 188.106 457.913Z" fill="#D8DEF0"/>
<path d="M195.634 462.262C196.109 461.441 197.168 461.165 197.999 461.646C198.831 462.126 199.119 463.18 198.645 464.002C198.171 464.824 197.112 465.099 196.28 464.619C195.449 464.139 195.16 463.084 195.634 462.262Z" fill="#D8DEF0"/>
<path d="M203.161 466.613C203.635 465.791 204.695 465.516 205.526 465.996C206.357 466.477 206.646 467.532 206.171 468.353C205.697 469.174 204.639 469.45 203.807 468.97C202.976 468.491 202.686 467.435 203.161 466.613Z" fill="#D8DEF0"/>
<path d="M210.689 470.964C211.162 470.142 212.222 469.866 213.054 470.347C213.886 470.827 214.173 471.882 213.7 472.703C213.225 473.525 212.166 473.802 211.336 473.321C210.503 472.84 210.214 471.786 210.689 470.964Z" fill="#D8DEF0"/>
<path d="M218.217 475.314C218.691 474.493 219.749 474.217 220.581 474.697C221.413 475.178 221.703 476.232 221.228 477.054C220.753 477.876 219.694 478.151 218.863 477.671C218.03 477.191 217.741 476.136 218.217 475.314Z" fill="#D8DEF0"/>
<path d="M225.743 479.665C226.218 478.843 227.277 478.567 228.108 479.048C228.94 479.529 229.229 480.583 228.754 481.404C228.279 482.226 227.22 482.502 226.389 482.021C225.559 481.542 225.269 480.486 225.743 479.665Z" fill="#D8DEF0"/>
<path d="M233.271 484.015C233.745 483.193 234.804 482.917 235.636 483.398C236.467 483.878 236.756 484.933 236.281 485.754C235.807 486.576 234.749 486.851 233.917 486.372C233.086 485.892 232.797 484.836 233.271 484.015Z" fill="#D8DEF0"/>
<path d="M240.798 488.365C241.273 487.543 242.331 487.267 243.163 487.748C243.995 488.229 244.285 489.284 243.809 490.105C243.335 490.927 242.277 491.202 241.444 490.722C240.613 490.243 240.323 489.187 240.798 488.365Z" fill="#D8DEF0"/>
<path d="M248.325 492.716C248.799 491.894 249.858 491.617 250.691 492.099C251.522 492.579 251.81 493.633 251.336 494.455C250.861 495.277 249.803 495.553 248.971 495.072C248.141 494.592 247.851 493.538 248.325 492.716Z" fill="#D8DEF0"/>
<path d="M255.853 497.066C256.327 496.245 257.386 495.969 258.218 496.449C259.049 496.93 259.337 497.984 258.863 498.806C258.389 499.628 257.331 499.903 256.499 499.423C255.667 498.943 255.378 497.887 255.853 497.066Z" fill="#D8DEF0"/>
<path d="M263.38 501.416C263.855 500.594 264.914 500.317 265.746 500.799C266.576 501.28 266.865 502.335 266.391 503.156C265.916 503.977 264.858 504.253 264.027 503.773C263.195 503.294 262.904 502.237 263.38 501.416Z" fill="#D8DEF0"/>
<path d="M270.907 505.767C271.381 504.945 272.441 504.668 273.272 505.15C274.104 505.63 274.392 506.685 273.918 507.507C273.443 508.328 272.384 508.604 271.554 508.124C270.723 507.644 270.433 506.589 270.907 505.767Z" fill="#D8DEF0"/>
<path d="M278.435 510.117C278.91 509.296 279.968 509.019 280.799 509.5C281.631 509.981 281.921 511.036 281.446 511.857C280.972 512.679 279.913 512.954 279.081 512.475C278.249 511.994 277.961 510.939 278.435 510.117Z" fill="#D8DEF0"/>
<path d="M285.962 514.468C286.437 513.646 287.496 513.369 288.327 513.851C289.16 514.332 289.448 515.387 288.973 516.208C288.499 517.029 287.44 517.305 286.608 516.825C285.777 516.345 285.487 515.29 285.962 514.468Z" fill="#D8DEF0"/>
<path d="M293.49 518.819C293.963 517.997 295.022 517.72 295.855 518.202C296.686 518.682 296.974 519.736 296.5 520.558C296.026 521.38 294.968 521.655 294.136 521.175C293.305 520.695 293.015 519.638 293.49 518.819Z" fill="#D8DEF0"/>
<path d="M301.017 523.168C301.491 522.346 302.55 522.071 303.382 522.551C304.213 523.032 304.502 524.087 304.028 524.909C303.553 525.73 302.495 526.006 301.663 525.525C300.831 525.046 300.542 523.989 301.017 523.168Z" fill="#D8DEF0"/>
<path d="M308.543 527.519C309.018 526.697 310.077 526.42 310.909 526.902C311.74 527.382 312.029 528.437 311.554 529.259C311.08 530.08 310.021 530.356 309.189 529.876C308.36 529.395 308.07 528.34 308.543 527.519Z" fill="#D8DEF0"/>
<path d="M316.071 531.869C316.546 531.048 317.605 530.771 318.436 531.252C319.268 531.733 319.556 532.788 319.082 533.609C318.608 534.431 317.549 534.706 316.717 534.226C315.887 533.746 315.597 532.69 316.071 531.869Z" fill="#D8DEF0"/>
<path d="M323.598 536.219C324.073 535.398 325.133 535.121 325.963 535.603C326.795 536.084 327.085 537.139 326.609 537.961C326.135 538.782 325.077 539.058 324.245 538.577C323.413 538.097 323.124 537.04 323.598 536.219Z" fill="#D8DEF0"/>
<path d="M331.125 540.57C331.599 539.748 332.659 539.471 333.491 539.953C334.322 540.433 334.61 541.488 334.136 542.31C333.661 543.131 332.603 543.407 331.772 542.927C330.941 542.447 330.651 541.391 331.125 540.57Z" fill="#D8DEF0"/>
<path d="M338.653 544.92C339.128 544.098 340.186 543.822 341.018 544.303C341.849 544.784 342.139 545.839 341.665 546.66C341.19 547.482 340.131 547.757 339.3 547.278C338.467 546.797 338.178 545.741 338.653 544.92Z" fill="#D8DEF0"/>
<path d="M346.181 549.271C346.655 548.449 347.715 548.172 348.546 548.654C349.378 549.135 349.666 550.19 349.192 551.011C348.717 551.832 347.658 552.108 346.827 551.628C345.996 551.148 345.706 550.092 346.181 549.271Z" fill="#D8DEF0"/>
<path d="M353.708 553.622C354.182 552.8 355.241 552.523 356.072 553.005C356.904 553.485 357.194 554.54 356.718 555.362C356.244 556.183 355.185 556.459 354.354 555.979C353.524 555.498 353.234 554.441 353.708 553.622Z" fill="#D8DEF0"/>
<path d="M361.235 557.97C361.71 557.149 362.768 556.873 363.6 557.354C364.432 557.835 364.72 558.89 364.246 559.712C363.772 560.533 362.714 560.809 361.881 560.328C361.05 559.849 360.761 558.792 361.235 557.97Z" fill="#D8DEF0"/>
<path d="M368.763 562.321C369.237 561.5 370.296 561.223 371.128 561.705C371.96 562.185 372.248 563.24 371.773 564.062C371.299 564.883 370.241 565.16 369.409 564.679C368.577 564.197 368.289 563.143 368.763 562.321Z" fill="#D8DEF0"/>
<path d="M376.29 566.671C376.764 565.851 377.822 565.574 378.655 566.055C379.486 566.536 379.774 567.591 379.3 568.413C378.826 569.234 377.768 569.51 376.936 569.03C376.105 568.548 375.815 567.493 376.29 566.671Z" fill="#D8DEF0"/>
<path d="M383.576 570.648C384.051 569.827 385.11 569.551 385.941 570.031C386.773 570.512 387.063 571.567 386.587 572.389C386.113 573.21 385.054 573.486 384.223 573.006C383.392 572.524 383.102 571.47 383.576 570.648Z" fill="#D8DEF0"/>
<path d="M389.997 568.445C389.523 567.624 389.805 566.574 390.625 566.099C391.447 565.625 392.497 565.907 392.971 566.728C393.445 567.549 393.164 568.6 392.343 569.074C391.522 569.549 390.471 569.267 389.997 568.445Z" fill="#D8DEF0"/>
<path d="M397.434 564.152C396.96 563.33 397.241 562.28 398.062 561.805C398.884 561.333 399.934 561.614 400.408 562.436C400.882 563.257 400.6 564.307 399.779 564.782C398.958 565.254 397.908 564.973 397.434 564.152Z" fill="#D8DEF0"/>
<path d="M404.869 559.858C404.396 559.037 404.678 557.985 405.5 557.512C406.321 557.037 407.371 557.319 407.845 558.14C408.32 558.961 408.038 560.011 407.217 560.486C406.394 560.96 405.344 560.68 404.869 559.858Z" fill="#D8DEF0"/>
<path d="M412.306 555.564C411.832 554.742 412.115 553.691 412.936 553.217C413.757 552.743 414.807 553.025 415.281 553.845C415.756 554.667 415.474 555.717 414.653 556.191C413.831 556.666 412.781 556.385 412.306 555.564Z" fill="#D8DEF0"/>
<path d="M419.743 551.269C419.269 550.448 419.55 549.398 420.371 548.923C421.193 548.448 422.243 548.731 422.717 549.552C423.191 550.373 422.909 551.423 422.089 551.897C421.268 552.372 420.217 552.091 419.743 551.269Z" fill="#D8DEF0"/>
<path d="M427.179 546.975C426.706 546.153 426.987 545.102 427.808 544.628C428.63 544.154 429.68 544.436 430.153 545.257C430.628 546.079 430.346 547.129 429.525 547.604C428.703 548.078 427.655 547.797 427.179 546.975Z" fill="#D8DEF0"/>
<path d="M434.615 542.681C434.142 541.859 434.424 540.808 435.245 540.334C436.067 539.86 437.117 540.142 437.591 540.963C438.066 541.784 437.783 542.834 436.963 543.308C436.141 543.784 435.09 543.502 434.615 542.681Z" fill="#D8DEF0"/>
<path d="M442.052 538.388C441.578 537.566 441.86 536.515 442.682 536.041C443.503 535.566 444.553 535.849 445.027 536.669C445.501 537.491 445.22 538.541 444.399 539.015C443.578 539.489 442.527 539.209 442.052 538.388Z" fill="#D8DEF0"/>
<path d="M449.49 534.093C449.016 533.272 449.297 532.221 450.118 531.747C450.94 531.272 451.99 531.553 452.464 532.374C452.938 533.196 452.656 534.247 451.835 534.721C451.014 535.195 449.964 534.915 449.49 534.093Z" fill="#D8DEF0"/>
<path d="M456.924 529.798C456.451 528.976 456.733 527.926 457.555 527.451C458.376 526.978 459.426 527.26 459.9 528.082C460.375 528.904 460.093 529.954 459.272 530.428C458.45 530.902 457.4 530.62 456.924 529.798Z" fill="#D8DEF0"/>
<path d="M464.362 525.504C463.888 524.683 464.17 523.631 464.992 523.157C465.813 522.683 466.863 522.966 467.337 523.788C467.812 524.609 467.53 525.658 466.709 526.133C465.887 526.607 464.837 526.326 464.362 525.504Z" fill="#D8DEF0"/>
<path d="M471.799 521.211C471.325 520.389 471.607 519.337 472.427 518.864C473.249 518.389 474.299 518.669 474.773 519.491C475.247 520.313 474.965 521.364 474.145 521.837C473.324 522.313 472.273 522.032 471.799 521.211Z" fill="#D8DEF0"/>
<path d="M479.234 516.915C478.762 516.094 479.043 515.044 479.865 514.569C480.686 514.095 481.736 514.377 482.21 515.198C482.685 516.02 482.403 517.071 481.582 517.545C480.759 518.019 479.71 517.737 479.234 516.915Z" fill="#D8DEF0"/>
<path d="M486.671 512.622C486.198 511.8 486.48 510.749 487.301 510.275C488.123 509.801 489.172 510.084 489.647 510.905C490.122 511.727 489.839 512.777 489.019 513.251C488.196 513.724 487.146 513.444 486.671 512.622Z" fill="#D8DEF0"/>
<path d="M494.108 508.328C493.634 507.506 493.916 506.455 494.736 505.981C495.558 505.507 496.608 505.789 497.082 506.61C497.556 507.431 497.276 508.481 496.454 508.955C495.633 509.43 494.582 509.15 494.108 508.328Z" fill="#D8DEF0"/>
<path d="M501.544 504.034C501.071 503.212 501.352 502.161 502.174 501.687C502.995 501.213 504.046 501.495 504.519 502.315C504.994 503.137 504.712 504.187 503.89 504.661C503.069 505.137 502.019 504.855 501.544 504.034Z" fill="#D8DEF0"/>
<path d="M508.98 499.739C508.507 498.918 508.789 497.867 509.611 497.393C510.432 496.918 511.482 497.2 511.956 498.021C512.431 498.842 512.149 499.893 511.328 500.367C510.505 500.842 509.455 500.561 508.98 499.739Z" fill="#D8DEF0"/>
<path d="M516.417 495.444C515.943 494.622 516.225 493.572 517.047 493.098C517.868 492.624 518.918 492.906 519.392 493.727C519.866 494.549 519.585 495.599 518.764 496.073C517.942 496.548 516.892 496.266 516.417 495.444Z" fill="#D8DEF0"/>
<path d="M523.854 491.151C523.38 490.33 523.662 489.279 524.483 488.805C525.305 488.331 526.355 488.613 526.829 489.435C527.303 490.256 527.021 491.306 526.201 491.78C525.378 492.254 524.328 491.972 523.854 491.151Z" fill="#D8DEF0"/>
<path d="M531.289 486.858C530.816 486.036 531.098 484.985 531.92 484.511C532.741 484.036 533.792 484.317 534.265 485.138C534.74 485.96 534.458 487.011 533.637 487.485C532.815 487.959 531.765 487.679 531.289 486.858Z" fill="#D8DEF0"/>
<path d="M538.726 482.562C538.253 481.741 538.535 480.69 539.356 480.216C540.177 479.742 541.227 480.023 541.702 480.844C542.176 481.666 541.894 482.717 541.074 483.19C540.251 483.665 539.201 483.384 538.726 482.562Z" fill="#D8DEF0"/>
<path d="M546.163 478.268C545.689 477.446 545.971 476.396 546.791 475.921C547.613 475.447 548.663 475.73 549.137 476.552C549.611 477.373 549.33 478.423 548.509 478.898C547.688 479.37 546.637 479.09 546.163 478.268Z" fill="#D8DEF0"/>
<path d="M553.6 473.974C553.126 473.152 553.407 472.101 554.228 471.627C555.05 471.153 556.1 471.435 556.573 472.255C557.048 473.077 556.766 474.127 555.945 474.602C555.123 475.077 554.074 474.796 553.6 473.974Z" fill="#D8DEF0"/>
<path d="M561.035 469.68C560.562 468.858 560.844 467.808 561.665 467.333C562.487 466.859 563.537 467.14 564.011 467.961C564.486 468.783 564.203 469.834 563.383 470.307C562.56 470.783 561.51 470.501 561.035 469.68Z" fill="#D8DEF0"/>
<path d="M568.472 465.386C567.998 464.564 568.28 463.515 569.102 463.039C569.924 462.566 570.973 462.847 571.447 463.668C571.921 464.49 571.641 465.54 570.819 466.014C569.997 466.488 568.947 466.207 568.472 465.386Z" fill="#D8DEF0"/>
<path d="M575.909 461.092C575.435 460.27 575.717 459.219 576.538 458.745C577.36 458.271 578.41 458.553 578.883 459.374C579.358 460.196 579.076 461.246 578.256 461.721C577.433 462.195 576.383 461.914 575.909 461.092Z" fill="#D8DEF0"/>
<path d="M583.345 456.797C582.871 455.976 583.153 454.925 583.975 454.451C584.796 453.977 585.847 454.259 586.32 455.08C586.795 455.901 586.513 456.951 585.691 457.425C584.87 457.9 583.82 457.619 583.345 456.797Z" fill="#D8DEF0"/>
<path d="M590.781 452.504C590.308 451.682 590.59 450.632 591.411 450.157C592.232 449.683 593.283 449.964 593.757 450.785C594.231 451.607 593.949 452.657 593.129 453.131C592.306 453.606 591.256 453.325 590.781 452.504Z" fill="#D8DEF0"/>
<path d="M598.218 448.209C597.744 447.387 598.026 446.336 598.847 445.862C599.669 445.387 600.719 445.67 601.193 446.491C601.667 447.312 601.386 448.363 600.565 448.837C599.744 449.312 598.693 449.031 598.218 448.209Z" fill="#D8DEF0"/>
<path d="M605.655 443.914C605.181 443.092 605.462 442.042 606.283 441.567C607.105 441.094 608.155 441.376 608.628 442.197C609.103 443.018 608.821 444.069 607.999 444.542C607.179 445.017 606.13 444.736 605.655 443.914Z" fill="#D8DEF0"/>
<path d="M613.09 439.621C612.617 438.8 612.899 437.749 613.72 437.274C614.542 436.8 615.592 437.083 616.066 437.903C616.541 438.725 616.258 439.774 615.438 440.249C614.616 440.723 613.566 440.443 613.09 439.621Z" fill="#D8DEF0"/>
<path d="M620.527 435.327C620.053 434.506 620.335 433.454 621.157 432.981C621.978 432.506 623.028 432.787 623.502 433.608C623.976 434.43 623.695 435.481 622.874 435.955C622.053 436.429 621.002 436.149 620.527 435.327Z" fill="#D8DEF0"/>
<path d="M627.965 431.032C627.491 430.21 627.772 429.16 628.593 428.685C629.415 428.211 630.465 428.494 630.939 429.315C631.413 430.136 631.131 431.187 630.311 431.661C629.489 432.136 628.439 431.854 627.965 431.032Z" fill="#D8DEF0"/>
<path d="M635.401 426.738C634.927 425.916 635.209 424.865 636.03 424.391C636.851 423.917 637.901 424.2 638.375 425.022C638.85 425.843 638.568 426.892 637.746 427.367C636.925 427.841 635.876 427.56 635.401 426.738Z" fill="#D8DEF0"/>
<path d="M642.837 422.444C642.363 421.622 642.646 420.571 643.467 420.097C644.289 419.623 645.338 419.905 645.813 420.725C646.287 421.547 646.005 422.597 645.184 423.071C644.362 423.547 643.312 423.266 642.837 422.444Z" fill="#D8DEF0"/>
<path d="M111.568 391.034C106.446 388.078 99.6394 386.716 92.9541 386.915H85.4911V388.633C83.5023 389.26 81.626 390.06 79.9465 391.034C70.4165 396.578 70.4718 405.56 80.0625 411.102C81.7147 412.056 83.5497 412.834 85.4911 413.457V415.251H95.044C101.089 415.149 107.082 413.776 111.681 411.105C121.212 405.56 121.166 396.578 111.568 391.034Z" fill="url(#paint10_linear_338_199)"/>
<path d="M69.2678 411.102C64.4395 408.313 62.0271 404.654 62.0359 400.999L62.0579 395.858C62.0491 399.517 64.458 403.173 69.2854 405.964C78.884 411.502 94.3902 411.502 103.923 405.964C108.659 403.211 111.026 399.609 111.04 396.002L111.019 401.14C111.009 404.748 108.639 408.348 103.903 411.104C94.3699 416.647 78.8647 416.647 69.2678 411.102Z" fill="url(#paint11_linear_338_199)"/>
<path d="M69.2869 405.964C59.6953 400.424 59.6408 391.437 69.1717 385.9C78.7071 380.359 94.2167 380.359 103.81 385.9C113.407 391.437 113.456 400.424 103.924 405.964C94.3907 411.502 78.8855 411.502 69.2869 405.964Z" fill="#E9EDF6"/>
<path d="M87.6996 402.282C87.0299 401.896 86.1511 401.708 85.2749 401.716L81.5319 393.803C82.0083 393.67 82.4574 393.494 82.8511 393.266C83.3775 392.963 83.7519 392.602 83.9795 392.223L95.7347 393.283C95.8077 393.715 96.1153 394.136 96.6874 394.467C98.0004 395.224 100.129 395.224 101.439 394.467C102.752 393.709 102.752 392.481 101.44 391.722C100.129 390.964 98.0004 390.964 96.6874 391.722C96.3772 391.901 96.146 392.108 95.9835 392.326L84.2396 391.265C84.2133 390.584 83.7536 389.906 82.8528 389.385C80.9967 388.311 77.9867 388.311 76.1298 389.385C74.2737 390.457 74.2737 392.194 76.1298 393.266C77.1668 393.865 78.5606 394.13 79.9131 394.059L83.6596 401.977C83.4056 402.061 83.1613 402.158 82.9451 402.282C81.6321 403.041 81.6321 404.269 82.9451 405.026C84.2581 405.784 86.3857 405.784 87.6978 405.026C89.0117 404.269 89.0117 403.041 87.6996 402.282Z" fill="#6B67E9"/>
<path d="M655.269 295.857C649.7 292.641 644.655 292.345 641.011 294.463L636.013 297.367C639.658 295.249 644.704 295.546 650.274 298.763C661.341 305.153 670.28 320.642 670.244 333.358C670.228 339.674 667.998 344.124 664.4 346.215L669.397 343.309C672.994 341.22 675.225 336.773 675.243 330.452C675.28 317.74 666.338 302.248 655.269 295.857Z" fill="url(#paint12_linear_338_199)"/>
<path d="M650.274 298.763C639.207 292.373 630.204 297.5 630.17 310.216C630.131 322.934 639.077 338.427 650.141 344.817C661.208 351.208 670.209 346.075 670.244 333.357C670.28 320.641 661.34 305.152 650.274 298.763Z" fill="white"/>
<path d="M656.95 316.308C653.191 309.795 647.093 306.273 643.331 308.444C639.572 310.614 639.572 317.657 643.331 324.172L650.14 335.966L656.95 332.033C660.71 329.864 660.71 322.822 656.95 316.308ZM650.141 325.485C647.633 324.038 645.599 320.514 645.599 317.618C645.599 314.718 647.633 313.544 650.141 314.992C652.653 316.442 654.684 319.963 654.684 322.864C654.684 325.76 652.652 326.936 650.141 325.485Z" fill="#807DFB"/>
<path d="M202.061 443.29C196.94 440.332 190.134 438.971 183.449 439.17H175.985V440.888C173.997 441.516 172.121 442.316 170.441 443.29C160.912 448.831 160.967 457.815 170.557 463.357C172.21 464.311 174.044 465.089 175.985 465.71V467.506H185.54C191.583 467.404 197.576 466.032 202.175 463.36C211.707 457.816 211.657 448.831 202.061 443.29Z" fill="url(#paint13_linear_338_199)"/>
<path d="M159.76 463.357C154.932 460.569 152.521 456.909 152.528 453.254L152.554 448.112C152.543 451.77 154.953 455.428 159.78 458.22C169.381 463.757 184.886 463.757 194.417 458.22C199.153 455.466 201.522 451.865 201.535 448.258L201.513 453.395C201.503 457.005 199.132 460.603 194.399 463.359C184.864 468.902 169.357 468.902 159.76 463.357Z" fill="url(#paint14_linear_338_199)"/>
<path d="M159.779 458.22C150.189 452.678 150.133 443.693 159.665 438.153C169.201 432.611 184.71 432.611 194.303 438.153C203.899 443.692 203.949 452.678 194.417 458.22C184.886 463.758 169.381 463.758 159.779 458.22Z" fill="#E9EDF6"/>
<path d="M181.174 443.561C180.97 442.843 180.389 442.154 179.431 441.599C176.996 440.194 173.047 440.194 170.611 441.601C169.393 442.304 168.784 443.226 168.786 444.146V452.84L183.838 452.838C185.434 452.84 187.032 452.488 188.249 451.785C190.685 450.379 190.685 448.098 188.249 446.693C187.289 446.138 186.095 445.802 184.852 445.687L181.558 445.465L181.174 443.561Z" fill="#EF4E16"/>
<path d="M655.269 125.853C649.7 122.637 644.655 122.34 641.011 124.457L636.013 127.361C639.658 125.244 644.704 125.543 650.274 128.758C661.341 135.147 670.28 150.637 670.244 163.353C670.228 169.669 667.998 174.118 664.4 176.209L669.397 173.304C672.994 171.215 675.225 166.768 675.243 160.448C675.28 147.735 666.338 132.243 655.269 125.853Z" fill="url(#paint15_linear_338_199)"/>
<path d="M650.274 128.758C639.207 122.369 630.204 127.497 630.17 140.211C630.131 152.93 639.077 168.423 650.141 174.812C661.208 181.204 670.209 176.071 670.244 163.353C670.28 150.637 661.34 135.147 650.274 128.758Z" fill="#E9EDF6"/>
<path d="M523.918 41.2327C518.351 38.0165 513.304 37.7203 509.659 39.8378L504.663 42.7419C508.307 40.6245 513.354 40.9224 518.924 44.1386C529.99 50.5279 538.931 66.0172 538.894 78.7334C538.876 85.0515 536.645 89.4991 533.049 91.5893L538.046 88.6852C541.643 86.595 543.874 82.1491 543.892 75.8293C543.929 63.1157 534.988 47.6229 523.918 41.2327Z" fill="url(#paint16_linear_338_199)"/>
<path d="M518.924 44.1387C507.857 37.7494 498.854 42.8765 498.818 55.5909C498.782 68.3106 507.728 83.8025 518.79 90.1927C529.857 96.5829 538.858 91.4514 538.894 78.7326C538.931 66.0173 529.99 50.528 518.924 44.1387Z" fill="#E9EDF6"/>
<path d="M523.235 60.8866C519.774 54.892 514.143 51.6397 510.682 53.6385C507.223 55.6365 507.221 62.1383 510.682 68.1346C513.843 73.6124 518.812 76.7855 522.289 75.7712L527.362 84.5601C527.846 85.3995 528.633 85.8539 529.119 85.5744C529.603 85.294 529.603 84.386 529.119 83.5475L524.044 74.7586C526.661 72.2562 526.398 66.3652 523.235 60.8866ZM521.48 72.3423C518.988 73.7812 514.931 71.4396 512.438 67.1212C509.945 62.8036 509.945 58.1178 512.438 56.6807C514.93 55.2409 518.987 57.5834 521.48 61.9009C523.973 66.2193 523.973 70.9034 521.48 72.3423Z" fill="#807DFB"/>
<path d="M659.289 154.954L657.584 159.918L645.953 153.201L643.049 141.387L642.857 140.617L639.673 138.778V140.707L641.651 141.848L644.557 153.663L644.746 154.434L658.789 162.542L658.978 161.991L660.875 156.477L659.289 154.954ZM656.434 162.413C655.461 161.851 654.68 162.307 654.68 163.427C654.68 164.546 655.461 165.9 656.434 166.461C657.398 167.018 658.187 166.57 658.187 165.452C658.187 164.333 657.398 162.971 656.434 162.413ZM647.266 157.121C646.297 156.559 645.514 157.015 645.514 158.135C645.514 159.253 646.294 160.608 647.266 161.169C648.232 161.726 649.021 161.279 649.021 160.159C649.019 159.039 648.232 157.678 647.266 157.121ZM655.559 151.915L654.38 149.87L652.259 151.094V142.794L650.59 141.829V150.13L648.47 146.457L647.288 147.139L651.424 154.304L655.559 151.915Z" fill="#807DFB"/>
<path d="M356.875 502.086H295.046L332.511 523.719L295.046 545.354H356.875L394.341 523.719L356.875 502.086Z" fill="url(#paint17_linear_338_199)"/>
<path d="M304.095 482.783L341.56 504.418L332.512 488.016L295.046 466.384L304.095 482.783Z" fill="#BDC3E3"/>
<path d="M285.996 482.783L248.533 504.418L257.583 488.016L295.048 466.384L285.996 482.783Z" fill="#BDC3E3"/>
<path d="M257.583 523.719L295.046 545.354L295.048 509.651L257.583 488.016V523.719Z" fill="#D8DEF0"/>
<path d="M257.583 509.882L295.046 531.516L295.048 509.651L257.583 488.016V509.882Z" fill="#BDC3E3"/>
<path d="M251.199 510.9L288.662 532.535L295.046 509.651L257.583 488.016L251.199 510.9Z" fill="#6B67E9"/>
<path d="M332.512 523.719L295.046 545.354V509.651L332.512 488.016V523.719Z" fill="#A4ADD0"/>
<path d="M338.892 510.9L301.427 532.535L295.046 509.651L332.512 488.016L338.892 510.9Z" fill="#5652CC"/>
<path d="M295.046 466.384V509.65L332.512 488.016L295.046 466.384Z" fill="#362E94"/>
<path d="M257.583 488.016L295.046 509.651V509.65V466.384L257.583 488.016Z" fill="#20196F"/>
<path d="M294.994 502.086L288.497 505.869L295.046 509.651L301.598 505.869L294.994 502.086Z" fill="#423EAF"/>
<path d="M688.63 502.537V446.671H609.114L602.159 450.688H593.095L516.963 494.651L507.072 500.361C501.776 503.42 488.896 505.899 478.297 505.899L475.159 507.71H471.791L460.094 514.465L508.466 542.397H525.751L525.752 542.396H529.122H555.681L609.533 534.058H615.646L635.523 522.582H635.522V522.581L627.262 517.811H662.176L688.63 502.537Z" fill="url(#paint18_linear_338_199)"/>
<path d="M512.471 531.424C510.913 530.522 509.947 528.592 509.947 525.843C509.947 520.348 513.804 513.667 518.563 510.921C520.942 509.548 523.095 509.417 524.654 510.317C526.212 511.216 527.177 513.147 527.177 515.896C527.177 521.388 523.321 528.071 518.564 530.818C516.185 532.191 514.031 532.323 512.471 531.424Z" fill="#20196F"/>
<path d="M513.818 523.609C513.818 520.582 515.942 516.906 518.562 515.392C521.181 513.879 523.304 515.106 523.304 518.131C523.304 521.156 521.18 524.833 518.562 526.347C515.942 527.859 513.818 526.633 513.818 523.609Z" fill="white"/>
<path d="M509.947 525.843C509.947 520.348 513.804 513.667 518.563 510.921C520.942 509.548 523.095 509.417 524.654 510.317L518.06 506.51C516.502 505.61 514.349 505.741 511.969 507.114C507.211 509.861 503.356 516.543 503.356 522.037C503.356 524.784 504.321 526.715 505.88 527.614L512.472 531.424C510.913 530.521 509.947 528.592 509.947 525.843Z" fill="#0F0D3F"/>
<path d="M582.288 491.107C580.729 490.206 579.764 488.277 579.764 485.529C579.764 480.034 583.622 473.355 588.379 470.608C590.758 469.234 592.91 469.103 594.471 470.002C596.03 470.902 596.993 472.833 596.993 475.582C596.993 481.076 593.138 487.757 588.38 490.504C586 491.877 583.847 492.007 582.288 491.107Z" fill="#20196F"/>
<path d="M583.635 483.294C583.635 480.268 585.76 476.589 588.378 475.077C590.998 473.564 593.12 474.79 593.12 477.815C593.12 480.841 590.998 484.52 588.378 486.032C585.759 487.544 583.635 486.32 583.635 483.294Z" fill="white"/>
<path d="M579.764 485.529C579.764 480.033 583.62 473.354 588.379 470.607C590.758 469.232 592.91 469.102 594.47 470.002L587.878 466.196C586.319 465.295 584.164 465.426 581.785 466.799C577.027 469.546 573.172 476.226 573.172 481.723C573.172 484.471 574.136 486.399 575.696 487.301L582.288 491.107C580.728 490.207 579.764 488.277 579.764 485.529Z" fill="#0F0D3F"/>
<path d="M563.527 501.939C561.968 501.038 561.003 499.109 561.003 496.362C561.003 490.866 564.861 484.186 569.618 481.44C571.996 480.066 574.148 479.935 575.709 480.834C577.268 481.734 578.232 483.666 578.232 486.414C578.232 491.909 574.377 498.588 569.619 501.336C567.239 502.709 565.087 502.839 563.527 501.939Z" fill="#20196F"/>
<path d="M564.874 494.126C564.874 491.1 567 487.421 569.618 485.909C572.238 484.397 574.361 485.624 574.361 488.651C574.361 491.673 572.238 495.353 569.618 496.865C566.998 498.377 564.874 497.152 564.874 494.126Z" fill="white"/>
<path d="M561.004 496.361C561.004 490.865 564.862 484.186 569.619 481.439C571.997 480.065 574.149 479.934 575.71 480.833L569.116 477.027C567.558 476.127 565.405 476.259 563.026 477.631C558.268 480.38 554.412 487.059 554.412 492.555C554.412 495.301 555.377 497.232 556.937 498.131L563.528 501.938C561.969 501.037 561.004 499.108 561.004 496.361Z" fill="#0F0D3F"/>
<path d="M606.03 453.502L529.897 497.465L485.319 471.723L561.452 427.76L606.03 453.502Z" fill="#807DFB"/>
<path d="M606.03 460.927L529.897 504.89L529.896 497.465L606.03 453.502V460.927Z" fill="#423EAF"/>
<path d="M529.897 504.89L485.32 479.148L485.319 471.723L529.897 497.465V504.89Z" fill="#5652CC"/>
<path d="M612.984 405.764L538.158 448.969L489.785 421.036L564.611 377.828L612.984 405.764Z" fill="#FFAD02"/>
<path d="M592.854 394.137L518.025 437.344L509.916 432.662L584.744 389.455L592.854 394.137Z" fill="white"/>
<path d="M612.985 451.677L538.158 494.885V448.969L612.985 405.761V451.677Z" fill="#EF4E16"/>
<path d="M538.158 494.885L489.786 466.952V421.036L538.158 448.969V494.885Z" fill="#FC780B"/>
<path d="M557.657 444.524L542.375 453.348V451.164L557.657 442.339V444.524Z" fill="#D8DEF0"/>
<path d="M552.159 452.452L542.375 458.103V455.918L552.159 450.268V452.452Z" fill="#D8DEF0"/>
<path d="M518.025 437.344V447.457L509.916 442.773V432.662L518.025 437.344Z" fill="#D8DEF0"/>
<path d="M528.474 504.069L528.475 463.54L508.599 475.017V478.548L494.159 509.644V524.98V534.962L508.994 526.397C508.994 520.276 513.287 512.839 518.584 509.78L528.474 504.069Z" fill="#423EAF"/>
<path d="M525.356 491.63L496.425 508.335L510.865 477.237L525.356 468.871V491.63Z" fill="#BDC3E3"/>
<path d="M525.356 502.463L509.706 511.5L509.704 500.666L525.356 491.629V502.463Z" fill="#362E94"/>
<path d="M511.46 476.894L510.865 477.237L509.704 479.734V500.666L511.46 499.654V476.894Z" fill="#362E94"/>
<path d="M508.6 475.016L466.863 450.92L486.74 439.439L528.475 463.539L508.6 475.016Z" fill="#807DFB"/>
<path d="M466.863 454.449L508.598 478.546L508.6 475.016L466.863 450.92V454.449Z" fill="#5652CC"/>
<path d="M492.283 508.561C479.625 501.248 466.96 493.943 454.301 486.628C459.113 476.264 463.926 465.898 468.74 455.53C481.398 462.844 494.063 470.149 506.721 477.465C501.912 487.832 497.101 498.198 492.283 508.561Z" fill="#E1E5F1"/>
<path d="M492.283 508.561C493.033 508.996 493.41 509.212 494.159 509.644C498.974 499.279 503.786 488.915 508.599 478.548C507.848 478.113 507.471 477.897 506.72 477.466C501.912 487.832 497.101 498.198 492.283 508.561Z" fill="#807DFB"/>
<path d="M452.425 485.544C453.174 485.978 453.552 486.194 454.301 486.627C459.113 476.263 463.926 465.897 468.74 455.529C467.989 455.096 467.614 454.88 466.863 454.448C462.053 464.815 457.239 475.178 452.425 485.544Z" fill="#807DFB"/>
<path d="M494.159 509.644V534.962L452.425 510.863V485.544L494.159 509.644Z" fill="#5652CC"/>
<path d="M483.114 511.056V518.6L463.472 507.258V499.715C463.472 498.101 464.603 497.446 466 498.252L480.583 506.675C481.982 507.481 483.114 509.443 483.114 511.056Z" fill="#20196F"/>
<path d="M492.283 518.481L485.01 514.282V510.996L492.283 515.195V518.481Z" fill="white"/>
<path d="M492.283 522.252L488.648 520.153V518.51L492.283 520.61V522.252Z" fill="#423EAF"/>
<path d="M454.301 500.322L457.936 502.419V500.778L454.301 498.677V500.322Z" fill="#423EAF"/>
<path d="M454.301 496.548L461.574 500.748V497.461L454.301 493.262V496.548Z" fill="white"/>
<path d="M494.158 526.927L505.857 520.173V530.152L494.158 536.907V526.927Z" fill="#BBC0E6"/>
<path d="M449.051 500.881L494.158 526.926V536.907L449.051 510.861V500.881Z" fill="#CED3F8"/>
<path d="M452.425 498.931L449.051 500.881L494.158 526.927L505.857 520.173L504.171 519.199L494.159 524.98L452.425 500.881V498.931Z" fill="#F6F6FB"/>
<path d="M500.688 473.981L460.69 490.317C462.093 491.127 463.496 491.937 464.899 492.747L504.896 476.41C503.493 475.6 502.091 474.792 500.688 473.981ZM468.765 494.98C469.685 495.511 470.604 496.043 471.525 496.574L504.01 483.305C504.529 482.186 505.049 481.067 505.569 479.948L468.765 494.98ZM468.74 455.53C463.926 465.897 459.112 476.263 454.301 486.628L494.299 470.292C485.778 465.371 477.259 460.451 468.74 455.53Z" fill="url(#paint19_linear_338_199)"/>
<path d="M295.046 509.651L272.582 429.707C272.582 429.707 280.988 420.864 290.56 427.554L310.05 500.881L295.046 509.651Z" fill="#FC780B"/>
<path d="M289.913 428.805C291.09 427.178 290.305 425.411 287.834 424.722C287.565 424.647 287.285 424.585 286.997 424.545C281.939 423.83 273.796 424.351 272.677 428.913C272.373 430.147 273.187 430.872 274.857 431.501C276.365 432.071 278.599 432.98 281.63 432.592C281.936 432.552 282.244 432.522 282.55 432.503C283.779 432.433 287.635 431.955 289.913 428.805Z" fill="#EF4E16"/>
<path d="M290.56 427.554C290.56 427.554 288.497 439.151 281.674 442.347L301.598 505.869L310.049 500.881L290.56 427.554Z" fill="#FFAD02"/>
<path d="M284.109 428.57C284.469 428.071 284.229 427.531 283.473 427.32C283.39 427.297 283.305 427.278 283.217 427.266C281.668 427.047 279.175 427.206 278.832 428.603C278.739 428.981 278.989 429.203 279.5 429.396C279.962 429.57 280.646 429.849 281.574 429.73C281.668 429.718 281.762 429.708 281.856 429.703C282.231 429.68 283.412 429.533 284.109 428.57Z" fill="#D8DEF0"/>
<path d="M300.788 507.847L263.252 438.066C263.252 438.066 251.052 438.045 249.284 449.59L280.663 500.88L300.788 507.847Z" fill="#FC780B"/>
<path d="M250.637 449.986C248.648 449.715 247.911 447.927 249.117 445.662C249.249 445.415 249.398 445.172 249.567 444.936C252.541 440.782 258.539 435.248 262.613 437.587C263.716 438.22 263.677 439.309 262.981 440.952C262.352 442.437 261.468 444.681 259.095 446.606C258.856 446.801 258.62 447.002 258.395 447.211C257.495 448.05 254.488 450.511 250.637 449.986Z" fill="#FC780B"/>
<path d="M249.285 449.591C249.285 449.591 260.047 450.863 263.836 439.152L295.863 510.862L280.664 500.881L249.285 449.591Z" fill="#FFAD02"/>
<path d="M254.472 445.623C253.863 445.54 253.637 444.993 254.007 444.299C254.048 444.224 254.093 444.149 254.145 444.077C255.056 442.805 256.893 441.111 258.139 441.827C258.476 442.021 258.465 442.354 258.251 442.857C258.059 443.311 257.788 443.999 257.061 444.587C256.988 444.647 256.916 444.709 256.847 444.773C256.572 445.03 255.651 445.784 254.472 445.623Z" fill="#D8DEF0"/>
<path d="M291.316 508.36L287.954 449.163C287.954 449.163 296.729 443.384 303.453 450.863L305.114 503.766L295.862 510.862L291.316 508.36Z" fill="#D8DEF0"/>
<path d="M302.666 451.786C303.97 450.652 303.656 449.016 301.718 447.956C301.507 447.841 301.284 447.735 301.051 447.645C296.948 446.059 290.016 444.907 288.188 448.515C287.693 449.491 288.234 450.258 289.512 451.111C290.666 451.883 292.362 453.081 294.98 453.347C295.245 453.375 295.509 453.408 295.77 453.453C296.813 453.632 300.141 453.983 302.666 451.786Z" fill="#6B67E9"/>
<path d="M303.453 450.863C303.453 450.863 299.462 460.188 293.115 461.538L298.086 509.264L305.114 503.766L303.453 450.863Z" fill="url(#paint20_linear_338_199)"/>
<path d="M297.844 450.456C298.243 450.109 298.148 449.608 297.554 449.284C297.489 449.249 297.422 449.216 297.35 449.189C296.095 448.704 293.972 448.351 293.412 449.455C293.261 449.754 293.426 449.989 293.818 450.25C294.171 450.486 294.69 450.853 295.492 450.934C295.573 450.942 295.653 450.953 295.733 450.967C296.052 451.022 297.071 451.129 297.844 450.456Z" fill="#D8DEF0"/>
</g>
<defs>
<linearGradient id="paint0_linear_338_199" x1="184.374" y1="573.593" x2="508.926" y2="122.116" gradientUnits="userSpaceOnUse">
<stop stop-color="white"/>
<stop offset="1" stop-color="#EFEFF3"/>
</linearGradient>
<linearGradient id="paint1_linear_338_199" x1="122.128" y1="356.239" x2="607.142" y2="356.239" gradientUnits="userSpaceOnUse">
<stop stop-color="#C4C9E4"/>
<stop offset="0.2364" stop-color="#CACEE7"/>
<stop offset="0.5408" stop-color="#DADDEE"/>
<stop offset="0.8809" stop-color="#F4F5FA"/>
<stop offset="1" stop-color="white"/>
</linearGradient>
<linearGradient id="paint2_linear_338_199" x1="376.288" y1="-37.8913" x2="607.806" y2="363.043" gradientUnits="userSpaceOnUse">
<stop offset="0.5757" stop-color="#6B67E9"/>
<stop offset="0.6122" stop-color="#20196F"/>
</linearGradient>
<linearGradient id="paint3_linear_338_199" x1="109.541" y1="409.642" x2="580.027" y2="409.642" gradientUnits="userSpaceOnUse">
<stop offset="0.5618" stop-color="#6B67E9"/>
<stop offset="0.6124" stop-color="#362E94"/>
</linearGradient>
<linearGradient id="paint4_linear_338_199" x1="203.427" y1="243.381" x2="328.539" y2="243.381" gradientUnits="userSpaceOnUse">
<stop stop-color="#C4C9E4"/>
<stop offset="0.2101" stop-color="#D7DAED"/>
<stop offset="0.587" stop-color="#F4F5FA"/>
<stop offset="0.8026" stop-color="white"/>
</linearGradient>
<linearGradient id="paint5_linear_338_199" x1="481.059" y1="342.084" x2="481.059" y2="141.214" gradientUnits="userSpaceOnUse">
<stop stop-color="#C4C9E4"/>
<stop offset="0.2878" stop-color="#E8EAF5"/>
<stop offset="0.5037" stop-color="white"/>
</linearGradient>
<linearGradient id="paint6_linear_338_199" x1="363.541" y1="218.767" x2="377.69" y2="194.264" gradientUnits="userSpaceOnUse">
<stop stop-color="#D1D7F3"/>
<stop offset="0.6427" stop-color="#F2F4FC"/>
<stop offset="1" stop-color="white"/>
</linearGradient>
<linearGradient id="paint7_linear_338_199" x1="339.433" y1="152.818" x2="387.649" y2="152.818" gradientUnits="userSpaceOnUse">
<stop stop-color="#362E94"/>
<stop offset="0.2602" stop-color="#252066"/>
<stop offset="0.604" stop-color="#110F2F"/>
<stop offset="0.861" stop-color="#05040D"/>
<stop offset="1"/>
</linearGradient>
<linearGradient id="paint8_linear_338_199" x1="354.983" y1="216.352" x2="387.649" y2="216.352" gradientUnits="userSpaceOnUse">
<stop stop-color="#362E94"/>
<stop offset="0.2602" stop-color="#252066"/>
<stop offset="0.604" stop-color="#110F2F"/>
<stop offset="0.861" stop-color="#05040D"/>
<stop offset="1"/>
</linearGradient>
<linearGradient id="paint9_linear_338_199" x1="556.563" y1="247.605" x2="556.563" y2="196.721" gradientUnits="userSpaceOnUse">
<stop stop-color="#E8EDF9"/>
<stop offset="0.4911" stop-color="#D9DEF0"/>
<stop offset="1" stop-color="#C4C9E4"/>
</linearGradient>
<linearGradient id="paint10_linear_338_199" x1="72.8344" y1="401.073" x2="118.798" y2="401.073" gradientUnits="userSpaceOnUse">
<stop offset="0.4265" stop-color="#C4CAE8"/>
<stop offset="0.5766" stop-color="#D7DBEF"/>
<stop offset="0.8459" stop-color="#F4F5FB"/>
<stop offset="1" stop-color="white"/>
</linearGradient>
<linearGradient id="paint11_linear_338_199" x1="62.0357" y1="405.559" x2="111.04" y2="405.559" gradientUnits="userSpaceOnUse">
<stop stop-color="#D8DEF0"/>
<stop offset="0.5506" stop-color="#C6CCE7"/>
<stop offset="1" stop-color="#BDC3E3"/>
</linearGradient>
<linearGradient id="paint12_linear_338_199" x1="673.881" y1="340.739" x2="645.621" y2="291.8" gradientUnits="userSpaceOnUse">
<stop stop-color="#BDC3E3"/>
<stop offset="0.8426" stop-color="#DBDFEF"/>
<stop offset="1" stop-color="#E1E5F1"/>
</linearGradient>
<linearGradient id="paint13_linear_338_199" x1="163.329" y1="453.328" x2="209.291" y2="453.328" gradientUnits="userSpaceOnUse">
<stop offset="0.4265" stop-color="#C4CAE8"/>
<stop offset="0.5766" stop-color="#D7DBEF"/>
<stop offset="0.8459" stop-color="#F4F5FB"/>
<stop offset="1" stop-color="white"/>
</linearGradient>
<linearGradient id="paint14_linear_338_199" x1="152.528" y1="457.814" x2="201.534" y2="457.814" gradientUnits="userSpaceOnUse">
<stop stop-color="#D8DEF0"/>
<stop offset="0.5506" stop-color="#C6CCE7"/>
<stop offset="1" stop-color="#BDC3E3"/>
</linearGradient>
<linearGradient id="paint15_linear_338_199" x1="673.881" y1="170.734" x2="645.621" y2="121.795" gradientUnits="userSpaceOnUse">
<stop stop-color="#BDC3E3"/>
<stop offset="0.8426" stop-color="#DBDFEF"/>
<stop offset="1" stop-color="#E1E5F1"/>
</linearGradient>
<linearGradient id="paint16_linear_338_199" x1="542.53" y1="86.1132" x2="514.271" y2="37.174" gradientUnits="userSpaceOnUse">
<stop stop-color="#BDC3E3"/>
<stop offset="0.8426" stop-color="#DBDFEF"/>
<stop offset="1" stop-color="#E1E5F1"/>
</linearGradient>
<linearGradient id="paint17_linear_338_199" x1="295.046" y1="523.72" x2="394.341" y2="523.72" gradientUnits="userSpaceOnUse">
<stop stop-color="#C4C9E4"/>
<stop offset="0.2101" stop-color="#D7DAED"/>
<stop offset="0.587" stop-color="#F4F5FA"/>
<stop offset="0.8026" stop-color="white"/>
</linearGradient>
<linearGradient id="paint18_linear_338_199" x1="460.094" y1="494.534" x2="688.629" y2="494.534" gradientUnits="userSpaceOnUse">
<stop stop-color="#D8DEF0"/>
<stop offset="1" stop-color="white"/>
</linearGradient>
<linearGradient id="paint19_linear_338_199" x1="454.301" y1="476.052" x2="505.568" y2="476.052" gradientUnits="userSpaceOnUse">
<stop stop-color="#D8DEF0"/>
<stop offset="0.3093" stop-color="#989CA9"/>
<stop offset="1"/>
</linearGradient>
<linearGradient id="paint20_linear_338_199" x1="293.115" y1="480.063" x2="305.114" y2="480.063" gradientUnits="userSpaceOnUse">
<stop stop-color="#BDC3E3"/>
<stop offset="0.8426" stop-color="#DBDFEF"/>
<stop offset="1" stop-color="#E1E5F1"/>
</linearGradient>
<clipPath id="clip0_338_199">
<rect width="748" height="599" fill="white"/>
</clipPath>
</defs>
</svg>
