<svg width="42" height="30" viewBox="0 0 42 30" fill="none" xmlns="http://www.w3.org/2000/svg">
<path d="M6.19715 8.85103C5.84823 6.98533 5.79759 5.17127 6.69306 3.44969C7.84787 1.22937 9.77563 0.00810001 12.4565 0.00383816C21.7355 -0.0108305 31.0146 0.0177139 40.2936 0.0313915C40.4356 0.0315897 40.5787 0.0443752 40.7192 0.0640986C41.215 0.133775 41.5407 0.456882 41.5531 0.883562C41.566 1.33066 41.2408 1.71512 40.7246 1.75912C38.2724 1.96825 36.8093 3.81274 36.6291 5.95268C36.5367 7.04985 36.5401 8.12384 37.1051 9.12924C37.1846 9.27057 37.2965 9.41676 37.4346 9.50666C39.5901 10.908 40.7608 12.8967 41.3943 15.1939C42.3893 18.8025 42.2002 22.3408 40.5117 25.7542C39.7886 27.2158 38.7755 28.506 37.2109 29.283C36.5244 29.6238 35.7108 29.7565 34.9433 29.9425C34.6582 30.0116 34.3398 29.9675 34.0365 29.9675C25.4712 29.9683 16.9051 29.9103 8.34089 29.9994C5.32614 30.0307 3.32928 28.7889 1.90088 26.5154C0.228695 23.8533 -0.178916 20.9372 0.0647496 17.9309C0.244897 15.7084 0.866774 13.588 2.21868 11.6986C3.19163 10.339 4.45705 9.32161 6.19715 8.85103ZM30.8188 10.4799C30.5303 10.4799 30.34 10.4799 30.1496 10.4799C22.7984 10.4799 15.4469 10.507 8.09583 10.4615C6.19136 10.4497 4.87196 11.2008 3.86189 12.5964C2.72318 14.1697 2.19003 15.9351 1.99798 17.7882C1.71214 20.5466 2.0483 23.2239 3.5737 25.6695C4.48087 27.124 5.67592 28.2325 7.69712 28.2287C15.209 28.2147 22.7209 28.2234 30.2328 28.2219C30.3946 28.2219 30.5565 28.2024 30.7769 28.1881C26.4941 23.7506 26.7029 14.6605 30.8188 10.4799ZM36.6155 1.79351C36.4097 1.7838 36.3086 1.77478 36.2075 1.77478C28.2308 1.76993 20.2542 1.7615 12.2775 1.76467C10.4773 1.76537 8.90451 2.8225 8.28038 4.41276C7.80699 5.61887 7.76343 6.85985 7.97716 8.11383C8.04508 8.51246 8.21535 8.75023 8.76846 8.74894C17.2625 8.72912 25.7567 8.73526 34.2508 8.73398C34.4394 8.73398 34.628 8.71762 34.8584 8.70702C34.441 6.18728 34.6647 3.8499 36.6155 1.79351ZM29.5034 19.303C29.5669 20.0247 29.5967 20.7505 29.7005 21.4671C29.9864 23.4407 30.6647 25.2743 32.0639 26.8334C33.6125 28.5592 35.5508 28.6424 37.2733 27.0593C38.1246 26.2768 38.7031 25.3326 39.1162 24.3077C40.374 21.1869 40.4003 18.0286 39.308 14.8715C38.8197 13.4602 38.0666 12.1686 36.7578 11.2362C35.4104 10.2764 34.1345 10.2228 32.8274 11.2426C32.2514 11.692 31.7309 12.2449 31.33 12.8349C29.9915 14.8043 29.5711 17.0116 29.5034 19.303Z" fill="#423EAF"/>
<path d="M38.75 19.3672C38.7173 20.9285 38.5424 22.4723 37.8207 23.897C37.4804 24.5688 37.0493 25.2632 36.4691 25.7565C35.3014 26.7492 33.6549 26.5003 32.6216 25.3146C31.7312 24.2929 31.3436 23.077 31.1003 21.8258C30.7243 19.8921 30.769 17.9569 31.3058 16.0464C31.6315 14.8875 32.086 13.7865 33.1105 12.9742C34.2716 12.0538 35.6737 12.12 36.7226 13.1666C37.8893 14.3308 38.3109 15.7919 38.5639 17.3017C38.678 17.9828 38.6911 18.6782 38.75 19.3672ZM36.6025 21.6221C36.8548 20.432 36.8717 19.2093 36.7001 18.0071C36.6224 17.4632 36.5332 16.9221 36.3916 16.3929C36.2162 15.7378 35.8504 15.1077 35.4674 14.5237C35.0932 13.9531 34.6275 13.9502 34.1902 14.4742C33.8908 14.833 33.6309 15.2395 33.4508 15.6604C32.7951 17.1925 32.688 18.8037 32.8205 20.4227C32.916 21.5893 33.1692 22.7399 33.8074 23.7763C34.4766 24.8631 35.1182 24.8567 35.7861 23.7599C36.2016 23.0778 36.4459 22.3607 36.6025 21.6221Z" fill="#423EAF"/>
</svg>
