<svg width="38" height="20" viewBox="0 0 38 20" fill="none" xmlns="http://www.w3.org/2000/svg">
<path d="M19.3176 19.9964C15.3849 20.0145 12.0784 18.9451 8.95868 17.3039C5.80061 15.6424 3.03984 13.4847 0.570751 10.9877C-0.185447 10.2229 -0.195016 9.75968 0.567062 9.01874C3.46238 6.20361 6.60765 3.70144 10.3889 2.00634C13.0845 0.797986 15.9047 0.0167308 18.8965 0.0010222C21.9296 -0.0149061 24.7957 0.750091 27.5262 1.97646C31.2835 3.66409 34.4538 6.10924 37.3257 8.92614C38.2064 9.79 38.2193 10.1043 37.3905 11.0093C35.886 12.6524 34.1151 14.0201 32.2796 15.3096C29.8939 16.986 27.3221 18.3393 24.477 19.1743C22.6988 19.6962 20.8827 20.044 19.3176 19.9964ZM26.7023 10.0227C26.707 5.93381 23.2591 2.64413 18.9799 2.65467C14.7259 2.66522 11.2755 5.94722 11.2685 9.98959C11.2616 14.0313 14.7129 17.3444 18.9444 17.358C23.2363 17.372 26.6976 14.0991 26.7023 10.0227ZM26.2023 3.62443C27.8673 5.45926 28.7607 7.54828 28.7743 9.96774C28.7879 12.3976 27.8926 14.4991 26.2523 16.3561C29.8401 14.8795 32.8096 12.615 35.5665 10.0087C32.7762 7.34726 29.7742 5.10346 26.2023 3.62443ZM11.7037 16.3527C8.42568 12.8645 8.23914 7.34231 11.8768 3.53457C8.22023 5.11971 5.18933 7.33089 2.45219 10.0142C5.18945 12.6557 8.1529 14.8803 11.7037 16.3527Z" fill="#423EAF"/>
<path d="M20.1527 5.59653C19.3077 6.62912 19.3622 7.67435 20.257 8.33334C21.1657 9.00265 22.2698 8.78295 23.0769 7.77222C24.1696 8.7946 24.0375 11.3552 22.8171 12.8098C21.2114 14.7237 18.4888 15.1617 16.3303 13.8536C14.3211 12.636 13.5821 10.047 14.651 7.96995C15.6481 6.03208 18.1775 4.93018 20.1527 5.59653Z" fill="#423EAF"/>
</svg>
