<svg width="20" height="20" viewBox="0 0 20 20" fill="none" xmlns="http://www.w3.org/2000/svg">
<path d="M7.0307 19.9999C7.02203 19.8707 7.00586 19.7416 7.00578 19.6125C7.00445 15.5666 7.00469 11.5208 7.00469 7.47496C7.00469 7.3352 7.00469 7.19551 7.00469 7.03067C8.35094 7.03067 9.65594 7.03067 10.992 7.03067C10.992 7.4634 10.992 7.87567 10.992 8.37934C11.1146 8.25043 11.1832 8.18864 11.2397 8.11731C13.0621 5.81574 16.0188 5.91731 17.7603 6.92629C19.0796 7.69059 19.6789 8.922 19.9179 10.3718C19.9363 10.4836 19.9718 10.5926 19.9994 10.703C19.9994 13.802 19.9994 16.9009 19.9994 19.9999C18.6712 19.9999 17.3431 19.9999 16.015 19.9999C16.0117 17.7215 16.0116 15.4432 16.002 13.1649C16.0005 12.8146 15.9772 12.4615 15.9273 12.1149C15.7678 11.007 15.139 10.2669 14.2175 10.0731C12.4652 9.70457 11.0548 10.8077 11.0237 12.6574C10.9825 15.1043 11.0145 17.5523 11.015 19.9999C9.68695 19.9999 8.35883 19.9999 7.0307 19.9999Z" fill="white"/>
<path d="M3.05176e-05 7.03125C1.64878 7.03125 3.29753 7.03125 5.00003 7.03125C5.00003 11.353 5.00003 15.6766 5.00003 20C3.33698 20 1.67394 20 3.05176e-05 20C3.05176e-05 15.6771 3.05176e-05 11.3541 3.05176e-05 7.03125Z" fill="white"/>
<path d="M2.89062 0C2.98375 0.0377344 3.07516 0.0807813 3.17039 0.1125C4.33469 0.500078 5.00211 1.57086 4.85266 2.8143C4.71914 3.92492 3.75898 4.83188 2.62812 4.91563C1.46203 5.00195 0.417422 4.25836 0.0814844 3.10438C0.0602344 3.03141 0.0274219 2.9618 0 2.89063C0 2.60414 0 2.31773 0 2.03125C0.119531 1.74625 0.214063 1.44727 0.363672 1.17898C0.728047 0.525469 1.34563 0.209922 2.03125 0C2.31773 0 2.60414 0 2.89062 0Z" fill="white"/>
</svg>
