<svg width="37" height="30" viewBox="0 0 22 37" fill="none" xmlns="http://www.w3.org/2000/svg">
<path d="M4.147 13.4073C4.147 12.7103 4.147 12.045 4.147 11.3797C4.147 9.93271 4.14576 8.48567 4.14729 7.03863C4.14969 4.85841 5.98811 3.58183 8.0298 4.34055C8.07302 4.35662 8.11845 4.36638 8.28414 4.41372C8.28414 3.79801 8.24485 3.21969 8.29161 2.64845C8.42664 0.99853 9.55956 -0.0401648 11.1333 0.00106159C12.593 0.0393228 13.6724 1.19462 13.7487 2.79929C13.7524 2.87677 13.7621 2.95396 13.7624 2.95731C14.318 2.89131 14.8625 2.75367 15.3998 2.77739C16.6923 2.83449 17.7996 3.96358 17.8478 5.25844C17.888 6.3375 17.8561 7.41933 17.8561 8.56544C18.7309 8.13529 19.5748 8.10038 20.4146 8.49791C21.3756 8.95284 21.9505 9.72696 21.9552 10.7764C21.9799 16.1508 22.0582 21.5279 21.9207 26.899C21.8497 29.6723 20.6133 32.072 18.5539 33.9953C16.0694 36.3157 13.1181 37.2631 9.7563 36.9376C5.08567 36.4855 0.96176 32.6442 0.212167 28.0496C0.0797285 27.2377 0.0173423 26.4062 0.0124549 25.5832C-0.00881968 22.0373 0.00296758 18.4913 0.00354257 14.9452C0.00373423 13.5669 0.569139 12.9946 1.93857 13.0015C2.30321 13.0034 2.67369 13.0099 3.03066 13.0742C3.38438 13.138 3.72439 13.2775 4.147 13.4073ZM1.43517 14.4198C1.42558 14.5695 1.41437 14.6628 1.41437 14.7563C1.41447 18.5418 1.40594 22.3272 1.41983 26.1126C1.42903 28.6046 2.3125 30.7566 3.99693 32.5957C7.22185 36.1166 12.8505 36.6604 16.6713 33.7897C19.273 31.8349 20.5948 29.1996 20.6194 25.9628C20.6566 21.0483 20.6292 16.1335 20.6287 11.2188C20.6287 11.0916 20.6381 10.9615 20.6149 10.8381C20.5052 10.2575 20.2494 9.8052 19.6283 9.61792C19.0412 9.44096 18.54 9.62365 18.2377 10.0752C18.008 10.4183 17.8923 10.8979 17.8856 11.3194C17.8515 13.4502 17.8723 15.5818 17.867 17.713C17.8658 18.1702 17.5885 18.4849 17.2091 18.4991C16.8175 18.5137 16.5234 18.1819 16.5088 17.7059C16.5048 17.5788 16.5076 17.4515 16.5076 17.3242C16.5076 13.491 16.5092 9.6579 16.504 5.8247C16.5036 5.55735 16.4959 5.27537 16.4139 5.02571C16.2505 4.52851 15.9168 4.1919 15.3666 4.10151C14.7969 4.00787 14.3221 4.21438 14.0527 4.67371C13.8557 5.00955 13.7628 5.4529 13.7607 5.84909C13.74 9.71395 13.7483 13.5789 13.7482 17.444C13.7482 18.1622 13.5357 18.4909 13.0683 18.4992C12.613 18.5073 12.3997 18.1726 12.3996 17.4454C12.3993 12.658 12.4006 7.87043 12.3964 3.083C12.3962 2.83124 12.3851 2.57001 12.3192 2.32954C12.1669 1.77342 11.7854 1.43566 11.2127 1.34795C10.6301 1.25871 10.1535 1.49133 9.89449 1.99676C9.72956 2.31854 9.65165 2.71942 9.6504 3.0852C9.63488 7.85675 9.64015 12.6283 9.64006 17.3999C9.64006 18.1532 9.4253 18.4964 8.95285 18.4999C8.48711 18.5032 8.25548 18.1416 8.25539 17.4027C8.25472 14.0309 8.25568 10.6589 8.25385 7.28704C8.25376 7.06484 8.25146 6.84063 8.223 6.62092C8.10417 5.70341 7.16847 5.18679 6.33531 5.58337C5.87063 5.80461 5.61313 6.19516 5.54355 6.69887C5.51327 6.91801 5.52228 7.14328 5.52228 7.36586C5.52122 12.1056 5.52189 16.8454 5.52113 21.5851C5.52103 22.2741 5.30723 22.5949 4.85021 22.6038C4.36741 22.6132 4.14854 22.2981 4.14767 21.5759C4.14566 19.8422 4.14825 18.1085 4.14547 16.3748C4.14509 16.1527 4.14039 15.9283 4.10972 15.7089C4.0206 15.071 3.4435 14.4823 2.81073 14.4271C2.37096 14.3888 1.92515 14.4198 1.43517 14.4198Z" fill="white"/>
</svg>
