<svg width="171" height="26" viewBox="0 0 171 26" fill="none" xmlns="http://www.w3.org/2000/svg"> 
<path d="M0.231209 25.4864V8.63785H4.72059V10.6926C5.67511 9.04896 7.90197 8.15845 9.81074 8.15845C12.1795 8.15845 14.0882 9.15154 14.972 10.9663C16.3505 8.91157 18.1887 8.15845 20.4861 8.15845C23.7032 8.15845 26.7786 10.0418 26.7786 14.5621V25.4864H22.2184V15.4864C22.2184 13.6716 21.2993 12.3019 19.143 12.3019C17.128 12.3019 15.9262 13.8085 15.9262 15.6235V25.4864H11.2595V15.4864C11.2595 13.6716 10.3053 12.3019 8.18438 12.3019C6.13373 12.3019 4.93193 13.7742 4.93193 15.6235V25.4864H0.231209Z" fill="white"/>
<path d="M42.1548 13.1577C41.6246 13.0548 41.1652 13.0208 40.7409 13.0208C38.3373 13.0208 36.2512 14.1508 36.2512 17.7806V25.4859H31.55V8.63735H36.1099V11.1375C37.1706 8.91133 39.5742 8.50049 41.0592 8.50049C41.4479 8.50049 41.8013 8.5345 42.1548 8.56905V13.1577Z" fill="white"/>
<path d="M45.5835 19.4934C47.3864 19.4934 48.8354 20.8973 48.8354 22.6098C48.8354 24.322 47.3861 25.7262 45.5835 25.7262C43.8158 25.7262 42.3665 24.3223 42.3665 22.6098C42.3665 20.8973 43.8158 19.4934 45.5835 19.4934Z" fill="white"/>
<path d="M67.9593 6.7885V8.63755H71.8828V12.5416H67.9593V25.4863H63.2224V12.5416H60.3234V8.63755H63.2224V6.71967C63.2224 2.91845 65.697 0.453125 69.55 0.453125C70.5396 0.453125 71.4939 0.623998 71.883 0.795404V4.63064C71.6358 4.56208 71.1763 4.4595 70.3983 4.4595C69.3376 4.45977 67.9593 4.90489 67.9593 6.7885Z" fill="white"/>
<path d="M78.8462 15.7947L83.1234 15.1785C84.1133 15.0413 84.4314 14.5619 84.4314 13.9799C84.4314 12.7817 83.4769 11.7883 81.4973 11.7883C79.4472 11.7883 78.3157 13.0554 78.1743 14.5282L74.003 13.6722C74.2854 11.0355 76.7958 8.12451 81.4622 8.12451C86.9766 8.12451 89.027 11.1383 89.027 14.5284V22.816C89.027 23.7065 89.1332 24.905 89.2394 25.487H84.9268C84.8206 25.0419 84.75 24.1171 84.75 23.4663C83.8666 24.8019 82.2051 25.9664 79.6245 25.9664C75.9129 25.9664 73.6504 23.5351 73.6504 20.8981C73.6498 17.8835 75.9475 16.2056 78.8462 15.7947ZM84.4311 18.6711V17.9175L80.5077 18.4995C79.3053 18.6709 78.3511 19.3217 78.3511 20.6228C78.3511 21.6159 79.0937 22.5749 80.6133 22.5749C82.5932 22.5755 84.4311 21.6507 84.4311 18.6711Z" fill="white"/>
<path d="M93.7628 25.4861V0.692871H98.3938V10.4869C99.1714 9.28867 101.081 8.19247 103.661 8.19247C108.751 8.19247 111.686 11.9937 111.686 16.9937C111.686 22.0963 108.433 25.8975 103.484 25.8975C101.081 25.8975 99.2422 24.8699 98.323 23.4316V25.4864H93.7626V25.4861H93.7628ZM102.671 12.2674C100.303 12.2674 98.323 13.9459 98.323 17.0274C98.323 20.0753 100.303 21.8218 102.671 21.8218C105.075 21.8218 106.984 20.1096 106.984 17.0274C106.984 13.9459 105.075 12.2674 102.671 12.2674Z" fill="white"/>
<path d="M126.002 13.1577C125.472 13.0548 125.012 13.0208 124.588 13.0208C122.184 13.0208 120.098 14.1508 120.098 17.7806V25.4859H115.397V8.63735H119.957V11.1375C121.017 8.91133 123.421 8.50049 124.905 8.50049C125.295 8.50049 125.647 8.5345 126.002 8.56905V13.1577H126.002Z" fill="white"/>
<path d="M131.657 0.281738C133.283 0.281738 134.556 1.54855 134.556 3.12415C134.556 4.63066 133.283 5.898 131.657 5.898C130.066 5.898 128.759 4.63093 128.759 3.12415C128.758 1.54855 130.066 0.281738 131.657 0.281738ZM129.323 25.4858V8.6373H134.026V25.4858H129.323Z" fill="white"/>
<path d="M142.438 17.0619C142.438 20.1097 144.488 21.8219 146.893 21.8219C149.297 21.8219 150.498 20.2811 150.886 18.9795L155.024 20.3152C154.244 23.1233 151.523 25.9997 146.893 25.9997C141.766 25.9997 137.736 22.2328 137.736 17.0616C137.736 11.8565 141.696 8.12329 146.751 8.12329C151.488 8.12329 154.174 10.9657 154.917 13.8081L150.711 15.178C150.286 13.7738 149.19 12.3356 146.858 12.3356C144.452 12.3362 142.438 14.0141 142.438 17.0619Z" fill="white"/>
<path d="M161.031 19.9383C161.138 21.2739 162.163 22.5065 164.214 22.5065C165.768 22.5065 166.51 21.7188 166.51 20.8286C166.51 20.0749 165.98 19.4586 164.636 19.1847L162.34 18.6712C158.982 17.9521 157.46 16.0002 157.46 13.637C157.46 10.6234 160.219 8.12354 163.966 8.12354C168.914 8.12354 170.576 11.1714 170.788 12.9864L166.865 13.8424C166.723 12.849 165.981 11.5819 164.002 11.5819C162.765 11.5819 161.774 12.3013 161.774 13.2604C161.774 14.0823 162.411 14.596 163.365 14.7672L165.839 15.2809C169.269 15.9654 171.001 17.9861 171.001 20.4517C171.001 23.1916 168.809 25.9994 164.247 25.9994C159.017 25.9994 157.214 22.7119 157.001 20.7943L161.031 19.9383Z" fill="white"/>
</svg>
