<svg width="46" height="82" viewBox="0 0 46 82" fill="none" xmlns="http://www.w3.org/2000/svg">
<path d="M0 0H46V62C46 73.0457 37.0457 82 26 82H20C8.95431 82 0 73.0457 0 62V0Z" fill="#423EAF"/>
<path d="M22.4174 48.0001C25.3627 47.9862 27.7996 50.4053 27.8247 53.3681C27.8497 56.316 25.4298 58.7451 22.4366 58.7766C19.4752 58.8077 16.9915 56.3762 16.9953 53.3983C16.9992 50.3871 19.4246 48.0192 22.4174 48.0001ZM26.5985 53.3799C26.5847 51.0565 24.6863 49.1562 22.407 49.1842C20.0594 49.213 18.2048 51.0837 18.22 53.4072C18.2354 55.7445 20.0804 57.575 22.4232 57.5776C24.7406 57.5801 26.6122 55.6984 26.5985 53.3799Z" fill="white"/>
<path d="M14.2335 67C13.8176 67 13.4348 67 13 67C13.0279 66.2554 13.0028 65.5137 13.0935 64.7863C13.3049 63.0898 14.158 61.7519 15.5444 60.7604C16.4696 60.0987 17.5158 59.7238 18.652 59.7028C20.4735 59.669 22.2961 59.6893 24.1183 59.6878C24.8367 59.6873 25.5555 59.6772 26.2737 59.6931C29.0155 59.7541 31.3765 61.7506 31.8858 64.4371C31.9435 64.741 31.9813 65.052 31.991 65.3609C32.0079 65.8992 31.9957 66.4384 31.9957 66.9927C31.6099 66.9927 31.2284 66.9927 30.8095 66.9927C30.8095 66.9132 30.8124 66.8283 30.8091 66.7437C30.7817 66.0657 30.8229 65.3761 30.7117 64.712C30.384 62.754 28.7858 61.2327 26.8237 60.9362C26.6196 60.9053 26.4117 60.8849 26.2055 60.8847C23.7389 60.8816 21.2721 60.863 18.8059 60.8913C17.3412 60.9081 16.1591 61.5588 15.2417 62.6891C14.5417 63.5516 14.2471 64.5561 14.2343 65.6528C14.2292 66.0951 14.2335 66.5375 14.2335 67Z" fill="white"/>
</svg>
