<svg width="33" height="27" viewBox="0 0 33 27" fill="none" xmlns="http://www.w3.org/2000/svg">
<path d="M0 26.9708C0 26.4399 0 25.9579 0 25.4193C0.647572 25.4193 1.28044 25.3925 1.90984 25.4267C2.56623 25.4623 3.01003 25.1802 3.24276 24.6333C3.52217 23.9766 3.72666 23.2906 3.97159 22.6201C4.33877 21.6149 4.62976 20.5741 5.10172 19.6162C6.06061 17.6698 7.7387 16.5976 9.93062 16.2487C10.0475 16.23 10.1666 16.1931 10.2818 16.2013C11.2256 16.2692 11.8398 15.7792 12.4751 15.1699C17.3333 10.51 22.227 5.88427 27.0983 1.23685C27.8404 0.528854 28.6498 -0.00964738 29.7306 0.000131067C31.0013 0.0115393 32.0017 0.538804 32.5969 1.62936C33.1942 2.72377 33.1218 3.82822 32.4189 4.87169C32.2512 5.12052 32.0388 5.34637 31.8216 5.55858C26.7271 10.5356 21.6276 15.508 16.5384 20.49C16.3781 20.6469 16.2494 20.8885 16.2191 21.1054C15.8577 23.6798 14.3472 25.3454 11.871 26.2574C10.5009 26.7621 9.07429 26.988 7.61226 26.9941C5.16783 27.0043 2.7234 26.9983 0.27888 26.9978C0.193434 26.9977 0.107899 26.9816 0 26.9708ZM15.444 19.2385C15.5333 19.1577 15.6428 19.0649 15.745 18.9653C18.7845 16.0026 21.8238 13.0398 24.8619 10.076C26.8698 8.11719 28.8797 6.16038 30.8801 4.19474C31.4019 3.68206 31.4921 3.0396 31.178 2.42279C30.8717 1.82115 30.2739 1.53964 29.5213 1.59899C29.0264 1.63802 28.727 1.9517 28.4131 2.24977C23.4565 6.9557 18.5026 11.6642 13.5462 16.3703C13.3605 16.5466 13.1551 16.7038 12.9786 16.8531C13.84 17.6865 14.6317 18.4524 15.444 19.2385ZM4.77544 25.4028C5.85835 25.4028 6.94785 25.4888 8.01579 25.3792C9.13951 25.264 10.2803 25.0683 11.346 24.7171C13.1234 24.1314 14.2784 22.9307 14.533 21.0685C14.5573 20.8914 14.4669 20.6425 14.3372 20.5127C13.4745 19.6498 12.596 18.8007 11.698 17.9719C11.5401 17.8262 11.2614 17.7143 11.0469 17.7262C8.71166 17.8561 7.021 18.8997 6.22054 21.0665C5.69664 22.4846 5.26165 23.9331 4.77544 25.4028Z" fill="white"/>
</svg>
