<svg xmlns="http://www.w3.org/2000/svg" viewBox="0 0 490.09 411.92"><defs><style>.cls-1{isolation:isolate;}.cls-2{fill:#feb489;}.cls-3{fill:#fc771e;}.cls-4{fill:#cab6ac;mix-blend-mode:multiply;}.cls-15,.cls-5{fill:#fff;}.cls-6{fill:#e3e3e3;}.cls-7{fill:#fc5c00;}.cls-8{fill:#fd781e;}.cls-9{fill:#edbc2c;}.cls-10{fill:#f3d442;}.cls-11{fill:#f1f1f1;}.cls-12{fill:#d9d9d9;}.cls-13{fill:#ebebeb;}.cls-14{fill:#f4d833;}.cls-15{mix-blend-mode:overlay;}.cls-16{fill:#f3f3f3;}.cls-17{fill:#c2c0c3;}.cls-18{fill:#fec000;}</style></defs><g class="cls-1"><g id="Capa_2" data-name="Capa 2"><g id="Capa_1-2" data-name="Capa 1"><polygon class="cls-2" points="32.47 142.96 322.93 101.57 309.22 376.38 51.34 390.49 32.47 142.96"/><polygon class="cls-3" points="126.85 387.31 333.38 411.92 337.36 321.01 126.85 387.31"/><polygon class="cls-4" points="337.36 321.01 126.85 387.31 335.18 370.76 337.36 321.01"/><polygon class="cls-5" points="385.41 339.11 126.85 387.31 121.16 321.01 385.41 339.11"/><polygon class="cls-6" points="385.41 339.11 121.16 321.01 125.26 368.78 385.41 339.11"/><polygon class="cls-5" points="307.65 0 357.84 47.79 293.36 60.31 307.65 0"/><polygon class="cls-7" points="52.04 76.2 401.93 29.59 385.41 339.11 74.78 354.99 52.04 76.2"/><path class="cls-8" d="M235.61,222.14l156.47-8,9.85-184.55L171.74,60.25l9.31,114.11A52.07,52.07,0,0,0,235.61,222.14Z"/><polygon class="cls-4" points="315.43 41.11 52.04 76.2 57.16 138.91 311.19 100.18 315.43 41.11"/><polygon class="cls-9" points="24.44 46.65 307.65 0 302.09 77.42 18.75 120.62 24.44 46.65"/><path class="cls-10" d="M108.2,54.52,305.89,24.39,307.65,0,94,35.19l-.45,5.75A12.76,12.76,0,0,0,108.2,54.52Z"/><path class="cls-4" d="M366.48,295.7l-1.3.22-1.69.27-1.29.21-1.65.27-1.33.21-1.55.25-1.39.21-1.45.23-1.48.23-1.26.2-1.75.27-.93.14-2.61.39a14.36,14.36,0,0,0-12.13,15.64l.64,6.33a14.31,14.31,0,0,0,4,8.53,14.68,14.68,0,0,0,2,1.74,14.26,14.26,0,0,0,6.23,2.48,13.76,13.76,0,0,0,2.81.13l2.59-.13.9,0,1.82-.09,1.07-.05H357a60.51,60.51,0,0,0,.24,7.23l14.62-.75,0-.38c0-.2,0-.41,0-.61a4.36,4.36,0,0,1,0-.51,5.83,5.83,0,0,1,0-.59l0-.47c0-.19,0-.38,0-.56s0-.3,0-.45,0-.36,0-.53,0-.28,0-.41V334c0-.12,0-.24,0-.34s0-.3,0-.44v-.29c0-.07,0-.13,0-.19,3.05-.12,8.47-.62,14.13-1.15l2.12-39.63c-6.38,1.22-13.13,2.4-19.72,3.5Z"/><path class="cls-11" d="M363.44,319.33s-1.81,18.05,7.34,30.4a.9.9,0,0,1-.29,1.32,23.87,23.87,0,0,1-13.74,3s-8.24-20.4-6.11-36.16C358.27,312.73,363.44,319.33,363.44,319.33Z"/><path class="cls-12" d="M368.88,349.65c-8.75-11.52-7.74-28.22-7.56-30.41a.59.59,0,0,0-.15-.44l0,0a.59.59,0,0,1,.8-.87,9.56,9.56,0,0,1,1.32,1.22.59.59,0,0,1,.15.44c-.18,2.19-1.19,18.89,7.56,30.41a.6.6,0,0,1-.16.87,23.85,23.85,0,0,1-14.07,3.22s0-.08-.1-.24a24.24,24.24,0,0,0,12.07-3.31A.6.6,0,0,0,368.88,349.65Z"/><path class="cls-13" d="M331.11,310.9l-.57-5.6a12.7,12.7,0,0,1,10.75-13.85c12.67-1.91,29.85-4.68,43.49-7.51,24.75-5.14,36.29-26.29,36.29-26.29l4.53,38.49h.07l.2,2.33.27,2.32h-.07l3.29,38.61s-15.55-18.4-40.82-18.47c-13.94,0-31.33.71-44.12,1.38A12.71,12.71,0,0,1,331.11,310.9Z"/><path class="cls-14" d="M359.39,305.5c.77,7.6,2.36,13.94,3.87,16-6.71.25-13.22.55-18.84.85a12.71,12.71,0,0,1-13.31-11.41l-.57-5.6a12.7,12.7,0,0,1,10.75-13.85c5.72-.86,12.36-1.9,19.18-3C359,289.59,358.51,296.85,359.39,305.5Z"/><path class="cls-15" d="M422.06,286l-.38.47c-1.84,2.25-10.21,11.73-22.41,14.09-13.87,2.68-59.31,5.47-62.4,5.68s-4.43-10.23,1.22-11.13,39.83-6.5,51.23-7.6S414.56,274.6,421,263.18A132.12,132.12,0,0,1,422.06,286Z"/><ellipse class="cls-16" cx="426.04" cy="298.45" rx="6.31" ry="41.48" transform="translate(-27.94 44.51) rotate(-5.79)"/><path class="cls-17" d="M421.73,258.87c-2.6.26-2.93,18.15-.71,39.94s6.11,39.26,8.72,39,2.92-18.15.71-39.94S424.34,258.6,421.73,258.87Z"/><polygon class="cls-8" points="442.87 294.31 479.37 261.37 490.09 277.84 442.87 294.31"/><polygon class="cls-18" points="444.21 305.65 470.5 315.56 473.19 298.89 444.21 305.65"/><polygon class="cls-8" points="437.36 322.33 464.46 339.4 470.63 329 437.36 322.33"/><polygon class="cls-18" points="424.59 275.63 454.53 264.25 449.94 253.06 424.59 275.63"/><polygon class="cls-5" points="7 132.12 0 151.4 11.29 168.81 4.21 188.32 15.5 205.73 8.42 225.23 19.71 242.64 13.29 260.32 15.86 260.03 22.28 242.35 10.99 224.94 18.07 205.43 6.78 188.02 13.86 168.52 2.57 151.1 9.57 131.82 7 132.12"/><polygon class="cls-5" points="17.44 130.93 10.44 150.21 21.73 167.62 14.65 187.13 25.94 204.54 18.86 224.04 30.15 241.45 23.73 259.13 26.3 258.84 32.72 241.16 21.43 223.75 28.51 204.24 17.22 186.83 24.3 167.33 13.01 149.91 20.01 130.63 17.44 130.93"/><polygon class="cls-5" points="27.88 129.74 20.88 149.02 32.17 166.43 25.09 185.94 36.38 203.35 29.3 222.85 40.59 240.26 34.17 257.94 36.74 257.65 43.16 239.97 31.87 222.56 38.95 203.05 27.66 185.64 34.74 166.14 23.45 148.72 30.45 129.44 27.88 129.74"/><polygon class="cls-5" points="38.32 128.55 31.32 147.83 42.61 165.24 35.53 184.75 46.82 202.16 39.74 221.66 51.03 239.07 44.61 256.75 47.18 256.46 53.6 238.78 42.31 221.37 49.39 201.86 38.1 184.45 45.18 164.95 33.89 147.53 40.89 128.25 38.32 128.55"/><path class="cls-5" d="M413.7,40.57a4.08,4.08,0,1,1,4.08-4.07A4.08,4.08,0,0,1,413.7,40.57Z"/><path class="cls-5" d="M413.7,56.6a4.08,4.08,0,1,1,4.08-4.08A4.08,4.08,0,0,1,413.7,56.6Z"/><path class="cls-5" d="M413.7,72.62a4.08,4.08,0,1,1,4.08-4.08A4.08,4.08,0,0,1,413.7,72.62Z"/><path class="cls-5" d="M413.7,88.65a4.08,4.08,0,1,1,4.08-4.08A4.08,4.08,0,0,1,413.7,88.65Z"/><path class="cls-5" d="M413.7,104.67a4.08,4.08,0,1,1,4.08-4.08A4.08,4.08,0,0,1,413.7,104.67Z"/><path class="cls-5" d="M413.7,120.7a4.08,4.08,0,1,1,4.08-4.08A4.08,4.08,0,0,1,413.7,120.7Z"/><path class="cls-5" d="M413.7,136.72a4.08,4.08,0,1,1,4.08-4.08A4.08,4.08,0,0,1,413.7,136.72Z"/><path class="cls-5" d="M413.7,152.74a4.08,4.08,0,1,1,4.08-4.07A4.08,4.08,0,0,1,413.7,152.74Z"/><path class="cls-5" d="M396,40.57A4.08,4.08,0,1,1,400,36.5,4.07,4.07,0,0,1,396,40.57Z"/><path class="cls-5" d="M396,56.6A4.08,4.08,0,1,1,400,52.52,4.08,4.08,0,0,1,396,56.6Z"/><path class="cls-5" d="M396,72.62A4.08,4.08,0,1,1,400,68.54,4.07,4.07,0,0,1,396,72.62Z"/><path class="cls-5" d="M396,88.65A4.08,4.08,0,1,1,400,84.57,4.08,4.08,0,0,1,396,88.65Z"/><path class="cls-5" d="M396,104.67a4.08,4.08,0,1,1,4.07-4.08A4.07,4.07,0,0,1,396,104.67Z"/><path class="cls-5" d="M396,120.7a4.08,4.08,0,1,1,4.07-4.08A4.08,4.08,0,0,1,396,120.7Z"/><path class="cls-5" d="M396,136.72a4.08,4.08,0,1,1,4.07-4.08A4.08,4.08,0,0,1,396,136.72Z"/><path class="cls-5" d="M396,152.74a4.08,4.08,0,1,1,4.07-4.07A4.07,4.07,0,0,1,396,152.74Z"/><path class="cls-5" d="M378.19,40.57a4.08,4.08,0,1,1,4.08-4.07A4.08,4.08,0,0,1,378.19,40.57Z"/><path class="cls-5" d="M378.19,56.6a4.08,4.08,0,1,1,4.08-4.08A4.08,4.08,0,0,1,378.19,56.6Z"/><path class="cls-5" d="M378.19,72.62a4.08,4.08,0,1,1,4.08-4.08A4.08,4.08,0,0,1,378.19,72.62Z"/><path class="cls-5" d="M378.19,88.65a4.08,4.08,0,1,1,4.08-4.08A4.08,4.08,0,0,1,378.19,88.65Z"/><path class="cls-5" d="M378.19,104.67a4.08,4.08,0,1,1,4.08-4.08A4.08,4.08,0,0,1,378.19,104.67Z"/><path class="cls-5" d="M378.19,120.7a4.08,4.08,0,1,1,4.08-4.08A4.08,4.08,0,0,1,378.19,120.7Z"/><path class="cls-5" d="M378.19,136.72a4.08,4.08,0,1,1,4.08-4.08A4.08,4.08,0,0,1,378.19,136.72Z"/><path class="cls-5" d="M378.19,152.74a4.08,4.08,0,1,1,4.08-4.07A4.08,4.08,0,0,1,378.19,152.74Z"/><path class="cls-5" d="M378.19,168.77a4.08,4.08,0,1,1,4.08-4.08A4.08,4.08,0,0,1,378.19,168.77Z"/><path class="cls-5" d="M378.19,184.79a4.08,4.08,0,1,1,4.08-4.08A4.08,4.08,0,0,1,378.19,184.79Z"/><path class="cls-5" d="M378.19,200.82a4.08,4.08,0,1,1,4.08-4.08A4.08,4.08,0,0,1,378.19,200.82Z"/><path class="cls-5" d="M360.44,168.77a4.08,4.08,0,1,1,4.08-4.08A4.08,4.08,0,0,1,360.44,168.77Z"/><path class="cls-5" d="M360.44,184.79a4.08,4.08,0,1,1,4.08-4.08A4.08,4.08,0,0,1,360.44,184.79Z"/><path class="cls-5" d="M360.44,200.82a4.08,4.08,0,1,1,4.08-4.08A4.08,4.08,0,0,1,360.44,200.82Z"/><path class="cls-5" d="M342.68,168.77a4.08,4.08,0,1,1,4.08-4.08A4.08,4.08,0,0,1,342.68,168.77Z"/><path class="cls-5" d="M342.68,184.79a4.08,4.08,0,1,1,4.08-4.08A4.07,4.07,0,0,1,342.68,184.79Z"/><path class="cls-5" d="M342.68,200.82a4.08,4.08,0,1,1,4.08-4.08A4.08,4.08,0,0,1,342.68,200.82Z"/></g></g></g></svg>