<svg xmlns="http://www.w3.org/2000/svg" viewBox="0 0 53.72 128.31"><defs><style>.cls-1{fill:#fff;}</style></defs><g id="Capa_2" data-name="Capa 2"><g id="Capa_1-2" data-name="Capa 1"><path class="cls-1" d="M48.7,10a5,5,0,1,1,5-5A5,5,0,0,1,48.7,10Z"/><path class="cls-1" d="M48.7,29.75a5,5,0,1,1,5-5A5,5,0,0,1,48.7,29.75Z"/><path class="cls-1" d="M48.7,49.46a5,5,0,1,1,5-5A5,5,0,0,1,48.7,49.46Z"/><path class="cls-1" d="M48.7,69.17a5,5,0,1,1,5-5A5,5,0,0,1,48.7,69.17Z"/><path class="cls-1" d="M48.7,88.89a5,5,0,1,1,5-5A5,5,0,0,1,48.7,88.89Z"/><path class="cls-1" d="M48.7,108.6a5,5,0,1,1,5-5A5,5,0,0,1,48.7,108.6Z"/><path class="cls-1" d="M48.7,128.31a5,5,0,1,1,5-5A5,5,0,0,1,48.7,128.31Z"/><path class="cls-1" d="M26.86,10a5,5,0,1,1,5-5A5,5,0,0,1,26.86,10Z"/><path class="cls-1" d="M26.86,29.75a5,5,0,1,1,5-5A5,5,0,0,1,26.86,29.75Z"/><path class="cls-1" d="M26.86,49.46a5,5,0,1,1,5-5A5,5,0,0,1,26.86,49.46Z"/><path class="cls-1" d="M26.86,69.17a5,5,0,1,1,5-5A5,5,0,0,1,26.86,69.17Z"/><path class="cls-1" d="M26.86,88.89a5,5,0,1,1,5-5A5,5,0,0,1,26.86,88.89Z"/><path class="cls-1" d="M26.86,108.6a5,5,0,1,1,5-5A5,5,0,0,1,26.86,108.6Z"/><path class="cls-1" d="M26.86,128.31a5,5,0,1,1,5-5A5,5,0,0,1,26.86,128.31Z"/><path class="cls-1" d="M5,10a5,5,0,1,1,5-5A5,5,0,0,1,5,10Z"/><path class="cls-1" d="M5,29.75a5,5,0,1,1,5-5A5,5,0,0,1,5,29.75Z"/><path class="cls-1" d="M5,49.46a5,5,0,1,1,5-5A5,5,0,0,1,5,49.46Z"/><path class="cls-1" d="M5,69.17a5,5,0,1,1,5-5A5,5,0,0,1,5,69.17Z"/><path class="cls-1" d="M5,88.89a5,5,0,1,1,5-5A5,5,0,0,1,5,88.89Z"/><path class="cls-1" d="M5,108.6a5,5,0,1,1,5-5A5,5,0,0,1,5,108.6Z"/><path class="cls-1" d="M5,128.31a5,5,0,1,1,5-5A5,5,0,0,1,5,128.31Z"/></g></g></svg>