<svg id="Capa_1" data-name="Capa 1" xmlns="http://www.w3.org/2000/svg" viewBox="0 0 425.11 58.86"><defs><style>.cls-1{fill:#0f1121;}</style></defs><path class="cls-1" d="M.45,51.63l3-6.42c4.27,3.87,11.59,6.66,19,6.66,10,0,14.22-3.86,14.22-8.88,0-14-34.85-5.17-34.85-26.55C1.85,7.56,8.75,0,23.88,0c6.74,0,13.73,1.81,18.49,5.1l-2.71,6.57A29.76,29.76,0,0,0,23.88,7c-9.79,0-14,4.11-14,9.12,0,14.06,34.86,5.26,34.86,26.39,0,8.8-7.07,16.36-22.28,16.36C13.68,58.86,5.05,55.9.45,51.63Z" transform="translate(-0.45)"/><path class="cls-1" d="M110.05,51.05V58.2H68.28V.66H108.9V7.81H76.5V25.49h28.86v7H76.5V51.05Z" transform="translate(-0.45)"/><path class="cls-1" d="M184.38.66V58.2h-6.74L143.11,15.29V58.2h-8.22V.66h6.74l34.53,42.91V.66Z" transform="translate(-0.45)"/><path class="cls-1" d="M224.6,7.81H204.87V.66h47.6V7.81H232.74V58.2H224.6Z" transform="translate(-0.45)"/><path class="cls-1" d="M273,.66h8.22V58.2H273Z" transform="translate(-0.45)"/><path class="cls-1" d="M309.46,33.38V.66h8.22V33.05c0,12.74,5.84,18.49,16.19,18.49s16.28-5.75,16.28-18.49V.66h8V33.38c0,16.69-9.13,25.48-24.34,25.48S309.46,50.07,309.46,33.38Z" transform="translate(-0.45)"/><path class="cls-1" d="M381.24,51.63l3-6.42c4.28,3.87,11.6,6.66,19,6.66,10,0,14.23-3.86,14.23-8.88,0-14-34.86-5.17-34.86-26.55,0-8.88,6.9-16.44,22-16.44,6.74,0,13.73,1.81,18.5,5.1l-2.71,6.57A29.79,29.79,0,0,0,404.67,7c-9.78,0-14,4.11-14,9.12,0,14.06,34.85,5.26,34.85,26.39,0,8.8-7.07,16.36-22.28,16.36C394.48,58.86,385.85,55.9,381.24,51.63Z" transform="translate(-0.45)"/></svg>