<svg xmlns="http://www.w3.org/2000/svg" viewBox="0 0 373.81 93.97"><defs><style>.cls-1{fill:#fff;}.cls-2{fill:#8bc53f;}.cls-3{fill:#f69121;}</style></defs><g id="Capa_2" data-name="Capa 2"><g id="Layer_1" data-name="Layer 1"><path class="cls-1" d="M202.43,63.83a4,4,0,0,0-2.28.72,3.65,3.65,0,0,0-1.37,1.88V72.6h-1.29V62.68h1.21v2.38a4.52,4.52,0,0,1,1.49-1.78,3.36,3.36,0,0,1,2-.65l.24,0Z"/><path class="cls-1" d="M207,72.79a4.79,4.79,0,0,1-2-.41,4.9,4.9,0,0,1-1.57-1.12,5.43,5.43,0,0,1-1-1.65,5.51,5.51,0,0,1-.37-2,5.43,5.43,0,0,1,.37-2,5.1,5.1,0,0,1,1-1.61A4.91,4.91,0,0,1,205,62.92,4.81,4.81,0,0,1,210.51,64a5.35,5.35,0,0,1,1,1.61,5.26,5.26,0,0,1,.36,1.94v.31a.91.91,0,0,1,0,.21h-8.49a4.19,4.19,0,0,0,.37,1.47,4.07,4.07,0,0,0,.81,1.17,3.6,3.6,0,0,0,1.13.77,3.31,3.31,0,0,0,1.36.28,3.54,3.54,0,0,0,1-.14,3.71,3.71,0,0,0,.87-.36,3,3,0,0,0,.72-.56,2.38,2.38,0,0,0,.5-.73l1.12.3a3.14,3.14,0,0,1-.65,1,4.37,4.37,0,0,1-1,.78,4.7,4.7,0,0,1-1.21.52A5.35,5.35,0,0,1,207,72.79Zm3.65-5.67a4,4,0,0,0-1.17-2.59,3.53,3.53,0,0,0-1.12-.74,3.47,3.47,0,0,0-1.36-.27,3.52,3.52,0,0,0-1.37.27,3.46,3.46,0,0,0-1.13.74,3.5,3.5,0,0,0-.78,1.14,4.35,4.35,0,0,0-.36,1.45Z"/><path class="cls-1" d="M227.64,72.6h-1.29V67.06a4.64,4.64,0,0,0-.55-2.55,1.87,1.87,0,0,0-1.64-.82,2.72,2.72,0,0,0-1.07.21,3.45,3.45,0,0,0-.94.59,4.49,4.49,0,0,0-.75.91,4.38,4.38,0,0,0-.49,1.15v6h-1.3V67.06a4.74,4.74,0,0,0-.53-2.57,1.83,1.83,0,0,0-1.63-.8,2.91,2.91,0,0,0-2,.78,4.36,4.36,0,0,0-1.26,2.06V72.6H212.9V62.68h1.18v2.25a4.69,4.69,0,0,1,1.6-1.78,4,4,0,0,1,2.18-.64,2.82,2.82,0,0,1,2,.71,3,3,0,0,1,.92,1.84,4.24,4.24,0,0,1,3.83-2.55,3.07,3.07,0,0,1,1.42.31,2.47,2.47,0,0,1,.93.86,4.31,4.31,0,0,1,.51,1.35,8.72,8.72,0,0,1,.16,1.76Z"/><path class="cls-1" d="M233.63,72.79a4.77,4.77,0,0,1-2-.41,5.06,5.06,0,0,1-1.55-1.11,5.39,5.39,0,0,1-1.38-3.6,5.12,5.12,0,0,1,2.95-4.74,4.81,4.81,0,0,1,3.93,0,5.18,5.18,0,0,1,1.56,1.12,5.28,5.28,0,0,1,1.4,3.62,5.41,5.41,0,0,1-.36,2,5,5,0,0,1-1,1.64,5,5,0,0,1-1.56,1.11A4.79,4.79,0,0,1,233.63,72.79ZM230,67.69a4.15,4.15,0,0,0,.28,1.55,4.3,4.3,0,0,0,.77,1.25,3.47,3.47,0,0,0,1.14.85,3.36,3.36,0,0,0,1.4.31,3.19,3.19,0,0,0,1.4-.32,3.7,3.7,0,0,0,1.15-.85A4.28,4.28,0,0,0,237,66.1a4.15,4.15,0,0,0-.78-1.28A3.7,3.7,0,0,0,235,64a3.18,3.18,0,0,0-1.4-.31,3.14,3.14,0,0,0-1.39.31,3.81,3.81,0,0,0-1.14.86,4.2,4.2,0,0,0-.78,1.29A4.29,4.29,0,0,0,230,67.69Z"/><path class="cls-1" d="M243.82,72.79a4.37,4.37,0,0,1-1.9-.43,4.94,4.94,0,0,1-1.5-1.13,5.07,5.07,0,0,1-1-1.63,5.24,5.24,0,0,1-.35-1.93,5.74,5.74,0,0,1,.34-2,5.29,5.29,0,0,1,.94-1.64,4.59,4.59,0,0,1,1.43-1.12,4.09,4.09,0,0,1,1.82-.41,3.87,3.87,0,0,1,2.22.66,4.89,4.89,0,0,1,1.52,1.59V58.71h1.3V70.92c0,.36.15.53.45.53V72.6a2.17,2.17,0,0,1-.45.05,1.16,1.16,0,0,1-.8-.29.91.91,0,0,1-.34-.71v-1a4.46,4.46,0,0,1-1.6,1.54A4.23,4.23,0,0,1,243.82,72.79Zm.29-1.14a3,3,0,0,0,1-.2,4.09,4.09,0,0,0,1-.52,3.49,3.49,0,0,0,.8-.78,2,2,0,0,0,.41-1V66.13a3.31,3.31,0,0,0-.55-1,4.44,4.44,0,0,0-.83-.79,3.56,3.56,0,0,0-1-.53,3,3,0,0,0-1-.19,3,3,0,0,0-1.45.34,3.73,3.73,0,0,0-1.11.9,4,4,0,0,0-.71,1.29,4.38,4.38,0,0,0-.25,1.48,4.1,4.1,0,0,0,.28,1.52,4.43,4.43,0,0,0,.78,1.27,3.7,3.7,0,0,0,1.17.86A3.29,3.29,0,0,0,244.11,71.65Z"/><path class="cls-1" d="M254.79,72.79a4.85,4.85,0,0,1-2-.41,5,5,0,0,1-1.57-1.12,5.22,5.22,0,0,1-1-1.65,5.31,5.31,0,0,1-.37-2,5.23,5.23,0,0,1,.37-2,4.93,4.93,0,0,1,2.59-2.72,4.84,4.84,0,0,1,2-.41,4.79,4.79,0,0,1,2,.41A4.85,4.85,0,0,1,258.31,64a5.16,5.16,0,0,1,1,1.61,5.26,5.26,0,0,1,.36,1.94v.31a.91.91,0,0,1,0,.21h-8.48a4,4,0,0,0,.37,1.47,4.07,4.07,0,0,0,.81,1.17,3.49,3.49,0,0,0,1.13.77,3.28,3.28,0,0,0,1.36.28,3.47,3.47,0,0,0,1-.14,3.61,3.61,0,0,0,.88-.36,3.49,3.49,0,0,0,.72-.56,2.34,2.34,0,0,0,.49-.73l1.13.3a3.32,3.32,0,0,1-.65,1,4.37,4.37,0,0,1-1,.78,4.93,4.93,0,0,1-1.22.52A5.3,5.3,0,0,1,254.79,72.79Zm3.65-5.67a4,4,0,0,0-1.17-2.59,3.54,3.54,0,0,0-2.48-1,3.52,3.52,0,0,0-1.37.27,3.46,3.46,0,0,0-1.13.74,3.84,3.84,0,0,0-.78,1.14,4.34,4.34,0,0,0-.35,1.45Z"/><path class="cls-1" d="M260.73,58.71H262V70.35a1.21,1.21,0,0,0,.3.87,1.13,1.13,0,0,0,.86.31,2.41,2.41,0,0,0,.49-.06,2.18,2.18,0,0,0,.53-.15l.23,1.05a4.72,4.72,0,0,1-.88.25,5.46,5.46,0,0,1-.91.09,1.93,1.93,0,0,1-1.4-.5,1.88,1.88,0,0,1-.52-1.42Z"/><path class="cls-1" d="M264.91,60.61v-1.9h1.29v1.9Zm0,12V62.68h1.29V72.6Z"/><path class="cls-1" d="M276.32,72.6H275V67.06a4.84,4.84,0,0,0-.52-2.57,1.8,1.8,0,0,0-1.61-.8,3.28,3.28,0,0,0-1.14.21,4.1,4.1,0,0,0-1.06.59,4.66,4.66,0,0,0-.86.91,3.3,3.3,0,0,0-.55,1.13V72.6H268V62.68h1.18v2.25a4.71,4.71,0,0,1,1.74-1.75,4.85,4.85,0,0,1,2.47-.67,2.93,2.93,0,0,1,1.38.31,2.43,2.43,0,0,1,.92.85,3.89,3.89,0,0,1,.49,1.36,9.51,9.51,0,0,1,.16,1.76Z"/><path class="cls-1" d="M282.05,72.73a4,4,0,0,1-1.87-.43,4.78,4.78,0,0,1-1.47-1.13,5.27,5.27,0,0,1-1-1.62,5.48,5.48,0,0,1-.34-1.88,5.9,5.9,0,0,1,.33-2,5,5,0,0,1,.95-1.65,4.7,4.7,0,0,1,1.45-1.12,4.16,4.16,0,0,1,1.88-.42,3.85,3.85,0,0,1,2.2.64,6.13,6.13,0,0,1,1.6,1.61V62.68H287v10a4,4,0,0,1-.39,1.81,3.8,3.8,0,0,1-1,1.32,4.19,4.19,0,0,1-1.54.8,6.36,6.36,0,0,1-1.87.27,5.43,5.43,0,0,1-2.76-.61,4.83,4.83,0,0,1-1.69-1.64l.8-.62A3.49,3.49,0,0,0,280,75.36a4.87,4.87,0,0,0,2.09.45,4.41,4.41,0,0,0,1.37-.2,3.29,3.29,0,0,0,1.13-.59,2.82,2.82,0,0,0,.77-1,3.2,3.2,0,0,0,.29-1.39v-2a4.3,4.3,0,0,1-3.64,2Zm.36-1.08a3.18,3.18,0,0,0,1.13-.21,3.67,3.67,0,0,0,1.75-1.36,2.53,2.53,0,0,0,.4-.89V66.13a3.75,3.75,0,0,0-.57-1,4,4,0,0,0-.82-.78,3.82,3.82,0,0,0-1-.51,3,3,0,0,0-1.06-.19,3,3,0,0,0-1.49.35,3.42,3.42,0,0,0-1.11.92,4,4,0,0,0-.7,1.29,4.67,4.67,0,0,0-.24,1.47,4.11,4.11,0,0,0,.29,1.52,4.05,4.05,0,0,0,.79,1.27,3.67,3.67,0,0,0,1.17.85A3.3,3.3,0,0,0,282.41,71.65Z"/><path class="cls-1" d="M296.85,72.79a4.34,4.34,0,0,1-1.9-.43,4.94,4.94,0,0,1-1.5-1.13,5.07,5.07,0,0,1-1-1.63,5.24,5.24,0,0,1-.35-1.93,5.74,5.74,0,0,1,.34-2A5.29,5.29,0,0,1,293.4,64a4.59,4.59,0,0,1,1.43-1.12,4,4,0,0,1,1.81-.41,3.88,3.88,0,0,1,2.23.66,5,5,0,0,1,1.52,1.59V58.71h1.29V70.92c0,.36.16.53.46.53V72.6a2.19,2.19,0,0,1-.46.05,1.14,1.14,0,0,1-.79-.29.92.92,0,0,1-.35-.71v-1A4.35,4.35,0,0,1,299,72.22,4.23,4.23,0,0,1,296.85,72.79Zm.29-1.14a3.11,3.11,0,0,0,1-.2,3.87,3.87,0,0,0,1-.52,3.34,3.34,0,0,0,.81-.78,2.14,2.14,0,0,0,.41-1V66.13a3.31,3.31,0,0,0-.55-1,4.44,4.44,0,0,0-.83-.79,3.56,3.56,0,0,0-1-.53,3,3,0,0,0-1-.19,3,3,0,0,0-1.45.34,3.73,3.73,0,0,0-1.11.9,4.17,4.17,0,0,0-.72,1.29,4.64,4.64,0,0,0-.24,1.48,4.1,4.1,0,0,0,.28,1.52,4.22,4.22,0,0,0,.78,1.27,3.7,3.7,0,0,0,1.17.86A3.29,3.29,0,0,0,297.14,71.65Z"/><path class="cls-1" d="M307.76,72.79a4.77,4.77,0,0,1-2-.41,5.06,5.06,0,0,1-1.55-1.11,5.19,5.19,0,0,1-1-1.64,5.42,5.42,0,0,1-.37-2,5.12,5.12,0,0,1,2.95-4.74,4.81,4.81,0,0,1,3.93,0,5.18,5.18,0,0,1,1.56,1.12,5.28,5.28,0,0,1,1.4,3.62,5.41,5.41,0,0,1-.36,2,5,5,0,0,1-1,1.64,5,5,0,0,1-1.56,1.11A4.79,4.79,0,0,1,307.76,72.79Zm-3.59-5.1a4.15,4.15,0,0,0,.28,1.55,4.3,4.3,0,0,0,.77,1.25,3.47,3.47,0,0,0,1.14.85,3.36,3.36,0,0,0,1.4.31,3.19,3.19,0,0,0,1.4-.32,3.7,3.7,0,0,0,1.15-.85,4.28,4.28,0,0,0,.78-4.38,4.15,4.15,0,0,0-.78-1.28,3.7,3.7,0,0,0-1.15-.85,3.29,3.29,0,0,0-2.79,0,3.81,3.81,0,0,0-1.14.86,4.2,4.2,0,0,0-.78,1.29A4.29,4.29,0,0,0,304.17,67.69Z"/><path class="cls-1" d="M322.17,72.6h-1.3V67.06a4.84,4.84,0,0,0-.52-2.57,1.79,1.79,0,0,0-1.61-.8,3.28,3.28,0,0,0-1.14.21,4.1,4.1,0,0,0-1.06.59,4.66,4.66,0,0,0-.86.91,3.3,3.3,0,0,0-.55,1.13V72.6h-1.3V62.68H315v2.25a4.71,4.71,0,0,1,1.74-1.75,4.85,4.85,0,0,1,2.47-.67,3,3,0,0,1,1.39.31,2.4,2.4,0,0,1,.91.85A3.89,3.89,0,0,1,322,65a8.72,8.72,0,0,1,.16,1.76Z"/><path class="cls-1" d="M328.22,72.79a4.79,4.79,0,0,1-2-.41,4.9,4.9,0,0,1-1.57-1.12,5.43,5.43,0,0,1-1-1.65,5.51,5.51,0,0,1-.37-2,5.43,5.43,0,0,1,.37-2,5.1,5.1,0,0,1,1-1.61,4.91,4.91,0,0,1,1.57-1.11A4.81,4.81,0,0,1,331.74,64a5.35,5.35,0,0,1,1,1.61,5.26,5.26,0,0,1,.36,1.94v.31a.91.91,0,0,1,0,.21H324.6a4.19,4.19,0,0,0,.37,1.47,4.07,4.07,0,0,0,.81,1.17,3.6,3.6,0,0,0,1.13.77,3.31,3.31,0,0,0,1.36.28,3.87,3.87,0,0,0,1.83-.5,3,3,0,0,0,.72-.56,2.21,2.21,0,0,0,.5-.73l1.12.3a3.14,3.14,0,0,1-.65,1,4.37,4.37,0,0,1-1,.78,4.7,4.7,0,0,1-1.21.52A5.35,5.35,0,0,1,328.22,72.79Zm3.65-5.67a4,4,0,0,0-1.17-2.59,3.53,3.53,0,0,0-1.12-.74,3.47,3.47,0,0,0-1.36-.27,3.52,3.52,0,0,0-1.37.27,3.46,3.46,0,0,0-1.13.74,3.5,3.5,0,0,0-.78,1.14,4.35,4.35,0,0,0-.36,1.45Z"/><path class="cls-1" d="M343,63.83a4,4,0,0,0-2.28.72,3.6,3.6,0,0,0-1.37,1.88V72.6h-1.3V62.68h1.22v2.38a4.5,4.5,0,0,1,1.48-1.78,3.41,3.41,0,0,1,2-.65l.25,0Z"/><path class="cls-1" d="M343.63,60.61v-1.9h1.29v1.9Zm0,12V62.68h1.29V72.6Z"/><path class="cls-1" d="M350.76,72.73a4,4,0,0,1-1.87-.43,4.66,4.66,0,0,1-1.47-1.13,5.36,5.36,0,0,1-1.3-3.5,5.9,5.9,0,0,1,.33-2,5.14,5.14,0,0,1,.94-1.65,4.74,4.74,0,0,1,1.46-1.12,4.14,4.14,0,0,1,1.87-.42,3.86,3.86,0,0,1,2.21.64,6.28,6.28,0,0,1,1.6,1.61V62.68h1.16v10a4,4,0,0,1-.39,1.81,3.8,3.8,0,0,1-1.05,1.32,4.27,4.27,0,0,1-1.54.8,6.36,6.36,0,0,1-1.87.27,5.43,5.43,0,0,1-2.76-.61,4.94,4.94,0,0,1-1.7-1.64l.81-.62a3.52,3.52,0,0,0,1.55,1.39,5,5,0,0,0,2.1.45,4.41,4.41,0,0,0,1.37-.2,3.38,3.38,0,0,0,1.13-.59,2.82,2.82,0,0,0,.77-1,3.19,3.19,0,0,0,.28-1.39v-2a4.3,4.3,0,0,1-3.63,2Zm.36-1.08a3.09,3.09,0,0,0,1.12-.21,3.74,3.74,0,0,0,1-.56,3.54,3.54,0,0,0,.75-.8,2.21,2.21,0,0,0,.4-.89V66.13a3.5,3.5,0,0,0-.57-1,3.73,3.73,0,0,0-.81-.78,4,4,0,0,0-1-.51,3.22,3.22,0,0,0-2.55.16,3.57,3.57,0,0,0-1.12.92,4.21,4.21,0,0,0-.69,1.29,4.67,4.67,0,0,0-.24,1.47,4.11,4.11,0,0,0,.29,1.52,4.05,4.05,0,0,0,.79,1.27,3.67,3.67,0,0,0,1.17.85A3.3,3.3,0,0,0,351.12,71.65Z"/><path class="cls-1" d="M365.82,72.6h-1.3V67.06a4.44,4.44,0,0,0-.58-2.53,1.93,1.93,0,0,0-1.7-.84,3.08,3.08,0,0,0-1.1.22,4.15,4.15,0,0,0-1,.6,4,4,0,0,0-.83.9,3.48,3.48,0,0,0-.52,1.12V72.6h-1.3V58.71h1.3v6.22a4.42,4.42,0,0,1,1.63-1.77,4.25,4.25,0,0,1,2.27-.65,3,3,0,0,1,1.44.32,2.7,2.7,0,0,1,1,.87,3.73,3.73,0,0,1,.55,1.35,7.88,7.88,0,0,1,.18,1.74Z"/><path class="cls-1" d="M372.09,72.12l-.34.15a3.51,3.51,0,0,1-.5.19,6.59,6.59,0,0,1-.65.18,3.7,3.7,0,0,1-.76.07,3,3,0,0,1-.8-.11,1.92,1.92,0,0,1-.66-.36,1.6,1.6,0,0,1-.46-.59,2,2,0,0,1-.17-.84v-7.1h-1.37v-1h1.37V59.34H369v3.34h2.29v1H369v6.74a1.09,1.09,0,0,0,.39.81,1.36,1.36,0,0,0,.81.25,2.43,2.43,0,0,0,1-.18,2.79,2.79,0,0,0,.53-.26Z"/><path class="cls-1" d="M372.69,72.6V70.73h1.12V72.6Z"/><path class="cls-1" d="M108.69,53.24V18.12h16.13a10.63,10.63,0,0,1,4.74,1.06A12.36,12.36,0,0,1,133.3,22a13.05,13.05,0,0,1,2.45,3.91,11.79,11.79,0,0,1,.89,4.43A12.5,12.5,0,0,1,135.3,36a11.7,11.7,0,0,1-3.71,4.33L139,53.24H128.13L122,42.45h-3.61V53.24Zm9.65-19.19h6.08a2.14,2.14,0,0,0,1.66-1,4.45,4.45,0,0,0,.76-2.77,4,4,0,0,0-.89-2.8,2.48,2.48,0,0,0-1.78-1h-5.83Z"/><path class="cls-1" d="M151.13,53.73a16.32,16.32,0,0,1-6.08-1.06,12.85,12.85,0,0,1-4.48-2.9,12.31,12.31,0,0,1-2.74-4.2,13.38,13.38,0,0,1-.94-5,15.56,15.56,0,0,1,.91-5.34,12.39,12.39,0,0,1,2.72-4.4,13.2,13.2,0,0,1,4.46-3,17.56,17.56,0,0,1,12.29,0,13.15,13.15,0,0,1,4.47,3,12.11,12.11,0,0,1,2.72,4.3,14.51,14.51,0,0,1,.92,5.12c0,.49,0,1-.07,1.51s-.11,1-.18,1.36H146.88a3.67,3.67,0,0,0,1.53,3,5.38,5.38,0,0,0,3,.91,6.28,6.28,0,0,0,2.89-.69,3.47,3.47,0,0,0,1.81-1.93l8,2.28a12.51,12.51,0,0,1-4.87,5.09A15.42,15.42,0,0,1,151.13,53.73Zm4.16-16.27a4.88,4.88,0,0,0-1.39-3,4.44,4.44,0,0,0-5.83,0,4.88,4.88,0,0,0-1.39,3Z"/><path class="cls-1" d="M207.74,53.24h-9.39V38.6a4.18,4.18,0,0,0-.77-2.8,2.38,2.38,0,0,0-1.86-.86,3.85,3.85,0,0,0-2.39,1,6.1,6.1,0,0,0-1.86,2.68V53.24h-9.4V38.6a4.19,4.19,0,0,0-.76-2.8,2.38,2.38,0,0,0-1.86-.86,3.85,3.85,0,0,0-2.4,1,6.08,6.08,0,0,0-1.85,2.68V53.24h-9.4v-26h8.46v3.86a8.76,8.76,0,0,1,3.81-3.24,13.65,13.65,0,0,1,5.73-1.11,9.2,9.2,0,0,1,2.77.37,6.6,6.6,0,0,1,2.06,1A5.81,5.81,0,0,1,190,29.54a7.14,7.14,0,0,1,.82,1.69,9.32,9.32,0,0,1,3.78-3.32,12.18,12.18,0,0,1,5.47-1.18,7.56,7.56,0,0,1,4.08,1,6.67,6.67,0,0,1,2.3,2.4,9.22,9.22,0,0,1,1,3.07,20.37,20.37,0,0,1,.24,3Z"/><path class="cls-1" d="M222.43,53.73a15.77,15.77,0,0,1-6.15-1.11,13.3,13.3,0,0,1-4.46-3,12.34,12.34,0,0,1-2.72-4.3,14.86,14.86,0,0,1,0-10.24,12.25,12.25,0,0,1,2.72-4.3,13.3,13.3,0,0,1,4.46-3,17.56,17.56,0,0,1,12.29,0,13.15,13.15,0,0,1,4.47,3,12.11,12.11,0,0,1,2.72,4.3,14.71,14.71,0,0,1,0,10.24,12.19,12.19,0,0,1-2.72,4.3,13.15,13.15,0,0,1-4.47,3A15.9,15.9,0,0,1,222.43,53.73Zm-4.6-13.5a6,6,0,0,0,1.29,4.1,4.43,4.43,0,0,0,6.63,0,6.08,6.08,0,0,0,1.28-4.1,6.11,6.11,0,0,0-1.28-4.11,4.45,4.45,0,0,0-6.63,0A6.06,6.06,0,0,0,217.83,40.23Z"/><path class="cls-1" d="M248.17,53.73a12.08,12.08,0,0,1-4.92-1A11.36,11.36,0,0,1,239.37,50a13,13,0,0,1-2.55-4.31,15.72,15.72,0,0,1-.91-5.46,16.51,16.51,0,0,1,.84-5.34,13.11,13.11,0,0,1,2.35-4.28,10.88,10.88,0,0,1,3.58-2.82,10.31,10.31,0,0,1,4.6-1,9.53,9.53,0,0,1,4.63,1.13,7.91,7.91,0,0,1,3.24,3.22V17.13h9.4V42.85a3.19,3.19,0,0,0,.39,1.85,1.88,1.88,0,0,0,1.39.62v7.92a20.66,20.66,0,0,1-4,.49q-4.8,0-5.54-3.61l-.2-.94A8.08,8.08,0,0,1,253,52.64,11,11,0,0,1,248.17,53.73Zm2.58-7.91a5.41,5.41,0,0,0,4.45-2.67V38.5a6.62,6.62,0,0,0-2-2.8,4.45,4.45,0,0,0-2.82-1.06,4.15,4.15,0,0,0-1.9.44A4.44,4.44,0,0,0,247,36.32a6.69,6.69,0,0,0-1,1.83,6.77,6.77,0,0,0-.37,2.23A5.49,5.49,0,0,0,247,44.33,4.93,4.93,0,0,0,250.75,45.82Z"/><path class="cls-1" d="M280.06,53.73A16.32,16.32,0,0,1,274,52.67a12.85,12.85,0,0,1-4.48-2.9,12.31,12.31,0,0,1-2.74-4.2,13.38,13.38,0,0,1-.94-5,15.56,15.56,0,0,1,.91-5.34,12.39,12.39,0,0,1,2.72-4.4,13.25,13.25,0,0,1,4.45-3,17.59,17.59,0,0,1,12.3,0,13.15,13.15,0,0,1,4.47,3,12.11,12.11,0,0,1,2.72,4.3,14.51,14.51,0,0,1,.92,5.12c0,.49,0,1-.08,1.51s-.1,1-.17,1.36H275.81a3.67,3.67,0,0,0,1.53,3,5.36,5.36,0,0,0,3,.91,6.28,6.28,0,0,0,2.89-.69,3.47,3.47,0,0,0,1.81-1.93l8,2.28a12.51,12.51,0,0,1-4.87,5.09A15.42,15.42,0,0,1,280.06,53.73Zm4.16-16.27a4.88,4.88,0,0,0-1.39-3,4.44,4.44,0,0,0-5.83,0,4.88,4.88,0,0,0-1.39,3Z"/><path class="cls-1" d="M294.63,17.13H304V42.9q0,3,2.43,3a4.77,4.77,0,0,0,1.28-.2,5.67,5.67,0,0,0,1.29-.54l1.18,6.92a17.28,17.28,0,0,1-3.78,1.24,19.7,19.7,0,0,1-4,.44,8.05,8.05,0,0,1-5.79-1.93,7.35,7.35,0,0,1-2-5.59Z"/><path class="cls-1" d="M343.38,53.24V21.48L328.64,46.41h-1.18L312.72,21.48V53.24H311V18.12h1.58l15.48,26.16,15.48-26.16h1.59V53.24Z"/><path class="cls-1" d="M361.5,53.73a11.42,11.42,0,0,1-4.9-1.06,12.58,12.58,0,0,1-4-2.92,13.66,13.66,0,0,1-2.67-4.3,14.2,14.2,0,0,1-1-5.22,13.92,13.92,0,0,1,.94-5.1A12.87,12.87,0,0,1,352.55,31a12.65,12.65,0,0,1,3.9-2.82,11.38,11.38,0,0,1,4.85-1,11.84,11.84,0,0,1,4.95,1A12.41,12.41,0,0,1,370.2,31a13.53,13.53,0,0,1,2.65,4.23,13.86,13.86,0,0,1,1,5.15v.39c0,.2,0,.32-.05.35H350.71a13.82,13.82,0,0,0,1.12,4.43,12,12,0,0,0,2.37,3.53,11,11,0,0,0,3.37,2.35,9.54,9.54,0,0,0,4,.87,10.54,10.54,0,0,0,5.29-1.44A9.12,9.12,0,0,0,369,49.21a8.64,8.64,0,0,0,1.43-2.11l1.53.4a8.69,8.69,0,0,1-1.58,2.5,10.14,10.14,0,0,1-2.45,2,13.47,13.47,0,0,1-3,1.28A12.23,12.23,0,0,1,361.5,53.73Zm10.63-14a12.9,12.9,0,0,0-1-4.45,11.44,11.44,0,0,0-2.35-3.51,10.41,10.41,0,0,0-3.33-2.3,10.19,10.19,0,0,0-4.06-.82,9.88,9.88,0,0,0-4.06.85A10.29,10.29,0,0,0,354,31.77a11.79,11.79,0,0,0-2.27,3.51,13.18,13.18,0,0,0-1,4.4Z"/><path class="cls-2" d="M25.68,74.22a3.75,3.75,0,0,1,0-5.31L31,63.59a3.75,3.75,0,0,1,5.31,0L47,74.26,69.07,52.18a3.75,3.75,0,0,1,5.31,0l5.32,5.31a3.76,3.76,0,0,1,0,5.32L49.64,92.87a3.78,3.78,0,0,1-5.32,0Z"/><path class="cls-3" d="M92.87,44.32a3.78,3.78,0,0,1,0,5.32L87.55,55a3.78,3.78,0,0,1-5.32,0L58.4,31.12,23.15,66.37a3.76,3.76,0,0,1-5.32,0L1.1,49.64a3.75,3.75,0,0,1,0-5.31L44.33,1.1a3.75,3.75,0,0,1,5.31,0Z"/></g></g></svg>