<svg xmlns="http://www.w3.org/2000/svg" viewBox="0 0 491.88 123.65"><defs><style>.cls-1{fill:#313b3f;}.cls-2{fill:#8bc53f;}.cls-3{fill:#f69121;}</style></defs><g id="Capa_2" data-name="Capa 2"><g id="Layer_1" data-name="Layer 1"><path class="cls-1" d="M266.37,84a5.38,5.38,0,0,0-3,1,4.78,4.78,0,0,0-1.8,2.47v8.12h-1.7v-13h1.6v3.13a6.06,6.06,0,0,1,2-2.35,4.53,4.53,0,0,1,2.63-.85l.33,0Z"/><path class="cls-1" d="M272.36,95.78a6.3,6.3,0,0,1-4.68-2A7,7,0,0,1,265.83,89a6.78,6.78,0,0,1,.49-2.59,6.55,6.55,0,0,1,1.35-2.13,6.38,6.38,0,0,1,4.67-2,6.25,6.25,0,0,1,4.65,2,6.9,6.9,0,0,1,1.33,2.13,6.8,6.8,0,0,1,.48,2.55v.4a.85.85,0,0,1,0,.28H267.61a5.38,5.38,0,0,0,.48,1.94,5.44,5.44,0,0,0,1.07,1.54,4.73,4.73,0,0,0,1.49,1,4.47,4.47,0,0,0,1.79.36,4.53,4.53,0,0,0,1.25-.17,5.15,5.15,0,0,0,1.15-.48,4,4,0,0,0,1-.74,3.2,3.2,0,0,0,.65-1l1.48.4a4.52,4.52,0,0,1-.85,1.32,6.11,6.11,0,0,1-1.28,1,6.37,6.37,0,0,1-1.6.68A6.91,6.91,0,0,1,272.36,95.78Zm4.81-7.46a5.18,5.18,0,0,0-.49-1.92,5.55,5.55,0,0,0-1.05-1.49,5,5,0,0,0-1.48-1,4.64,4.64,0,0,0-1.79-.35,4.67,4.67,0,0,0-3.29,1.33,4.83,4.83,0,0,0-1,1.5,5.94,5.94,0,0,0-.46,1.91Z"/><path class="cls-1" d="M299.54,95.53h-1.7V88.24a6,6,0,0,0-.73-3.35A2.42,2.42,0,0,0,295,83.81a3.78,3.78,0,0,0-1.42.27,4.52,4.52,0,0,0-1.22.78,5.23,5.23,0,0,0-1,1.19,5.76,5.76,0,0,0-.65,1.52v8H289V88.24a6.34,6.34,0,0,0-.7-3.38,2.42,2.42,0,0,0-2.16-1,3.83,3.83,0,0,0-2.63,1,5.78,5.78,0,0,0-1.65,2.7v8h-1.7v-13h1.55v3a6.23,6.23,0,0,1,2.11-2.34,5.16,5.16,0,0,1,2.87-.84,3.67,3.67,0,0,1,2.64.93,4,4,0,0,1,1.22,2.42c1.22-2.23,2.89-3.35,5-3.35a4,4,0,0,1,1.87.4,3.25,3.25,0,0,1,1.22,1.14,5.23,5.23,0,0,1,.68,1.77,11.83,11.83,0,0,1,.21,2.32Z"/><path class="cls-1" d="M307.42,95.78a6.14,6.14,0,0,1-2.6-.54,6.27,6.27,0,0,1-2-1.47,6.51,6.51,0,0,1-1.34-2.15,7.16,7.16,0,0,1,0-5.18,6.88,6.88,0,0,1,1.35-2.15,6.68,6.68,0,0,1,2-1.48,6.35,6.35,0,0,1,5.17,0,6.38,6.38,0,0,1,2.05,1.48,6.73,6.73,0,0,1,1.36,2.15,7.3,7.3,0,0,1,0,5.18,6.51,6.51,0,0,1-1.34,2.15,6.42,6.42,0,0,1-2,1.47A6.27,6.27,0,0,1,307.42,95.78Zm-4.73-6.71a5.48,5.48,0,0,0,.38,2,5.55,5.55,0,0,0,1,1.65,4.41,4.41,0,0,0,1.5,1.11,4.29,4.29,0,0,0,1.84.4,4.13,4.13,0,0,0,1.84-.41,4.79,4.79,0,0,0,1.52-1.13,5.38,5.38,0,0,0,1-1.66,5.69,5.69,0,0,0,0-4.09,5.25,5.25,0,0,0-1-1.68,5,5,0,0,0-1.52-1.13,4.27,4.27,0,0,0-1.84-.41,4.23,4.23,0,0,0-1.83.41,5.15,5.15,0,0,0-1.5,1.14,5.67,5.67,0,0,0-1.4,3.76Z"/><path class="cls-1" d="M320.83,95.78a5.56,5.56,0,0,1-2.5-.57,6.23,6.23,0,0,1-2-1.49,6.8,6.8,0,0,1-1.29-2.14A7,7,0,0,1,314.6,89a7.54,7.54,0,0,1,.45-2.61,6.91,6.91,0,0,1,1.24-2.17,5.82,5.82,0,0,1,1.88-1.46,5.28,5.28,0,0,1,2.39-.54,5.15,5.15,0,0,1,2.93.86,6.62,6.62,0,0,1,2,2.09v-8h1.7V93.32c0,.47.2.7.6.7v1.51a3.15,3.15,0,0,1-.6.07,1.55,1.55,0,0,1-1.05-.39,1.2,1.2,0,0,1-.45-.94V93a5.84,5.84,0,0,1-2.1,2A5.56,5.56,0,0,1,320.83,95.78Zm.38-1.51a4,4,0,0,0,1.34-.25,5.46,5.46,0,0,0,1.34-.68,4.94,4.94,0,0,0,1.06-1,2.82,2.82,0,0,0,.54-1.26V87a4.45,4.45,0,0,0-.73-1.26,5.66,5.66,0,0,0-1.09-1,5.17,5.17,0,0,0-1.31-.7,4.11,4.11,0,0,0-3.28.2,4.69,4.69,0,0,0-1.46,1.19,5.18,5.18,0,0,0-.94,1.69,5.87,5.87,0,0,0-.33,2,5.51,5.51,0,0,0,1.4,3.67,5.1,5.1,0,0,0,1.54,1.14A4.45,4.45,0,0,0,321.21,94.27Z"/><path class="cls-1" d="M335.26,95.78a6.22,6.22,0,0,1-2.61-.54,6.38,6.38,0,0,1-2.07-1.48A7,7,0,0,1,328.73,89a6.86,6.86,0,0,1,1.84-4.72,6.49,6.49,0,0,1,2.07-1.45,6.36,6.36,0,0,1,7.26,1.46,7.06,7.06,0,0,1,1.32,2.13,6.8,6.8,0,0,1,.48,2.55v.4a.85.85,0,0,1,0,.28H330.51a5.47,5.47,0,0,0,1.55,3.48,4.73,4.73,0,0,0,1.49,1,4.65,4.65,0,0,0,3,.19,5.15,5.15,0,0,0,1.15-.48,4,4,0,0,0,.95-.74,2.87,2.87,0,0,0,.65-1l1.48.4a4.32,4.32,0,0,1-.85,1.32,5.86,5.86,0,0,1-1.28,1,6.22,6.22,0,0,1-1.6.68A6.85,6.85,0,0,1,335.26,95.78Zm4.81-7.46a5.25,5.25,0,0,0-1.54-3.41,5,5,0,0,0-1.48-1,4.64,4.64,0,0,0-1.79-.35,4.77,4.77,0,0,0-1.8.35,4.88,4.88,0,0,0-1.49,1,4.8,4.8,0,0,0-1,1.5,5.7,5.7,0,0,0-.47,1.91Z"/><path class="cls-1" d="M343.08,77.25h1.7V92.57a1.6,1.6,0,0,0,.4,1.14,1.5,1.5,0,0,0,1.13.41,3.36,3.36,0,0,0,.65-.07,4.44,4.44,0,0,0,.7-.2l.3,1.38a5.46,5.46,0,0,1-1.16.32,7.26,7.26,0,0,1-1.19.13,2.34,2.34,0,0,1-2.53-2.53Z"/><path class="cls-1" d="M348.58,79.75v-2.5h1.7v2.5Zm0,15.78v-13h1.7v13Z"/><path class="cls-1" d="M363.59,95.53h-1.71V88.24a6.35,6.35,0,0,0-.69-3.38,2.34,2.34,0,0,0-2.11-1,4.4,4.4,0,0,0-1.5.27,5.28,5.28,0,0,0-1.39.78,5.86,5.86,0,0,0-1.14,1.19,4.59,4.59,0,0,0-.73,1.49v8h-1.7v-13h1.55v3a6.26,6.26,0,0,1,2.29-2.31,6.36,6.36,0,0,1,3.25-.87,3.79,3.79,0,0,1,1.82.4,3.15,3.15,0,0,1,1.2,1.12,5.41,5.41,0,0,1,.66,1.78,12.81,12.81,0,0,1,.2,2.33Z"/><path class="cls-1" d="M371.13,95.7a5.43,5.43,0,0,1-2.46-.56,6.41,6.41,0,0,1-1.93-1.49,6.9,6.9,0,0,1-1.26-2.13A7,7,0,0,1,365,89a7.78,7.78,0,0,1,.43-2.59,6.75,6.75,0,0,1,1.24-2.16,6.18,6.18,0,0,1,1.92-1.48,5.43,5.43,0,0,1,2.47-.55,5,5,0,0,1,2.9.84,8,8,0,0,1,2.1,2.11V82.48h1.53v13.1a5.11,5.11,0,0,1-1.89,4.13,6.11,6.11,0,0,1-2,1.05,8.66,8.66,0,0,1-2.46.35,7.25,7.25,0,0,1-3.64-.8,6.38,6.38,0,0,1-2.22-2.16l1.05-.82a4.72,4.72,0,0,0,2.05,1.84,6.54,6.54,0,0,0,2.76.59,5.94,5.94,0,0,0,1.8-.27,4.39,4.39,0,0,0,1.49-.77,3.83,3.83,0,0,0,1-1.3,4.26,4.26,0,0,0,.38-1.84V93a5.72,5.72,0,0,1-4.79,2.7Zm.48-1.43a4.25,4.25,0,0,0,1.48-.27,5,5,0,0,0,2.3-1.78,3.3,3.3,0,0,0,.53-1.17V87a5.33,5.33,0,0,0-.76-1.3,4.92,4.92,0,0,0-1.07-1A5.31,5.31,0,0,0,372.8,84a4,4,0,0,0-1.39-.25,4.21,4.21,0,0,0-2,.46A4.78,4.78,0,0,0,368,85.44a5.35,5.35,0,0,0-.91,1.7,6.1,6.1,0,0,0-.32,1.93,5.39,5.39,0,0,0,.38,2,5.25,5.25,0,0,0,1,1.66,4.76,4.76,0,0,0,1.54,1.13A4.33,4.33,0,0,0,371.61,94.27Z"/><path class="cls-1" d="M390.61,95.78a5.53,5.53,0,0,1-2.5-.57,6.23,6.23,0,0,1-2-1.49,6.8,6.8,0,0,1-1.29-2.14,7,7,0,0,1-.46-2.54,7.54,7.54,0,0,1,.45-2.61,6.91,6.91,0,0,1,1.24-2.17,5.78,5.78,0,0,1,1.87-1.46,5.34,5.34,0,0,1,2.39-.54,5.13,5.13,0,0,1,2.93.86,6.66,6.66,0,0,1,2,2.09v-8H397V93.32c0,.47.2.7.6.7v1.51a3.15,3.15,0,0,1-.6.07,1.55,1.55,0,0,1-1.05-.39,1.2,1.2,0,0,1-.45-.94V93a5.79,5.79,0,0,1-2.11,2A5.5,5.5,0,0,1,390.61,95.78Zm.37-1.51a3.94,3.94,0,0,0,1.34-.25,5.13,5.13,0,0,0,1.34-.68,5,5,0,0,0,1.07-1,2.82,2.82,0,0,0,.54-1.26V87a4.45,4.45,0,0,0-.73-1.26,6,6,0,0,0-1.09-1,5.35,5.35,0,0,0-1.31-.7,4,4,0,0,0-1.38-.25,4,4,0,0,0-1.9.45,4.85,4.85,0,0,0-1.47,1.19,5.37,5.37,0,0,0-.94,1.69,6.13,6.13,0,0,0-.32,2,5.47,5.47,0,0,0,.37,2,5.73,5.73,0,0,0,1,1.66,5,5,0,0,0,1.54,1.14A4.41,4.41,0,0,0,391,94.27Z"/><path class="cls-1" d="M405,95.78a6.19,6.19,0,0,1-2.61-.54,6.49,6.49,0,0,1-2-1.47A6.68,6.68,0,0,1,399,91.62a7.24,7.24,0,0,1-.47-2.58,6.87,6.87,0,0,1,.49-2.6,6.53,6.53,0,0,1,1.35-2.15,6.45,6.45,0,0,1,2-1.48,5.94,5.94,0,0,1,2.58-.55,6.08,6.08,0,0,1,2.59.55,6.61,6.61,0,0,1,2.05,1.48A6.7,6.7,0,0,1,411,86.44a6.87,6.87,0,0,1,.49,2.6,7,7,0,0,1-.48,2.58,6.41,6.41,0,0,1-3.39,3.62A6.22,6.22,0,0,1,405,95.78Zm-4.74-6.71a5.48,5.48,0,0,0,.38,2,5.76,5.76,0,0,0,1,1.65,4.45,4.45,0,0,0,1.51,1.11,4.26,4.26,0,0,0,1.84.4,4.16,4.16,0,0,0,1.84-.41,4.75,4.75,0,0,0,1.51-1.13,5.4,5.4,0,0,0,1-1.66,5.84,5.84,0,0,0,0-4.09,5.27,5.27,0,0,0-1-1.68,4.9,4.9,0,0,0-1.51-1.13,4.3,4.3,0,0,0-1.84-.41,4.23,4.23,0,0,0-1.83.41,4.9,4.9,0,0,0-1.5,1.14,5.48,5.48,0,0,0-1,1.69A5.64,5.64,0,0,0,400.23,89.07Z"/><path class="cls-1" d="M423.92,95.53h-1.71V88.24a6.36,6.36,0,0,0-.68-3.38,2.36,2.36,0,0,0-2.12-1,4.4,4.4,0,0,0-1.5.27,5.45,5.45,0,0,0-1.39.78,6.46,6.46,0,0,0-1.14,1.19,5,5,0,0,0-.73,1.49v8H413v-13h1.55v3a6.21,6.21,0,0,1,2.3-2.31,6.3,6.3,0,0,1,3.24-.87,3.79,3.79,0,0,1,1.82.4,3.18,3.18,0,0,1,1.21,1.12,5.41,5.41,0,0,1,.65,1.78,12.81,12.81,0,0,1,.2,2.33Z"/><path class="cls-1" d="M431.88,95.78a6.3,6.3,0,0,1-4.68-2A7,7,0,0,1,425.35,89a6.78,6.78,0,0,1,.49-2.59,6.55,6.55,0,0,1,1.35-2.13,6.38,6.38,0,0,1,4.67-2,6.25,6.25,0,0,1,4.65,2,6.9,6.9,0,0,1,1.33,2.13,6.8,6.8,0,0,1,.48,2.55v.4a.85.85,0,0,1,0,.28H427.13a5.38,5.38,0,0,0,.48,1.94,5.44,5.44,0,0,0,1.07,1.54,4.73,4.73,0,0,0,1.49,1,4.47,4.47,0,0,0,1.79.36,4.53,4.53,0,0,0,1.25-.17,5.36,5.36,0,0,0,1.15-.48,4,4,0,0,0,.95-.74,3.2,3.2,0,0,0,.65-1l1.48.4a4.52,4.52,0,0,1-.85,1.32,6.11,6.11,0,0,1-1.28,1,6.37,6.37,0,0,1-1.6.68A7,7,0,0,1,431.88,95.78Zm4.81-7.46a5.18,5.18,0,0,0-.49-1.92,5.55,5.55,0,0,0-1.05-1.49,5,5,0,0,0-1.48-1,4.68,4.68,0,0,0-1.79-.35,4.67,4.67,0,0,0-3.29,1.33,4.83,4.83,0,0,0-1,1.5,5.69,5.69,0,0,0-.46,1.91Z"/><path class="cls-1" d="M451.33,84a5.32,5.32,0,0,0-3,1,4.85,4.85,0,0,0-1.81,2.47v8.12h-1.7v-13h1.6v3.13a6,6,0,0,1,2-2.35,4.5,4.5,0,0,1,2.63-.85l.32,0Z"/><path class="cls-1" d="M452.16,79.75v-2.5h1.7v2.5Zm0,15.78v-13h1.7v13Z"/><path class="cls-1" d="M461.54,95.7a5.43,5.43,0,0,1-2.46-.56,6.41,6.41,0,0,1-1.93-1.49,6.9,6.9,0,0,1-1.26-2.13,7,7,0,0,1-.45-2.48,7.78,7.78,0,0,1,.43-2.59,6.75,6.75,0,0,1,1.24-2.16A6.18,6.18,0,0,1,459,82.81a5.42,5.42,0,0,1,2.46-.55,5,5,0,0,1,2.91.84,8,8,0,0,1,2.1,2.11V82.48H468v13.1a5.19,5.19,0,0,1-1.89,4.13,6.11,6.11,0,0,1-2,1.05,8.67,8.67,0,0,1-2.47.35,7.23,7.23,0,0,1-3.63-.8,6.38,6.38,0,0,1-2.22-2.16l1-.82a4.72,4.72,0,0,0,2.05,1.84,6.53,6.53,0,0,0,2.75.59,6,6,0,0,0,1.81-.27,4.49,4.49,0,0,0,1.49-.77,3.83,3.83,0,0,0,1-1.3,4.26,4.26,0,0,0,.38-1.84V93a5.72,5.72,0,0,1-4.79,2.7Zm.48-1.43A4.25,4.25,0,0,0,463.5,94a5,5,0,0,0,2.3-1.78,3.3,3.3,0,0,0,.53-1.17V87a5.33,5.33,0,0,0-.76-1.3,4.92,4.92,0,0,0-1.07-1,5.31,5.31,0,0,0-1.29-.68,4,4,0,0,0-1.39-.25,4.21,4.21,0,0,0-2,.46,4.78,4.78,0,0,0-1.46,1.22,5.16,5.16,0,0,0-.91,1.7,6.1,6.1,0,0,0-.32,1.93,5.39,5.39,0,0,0,.38,2,5.25,5.25,0,0,0,1,1.66,4.76,4.76,0,0,0,1.54,1.13A4.3,4.3,0,0,0,462,94.27Z"/><path class="cls-1" d="M481.35,95.53h-1.7V88.24a5.9,5.9,0,0,0-.76-3.33,2.57,2.57,0,0,0-2.24-1.1,3.82,3.82,0,0,0-1.44.29,4.93,4.93,0,0,0-1.34.79,5.28,5.28,0,0,0-1.09,1.17,5,5,0,0,0-.69,1.48v8h-1.7V77.25h1.7v8.19a5.9,5.9,0,0,1,2.15-2.33,5.54,5.54,0,0,1,3-.85,4.12,4.12,0,0,1,1.91.41,3.59,3.59,0,0,1,1.27,1.15,4.94,4.94,0,0,1,.73,1.78,10.86,10.86,0,0,1,.22,2.29Z"/><path class="cls-1" d="M489.6,94.9l-.43.2c-.2.08-.42.17-.67.25s-.53.16-.85.23a5.38,5.38,0,0,1-1,.1,4,4,0,0,1-1-.15,2.4,2.4,0,0,1-.88-.47,2.27,2.27,0,0,1-.6-.79,2.51,2.51,0,0,1-.22-1.1V83.84h-1.81V82.48h1.81v-4.4h1.7v4.4h3v1.36h-3V92.7a1.33,1.33,0,0,0,.51,1.06,1.73,1.73,0,0,0,1.07.34,3.13,3.13,0,0,0,1.27-.24,5.06,5.06,0,0,0,.7-.34Z"/><path class="cls-1" d="M490.4,95.53V93.07h1.48v2.46Z"/><path class="cls-1" d="M143,70.05V23.84h21.22a14.07,14.07,0,0,1,6.24,1.4,16.19,16.19,0,0,1,4.92,3.65A16.85,16.85,0,0,1,178.62,34a15.42,15.42,0,0,1,1.17,5.82A16.35,16.35,0,0,1,178,47.37a15.2,15.2,0,0,1-4.88,5.69l9.77,17H168.6l-8.14-14.19h-4.75V70.05ZM155.71,44.8h8a2.84,2.84,0,0,0,2.18-1.3,5.87,5.87,0,0,0,1-3.65,5.26,5.26,0,0,0-1.18-3.68,3.29,3.29,0,0,0-2.34-1.26h-7.68Z"/><path class="cls-1" d="M198.87,70.7a21.39,21.39,0,0,1-8-1.4A17.06,17.06,0,0,1,185,65.5,16.38,16.38,0,0,1,181.36,60a17.76,17.76,0,0,1-1.24-6.57,20.29,20.29,0,0,1,1.21-7,16.16,16.16,0,0,1,3.58-5.79,17.23,17.23,0,0,1,5.86-3.94,23.12,23.12,0,0,1,16.17,0,17.59,17.59,0,0,1,5.89,3.91,16,16,0,0,1,3.58,5.66,19.13,19.13,0,0,1,1.2,6.73c0,.65,0,1.32-.09,2s-.15,1.27-.23,1.79h-24a4.82,4.82,0,0,0,2,3.94,7.07,7.07,0,0,0,4,1.2,8.29,8.29,0,0,0,3.81-.91,4.57,4.57,0,0,0,2.37-2.54l10.48,3a16.56,16.56,0,0,1-6.41,6.71A20.36,20.36,0,0,1,198.87,70.7Zm5.47-21.41a6.39,6.39,0,0,0-1.83-3.91,5.87,5.87,0,0,0-7.68,0A6.38,6.38,0,0,0,193,49.29Z"/><path class="cls-1" d="M273.36,70.05H261V50.79a5.49,5.49,0,0,0-1-3.68A3.13,3.13,0,0,0,257.54,46a5,5,0,0,0-3.16,1.37A7.92,7.92,0,0,0,252,50.85v19.2H239.58V50.79a5.49,5.49,0,0,0-1-3.68A3.15,3.15,0,0,0,236.13,46,5,5,0,0,0,233,47.34a8,8,0,0,0-2.44,3.51v19.2H218.17V35.82H229.3v5.07a11.62,11.62,0,0,1,5-4.26,17.87,17.87,0,0,1,7.55-1.46,12.45,12.45,0,0,1,3.64.48A9,9,0,0,1,248.2,37,7.42,7.42,0,0,1,250,38.88a9.6,9.6,0,0,1,1.07,2.21,12.22,12.22,0,0,1,5-4.36,16,16,0,0,1,7.19-1.56,9.92,9.92,0,0,1,5.37,1.26,8.75,8.75,0,0,1,3,3.16,11.94,11.94,0,0,1,1.37,4,25.85,25.85,0,0,1,.33,3.9Z"/><path class="cls-1" d="M292.69,70.7a20.93,20.93,0,0,1-8.11-1.46,17.51,17.51,0,0,1-5.85-3.91,16,16,0,0,1-3.58-5.66,19.35,19.35,0,0,1,0-13.47,15.9,15.9,0,0,1,3.58-5.66,17.51,17.51,0,0,1,5.85-3.91,23.14,23.14,0,0,1,16.18,0,17.59,17.59,0,0,1,5.89,3.91,16.18,16.18,0,0,1,3.58,5.66,19.5,19.5,0,0,1,0,13.47,16.27,16.27,0,0,1-3.58,5.66,17.59,17.59,0,0,1-5.89,3.91A21,21,0,0,1,292.69,70.7Zm-6.06-17.77a8,8,0,0,0,1.7,5.41,5.85,5.85,0,0,0,8.72,0,8.06,8.06,0,0,0,1.69-5.41,8,8,0,0,0-1.69-5.4,5.85,5.85,0,0,0-8.72,0A8,8,0,0,0,286.63,52.93Z"/><path class="cls-1" d="M326.56,70.7a15.86,15.86,0,0,1-6.48-1.3A14.76,14.76,0,0,1,315,65.72a17.06,17.06,0,0,1-3.35-5.66,20.82,20.82,0,0,1-1.2-7.19,21.63,21.63,0,0,1,1.1-7,17.49,17.49,0,0,1,3.09-5.63,14.37,14.37,0,0,1,4.72-3.71,13.59,13.59,0,0,1,6.05-1.33,12.54,12.54,0,0,1,6.09,1.49,10.46,10.46,0,0,1,4.26,4.23V22.54H348.1V56.38a4.14,4.14,0,0,0,.52,2.44,2.48,2.48,0,0,0,1.82.82V70.05a27.42,27.42,0,0,1-5.21.65q-6.3,0-7.28-4.75l-.26-1.24a10.7,10.7,0,0,1-4.75,4.56A14.7,14.7,0,0,1,326.56,70.7Zm3.38-10.41q3.39,0,5.86-3.52V50.66A8.76,8.76,0,0,0,333.13,47a5.89,5.89,0,0,0-3.71-1.4,5.31,5.31,0,0,0-2.51.59,5.84,5.84,0,0,0-2,1.62,8.72,8.72,0,0,0-1.79,5.34A7.26,7.26,0,0,0,325,58.34,6.45,6.45,0,0,0,329.94,60.29Z"/><path class="cls-1" d="M368.52,70.7a21.35,21.35,0,0,1-8-1.4,17,17,0,0,1-5.89-3.8A16.38,16.38,0,0,1,351,60a17.56,17.56,0,0,1-1.24-6.57,20.29,20.29,0,0,1,1.21-7,16.16,16.16,0,0,1,3.58-5.79,17.28,17.28,0,0,1,5.85-3.94,23.14,23.14,0,0,1,16.18,0,17.59,17.59,0,0,1,5.89,3.91,16.18,16.18,0,0,1,3.58,5.66,19.56,19.56,0,0,1,1.1,8.72c-.06.67-.14,1.27-.23,1.79h-24a4.82,4.82,0,0,0,2,3.94,7,7,0,0,0,4,1.2,8.22,8.22,0,0,0,3.8-.91,4.56,4.56,0,0,0,2.38-2.54l10.48,3a16.56,16.56,0,0,1-6.41,6.71A20.39,20.39,0,0,1,368.52,70.7ZM374,49.29a6.38,6.38,0,0,0-1.82-3.91,5.87,5.87,0,0,0-7.68,0,6.33,6.33,0,0,0-1.82,3.91Z"/><path class="cls-1" d="M387.69,22.54h12.37V56.45q0,3.9,3.18,3.9a6,6,0,0,0,1.7-.26,7.45,7.45,0,0,0,1.69-.71l1.56,9.11a22.74,22.74,0,0,1-5,1.63,25.3,25.3,0,0,1-5.24.58c-3.3,0-5.83-.84-7.61-2.54s-2.67-4.14-2.67-7.35Z"/><path class="cls-1" d="M451.84,70.05V28.27l-19.4,32.8h-1.56l-19.4-32.8V70.05h-2.27V23.84h2.08l20.37,34.43L452,23.84h2.09V70.05Z"/><path class="cls-1" d="M475.67,70.7a14.89,14.89,0,0,1-6.44-1.4A16.52,16.52,0,0,1,464,65.46a18,18,0,0,1-3.52-5.66,18.72,18.72,0,0,1-1.27-6.87,18.13,18.13,0,0,1,1.24-6.7,17.12,17.12,0,0,1,3.45-5.47A16.85,16.85,0,0,1,469,37.05a14.94,14.94,0,0,1,6.38-1.36,15.53,15.53,0,0,1,6.51,1.36,16.32,16.32,0,0,1,5.21,3.75,17.7,17.7,0,0,1,3.48,5.56,18.27,18.27,0,0,1,1.27,6.77v.52a.92.92,0,0,1-.07.46H461.48A17.8,17.8,0,0,0,463,59.93a15.56,15.56,0,0,0,3.12,4.65,14.58,14.58,0,0,0,4.43,3.1,12.65,12.65,0,0,0,5.3,1.13,13.83,13.83,0,0,0,3.61-.48,14.45,14.45,0,0,0,3.36-1.4,12,12,0,0,0,2.73-2.18A11.34,11.34,0,0,0,487.39,62l2,.52a11.25,11.25,0,0,1-2.08,3.29,12.81,12.81,0,0,1-3.22,2.6,17.55,17.55,0,0,1-4,1.69A15.65,15.65,0,0,1,475.67,70.7Zm14-18.48a17.06,17.06,0,0,0-1.36-5.86,15.21,15.21,0,0,0-3.09-4.62,14,14,0,0,0-4.4-3,13.35,13.35,0,0,0-5.33-1.07,12.9,12.9,0,0,0-5.34,1.11,13.45,13.45,0,0,0-4.33,3,15.58,15.58,0,0,0-3,4.62,17.46,17.46,0,0,0-1.34,5.8Z"/><path class="cls-2" d="M33.79,97.67a5,5,0,0,1,0-7l7-7a4.94,4.94,0,0,1,7,0l14,14L90.88,68.65a5,5,0,0,1,7,0l7,7a4.94,4.94,0,0,1,0,7L65.32,122.2a5,5,0,0,1-7,0Z"/><path class="cls-3" d="M122.2,58.32a5,5,0,0,1,0,7l-7,7a4.93,4.93,0,0,1-7,0L76.84,41,30.46,87.34a5,5,0,0,1-7,0l-22-22a4.94,4.94,0,0,1,0-7L58.33,1.45a4.94,4.94,0,0,1,7,0Z"/></g></g></svg>