<?xml version="1.0" encoding="UTF-8" standalone="no"?>
<!-- Created with Inkscape (http://www.inkscape.org/) -->

<svg
   width="395.69989"
   height="380.52197"
   viewBox="0 0 39.569988 38.052197"
   version="1.1"
   id="svg1356"
   sodipodi:docname="quotationMark.svg"
   inkscape:version="1.1.2 (b8e25be833, 2022-02-05)"
   xmlns:inkscape="http://www.inkscape.org/namespaces/inkscape"
   xmlns:sodipodi="http://sodipodi.sourceforge.net/DTD/sodipodi-0.dtd"
   xmlns="http://www.w3.org/2000/svg"
   xmlns:svg="http://www.w3.org/2000/svg">
  <sodipodi:namedview
     id="namedview11"
     pagecolor="#505050"
     bordercolor="#ffffff"
     borderopacity="1"
     inkscape:pageshadow="0"
     inkscape:pageopacity="0"
     inkscape:pagecheckerboard="1"
     showgrid="false"
     scale-x="0.1"
     fit-margin-top="0"
     fit-margin-left="0"
     fit-margin-right="0"
     fit-margin-bottom="0"
     inkscape:zoom="0.52930997"
     inkscape:cx="-293.77871"
     inkscape:cy="-43.4528"
     inkscape:window-width="1440"
     inkscape:window-height="837"
     inkscape:window-x="-8"
     inkscape:window-y="-8"
     inkscape:window-maximized="1"
     inkscape:current-layer="svg1356" />
  <defs
     id="defs1353">
    <clipPath
       clipPathUnits="userSpaceOnUse"
       id="clipPath527">
      <path
         d="M 0,4026 H 1366 V 0 H 0 Z"
         id="path525" />
    </clipPath>
  </defs>
  <g
     id="layer1"
     transform="translate(-61.618098,-177.99854)">
    <g
       id="g533"
       transform="matrix(0.35277777,0,0,-0.35277777,77.38797,194.0185)">
      <path
         d="m 0,0 c -0.066,-6.333 -1.077,-18.178 -7.958,-30.696 -10.79,-19.631 -28.581,-27.398 -34.107,-29.56 v 18.191 c 3.023,1.363 14.594,7.007 20.464,20.464 4.071,9.334 3.382,17.8 2.83,21.601 H -43.202 V 43.203 H 0 Z"
         style="fill:none;stroke:#000000;stroke-width:3;stroke-linecap:butt;stroke-linejoin:miter;stroke-miterlimit:10;stroke-dasharray:none;stroke-opacity:1"
         id="path535" />
    </g>
    <g
       id="g537"
       transform="matrix(0.35277777,0,0,-0.35277777,100.65892,193.76841)">
      <path
         d="m 0,0 c -0.066,-6.333 -1.078,-18.179 -7.958,-30.697 -10.791,-19.63 -28.581,-27.398 -34.107,-29.559 v 18.191 c 3.022,1.362 14.594,7.006 20.464,20.463 4.071,9.334 3.382,17.801 2.83,21.602 H -43.202 V 43.202 H 0 Z"
         style="fill:none;stroke:#000000;stroke-width:3;stroke-linecap:butt;stroke-linejoin:miter;stroke-miterlimit:10;stroke-dasharray:none;stroke-opacity:1"
         id="path539" />
    </g>
  </g>
</svg>
