<svg width="48" height="39" viewBox="0 0 48 39" fill="none" xmlns="http://www.w3.org/2000/svg">
<g clip-path="url(#clip0_338_824)">
<path d="M46.8449 16.1566H35.642L18.9627 0.31724C18.5177 -0.105421 17.8197 -0.105421 17.3744 0.31724L0.360926 16.4738C0.131504 16.6917 0 16.9985 0 17.3156V37.841C0 38.4801 0.51833 39 1.1553 39C1.79227 39 2.3106 38.48 2.3106 37.841V17.8148L18.1686 2.75496L32.2812 16.1566H27.0245C21.5059 16.1566 17.016 20.6615 17.016 26.1988V37.8412C17.016 38.4803 17.5343 39.0002 18.1713 39.0002H35.1871C35.8241 39.0002 36.3423 38.4801 36.3423 37.8412V18.4747H46.8449C47.4818 18.4747 48 17.9547 48 17.3156C48 16.6765 47.4818 16.1566 46.8449 16.1566ZM27.0245 18.4747H34.0318V36.682H19.3264V26.1988C19.3264 21.9397 22.7798 18.4747 27.0245 18.4747Z" fill="#423EAF"/>
</g>
<defs>
<clipPath id="clip0_338_824">
<rect width="48" height="39" fill="white"/>
</clipPath>
</defs>
</svg>
