<svg width="111" height="17" viewBox="0 0 111 17" fill="none" xmlns="http://www.w3.org/2000/svg">
<path d="M0 16.6605V5.52339H2.91825V6.88165C3.53863 5.7952 4.98613 5.20654 6.22689 5.20654C7.76642 5.20654 9.00719 5.86296 9.58165 7.0626C10.4777 5.70433 11.6726 5.20654 13.166 5.20654C15.2569 5.20654 17.256 6.45142 17.256 9.43956V16.6607H14.2919V10.0505C14.2919 8.8509 13.6945 7.94539 12.293 7.94539C10.9832 7.94539 10.202 8.94137 10.202 10.141V16.6605H7.16889V10.0505C7.16889 8.8509 6.54851 7.94539 5.17 7.94539C3.83719 7.94539 3.056 8.91865 3.056 10.141V16.6605H0Z" fill="#423EAF"/>
<path d="M27.2506 8.51127C26.9059 8.44331 26.6074 8.4208 26.3315 8.4208C24.7691 8.4208 23.4132 9.16788 23.4132 11.5672V16.6604H20.3574V5.52333H23.3214V7.17593C24.0107 5.70447 25.5731 5.43286 26.5384 5.43286C26.791 5.43286 27.0208 5.45538 27.2506 5.4781V8.51127V8.51127Z" fill="#423EAF"/>
<path d="M29.4792 12.699C30.651 12.699 31.593 13.627 31.593 14.7589C31.593 15.8908 30.651 16.8188 29.4792 16.8188C28.3302 16.8188 27.3882 15.8908 27.3882 14.7589C27.3882 13.627 28.3302 12.699 29.4792 12.699Z" fill="#423EAF"/>
<path d="M44.0235 4.30106V5.52341H46.5738V8.10403H44.0235V16.6607H40.9444V8.10403H39.0602V5.52341H40.9444V4.25562C40.9444 1.74296 42.5529 0.113281 45.0573 0.113281C45.7005 0.113281 46.3209 0.226269 46.5738 0.339658V2.87484C46.4129 2.82961 46.1144 2.76185 45.6087 2.76185C44.9193 2.76165 44.0235 3.05598 44.0235 4.30106Z" fill="#423EAF"/>
<path d="M51.0999 10.2542L53.88 9.84689C54.5234 9.75622 54.7301 9.43937 54.7301 9.05457C54.7301 8.26245 54.1098 7.60583 52.8231 7.60583C51.4905 7.60583 50.755 8.44339 50.6632 9.41685L47.9519 8.85111C48.1355 7.10804 49.7671 5.18384 52.8002 5.18384C56.3846 5.18384 57.7174 7.176 57.7174 9.41705V14.8951C57.7174 15.4838 57.7863 16.2759 57.8553 16.6607H55.0522C54.9832 16.3664 54.9373 15.7552 54.9373 15.325C54.363 16.208 53.2831 16.9776 51.6056 16.9776C49.193 16.9776 47.7225 15.3704 47.7225 13.6273C47.7223 11.635 49.2157 10.5258 51.0999 10.2542ZM54.7301 12.1557V11.6575L52.1798 12.0423C51.3984 12.1555 50.7781 12.5857 50.7781 13.4458C50.7781 14.1022 51.2607 14.7361 52.2486 14.7361C53.5355 14.7363 54.7301 14.1251 54.7301 12.1557Z" fill="#423EAF"/>
<path d="M60.7958 16.6606V0.271729H63.8059V6.74579C64.3114 5.95367 65.5523 5.22911 67.2294 5.22911C70.5382 5.22911 72.4455 7.74177 72.4455 11.0468C72.4455 14.4197 70.3315 16.9324 67.1147 16.9324C65.5523 16.9324 64.3573 16.2532 63.7599 15.3025V16.6608H60.7958V16.6606ZM66.5862 7.92271C65.0466 7.92271 63.7597 9.03208 63.7597 11.0693C63.7597 13.084 65.0466 14.2384 66.5862 14.2384C68.1486 14.2384 69.3893 13.1065 69.3893 11.0693C69.3893 9.03208 68.1486 7.92271 66.5862 7.92271Z" fill="#423EAF"/>
<path d="M81.7512 8.51127C81.4068 8.44331 81.108 8.4208 80.8321 8.4208C79.2697 8.4208 77.9141 9.16788 77.9141 11.5672V16.6604H74.8579V5.52333H77.8218V7.17593C78.5112 5.70447 80.0736 5.43286 81.0388 5.43286C81.2915 5.43286 81.5213 5.45538 81.751 5.4781V8.51127H81.7512Z" fill="#423EAF"/>
<path d="M85.4267 0C86.4836 0 87.3107 0.837354 87.3107 1.87877C87.3107 2.87475 86.4834 3.7123 85.4267 3.7123C84.3927 3.7123 83.5425 2.87475 83.5425 1.87877C83.5425 0.837354 84.3927 0 85.4267 0ZM83.9103 16.6604V5.52332H86.9665V16.6604H83.9103Z" fill="#423EAF"/>
<path d="M92.4347 11.0919C92.4347 13.1066 93.7673 14.2382 95.3299 14.2382C96.8925 14.2382 97.6735 13.2197 97.9265 12.3595L100.615 13.2423C100.109 15.0985 98.3402 16.9998 95.3301 16.9998C91.9984 16.9998 89.3789 14.5098 89.3789 11.0917C89.3789 7.65098 91.9523 5.18335 95.2383 5.18335C98.3174 5.18335 100.064 7.06232 100.546 8.94109L97.8119 9.8466C97.536 8.91837 96.8237 7.96763 95.3075 7.96763C93.7445 7.96803 92.4347 9.0772 92.4347 11.0919Z" fill="#423EAF"/>
<path d="M104.52 12.9934C104.589 13.8762 105.256 14.691 106.588 14.691C107.599 14.691 108.082 14.1703 108.082 13.5819C108.082 13.0837 107.737 12.6764 106.864 12.4952L105.37 12.1559C103.188 11.6806 102.2 10.3903 102.2 8.82815C102.2 6.83619 103.992 5.18359 106.428 5.18359C109.645 5.18359 110.724 7.19827 110.862 8.39811L108.312 8.96385C108.22 8.30724 107.737 7.46968 106.45 7.46968C105.646 7.46968 105.003 7.94516 105.003 8.57905C105.003 9.12228 105.416 9.46204 106.037 9.57503L107.645 9.9146C109.874 10.3672 111 11.7029 111 13.3326C111 15.1436 109.575 16.9996 106.611 16.9996C103.211 16.9996 102.039 14.8265 101.901 13.559L104.52 12.9934Z" fill="#423EAF"/>
</svg>
