<svg width="25" height="24" viewBox="0 0 25 24" fill="none" xmlns="http://www.w3.org/2000/svg">
<path d="M19.8271 14.0898V19.3125H17.585V14.7344V14.7325C17.585 14.149 17.585 13.357 17.3303 12.7123C17.1971 12.3753 16.9859 12.053 16.6506 11.8184C16.3142 11.583 15.8956 11.4658 15.4004 11.4658C14.9131 11.4658 14.4926 11.5611 14.1412 11.7556C13.7868 11.9517 13.5324 12.2321 13.355 12.5537C13.013 13.1733 12.9521 13.9561 12.9521 14.6465V19.3125H10.71V9.87305H12.8203V10.7988V11.2988H13.3203H13.3643H13.6652L13.8061 11.0329C14.158 10.3685 15.0521 9.61426 16.4355 9.61426C17.9527 9.61426 18.7408 10.1035 19.1889 10.8141C19.6703 11.5774 19.8271 12.6949 19.8271 14.0898ZM21.875 0.5625H3.12012C1.97854 0.5625 1.0625 1.50047 1.0625 2.63965V21.3604C1.0625 22.4995 1.97854 23.4375 3.12012 23.4375H21.875C23.0146 23.4375 23.9375 22.5016 23.9375 21.3604V2.63965C23.9375 1.49842 23.0146 0.5625 21.875 0.5625ZM7.67871 19.3125H5.43164V9.87305H7.67871V19.3125ZM6.55273 7.44727C5.78968 7.44727 5.17285 6.82724 5.17285 6.06738C5.17285 5.30752 5.78968 4.6875 6.55273 4.6875C7.31175 4.6875 7.93262 5.30837 7.93262 6.06738C7.93262 6.83128 7.31663 7.44727 6.55273 7.44727Z" fill="#00699E" stroke="white"/>
</svg>
