<svg width="37" height="39" viewBox="0 0 37 39" fill="none" xmlns="http://www.w3.org/2000/svg">
<path d="M37 0H0V39H37V0Z" fill="white"/>
<path d="M12.4768 29H8.33035V15.647H12.4768V29ZM10.4013 13.8255C9.07545 13.8255 8 12.7273 8 11.4014C8 10.7645 8.253 10.1537 8.70334 9.70335C9.15368 9.253 9.76446 9 10.4013 9C11.0382 9 11.649 9.253 12.0993 9.70335C12.5497 10.1537 12.8027 10.7645 12.8027 11.4014C12.8027 12.7273 11.7268 13.8255 10.4013 13.8255ZM27.9955 29H23.858V22.4998C23.858 20.9507 23.8268 18.9641 21.7022 18.9641C19.5465 18.9641 19.2161 20.6472 19.2161 22.3882V29H15.0741V15.647H19.0509V17.4685H19.1089C19.6625 16.4194 21.0148 15.3122 23.0322 15.3122C27.2285 15.3122 28 18.0756 28 21.665V29H27.9955Z" fill="#293845"/>
</svg>
