<svg width="37" height="39" viewBox="0 0 37 39" fill="none" xmlns="http://www.w3.org/2000/svg">
<rect width="37" height="39" fill="white"/>
<path d="M10.8198 32H5.42946V14.6411H10.8198V32ZM8.12174 12.2732C6.39808 12.2732 5 10.8455 5 9.12181C5 8.29386 5.3289 7.49981 5.91434 6.91436C6.49978 6.3289 7.2938 6 8.12174 6C8.94968 6 9.74371 6.3289 10.3291 6.91436C10.9146 7.49981 11.2435 8.29386 11.2435 9.12181C11.2435 10.8455 9.84482 12.2732 8.12174 12.2732ZM30.9942 32H25.6154V23.5498C25.6154 21.5359 25.5748 18.9533 22.8129 18.9533C20.0104 18.9533 19.5809 21.1413 19.5809 23.4047V32H14.1963V14.6411H19.3662V17.009H19.4416C20.1612 15.6452 21.9192 14.2059 24.5418 14.2059C29.9971 14.2059 31 17.7983 31 22.4645V32H30.9942Z" fill="#293845"/>
</svg>
