<?xml version="1.0" encoding="utf-8"?>
<!-- Generator: Adobe Illustrator 25.4.1, SVG Export Plug-In . SVG Version: 6.00 Build 0)  -->
<svg version="1.1" id="Capa_1" xmlns="http://www.w3.org/2000/svg" xmlns:xlink="http://www.w3.org/1999/xlink" x="0px" y="0px"
	 viewBox="0 0 2567.4 417" style="enable-background:new 0 0 2567.4 417;" xml:space="preserve">
<g>
	<path d="M1782,167.8c-1.4-12.6-1.9-24.6-4.3-36.2c-2.8-13.8-12.8-20.8-26.4-22.8c-4.8-0.7-9.6-0.9-14.4-0.9
		c-63.1-0.1-126.3,0-189.4,0c-2,0-3.9,0-6.2,0c0-25.4,0-50.4,0-76c1.9,0,3.7,0,5.4,0c68.6,0,137.3,0,205.9,0.1
		c20.1,0,39.8,2.4,58.5,10.3c24.7,10.4,38.8,30,44.3,55.3c3.5,16,5.8,32.5,6,48.8c0.6,79.6,0.3,159.3,0.3,238.9c0,1.1,0,2.3,0,3.7
		c-1.4,0.2-2.5,0.5-3.6,0.5c-81,0-161.9,0-242.9-0.1c-16.6,0-32.8-2.4-48.1-9.2c-23-10.3-35.8-28.8-40.9-52.6
		c-2.7-12.6-3.7-25.6-4.2-38.5c-0.7-19.7-0.8-39.5,3.9-59c8.3-34.6,31.8-56.1,67-60.4c9.4-1.1,18.9-1.8,28.4-1.8
		c51.3-0.2,102.6-0.1,153.9-0.1C1776.8,167.8,1778.5,167.8,1782,167.8z M1780.6,240.5c-1.2-0.1-1.9-0.2-2.5-0.2
		c-50.6,0-101.3,0-151.9,0c-11.6,0-19.3,6.4-22.3,18.3c-2.4,9.6-2.7,19.3-1.1,29.2c2.1,13.2,7.8,25.3,28.1,25.1
		c48.1-0.4,96.3-0.1,144.4-0.1c1.8,0,3.5,0,5.4,0C1780.6,288.3,1780.6,264.6,1780.6,240.5z"/>
	<path d="M2536.4,389.4c-2.4,0-4.2,0-5.9,0c-78.3,0-156.6,0-234.8,0c-15,0-29.9-1.1-44.3-5.7c-28.2-9-44.1-29-50.7-57.1
		c-5.6-23.9-4.8-48.2-3.3-72.4c0.7-11.6,3.1-23.4,6.8-34.5c9.9-29.8,32.2-45.4,62.6-49.9c9.8-1.5,19.9-1.9,29.8-2
		c50.8-0.2,101.6-0.1,152.4-0.1c2,0,4,0,6.5,0c0.2-14.5,1.3-28.8-4.9-42.2c-4.8-10.4-13.5-15.2-24.3-16.7c-4.8-0.7-9.6-0.9-14.4-0.9
		c-63.1-0.1-126.2,0-189.4,0c-2,0-4,0-6.3,0c0-25.4,0-50.4,0-75.7c1.7-0.1,3.3-0.3,4.9-0.3c69.3,0,138.6,0,207.9,0.1
		c19.4,0,38.5,2.5,56.6,10c26.3,11,40.2,32,45.7,58.8c2.9,14.4,4.9,29.2,5,43.9c0.5,80.3,0.3,160.6,0.3,240.9
		C2536.4,386.6,2536.4,387.5,2536.4,389.4z M2455.4,240.5c-1.5-0.1-2.5-0.2-3.4-0.2c-50.1,0-100.2,0-150.4,0
		c-12.1,0-19.8,6.1-22.9,18.2c-2.7,10.6-3,21.4-0.7,32.1c3.5,16.1,11.1,22.2,27.5,22.2c48.1,0,96.2,0,144.4,0c1.8,0,3.6,0,5.5,0
		C2455.4,288.4,2455.4,264.7,2455.4,240.5z"/>
	<path d="M300.3,32.1c26.9,0,53.2,0,79.8,0c0.1,1.8,0.2,3.4,0.2,5c0,89.1,0,178.2-0.1,267.3c0,17.2-2.4,34.1-9.2,50.1
		c-11.2,26.5-33.6,39.4-64.7,39c-29.3-0.4-51.3-13.1-66-37.8c-14.7-24.8-28.6-50.2-42-75.8c-27.6-52.8-54.6-105.8-81.9-158.8
		c-0.5-1-0.8-2.3-1.6-3.1c-1.8-1.7-3.8-3.1-5.7-4.7c-0.9,2.3-2.7,4.6-2.6,6.9c0.1,16,0.9,31.9,0.9,47.9c0.1,72,0.1,144,0.1,215.9
		c0,1.6,0,3.3,0,5.3c-26.8,0-53.1,0-79.9,0c-0.1-1.7-0.2-3.3-0.2-4.9c0-88.9,0-177.9,0-266.8c0-16.2,2.1-32.1,7.9-47.4
		c10.1-26.8,31.3-41.2,59.9-42.4c34.5-1.5,59.5,13.7,75.7,43.1c20.7,37.5,40.5,75.5,60.4,113.4c20.2,38.5,40,77.2,60,115.8
		c1.1,2.2,2.3,4.5,3.8,6.4c2.3,2.8,4.9,2.2,5.8-1.3c0.6-2.4,0.4-4.9,0.4-7.4c-0.3-86.4-0.7-172.9-1-259.3
		C300.3,36.5,300.3,34.6,300.3,32.1z"/>
	<path d="M1154.4,32c2.2,0,3.8,0,5.5,0c71.6,0,143.2,0,214.9,0c16,0,31.9,1.5,47.4,5.5c34.4,8.9,54.3,31.6,62.6,65.4
		c4.5,18.4,5.7,37.1,5.8,55.8c0.2,34.7,0.2,69.5,0,104.2c-0.1,20.8-1.5,41.4-7.5,61.6c-10.4,34.9-34.1,55-69.4,61.4
		c-13,2.4-26.4,3.4-39.7,3.4c-71.3,0.3-142.6,0.2-213.9,0.2c-1.8,0-3.6,0-5.7,0C1154.4,270.1,1154.4,151.3,1154.4,32z M1236.2,108.1
		c0,68.8,0,136.9,0,205.2c1.3,0,2.3,0,3.3,0c42.1,0,84.3,0,126.4,0c4.1,0,8.3-0.4,12.4-1c12.9-2.1,22.2-9,25.6-21.9
		c1.7-6.4,2.9-13,2.9-19.6c0.3-39.1,0.2-78.1,0.1-117.2c0-5-0.4-9.9-1.1-14.9c-2.3-17-11.1-26.6-27.6-29.5c-5-0.9-10.3-1-15.4-1
		c-40.3-0.1-80.6,0-120.9,0C1240.2,108.1,1238.4,108.1,1236.2,108.1z"/>
	<path d="M859.3,389.1c0-93.8,0-187.4,0-281.5c-38.3,0-76.2,0-114.5,0c0-25.4,0-50.2,0-75.4c103.4,0,207,0,310.8,0
		c0,24.9,0,49.7,0,75.1c-38.1,0-76,0-114.5,0c0,94.2,0,187.9,0,281.8C913.5,389.1,886.6,389.1,859.3,389.1z"/>
	<path d="M718.7,32.3c0,24.9,0,49.7,0,75.1c-38.2,0-76.1,0-114.5,0c0,94.2,0,187.8,0,281.7c-27.3,0-54.1,0-81.5,0
		c0-93.7,0-187.4,0-281.6c-38.5,0-76.4,0-114.5,0c0-25.4,0-50.1,0-75.2C511.6,32.3,615,32.3,718.7,32.3z"/>
	<path d="M1992.5,389.1c0-94,0-187.5,0-281.5c-38.4,0-76.2,0-114.4,0c0-25.4,0-50.2,0-75.3c103.3,0,206.5,0,310.2,0
		c0,24.8,0,49.8,0,75.4c-38,0-75.9,0-114.3,0c0,94.1,0,187.6,0,281.5C2046.7,389.1,2020,389.1,1992.5,389.1z"/>
</g>
</svg>
