<?xml version="1.0" encoding="utf-8"?>
<!-- Generator: Adobe Illustrator 25.4.1, SVG Export Plug-In . SVG Version: 6.00 Build 0)  -->
<svg version="1.1" id="Capa_1" xmlns="http://www.w3.org/2000/svg" xmlns:xlink="http://www.w3.org/1999/xlink" x="0px" y="0px"
	 viewBox="0 0 499.1 128" style="enable-background:new 0 0 499.1 128;" xml:space="preserve">
<style type="text/css">
	.st0{fill:#313B3F;}
	.st1{fill:#8EC044;}
	.st2{fill:#F39124;}
</style>
<g>
	<g>
		<g>
			<g>
				<path class="st0" d="M268.2,85.4c-1.2,0-2.2,0.4-3,1c-0.9,0.6-1.5,1.4-1.8,2.5v8.1h-1.7v-13h1.6V87c0.5-1,1.1-1.8,2-2.4
					c0.8-0.6,1.7-0.9,2.6-0.9c0.1,0,0.2,0,0.3,0V85.4z"/>
				<path class="st0" d="M274.2,97.2c-1,0-1.8-0.2-2.6-0.5c-0.8-0.4-1.5-0.9-2.1-1.5c-0.6-0.6-1-1.3-1.4-2.2
					c-0.3-0.8-0.5-1.7-0.5-2.6c0-0.9,0.2-1.8,0.5-2.6c0.3-0.8,0.8-1.5,1.4-2.1c0.6-0.6,1.3-1.1,2.1-1.5c0.8-0.4,1.7-0.5,2.6-0.5
					c1,0,1.8,0.2,2.6,0.5c0.8,0.4,1.5,0.8,2,1.5c0.6,0.6,1,1.3,1.3,2.1c0.3,0.8,0.5,1.7,0.5,2.6c0,0.1,0,0.3,0,0.4s0,0.2,0,0.3
					h-11.2c0,0.7,0.2,1.3,0.5,1.9c0.3,0.6,0.6,1.1,1.1,1.5c0.4,0.4,0.9,0.8,1.5,1c0.6,0.2,1.2,0.4,1.8,0.4c0.4,0,0.8-0.1,1.3-0.2
					c0.4-0.1,0.8-0.3,1.2-0.5c0.4-0.2,0.7-0.4,1-0.7c0.3-0.3,0.5-0.6,0.7-1l1.5,0.4c-0.2,0.5-0.5,0.9-0.9,1.3
					c-0.4,0.4-0.8,0.7-1.3,1c-0.5,0.3-1,0.5-1.6,0.7C275.4,97.1,274.8,97.2,274.2,97.2z M279,89.7c-0.1-0.7-0.2-1.3-0.5-1.9
					c-0.3-0.6-0.6-1.1-1.1-1.5c-0.4-0.4-0.9-0.7-1.5-1c-0.6-0.2-1.2-0.4-1.8-0.4s-1.2,0.1-1.8,0.4c-0.6,0.2-1.1,0.6-1.5,1
					c-0.4,0.4-0.8,0.9-1,1.5c-0.3,0.6-0.4,1.2-0.5,1.9H279z"/>
				<path class="st0" d="M301.3,96.9h-1.7v-7.3c0-1.5-0.2-2.6-0.7-3.4s-1.2-1.1-2.2-1.1c-0.5,0-1,0.1-1.4,0.3
					c-0.4,0.2-0.9,0.4-1.2,0.8c-0.4,0.3-0.7,0.7-1,1.2c-0.3,0.5-0.5,1-0.7,1.5v8h-1.7v-7.3c0-1.6-0.2-2.7-0.7-3.4
					c-0.5-0.7-1.2-1.1-2.2-1.1c-1,0-1.9,0.3-2.6,1c-0.8,0.7-1.3,1.6-1.7,2.7v8h-1.7v-13h1.6v3c0.5-1,1.2-1.8,2.1-2.3
					c0.9-0.6,1.8-0.8,2.9-0.8c1.1,0,2,0.3,2.6,0.9c0.7,0.6,1.1,1.4,1.2,2.4c1.2-2.2,2.9-3.4,5-3.4c0.7,0,1.4,0.1,1.9,0.4
					c0.5,0.3,0.9,0.6,1.2,1.1c0.3,0.5,0.5,1.1,0.7,1.8c0.1,0.7,0.2,1.5,0.2,2.3V96.9z"/>
				<path class="st0" d="M309.2,97.2c-1,0-1.8-0.2-2.6-0.5c-0.8-0.4-1.5-0.8-2-1.5c-0.6-0.6-1-1.3-1.3-2.2c-0.3-0.8-0.5-1.7-0.5-2.6
					c0-0.9,0.2-1.8,0.5-2.6c0.3-0.8,0.8-1.5,1.4-2.2c0.6-0.6,1.3-1.1,2-1.5c0.8-0.4,1.6-0.6,2.6-0.6c0.9,0,1.8,0.2,2.6,0.6
					c0.8,0.4,1.5,0.9,2.1,1.5c0.6,0.6,1,1.3,1.4,2.2c0.3,0.8,0.5,1.7,0.5,2.6c0,0.9-0.2,1.8-0.5,2.6c-0.3,0.8-0.8,1.5-1.3,2.2
					c-0.6,0.6-1.3,1.1-2.1,1.5C311,97,310.2,97.2,309.2,97.2z M304.5,90.4c0,0.7,0.1,1.4,0.4,2c0.3,0.6,0.6,1.2,1,1.7
					c0.4,0.5,0.9,0.8,1.5,1.1c0.6,0.3,1.2,0.4,1.8,0.4c0.7,0,1.3-0.1,1.8-0.4c0.6-0.3,1.1-0.7,1.5-1.1c0.4-0.5,0.8-1,1-1.7
					c0.3-0.6,0.4-1.3,0.4-2.1c0-0.7-0.1-1.4-0.4-2c-0.3-0.6-0.6-1.2-1-1.7c-0.4-0.5-0.9-0.9-1.5-1.1c-0.6-0.3-1.2-0.4-1.8-0.4
					c-0.7,0-1.3,0.1-1.8,0.4c-0.6,0.3-1.1,0.7-1.5,1.1c-0.4,0.5-0.8,1-1,1.7C304.6,89,304.5,89.7,304.5,90.4z"/>
				<path class="st0" d="M322.6,97.2c-0.9,0-1.7-0.2-2.5-0.6c-0.8-0.4-1.4-0.9-2-1.5s-1-1.3-1.3-2.1c-0.3-0.8-0.5-1.7-0.5-2.5
					c0-0.9,0.2-1.8,0.5-2.6s0.7-1.5,1.2-2.2c0.5-0.6,1.2-1.1,1.9-1.5c0.7-0.4,1.5-0.5,2.4-0.5c1.1,0,2.1,0.3,2.9,0.9
					c0.9,0.6,1.5,1.3,2,2.1v-8h1.7v16.1c0,0.5,0.2,0.7,0.6,0.7v1.5c-0.2,0.1-0.4,0.1-0.6,0.1c-0.4,0-0.7-0.1-1.1-0.4
					c-0.3-0.3-0.4-0.6-0.4-0.9v-1.3c-0.5,0.9-1.2,1.5-2.1,2C324.5,96.9,323.6,97.2,322.6,97.2z M323,95.7c0.4,0,0.9-0.1,1.3-0.3
					c0.5-0.2,0.9-0.4,1.3-0.7c0.4-0.3,0.8-0.6,1.1-1c0.3-0.4,0.5-0.8,0.5-1.3v-4c-0.2-0.5-0.4-0.9-0.7-1.3c-0.3-0.4-0.7-0.7-1.1-1
					c-0.4-0.3-0.8-0.5-1.3-0.7c-0.5-0.2-0.9-0.2-1.4-0.2c-0.7,0-1.3,0.1-1.9,0.4c-0.6,0.3-1.1,0.7-1.5,1.2c-0.4,0.5-0.7,1.1-0.9,1.7
					c-0.2,0.6-0.3,1.3-0.3,2c0,0.7,0.1,1.4,0.4,2s0.6,1.2,1,1.7c0.4,0.5,0.9,0.9,1.5,1.1C321.7,95.5,322.3,95.7,323,95.7z"/>
				<path class="st0" d="M337.1,97.2c-1,0-1.8-0.2-2.6-0.5c-0.8-0.4-1.5-0.9-2.1-1.5c-0.6-0.6-1-1.3-1.4-2.2
					c-0.3-0.8-0.5-1.7-0.5-2.6c0-0.9,0.2-1.8,0.5-2.6c0.3-0.8,0.8-1.5,1.4-2.1c0.6-0.6,1.3-1.1,2.1-1.5c0.8-0.4,1.7-0.5,2.6-0.5
					c1,0,1.8,0.2,2.6,0.5c0.8,0.4,1.5,0.8,2,1.5c0.6,0.6,1,1.3,1.3,2.1c0.3,0.8,0.5,1.7,0.5,2.6c0,0.1,0,0.3,0,0.4s0,0.2,0,0.3
					h-11.2c0,0.7,0.2,1.3,0.5,1.9c0.3,0.6,0.6,1.1,1.1,1.5c0.4,0.4,0.9,0.8,1.5,1c0.6,0.2,1.2,0.4,1.8,0.4c0.4,0,0.8-0.1,1.3-0.2
					c0.4-0.1,0.8-0.3,1.2-0.5c0.4-0.2,0.7-0.4,1-0.7c0.3-0.3,0.5-0.6,0.7-1l1.5,0.4c-0.2,0.5-0.5,0.9-0.9,1.3
					c-0.4,0.4-0.8,0.7-1.3,1c-0.5,0.3-1,0.5-1.6,0.7C338.3,97.1,337.7,97.2,337.1,97.2z M341.9,89.7c-0.1-0.7-0.2-1.3-0.5-1.9
					c-0.3-0.6-0.6-1.1-1.1-1.5c-0.4-0.4-0.9-0.7-1.5-1c-0.6-0.2-1.2-0.4-1.8-0.4s-1.2,0.1-1.8,0.4c-0.6,0.2-1.1,0.6-1.5,1
					c-0.4,0.4-0.8,0.9-1,1.5c-0.3,0.6-0.4,1.2-0.5,1.9H341.9z"/>
				<path class="st0" d="M344.9,78.6h1.7V94c0,0.5,0.1,0.9,0.4,1.1c0.3,0.3,0.6,0.4,1.1,0.4c0.2,0,0.4,0,0.7-0.1
					c0.2-0.1,0.5-0.1,0.7-0.2l0.3,1.4c-0.3,0.1-0.7,0.2-1.2,0.3c-0.5,0.1-0.9,0.1-1.2,0.1c-0.8,0-1.4-0.2-1.9-0.7
					c-0.5-0.4-0.7-1.1-0.7-1.9V78.6z"/>
				<path class="st0" d="M350.4,81.1v-2.5h1.7v2.5H350.4z M350.4,96.9v-13h1.7v13H350.4z"/>
				<path class="st0" d="M365.4,96.9h-1.7v-7.3c0-1.6-0.2-2.7-0.7-3.4c-0.5-0.7-1.2-1.1-2.1-1.1c-0.5,0-1,0.1-1.5,0.3
					c-0.5,0.2-1,0.4-1.4,0.8c-0.4,0.3-0.8,0.7-1.1,1.2c-0.3,0.5-0.6,1-0.7,1.5v8h-1.7v-13h1.6v3c0.5-1,1.3-1.7,2.3-2.3
					c1-0.6,2.1-0.9,3.2-0.9c0.7,0,1.3,0.1,1.8,0.4c0.5,0.3,0.9,0.6,1.2,1.1c0.3,0.5,0.5,1.1,0.7,1.8s0.2,1.5,0.2,2.3V96.9z"/>
				<path class="st0" d="M372.9,97.1c-0.9,0-1.7-0.2-2.5-0.6c-0.7-0.4-1.4-0.9-1.9-1.5c-0.5-0.6-1-1.3-1.3-2.1
					c-0.3-0.8-0.5-1.6-0.5-2.5c0-0.9,0.1-1.8,0.4-2.6c0.3-0.8,0.7-1.5,1.2-2.2c0.5-0.6,1.2-1.1,1.9-1.5c0.7-0.4,1.6-0.6,2.5-0.6
					c1.1,0,2.1,0.3,2.9,0.8c0.8,0.6,1.5,1.3,2.1,2.1v-2.7h1.5V97c0,0.9-0.2,1.7-0.5,2.4c-0.3,0.7-0.8,1.3-1.4,1.7
					c-0.6,0.5-1.3,0.8-2,1.1c-0.8,0.2-1.6,0.4-2.5,0.4c-1.5,0-2.7-0.3-3.6-0.8c-0.9-0.5-1.7-1.3-2.2-2.2l1.1-0.8
					c0.5,0.8,1.2,1.4,2.1,1.8c0.9,0.4,1.8,0.6,2.8,0.6c0.6,0,1.2-0.1,1.8-0.3c0.6-0.2,1.1-0.4,1.5-0.8c0.4-0.3,0.8-0.8,1-1.3
					c0.2-0.5,0.4-1.1,0.4-1.8v-2.6c-0.5,0.8-1.2,1.5-2.1,2C374.8,96.8,373.9,97.1,372.9,97.1z M373.4,95.7c0.5,0,1-0.1,1.5-0.3
					c0.5-0.2,0.9-0.4,1.3-0.7c0.4-0.3,0.7-0.7,1-1c0.3-0.4,0.4-0.8,0.5-1.2v-4c-0.2-0.5-0.4-0.9-0.8-1.3c-0.3-0.4-0.7-0.7-1.1-1
					c-0.4-0.3-0.8-0.5-1.3-0.7c-0.5-0.2-0.9-0.2-1.4-0.2c-0.7,0-1.4,0.2-2,0.5c-0.6,0.3-1.1,0.7-1.5,1.2c-0.4,0.5-0.7,1.1-0.9,1.7
					c-0.2,0.6-0.3,1.3-0.3,1.9c0,0.7,0.1,1.4,0.4,2c0.2,0.6,0.6,1.2,1,1.7c0.4,0.5,1,0.9,1.5,1.1C372.1,95.5,372.7,95.7,373.4,95.7z
					"/>
				<path class="st0" d="M392.4,97.2c-0.9,0-1.7-0.2-2.5-0.6c-0.8-0.4-1.4-0.9-2-1.5s-1-1.3-1.3-2.1c-0.3-0.8-0.5-1.7-0.5-2.5
					c0-0.9,0.2-1.8,0.5-2.6c0.3-0.8,0.7-1.5,1.2-2.2c0.5-0.6,1.2-1.1,1.9-1.5c0.7-0.4,1.5-0.5,2.4-0.5c1.1,0,2.1,0.3,2.9,0.9
					c0.9,0.6,1.5,1.3,2,2.1v-8h1.7v16.1c0,0.5,0.2,0.7,0.6,0.7v1.5c-0.2,0.1-0.4,0.1-0.6,0.1c-0.4,0-0.7-0.1-1.1-0.4
					c-0.3-0.3-0.4-0.6-0.4-0.9v-1.3c-0.5,0.9-1.2,1.5-2.1,2C394.3,96.9,393.4,97.2,392.4,97.2z M392.8,95.7c0.4,0,0.9-0.1,1.3-0.3
					c0.5-0.2,0.9-0.4,1.3-0.7c0.4-0.3,0.8-0.6,1.1-1c0.3-0.4,0.5-0.8,0.5-1.3v-4c-0.2-0.5-0.4-0.9-0.7-1.3c-0.3-0.4-0.7-0.7-1.1-1
					c-0.4-0.3-0.8-0.5-1.3-0.7c-0.5-0.2-0.9-0.2-1.4-0.2c-0.7,0-1.3,0.1-1.9,0.4c-0.6,0.3-1.1,0.7-1.5,1.2c-0.4,0.5-0.7,1.1-0.9,1.7
					c-0.2,0.6-0.3,1.3-0.3,2c0,0.7,0.1,1.4,0.4,2s0.6,1.2,1,1.7c0.4,0.5,0.9,0.9,1.5,1.1C391.5,95.5,392.1,95.7,392.8,95.7z"/>
				<path class="st0" d="M406.8,97.2c-1,0-1.8-0.2-2.6-0.5c-0.8-0.4-1.5-0.8-2-1.5c-0.6-0.6-1-1.3-1.3-2.2c-0.3-0.8-0.5-1.7-0.5-2.6
					c0-0.9,0.2-1.8,0.5-2.6c0.3-0.8,0.8-1.5,1.4-2.2c0.6-0.6,1.3-1.1,2-1.5c0.8-0.4,1.6-0.6,2.6-0.6c0.9,0,1.8,0.2,2.6,0.6
					c0.8,0.4,1.5,0.9,2.1,1.5c0.6,0.6,1,1.3,1.4,2.2c0.3,0.8,0.5,1.7,0.5,2.6c0,0.9-0.2,1.8-0.5,2.6c-0.3,0.8-0.8,1.5-1.3,2.2
					c-0.6,0.6-1.3,1.1-2.1,1.5C408.6,97,407.7,97.2,406.8,97.2z M402,90.4c0,0.7,0.1,1.4,0.4,2c0.3,0.6,0.6,1.2,1,1.7
					c0.4,0.5,0.9,0.8,1.5,1.1c0.6,0.3,1.2,0.4,1.8,0.4s1.3-0.1,1.8-0.4c0.6-0.3,1.1-0.7,1.5-1.1c0.4-0.5,0.8-1,1-1.7
					c0.3-0.6,0.4-1.3,0.4-2.1c0-0.7-0.1-1.4-0.4-2c-0.3-0.6-0.6-1.2-1-1.7c-0.4-0.5-0.9-0.9-1.5-1.1s-1.2-0.4-1.8-0.4
					s-1.3,0.1-1.8,0.4c-0.6,0.3-1.1,0.7-1.5,1.1c-0.4,0.5-0.8,1-1,1.7C402.2,89,402,89.7,402,90.4z"/>
				<path class="st0" d="M425.7,96.9H424v-7.3c0-1.6-0.2-2.7-0.7-3.4c-0.5-0.7-1.2-1.1-2.1-1.1c-0.5,0-1,0.1-1.5,0.3
					c-0.5,0.2-1,0.4-1.4,0.8c-0.4,0.3-0.8,0.7-1.1,1.2c-0.3,0.5-0.6,1-0.7,1.5v8h-1.7v-13h1.6v3c0.5-1,1.3-1.7,2.3-2.3
					c1-0.6,2.1-0.9,3.2-0.9c0.7,0,1.3,0.1,1.8,0.4c0.5,0.3,0.9,0.6,1.2,1.1c0.3,0.5,0.5,1.1,0.7,1.8s0.2,1.5,0.2,2.3V96.9z"/>
				<path class="st0" d="M433.7,97.2c-1,0-1.8-0.2-2.6-0.5c-0.8-0.4-1.5-0.9-2.1-1.5c-0.6-0.6-1-1.3-1.4-2.2
					c-0.3-0.8-0.5-1.7-0.5-2.6c0-0.9,0.2-1.8,0.5-2.6c0.3-0.8,0.8-1.5,1.4-2.1c0.6-0.6,1.3-1.1,2.1-1.5c0.8-0.4,1.7-0.5,2.6-0.5
					c1,0,1.8,0.2,2.6,0.5c0.8,0.4,1.5,0.8,2,1.5c0.6,0.6,1,1.3,1.3,2.1c0.3,0.8,0.5,1.7,0.5,2.6c0,0.1,0,0.3,0,0.4s0,0.2,0,0.3
					h-11.2c0,0.7,0.2,1.3,0.5,1.9c0.3,0.6,0.6,1.1,1.1,1.5c0.4,0.4,0.9,0.8,1.5,1c0.6,0.2,1.2,0.4,1.8,0.4c0.4,0,0.8-0.1,1.3-0.2
					c0.4-0.1,0.8-0.3,1.2-0.5c0.4-0.2,0.7-0.4,1-0.7c0.3-0.3,0.5-0.6,0.7-1l1.5,0.4c-0.2,0.5-0.5,0.9-0.9,1.3
					c-0.4,0.4-0.8,0.7-1.3,1c-0.5,0.3-1,0.5-1.6,0.7C434.9,97.1,434.3,97.2,433.7,97.2z M438.5,89.7c-0.1-0.7-0.2-1.3-0.5-1.9
					c-0.3-0.6-0.6-1.1-1.1-1.5c-0.4-0.4-0.9-0.7-1.5-1c-0.6-0.2-1.2-0.4-1.8-0.4s-1.2,0.1-1.8,0.4c-0.6,0.2-1.1,0.6-1.5,1
					c-0.4,0.4-0.8,0.9-1,1.5c-0.3,0.6-0.4,1.2-0.5,1.9H438.5z"/>
				<path class="st0" d="M453.1,85.4c-1.2,0-2.2,0.4-3,1c-0.9,0.6-1.5,1.4-1.8,2.5v8.1h-1.7v-13h1.6V87c0.5-1,1.1-1.8,2-2.4
					c0.8-0.6,1.7-0.9,2.6-0.9c0.1,0,0.2,0,0.3,0V85.4z"/>
				<path class="st0" d="M454,81.1v-2.5h1.7v2.5H454z M454,96.9v-13h1.7v13H454z"/>
				<path class="st0" d="M463.3,97.1c-0.9,0-1.7-0.2-2.5-0.6c-0.7-0.4-1.4-0.9-1.9-1.5c-0.5-0.6-1-1.3-1.3-2.1
					c-0.3-0.8-0.5-1.6-0.5-2.5c0-0.9,0.1-1.8,0.4-2.6s0.7-1.5,1.2-2.2c0.5-0.6,1.2-1.1,1.9-1.5c0.7-0.4,1.6-0.6,2.5-0.6
					c1.1,0,2.1,0.3,2.9,0.8c0.8,0.6,1.5,1.3,2.1,2.1v-2.7h1.5V97c0,0.9-0.2,1.7-0.5,2.4c-0.3,0.7-0.8,1.3-1.4,1.7
					c-0.6,0.5-1.3,0.8-2,1.1c-0.8,0.2-1.6,0.4-2.5,0.4c-1.5,0-2.7-0.3-3.6-0.8c-0.9-0.5-1.7-1.3-2.2-2.2l1.1-0.8
					c0.5,0.8,1.2,1.4,2.1,1.8c0.9,0.4,1.8,0.6,2.8,0.6c0.6,0,1.2-0.1,1.8-0.3c0.6-0.2,1.1-0.4,1.5-0.8c0.4-0.3,0.8-0.8,1-1.3
					c0.2-0.5,0.4-1.1,0.4-1.8v-2.6c-0.5,0.8-1.2,1.5-2.1,2C465.2,96.8,464.3,97.1,463.3,97.1z M463.8,95.7c0.5,0,1-0.1,1.5-0.3
					c0.5-0.2,0.9-0.4,1.3-0.7c0.4-0.3,0.7-0.7,1-1c0.3-0.4,0.4-0.8,0.5-1.2v-4c-0.2-0.5-0.4-0.9-0.8-1.3c-0.3-0.4-0.7-0.7-1.1-1
					c-0.4-0.3-0.8-0.5-1.3-0.7c-0.5-0.2-0.9-0.2-1.4-0.2c-0.7,0-1.4,0.2-2,0.5c-0.6,0.3-1.1,0.7-1.5,1.2c-0.4,0.5-0.7,1.1-0.9,1.7
					c-0.2,0.6-0.3,1.3-0.3,1.9c0,0.7,0.1,1.4,0.4,2c0.2,0.6,0.6,1.2,1,1.7c0.4,0.5,1,0.9,1.5,1.1C462.5,95.5,463.1,95.7,463.8,95.7z
					"/>
				<path class="st0" d="M483.2,96.9h-1.7v-7.3c0-1.5-0.3-2.6-0.8-3.3c-0.5-0.7-1.3-1.1-2.2-1.1c-0.5,0-1,0.1-1.4,0.3
					c-0.5,0.2-0.9,0.5-1.3,0.8c-0.4,0.3-0.8,0.7-1.1,1.2c-0.3,0.4-0.5,0.9-0.7,1.5v8h-1.7V78.6h1.7v8.2c0.5-1,1.2-1.8,2.2-2.3
					c0.9-0.6,1.9-0.9,3-0.9c0.8,0,1.4,0.1,1.9,0.4c0.5,0.3,0.9,0.7,1.3,1.2c0.3,0.5,0.6,1.1,0.7,1.8c0.2,0.7,0.2,1.5,0.2,2.3V96.9z"
					/>
				<path class="st0" d="M491.4,96.3c-0.1,0.1-0.2,0.1-0.4,0.2c-0.2,0.1-0.4,0.2-0.7,0.2c-0.2,0.1-0.5,0.2-0.9,0.2
					c-0.3,0.1-0.7,0.1-1,0.1c-0.4,0-0.7-0.1-1.1-0.1c-0.3-0.1-0.6-0.3-0.9-0.5c-0.3-0.2-0.5-0.5-0.6-0.8c-0.1-0.3-0.2-0.7-0.2-1.1
					v-9.3h-1.8v-1.4h1.8v-4.4h1.7v4.4h3v1.4h-3v8.9c0,0.5,0.2,0.8,0.5,1.1c0.3,0.2,0.7,0.3,1.1,0.3c0.5,0,0.9-0.1,1.3-0.2
					c0.4-0.2,0.6-0.3,0.7-0.3L491.4,96.3z"/>
				<path class="st0" d="M492.2,96.9v-2.5h1.5v2.5H492.2z"/>
			</g>
		</g>
		<g>
			<path class="st0" d="M144.8,71.4V25.2H166c2.3,0,4.3,0.5,6.2,1.4c1.9,0.9,3.5,2.1,4.9,3.6c1.4,1.5,2.4,3.2,3.2,5.1
				c0.8,1.9,1.2,3.9,1.2,5.8c0,2.7-0.6,5.2-1.8,7.5c-1.2,2.3-2.8,4.2-4.9,5.7l9.8,17h-14.3l-8.1-14.2h-4.8v14.2H144.8z M157.5,46.2
				h8c0.8,0,1.5-0.4,2.2-1.3c0.7-0.9,1-2.1,1-3.6c0-1.6-0.4-2.8-1.2-3.7c-0.8-0.8-1.6-1.3-2.3-1.3h-7.7V46.2z"/>
			<path class="st0" d="M200.7,72.1c-3,0-5.7-0.5-8-1.4c-2.3-0.9-4.3-2.2-5.9-3.8c-1.6-1.6-2.8-3.4-3.6-5.5
				c-0.8-2.1-1.2-4.3-1.2-6.6c0-2.5,0.4-4.8,1.2-7c0.8-2.2,2-4.1,3.6-5.8c1.6-1.6,3.5-3,5.9-3.9c2.3-1,5-1.5,8.1-1.5
				c3,0,5.7,0.5,8.1,1.5c2.3,1,4.3,2.3,5.9,3.9c1.6,1.6,2.8,3.5,3.6,5.7c0.8,2.1,1.2,4.4,1.2,6.7c0,0.7,0,1.3-0.1,2
				c-0.1,0.7-0.1,1.3-0.2,1.8h-24c0.1,1.8,0.8,3.1,2,3.9c1.2,0.8,2.5,1.2,4,1.2c1.3,0,2.6-0.3,3.8-0.9c1.2-0.6,2-1.5,2.4-2.5l10.5,3
				c-1.4,2.7-3.5,5-6.4,6.7C208.4,71.2,204.9,72.1,200.7,72.1z M206.1,50.7c-0.2-1.6-0.8-3-1.8-3.9c-1-1-2.3-1.4-3.8-1.4
				c-1.6,0-2.8,0.5-3.8,1.4c-1,1-1.6,2.3-1.8,3.9H206.1z"/>
			<path class="st0" d="M275.2,71.4h-12.4V52.2c0-1.7-0.3-2.9-1-3.7c-0.7-0.8-1.5-1.1-2.4-1.1c-1,0-2.1,0.5-3.2,1.4
				c-1.1,0.9-1.9,2.1-2.4,3.5v19.2h-12.4V52.2c0-1.7-0.3-2.9-1-3.7c-0.7-0.8-1.5-1.1-2.4-1.1c-1,0-2.1,0.5-3.2,1.4
				c-1.1,0.9-1.9,2.1-2.4,3.5v19.2H220V37.2h11.1v5.1c1.2-1.9,2.9-3.3,5-4.3c2.1-1,4.6-1.5,7.6-1.5c1.4,0,2.6,0.2,3.6,0.5
				c1,0.3,1.9,0.8,2.7,1.3c0.8,0.6,1.4,1.2,1.8,1.9c0.5,0.7,0.8,1.4,1.1,2.2c1.2-1.9,2.9-3.3,5-4.4c2.1-1,4.5-1.6,7.2-1.6
				c2.3,0,4,0.4,5.4,1.3c1.3,0.8,2.3,1.9,3,3.2c0.7,1.3,1.1,2.6,1.4,4c0.2,1.4,0.3,2.7,0.3,3.9V71.4z"/>
			<path class="st0" d="M294.5,72.1c-3.1,0-5.8-0.5-8.1-1.5c-2.3-1-4.3-2.3-5.9-3.9c-1.6-1.6-2.8-3.5-3.6-5.7
				c-0.8-2.1-1.2-4.4-1.2-6.7c0-2.3,0.4-4.6,1.2-6.7c0.8-2.1,2-4,3.6-5.7c1.6-1.6,3.5-2.9,5.9-3.9c2.3-1,5-1.5,8.1-1.5
				c3,0,5.7,0.5,8.1,1.5c2.3,1,4.3,2.3,5.9,3.9c1.6,1.6,2.8,3.5,3.6,5.7c0.8,2.1,1.2,4.4,1.2,6.7c0,2.3-0.4,4.6-1.2,6.7
				c-0.8,2.1-2,4-3.6,5.7c-1.6,1.6-3.5,2.9-5.9,3.9C300.2,71.6,297.5,72.1,294.5,72.1z M288.4,54.3c0,2.3,0.6,4.1,1.7,5.4
				c1.1,1.3,2.6,2,4.4,2s3.2-0.7,4.4-2c1.1-1.3,1.7-3.1,1.7-5.4c0-2.3-0.6-4.1-1.7-5.4c-1.1-1.3-2.6-2-4.4-2s-3.2,0.7-4.4,2
				C289,50.2,288.4,52,288.4,54.3z"/>
			<path class="st0" d="M328.4,72.1c-2.3,0-4.5-0.4-6.5-1.3c-2-0.9-3.7-2.1-5.1-3.7c-1.4-1.6-2.5-3.5-3.4-5.7
				c-0.8-2.2-1.2-4.6-1.2-7.2c0-2.5,0.4-4.9,1.1-7c0.7-2.2,1.8-4,3.1-5.6c1.3-1.6,2.9-2.8,4.7-3.7c1.8-0.9,3.8-1.3,6.1-1.3
				c2.2,0,4.2,0.5,6.1,1.5c1.8,1,3.3,2.4,4.3,4.2V23.9h12.4v33.8c0,1.2,0.2,2,0.5,2.4s1,0.7,1.8,0.8v10.4c-2.1,0.4-3.9,0.7-5.2,0.7
				c-4.2,0-6.6-1.6-7.3-4.8l-0.3-1.2c-1.2,2.1-2.8,3.6-4.8,4.6C332.7,71.6,330.6,72.1,328.4,72.1z M331.7,61.7
				c2.3,0,4.2-1.2,5.9-3.5V52c-0.6-1.5-1.5-2.7-2.7-3.7c-1.2-0.9-2.4-1.4-3.7-1.4c-0.9,0-1.7,0.2-2.5,0.6c-0.8,0.4-1.4,0.9-2,1.6
				c-0.5,0.7-1,1.5-1.3,2.4c-0.3,0.9-0.5,1.9-0.5,2.9c0,2.2,0.6,3.9,1.9,5.2C328.1,61,329.7,61.7,331.7,61.7z"/>
			<path class="st0" d="M370.3,72.1c-3,0-5.7-0.5-8-1.4c-2.3-0.9-4.3-2.2-5.9-3.8c-1.6-1.6-2.8-3.4-3.6-5.5
				c-0.8-2.1-1.2-4.3-1.2-6.6c0-2.5,0.4-4.8,1.2-7c0.8-2.2,2-4.1,3.6-5.8c1.6-1.6,3.5-3,5.9-3.9c2.3-1,5-1.5,8.1-1.5
				c3,0,5.7,0.5,8.1,1.5c2.3,1,4.3,2.3,5.9,3.9c1.6,1.6,2.8,3.5,3.6,5.7c0.8,2.1,1.2,4.4,1.2,6.7c0,0.7,0,1.3-0.1,2
				c-0.1,0.7-0.1,1.3-0.2,1.8h-24c0.1,1.8,0.8,3.1,2,3.9c1.2,0.8,2.5,1.2,4,1.2c1.3,0,2.6-0.3,3.8-0.9c1.2-0.6,2-1.5,2.4-2.5l10.5,3
				c-1.4,2.7-3.5,5-6.4,6.7C378.1,71.2,374.5,72.1,370.3,72.1z M375.8,50.7c-0.2-1.6-0.8-3-1.8-3.9c-1-1-2.3-1.4-3.8-1.4
				c-1.6,0-2.8,0.5-3.8,1.4s-1.6,2.3-1.8,3.9H375.8z"/>
			<path class="st0" d="M389.5,23.9h12.4v33.9c0,2.6,1.1,3.9,3.2,3.9c0.5,0,1.1-0.1,1.7-0.3s1.2-0.4,1.7-0.7l1.6,9.1
				c-1.5,0.7-3.1,1.2-5,1.6c-1.8,0.4-3.6,0.6-5.2,0.6c-3.3,0-5.8-0.8-7.6-2.5c-1.8-1.7-2.7-4.1-2.7-7.4V23.9z"/>
			<path class="st0" d="M453.6,71.4V29.6l-19.4,32.8h-1.6l-19.4-32.8v41.8H411V25.2h2.1l20.4,34.4l20.4-34.4h2.1v46.2H453.6z"/>
			<path class="st0" d="M477.5,72.1c-2.3,0-4.4-0.5-6.4-1.4c-2-0.9-3.7-2.2-5.2-3.8c-1.5-1.6-2.7-3.5-3.5-5.7s-1.3-4.4-1.3-6.9
				c0-2.4,0.4-4.6,1.2-6.7c0.8-2.1,2-3.9,3.5-5.5c1.5-1.6,3.2-2.8,5.1-3.7c2-0.9,4.1-1.4,6.4-1.4c2.3,0,4.5,0.5,6.5,1.4
				c2,0.9,3.7,2.2,5.2,3.7c1.5,1.6,2.6,3.4,3.5,5.6s1.3,4.4,1.3,6.8c0,0.1,0,0.3,0,0.5c0,0.3,0,0.4-0.1,0.5h-30.3
				c0.2,2.1,0.7,4,1.5,5.8c0.8,1.8,1.8,3.4,3.1,4.7c1.3,1.3,2.8,2.3,4.4,3.1c1.7,0.8,3.4,1.1,5.3,1.1c1.2,0,2.4-0.2,3.6-0.5
				c1.2-0.3,2.3-0.8,3.4-1.4c1-0.6,2-1.3,2.7-2.2c0.8-0.8,1.4-1.8,1.9-2.8l2,0.5c-0.5,1.2-1.2,2.3-2.1,3.3c-0.9,1-2,1.9-3.2,2.6
				c-1.2,0.7-2.6,1.3-4,1.7C480.5,71.9,479,72.1,477.5,72.1z M491.5,53.6c-0.1-2.1-0.6-4.1-1.4-5.9c-0.8-1.8-1.8-3.3-3.1-4.6
				c-1.3-1.3-2.7-2.3-4.4-3c-1.6-0.7-3.4-1.1-5.3-1.1c-1.9,0-3.7,0.4-5.3,1.1c-1.6,0.7-3.1,1.8-4.3,3.1c-1.2,1.3-2.2,2.8-3,4.6
				c-0.8,1.8-1.2,3.7-1.3,5.8H491.5z"/>
		</g>
	</g>
	<path class="st1" d="M35.6,99c-1.9-1.9-1.9-5.1,0-7l7-7c1.9-1.9,5.1-1.9,7,0l14,14L92.7,70c1.9-1.9,5.1-1.9,7,0l7,7
		c1.9,1.9,1.9,5.1,0,7l-39.6,39.6c-1.9,1.9-5.1,1.9-7,0L35.6,99z"/>
	<path class="st2" d="M124,59.7c1.9,1.9,1.9,5.1,0,7l-7,7c-1.9,1.9-5.1,1.9-7,0L78.6,42.3L32.3,88.7c-1.9,1.9-5.1,1.9-7,0l-22-22
		c-1.9-1.9-1.9-5.1,0-7L60.1,2.8c1.9-1.9,5.1-1.9,7,0L124,59.7z"/>
</g>
</svg>
