<svg width="24" height="24" viewBox="0 0 24 24" fill="none" xmlns="http://www.w3.org/2000/svg">
<path d="M10.0454 23.375H10.5454V22.875V15.438V14.938H10.0454H7.46924V12.4375H10.0454H10.5454V11.9375V9.26953C10.5454 7.8519 10.9654 6.81316 11.6484 6.12943C12.3319 5.4452 13.3366 5.05859 14.6191 5.05859C15.2551 5.05859 15.912 5.11551 16.4143 5.17346C16.5706 5.1915 16.711 5.20952 16.8301 5.22577V7.27344H15.8032C14.9424 7.27344 14.296 7.545 13.8741 8.03286C13.4639 8.50717 13.3296 9.11308 13.3296 9.66455V11.9375V12.4375H13.8296H16.6054L16.2217 14.938H13.8296H13.3296V15.438V22.875V23.375H13.8296H20.5312C21.2855 23.375 22.0088 23.0754 22.5421 22.5421C23.0754 22.0088 23.375 21.2855 23.375 20.5312V3.34375C23.375 2.58954 23.0754 1.86622 22.5421 1.33292C22.0088 0.799609 21.2855 0.5 20.5312 0.5H3.34375C2.58954 0.5 1.86622 0.799609 1.33292 1.33292C0.799609 1.86622 0.5 2.58954 0.5 3.34375V20.5312C0.5 21.2855 0.799608 22.0088 1.33292 22.5421C1.86622 23.0754 2.58954 23.375 3.34375 23.375H10.0454Z" fill="#0B3192" stroke="white"/>
</svg>
