<svg width="384" height="416" viewBox="0 0 384 416" fill="none" xmlns="http://www.w3.org/2000/svg">
<path d="M169.4 214.6C175.6 220.9 183.8 224 192 224C200.2 224 208.38 220.875 214.62 214.625L374.62 54.625C387.12 42.125 387.12 21.875 374.62 9.375C362.12 -3.125 341.87 -3.125 329.37 9.375L192 146.8L54.6299 9.38C42.1299 -3.12 21.8799 -3.12 9.37988 9.38C-3.12012 21.88 -3.12012 42.13 9.37988 54.63L169.4 214.6ZM329.4 201.4L192 338.8L54.6299 201.4C42.1299 188.9 21.8799 188.9 9.37988 201.4C-3.12012 213.9 -3.12012 234.15 9.37988 246.65L169.38 406.65C175.6 412.9 183.8 416 192 416C200.2 416 208.38 412.875 214.62 406.625L374.62 246.625C387.12 234.125 387.12 213.875 374.62 201.375C362.12 188.875 341.9 188.9 329.4 201.4Z" fill="#293845" fill-opacity="0.9"/>
</svg>
