<svg width="25" height="25" viewBox="0 0 25 25" fill="none" xmlns="http://www.w3.org/2000/svg">
<path d="M10.9306 9.43345L10.1836 9.00893V9.86816V15.1514V16.0106L10.9306 15.5861L15.5791 12.9445L16.344 12.5098L15.5791 12.0751L10.9306 9.43345ZM12.5 6.25L12.5 6.75H12.5002H12.5009L12.5038 6.75L12.5155 6.75001L12.5617 6.75009L12.7393 6.75073C12.8932 6.75146 13.1148 6.75292 13.3852 6.75585C13.9261 6.7617 14.6611 6.7734 15.4385 6.79677C16.2167 6.82017 17.0333 6.85515 17.7387 6.90726C18.4584 6.96042 19.0194 7.0288 19.3121 7.10844L19.3141 7.10899C19.9059 7.26729 20.3728 7.73611 20.5324 8.33646C20.703 8.97832 20.7945 10.0069 20.841 10.9107C20.8638 11.3552 20.8753 11.7571 20.881 12.048C20.8839 12.1933 20.8853 12.3106 20.886 12.3913L20.8866 12.4837L20.8867 12.5073L20.8867 12.513L20.8867 12.5144V12.5146V12.5147V12.5149L20.8867 12.5163L20.8867 12.522L20.8866 12.5456L20.886 12.638C20.8853 12.7187 20.8839 12.836 20.881 12.9813C20.8753 13.272 20.8638 13.6738 20.841 14.118C20.7945 15.0213 20.703 16.0484 20.5325 16.6876L20.5324 16.688C20.375 17.2799 19.9143 17.7305 19.3141 17.891L19.3121 17.8916C19.0194 17.9712 18.4584 18.0396 17.7387 18.0927C17.0333 18.1449 16.2167 18.1798 15.4385 18.2032C14.6611 18.2266 13.9261 18.2383 13.3852 18.2442C13.1148 18.2471 12.8932 18.2485 12.7393 18.2493L12.5617 18.2499L12.5155 18.25L12.5038 18.25L12.5009 18.25H12.5002H12.5L12.5 18.75L12.5 18.25H12.4998H12.4991L12.4962 18.25L12.4845 18.25L12.4383 18.2499L12.2607 18.2493C12.1068 18.2486 11.8851 18.2471 11.6148 18.2442C11.0738 18.2385 10.3388 18.2269 9.56134 18.2038C8.78309 18.1807 7.96637 18.1462 7.26086 18.0948C6.54119 18.0423 5.97962 17.9748 5.68632 17.896L5.68585 17.8959C5.08569 17.7353 4.62496 17.2848 4.46759 16.6928C4.29704 16.051 4.20548 15.0224 4.15901 14.1186C4.13615 13.6741 4.12471 13.2722 4.11898 12.9813C4.11612 12.836 4.1147 12.7187 4.11399 12.638L4.11337 12.5456L4.11329 12.522L4.11328 12.5163L4.11328 12.5149V12.5147V12.5147V12.5146V12.5146V12.5144L4.11328 12.513L4.11329 12.5073L4.11337 12.4837L4.11399 12.3911C4.1147 12.3102 4.11612 12.1928 4.11898 12.0473C4.12471 11.756 4.13615 11.3536 4.15901 10.9088C4.20549 10.0043 4.29706 8.97596 4.46749 8.33684L4.46759 8.33646C4.62718 7.73611 5.09414 7.26729 5.68585 7.10899L5.68586 7.109L5.68791 7.10844C5.98062 7.0288 6.54164 6.96042 7.26134 6.90726C7.96671 6.85515 8.78333 6.82017 9.56154 6.79677C10.3389 6.7734 11.0739 6.7617 11.6148 6.75585C11.8852 6.75292 12.1068 6.75146 12.2607 6.75073L12.4383 6.75009L12.4845 6.75001L12.4962 6.75L12.4991 6.75H12.4998H12.5L12.5 6.25ZM23.9375 21.0938V3.90625C23.9375 2.33616 22.6638 1.0625 21.0938 1.0625H3.90625C2.33616 1.0625 1.0625 2.33616 1.0625 3.90625V21.0938C1.0625 22.6638 2.33616 23.9375 3.90625 23.9375H21.0938C22.6638 23.9375 23.9375 22.6638 23.9375 21.0938Z" fill="#D60000" stroke="white"/>
</svg>
