<svg xmlns="http://www.w3.org/2000/svg" xmlns:xlink="http://www.w3.org/1999/xlink" viewBox="0 0 33.24 33.24"><defs><style>.cls-1{fill:url(#linear-gradient);}.cls-2{fill:#fff;}</style><linearGradient id="linear-gradient" x1="-1048.04" y1="-4485.14" x2="-1021.87" y2="-4458.97" gradientTransform="translate(-4455.43 1051.57) rotate(90)" gradientUnits="userSpaceOnUse"><stop offset="0" stop-color="#1677f1"/><stop offset="0.18" stop-color="#186ee9"/><stop offset="0.46" stop-color="#1d56d3"/><stop offset="0.82" stop-color="#262fb0"/><stop offset="1" stop-color="#2b189c"/></linearGradient></defs><g id="Capa_2" data-name="Capa 2"><g id="Form_Login" data-name="Form Login"><path class="cls-1" d="M18.79,32.24l-2.32-.56-2,.56H9.65A8.66,8.66,0,0,1,1,23.59V9.65A8.66,8.66,0,0,1,9.65,1H23.59a8.66,8.66,0,0,1,8.65,8.65V23.59a8.66,8.66,0,0,1-8.65,8.65Z"/><path class="cls-2" d="M23.59,2a7.67,7.67,0,0,1,7.65,7.65V23.59a7.67,7.67,0,0,1-7.65,7.65H18.91l-2.46-.6-2.11.6H9.65A7.67,7.67,0,0,1,2,23.59V9.65A7.67,7.67,0,0,1,9.65,2H23.59m0-2H9.65A9.66,9.66,0,0,0,0,9.65V23.59a9.66,9.66,0,0,0,9.65,9.65h5l.27-.07,1.61-.46,1.94.48.24.05h4.92a9.66,9.66,0,0,0,9.65-9.65V9.65A9.66,9.66,0,0,0,23.59,0Z"/><path class="cls-2" d="M22.31,21.33,23,17.1H18.91V14.36a2.11,2.11,0,0,1,2.38-2.28h1.84V8.48a22.08,22.08,0,0,0-3.27-.29c-3.34,0-5.52,2-5.52,5.69V17.1H10.62v4.23h3.72v9.91h4.57V21.33Z"/></g></g></svg>