<svg xmlns="http://www.w3.org/2000/svg" viewBox="0 0 111.51 112.67"><defs><style>.cls-1{fill:#f5333f;}.cls-2{fill:#233777;}</style></defs><g id="Capa_2" data-name="Capa 2"><g id="Form_Login" data-name="Form Login"><g id="Abril"><polygon class="cls-1" points="43.75 13.06 43.75 0 37.38 0 37.38 20.34 41.83 13.06 43.75 13.06"/><polygon class="cls-1" points="74.13 20.34 74.13 0 67.76 0 67.76 13.06 69.68 13.06 74.13 20.34"/><polygon class="cls-1" points="31.54 36.63 31.54 37.08 31.54 41.29 36.78 37.08 38.39 35.78 32.59 35.78 31.54 36.63"/><polygon class="cls-1" points="35.38 43.65 41.18 43.65 42.8 42.35 50.97 35.78 45.17 35.78 37 42.35 35.38 43.65"/><polygon class="cls-1" points="47.96 43.65 53.76 43.65 55.37 42.35 63.55 35.78 57.75 35.78 49.58 42.35 47.96 43.65"/><polygon class="cls-1" points="60.54 43.65 66.34 43.65 67.95 42.35 74.51 37.08 76.13 35.78 70.33 35.78 69.2 36.68 62.16 42.35 60.54 43.65"/><polygon class="cls-1" points="73.12 43.65 78.92 43.65 79.97 42.8 79.97 42.35 79.97 38.14 74.73 42.35 73.12 43.65"/><path class="cls-1" d="M16.25,59.63V56.45h6.51l.87-.71,4.79-3.84H83.09l4.78,3.84.88.71h6.51v4h5.46v-4h10.79V37.18H97.33l-12-9.65H74.79l-.66-1.09-6.24-10.2H43.62l-6.24,10.2-.66,1.09H26.17l-12,9.65H0V56.45H10.79v4h5.46Zm27.5-32.27,3.18-5.21H64.58l3.18,5.21V28h-24ZM5.91,50.54V43.09H16.26l12-9.65h55l12,9.65H105.6v7.45H90.83l-4.91-3.95-.75-.6H26.34l-.75.6-4.91,3.95Z"/><path class="cls-2" d="M95.26,60.47H89.43v3.36H22.08V60.47H5V77.59H8.31v18H5v17.12H22.08v-3.36H89.43v3.36h17.12V95.55H103.2v-18h3.35V60.47H95.26Zm5.38,46.29h-5.3V103.4H16.17v3.36h-5.3v-5.3h3.35V99.37H97.29v2.09h3.35ZM14.22,98.09V94.46H97.29v3.63Zm86.42-26.41H97.29V93.19H14.22V71.68H10.87v-5.3h5.3v3.36H95.34V66.38h5.3Z"/><path class="cls-2" d="M19.28,73.27V89.82h4.48V73.27H19.28Zm3.21,15.28H20.55v-14h1.94Z"/><path class="cls-2" d="M30.69,89.82h4.48V73.27H30.69ZM32,74.55H33.9v14H32Z"/><path class="cls-2" d="M42.1,89.82h4.49V73.27H42.1Zm1.27-15.27h1.94v14H43.37Z"/><path class="cls-2" d="M53.51,89.82H58V73.27H53.51Zm1.28-15.27h1.94v14H54.79Z"/><path class="cls-2" d="M64.92,89.82h4.49V73.27H64.92ZM66.2,74.55h1.94v14H66.2Z"/><path class="cls-2" d="M76.34,89.82h4.48V73.27H76.34Zm1.27-15.27h1.94v14H77.61Z"/></g></g></g></svg>