<svg xmlns="http://www.w3.org/2000/svg" viewBox="0 0 93.86 122.48"><defs><style>.cls-1{fill:#f5333f;}.cls-2{fill:#233875;}.cls-3{fill:#534d66;}</style></defs><g id="Capa_2" data-name="Capa 2"><g id="Form_Login" data-name="Form Login"><path class="cls-1" d="M37.49,8.07a47.22,47.22,0,0,1,13.15,0l.65.1.66.11V.66A.66.66,0,0,0,51.29,0H36.84a.66.66,0,0,0-.66.66V8.28l.66-.11Z"/><path class="cls-1" d="M6.18,27.24l.39-.54L7,26.17a48.47,48.47,0,0,1,4.32-5,46.15,46.15,0,0,1,5-4.32l.53-.39.54-.39L11.94,10.7a.66.66,0,0,0-.46-.19.68.68,0,0,0-.47.19L.79,20.92a.67.67,0,0,0,0,.93Z"/><path class="cls-1" d="M71.87,16.87a45.11,45.11,0,0,1,5,4.32,46,46,0,0,1,4.32,5l.4.53.39.54,5.38-5.38a.65.65,0,0,0,0-.93L77.11,10.7a.66.66,0,0,0-.46-.19.64.64,0,0,0-.46.19L70.8,16.09l.54.38Z"/><path class="cls-2" d="M76.22,31.1l.39.55.37.55a39.43,39.43,0,0,1,4.27,35H86.1a44.13,44.13,0,0,0-5.8-38.34l-.39-.54q-.18-.27-.39-.54a44.47,44.47,0,0,0-9.29-9.29l-.54-.39-.54-.39a44.24,44.24,0,0,0-7.93-4.36A43.48,43.48,0,0,0,52,10.61l-.66-.12-.65-.1a45.27,45.27,0,0,0-13.15,0l-.65.1-.66.12a43.48,43.48,0,0,0-9.27,2.76A44,44,0,0,0,19,17.74c-.19.12-.37.25-.55.38l-.53.39a44.56,44.56,0,0,0-9.3,9.3l-.39.53-.38.54a44.15,44.15,0,0,0-5.7,38.65,15.32,15.32,0,0,1,2.32-.29l.87,0H6.88a39.43,39.43,0,0,1,4.27-35c.12-.18.24-.37.37-.55l.38-.55a40,40,0,0,1,9.3-9.29l.54-.38.55-.38a39.23,39.23,0,0,1,13.89-5.76l.66-.13.65-.12a39.58,39.58,0,0,1,13.15,0l.65.12.66.13a39.18,39.18,0,0,1,13.88,5.76l.55.38c.19.12.37.25.55.38A39.77,39.77,0,0,1,76.22,31.1Z"/><path class="cls-2" d="M9.84,52l5.24.3A29.16,29.16,0,0,1,16,46.48l-5.06-1.35A34.63,34.63,0,0,0,9.84,52Z"/><path class="cls-2" d="M10.15,59a34,34,0,0,0,1.7,6.76l4.93-1.79a28.88,28.88,0,0,1-1.44-5.72Z"/><path class="cls-2" d="M71.09,64.62,76,66.54a33.83,33.83,0,0,0,1.87-6.72l-5.17-.88A28.67,28.67,0,0,1,71.09,64.62Z"/><path class="cls-2" d="M77.41,46,72.3,47.19A28.78,28.78,0,0,1,73.08,53l5.24-.16A34.7,34.7,0,0,0,77.41,46Z"/><path class="cls-2" d="M18.72,39.78l.34-.59.35-.57A30.13,30.13,0,0,1,21.26,36l-4.11-3.26c-.53.68-1,1.37-1.53,2.09l-.36.55c-.13.19-.25.38-.37.57-.53.87-1,1.76-1.49,2.66L18.09,41C18.29,40.57,18.5,40.17,18.72,39.78Z"/><path class="cls-2" d="M37.49,20.32l-.65.14-.66.14c-.67.16-1.34.34-2,.54l1.5,5,.5-.14.66-.18.65-.16a29.84,29.84,0,0,1,4-.63L41,19.83A35.23,35.23,0,0,0,37.49,20.32Z"/><path class="cls-2" d="M51.29,25.84,52,26q.6.16,1.2.36l1.63-5c-.93-.31-1.87-.57-2.83-.8l-.66-.14-.65-.14c-.88-.17-1.77-.3-2.66-.4l-.59,5.21a29.79,29.79,0,0,1,3.25.55Z"/><path class="cls-2" d="M29.28,29l.59-.34.38-.21-2.51-4.61c-.57.32-1.14.65-1.7,1l-.57.36-.55.37A35.21,35.21,0,0,0,22,27.75l3.38,4a29.34,29.34,0,0,1,3.34-2.43Z"/><path class="cls-2" d="M62.65,25.16l-.57-.36-.93-.56-2,3.53-.58,1,.31.19.58.35a28.22,28.22,0,0,1,3.89,2.92l3.49-3.92a35.59,35.59,0,0,0-3.59-2.79Z"/><path class="cls-2" d="M69.06,39.19c.12.19.23.39.35.59.34.6.66,1.22,1,1.85l4.75-2.23A34.88,34.88,0,0,0,73.23,36l-.36-.57-.37-.56c-.32-.47-.65-.93-1-1.39l-4.19,3.15c.49.66,1,1.34,1.39,2Z"/><polygon class="cls-1" points="39.01 53.97 49.12 53.97 44.06 29.83 39.01 53.97"/><path class="cls-2" d="M6.07,113.92V110.7l.23-.2,6-5.19.59-.5V83.06L6.07,77.17V72.64H83.46v4.53l-6.81,5.89v1.43a19.9,19.9,0,0,1,3.38.43v-.31l6.81-5.9V69.26H2.69v9.45l6.81,5.9v18.65l-5.41,4.68-1.4,1.21v8.15H60.55a20.6,20.6,0,0,1-2.31-3.38Z"/><path class="cls-2" d="M24.35,109.56V77H18.82v32.56ZM19.5,77.67h4.17v31.22H19.5Z"/><path class="cls-2" d="M35.94,109.56V77H30.41v32.56ZM31.09,77.67h4.18v31.22H31.09Z"/><path class="cls-2" d="M47.53,109.56V77H42v32.56ZM42.68,77.67h4.18v31.22H42.68Z"/><path class="cls-2" d="M59.12,93.5V77H53.59v32.56h2.93c-.06-.22-.12-.45-.17-.67H54.27V77.67h4.18V94.6C58.66,94.23,58.89,93.86,59.12,93.5Z"/><path class="cls-2" d="M70.71,85.13V77H65.18V87.55l.68-.41V77.67H70v7.66Z"/><path class="cls-2" d="M11.53,107.56a2.91,2.91,0,1,0,2.91,2.9A2.91,2.91,0,0,0,11.53,107.56Zm0,4.36A1.46,1.46,0,1,1,13,110.46,1.46,1.46,0,0,1,11.53,111.92Z"/><path class="cls-2" d="M11.53,73.6a2.91,2.91,0,1,0,2.91,2.91A2.92,2.92,0,0,0,11.53,73.6Zm0,4.37A1.46,1.46,0,1,1,13,76.51,1.46,1.46,0,0,1,11.53,78Z"/><path class="cls-3" d="M80.91,76.51A2.91,2.91,0,1,0,78,79.42,2.91,2.91,0,0,0,80.91,76.51Zm-4.36,0A1.46,1.46,0,1,1,78,78,1.46,1.46,0,0,1,76.55,76.51Z"/><path class="cls-2" d="M80,86.9a18.73,18.73,0,0,0-3.38-.48l-.83,0a18,18,0,0,0-5.11.74l-.67.22a17.84,17.84,0,0,0-4.18,2l-.68.47a18.2,18.2,0,0,0-6.06,7.74,16.3,16.3,0,0,0-.67,2,17.92,17.92,0,0,0-.11,9.3c0,.22.12.45.18.67a17.85,17.85,0,0,0,2,4.36,18.3,18.3,0,0,0,2.7,3.38A18,18,0,1,0,80,86.9Zm-4.21,32.2a14.56,14.56,0,0,1-7-1.8,14.84,14.84,0,0,1-4.13-3.38,14.62,14.62,0,0,1,.53-19.55c.22-.23.44-.45.68-.67A14.55,14.55,0,0,1,70,91l.67-.28a14.69,14.69,0,0,1,5.11-.91c.28,0,.55,0,.83,0A14.5,14.5,0,0,1,80,90.4a14.66,14.66,0,0,1-4.21,28.7Z"/><path class="cls-1" d="M85.81,98.39l-1.17-1.17a1.51,1.51,0,0,0-2.12,0L80,99.71l-3.38,3.39-3.49,3.48a1.49,1.49,0,0,1-2.12,0l-.33-.32-.67-.68-1.37-1.36a1.49,1.49,0,0,0-2.12,0l-.69.69-.48.48a1.47,1.47,0,0,0-.2,1.87,1.57,1.57,0,0,0,.2.25l.48.48.9.9.67.67.32.31L69.87,112,71,113.17a1.51,1.51,0,0,0,2.12,0L74.33,112l.85-.85,1.27-1.28,2.24-2.23.57-.57,2.4-2.4,4.15-4.16A1.51,1.51,0,0,0,85.81,98.39Z"/></g></g></svg>