<svg xmlns="http://www.w3.org/2000/svg" viewBox="0 0 113.37 100.26"><defs><style>.cls-1{fill:#f5333f;}.cls-2{fill:#20407d;}</style></defs><g id="Capa_2" data-name="Capa 2"><g id="Form_Login" data-name="Form Login"><path class="cls-1" d="M57.33,100.26H0V93.58H6.82l-.09-8H0V79.67H113.37v5.86h-3.68v8h3.68v6.67Zm22.89-6.68H92.41v-8H67.89l.13,8Zm-45.55,0H47.15v-8H22.34l.14,8Z"/><path class="cls-2" d="M52.92,0H3.06V36.26H52.92Zm-4.7,32H7.77V4.27H48.22Z"/><rect class="cls-2" x="22.9" y="8.25" width="1.65" height="19.77"/><rect class="cls-2" x="15.54" y="8.25" width="1.65" height="19.77"/><rect class="cls-2" x="31.44" y="8.25" width="1.65" height="19.77"/><rect class="cls-2" x="39.99" y="8.25" width="1.65" height="19.77"/><path class="cls-2" d="M3.49,77.71H53.35V41.45H3.49Zm4.71-32H48.65V73.45H8.2Z"/><rect class="cls-2" x="14.35" y="49.96" width="1.65" height="19.77"/><rect class="cls-2" x="22.9" y="49.96" width="1.65" height="19.77"/><rect class="cls-2" x="31.44" y="49.96" width="1.65" height="19.77"/><rect class="cls-2" x="39.99" y="49.96" width="1.65" height="19.77"/><path class="cls-2" d="M52.92,0H3.06V36.26H52.92Zm-4.7,32H7.77V4.27H48.22Z"/><rect class="cls-2" x="39.99" y="8.25" width="1.65" height="19.77"/><path class="cls-2" d="M106.87,0H57V36.26h49.85Zm-4.7,32H61.72V4.27h40.45Z"/><rect class="cls-2" x="68.31" y="8.25" width="1.65" height="19.77"/><rect class="cls-2" x="76.85" y="8.25" width="1.65" height="19.77"/><rect class="cls-2" x="85.4" y="8.25" width="1.65" height="19.77"/><rect class="cls-2" x="93.94" y="8.25" width="1.65" height="19.77"/><path class="cls-2" d="M57.45,77.71H107.3V41.45H57.45Zm4.7-32H102.6V73.45H62.15Z"/><rect class="cls-2" x="68.31" y="49.96" width="1.65" height="19.77"/><rect class="cls-2" x="76.85" y="49.96" width="1.65" height="19.77"/><rect class="cls-2" x="85.4" y="49.96" width="1.65" height="19.77"/><rect class="cls-2" x="93.94" y="49.96" width="1.65" height="19.77"/><path class="cls-2" d="M106.87,0H57V36.26h49.85Zm-4.7,32H61.72V4.27h40.45Z"/><rect class="cls-2" x="93.94" y="8.25" width="1.65" height="19.77"/><path class="cls-2" d="M57.45,77.71H107.3V41.45H57.45Zm4.7-32H102.6V73.45H62.15Z"/><rect class="cls-2" x="68.31" y="49.96" width="1.65" height="19.77"/><rect class="cls-2" x="76.85" y="49.96" width="1.65" height="19.77"/><rect class="cls-2" x="85.4" y="49.96" width="1.65" height="19.77"/><rect class="cls-2" x="93.94" y="49.96" width="1.65" height="19.77"/></g></g></svg>