<svg xmlns="http://www.w3.org/2000/svg" xmlns:xlink="http://www.w3.org/1999/xlink" viewBox="0 0 33.24 33.24"><defs><style>.cls-1{fill:url(#Degradado_sin_nombre_10);}.cls-2{fill:#fff;}</style><linearGradient id="Degradado_sin_nombre_10" x1="-1022.7" y1="-4374.82" x2="-996.53" y2="-4348.65" gradientTransform="translate(-4345.11 1026.24) rotate(90)" gradientUnits="userSpaceOnUse"><stop offset="0" stop-color="#007bb8"/><stop offset="1" stop-color="#0044e9"/></linearGradient></defs><g id="Capa_2" data-name="Capa 2"><g id="Form_Login" data-name="Form Login"><rect class="cls-1" x="1" y="1" width="31.24" height="31.24" rx="8.65"/><path class="cls-2" d="M23.59,2a7.67,7.67,0,0,1,7.65,7.65V23.59a7.67,7.67,0,0,1-7.65,7.65H9.65A7.67,7.67,0,0,1,2,23.59V9.65A7.67,7.67,0,0,1,9.65,2H23.59m0-2H9.65A9.66,9.66,0,0,0,0,9.65V23.59a9.66,9.66,0,0,0,9.65,9.65H23.59a9.66,9.66,0,0,0,9.65-9.65V9.65A9.66,9.66,0,0,0,23.59,0Z"/><path class="cls-2" d="M10.49,13.9h2.83V23H10.49Zm1.42-4.52A1.64,1.64,0,1,1,10.26,11a1.64,1.64,0,0,1,1.65-1.64"/><path class="cls-2" d="M15.1,13.9h2.71v1.24h0a3,3,0,0,1,2.67-1.47c2.87,0,3.39,1.89,3.39,4.34v5H21.09V18.57c0-1.05,0-2.41-1.47-2.41s-1.7,1.15-1.7,2.34V23H15.1Z"/></g></g></svg>