<svg xmlns="http://www.w3.org/2000/svg" viewBox="0 0 259.76 57.95"><defs><style>.cls-1,.cls-3{fill:#fff;}.cls-2{fill:#e73944;}.cls-3{font-size:14.27px;font-family:DBHead-BlackItalic, DBHead BlackItalic;font-weight:800;font-style:italic;}.cls-4{letter-spacing:-0.01em;}.cls-5{letter-spacing:-0.01em;}</style></defs><g id="Capa_2" data-name="Capa 2"><g id="Form_Login" data-name="Form Login"><polygon class="cls-1" points="66.76 20.34 69.26 15.31 86.44 15.31 83.96 20.34 78.18 20.34 69.92 36.82 64.17 36.82 72.46 20.34 66.76 20.34"/><path class="cls-1" d="M78.58,36.82,89.35,15.31H99a5.82,5.82,0,0,1,5.5,5.05,5.55,5.55,0,0,1-.16,2.25c-.07.25-.49,1.16-.7,1.61A9.62,9.62,0,0,1,102,26.82a6.13,6.13,0,0,1-3.46,1.74c-1,0-2.22,0-2.22,0l2.77,8.22H93.39l-2.75-8.24,2.53-5h4.32A1.64,1.64,0,0,0,99,22a1.67,1.67,0,0,0-1.54-1.61H92.58L84.31,36.82Z"/><path class="cls-1" d="M118.18,26.83l3.25-6.47h-3.85a5.81,5.81,0,0,0-5,3.2l-1.66,3.27Zm-18,10,7.14-14.24s2.9-7.26,10.89-7.26h11.46l-10.82,21.5h-5.72l2.55-5.05h-7.25l-2.54,5.05Z"/><path class="cls-1" d="M121.78,36.82l10.75-21.5H143.4a5.6,5.6,0,0,1,3.25,1.46,5.22,5.22,0,0,1,1.51,3.57,5.84,5.84,0,0,1-.57,2.24c-.37.83-4.58,9.18-4.58,9.18l16,0a2,2,0,0,0,1.24-.45,4.47,4.47,0,0,0,1-1.49c.19-.42.6-1.29.6-1.29h-7.8A4.23,4.23,0,0,1,151,26.8a4.19,4.19,0,0,1-.69-3.67c.13-.39,1.61-3.4,1.84-3.86a7.59,7.59,0,0,1,3.59-3.33,8.2,8.2,0,0,1,2.65-.62h14.39l-2.46,5-11.61,0a2.39,2.39,0,0,0-1.86,1.08c-.51,1-1.08,2.16-1.08,2.16h7.46a4.67,4.67,0,0,1,3,1.31,3.6,3.6,0,0,1,1.2,2.94,3.73,3.73,0,0,1-.31,1.66c-.28.68-1.74,3.57-2,4a7.37,7.37,0,0,1-5.78,3.32H134.69l7.18-14.24a1.57,1.57,0,0,0,.09-1.41,1.42,1.42,0,0,0-1.17-.82h-5L127.5,36.82Z"/><polygon class="cls-1" points="166.43 36.82 177.21 15.32 194.41 15.32 191.98 20.32 180.4 20.35 178.79 23.55 190.32 23.55 187.81 28.57 176.26 28.57 172.14 36.82 166.43 36.82"/><path class="cls-1" d="M186.53,36.82l10.81-21.5h17.2l-2.44,5H200.59L199,23.55h11.49l-2.52,5h-11.5l-1.61,3.21H222a2.28,2.28,0,0,0,1.82-.59,13.1,13.1,0,0,0,1.46-2.62h-7.58a4.45,4.45,0,0,1-3.32-1.78,4.34,4.34,0,0,1-.18-4.8c.63-1.31,1.43-2.91,1.73-3.38a7.32,7.32,0,0,1,6.55-3.3h13.73l-2.48,5H222.09a2.32,2.32,0,0,0-1.69.76,20.58,20.58,0,0,0-1.31,2.44h7.29a4.53,4.53,0,0,1,3.4,1.55,4.1,4.1,0,0,1,.88,3.93c-.25.69-1.84,3.84-2.12,4.31a7,7,0,0,1-6.15,3.48H186.53"/><path class="cls-2" d="M38.36,24.54a12.28,12.28,0,0,1-22.87-6.13,12.42,12.42,0,0,1,.39-3.07H3.08L0,21.47H9.51a18.53,18.53,0,0,0,35.7,3.07Z"/><path class="cls-2" d="M52.43,21.47l3.08-6.13H46A18.54,18.54,0,0,0,10.3,12.27h6.85a12.26,12.26,0,0,1,22.48,9.2Z"/><polygon class="cls-1" points="66.76 20.34 69.26 15.31 86.44 15.31 83.96 20.34 78.18 20.34 69.92 36.82 64.17 36.82 72.46 20.34 66.76 20.34"/><path class="cls-1" d="M78.58,36.82,89.35,15.31H99a5.82,5.82,0,0,1,5.5,5.05,5.55,5.55,0,0,1-.16,2.25c-.07.25-.49,1.16-.7,1.61A9.62,9.62,0,0,1,102,26.82a6.13,6.13,0,0,1-3.46,1.74c-1,0-2.22,0-2.22,0l2.77,8.22H93.39l-2.75-8.24,2.53-5h4.32A1.64,1.64,0,0,0,99,22a1.67,1.67,0,0,0-1.54-1.61H92.58L84.31,36.82Z"/><path class="cls-1" d="M118.18,26.83l3.25-6.47h-3.85a5.81,5.81,0,0,0-5,3.2l-1.66,3.27Zm-18,10,7.14-14.24s2.9-7.26,10.89-7.26h11.46l-10.82,21.5h-5.72l2.55-5.05h-7.25l-2.54,5.05Z"/><path class="cls-1" d="M121.78,36.82l10.75-21.5H143.4a5.6,5.6,0,0,1,3.25,1.46,5.22,5.22,0,0,1,1.51,3.57,5.84,5.84,0,0,1-.57,2.24c-.37.83-4.58,9.18-4.58,9.18l16,0a2,2,0,0,0,1.24-.45,4.47,4.47,0,0,0,1-1.49c.19-.42.6-1.29.6-1.29h-7.8A4.23,4.23,0,0,1,151,26.8a4.19,4.19,0,0,1-.69-3.67c.13-.39,1.61-3.4,1.84-3.86a7.59,7.59,0,0,1,3.59-3.33,8.2,8.2,0,0,1,2.65-.62h14.39l-2.46,5-11.61,0a2.39,2.39,0,0,0-1.86,1.08c-.51,1-1.08,2.16-1.08,2.16h7.46a4.67,4.67,0,0,1,3,1.31,3.6,3.6,0,0,1,1.2,2.94,3.73,3.73,0,0,1-.31,1.66c-.28.68-1.74,3.57-2,4a7.37,7.37,0,0,1-5.78,3.32H134.69l7.18-14.24a1.57,1.57,0,0,0,.09-1.41,1.42,1.42,0,0,0-1.17-.82h-5L127.5,36.82Z"/><polygon class="cls-1" points="166.43 36.82 177.21 15.32 194.41 15.32 191.98 20.32 180.4 20.35 178.79 23.55 190.32 23.55 187.81 28.57 176.26 28.57 172.14 36.82 166.43 36.82"/><path class="cls-1" d="M186.53,36.82l10.81-21.5h17.2l-2.44,5H200.59L199,23.55h11.49l-2.52,5h-11.5l-1.61,3.21H222a2.28,2.28,0,0,0,1.82-.59,13.1,13.1,0,0,0,1.46-2.62h-7.58a4.45,4.45,0,0,1-3.32-1.78,4.34,4.34,0,0,1-.18-4.8c.63-1.31,1.43-2.91,1.73-3.38a7.32,7.32,0,0,1,6.55-3.3h13.73l-2.48,5H222.09a2.32,2.32,0,0,0-1.69.76,20.58,20.58,0,0,0-1.31,2.44h7.29a4.53,4.53,0,0,1,3.4,1.55,4.1,4.1,0,0,1,.88,3.93c-.25.69-1.84,3.84-2.12,4.31a7,7,0,0,1-6.15,3.48H186.53"/><path class="cls-2" d="M38.36,24.54a12.28,12.28,0,0,1-22.87-6.13,12.42,12.42,0,0,1,.39-3.07H3.08L0,21.47H9.51a18.53,18.53,0,0,0,35.7,3.07Z"/><path class="cls-2" d="M52.43,21.47l3.08-6.13H46A18.54,18.54,0,0,0,10.3,12.27h6.85a12.26,12.26,0,0,1,22.48,9.2Z"/><path class="cls-1" d="M230.28,36.82,238,21.44a11.68,11.68,0,0,1,10.55-6.12h11.19L249,36.82h-5.75l2.51-5.06h-7.19L236,36.82Zm18-10,3.21-6.45h-3.38a5.84,5.84,0,0,0-5.4,3.2L241,26.79Z"/><text class="cls-3" transform="translate(188.44 54.38) scale(1.01 1)"><tspan class="cls-4">L</tspan><tspan x="6.53" y="0">o</tspan><tspan class="cls-5" x="14.37" y="0">g</tspan><tspan x="22.25" y="0">istics</tspan></text></g></g></svg>