<svg xmlns="http://www.w3.org/2000/svg" viewBox="0 0 353.75 79.34"><defs><style>.cls-1,.cls-3{fill:#253879;}.cls-2{fill:#e73944;}.cls-3{font-size:19.53px;font-family:DBHead-BlackItalic, DBHead BlackItalic;font-weight:800;font-style:italic;}.cls-4{letter-spacing:-0.01em;}.cls-5{letter-spacing:-0.01em;}.cls-6{letter-spacing:0em;}</style></defs><g id="Capa_2" data-name="Capa 2"><g id="Form_Login" data-name="Form Login"><polygon class="cls-1" points="90.91 27.86 94.32 20.97 117.72 20.97 114.34 27.86 106.47 27.86 95.23 50.41 87.39 50.41 98.68 27.86 90.91 27.86"/><path class="cls-1" d="M107,50.41,121.68,21h13.11a7.94,7.94,0,0,1,7.48,6.92,7.56,7.56,0,0,1-.22,3.08,23.55,23.55,0,0,1-1,2.2A13.35,13.35,0,0,1,139,36.72a8.37,8.37,0,0,1-4.71,2.39c-1.35,0-3,0-3,0L135,50.41h-7.8l-3.76-11.28,3.45-6.86h5.88a2.23,2.23,0,0,0,2.07-2.18,2.27,2.27,0,0,0-2.09-2.21h-6.66L114.82,50.41Z"/><path class="cls-1" d="M160.94,36.73l4.43-8.85h-5.24c-4.75,0-6.79,4.38-6.79,4.38l-2.26,4.47ZM136.43,50.41l9.72-19.5S150.1,21,161,21h15.59L161.86,50.41h-7.8l3.47-6.92h-9.87l-3.46,6.92Z"/><path class="cls-1" d="M165.84,50.41,180.49,21h14.8a7.61,7.61,0,0,1,4.43,2,7.22,7.22,0,0,1,2.05,4.89,8.22,8.22,0,0,1-.77,3.08c-.51,1.13-6.24,12.57-6.24,12.57l21.82,0a2.69,2.69,0,0,0,1.68-.62,6,6,0,0,0,1.35-2l.82-1.77H209.81a5.93,5.93,0,0,1-5.09-7.43c.17-.53,2.19-4.65,2.5-5.29a10.37,10.37,0,0,1,4.89-4.56,11,11,0,0,1,3.6-.84h19.61L232,27.86l-15.8,0a3.28,3.28,0,0,0-2.55,1.48l-1.46,3,10.16,0A6.36,6.36,0,0,1,226.4,34a4.94,4.94,0,0,1,1.64,4,5.16,5.16,0,0,1-.42,2.28c-.38.93-2.37,4.89-2.74,5.53s-3.22,4.54-7.87,4.54H183.42l9.78-19.5a2.09,2.09,0,0,0,.12-1.92,1.91,1.91,0,0,0-1.59-1.13h-6.84L173.64,50.41Z"/><polygon class="cls-1" points="226.66 50.41 241.33 20.98 264.76 20.98 261.44 27.83 245.68 27.86 243.49 32.24 259.19 32.24 255.77 39.11 240.03 39.11 234.43 50.41 226.66 50.41"/><path class="cls-1" d="M254,50.41,268.74,21h23.44l-3.33,6.89H273.18L271,32.24h15.65l-3.44,6.91-15.66,0-2.2,4.4h36.95a3.08,3.08,0,0,0,2.47-.82,17.86,17.86,0,0,0,2-3.58H296.41a6.06,6.06,0,0,1-4.53-2.44c-1.77-2.43-1.11-4.78-.25-6.57s1.95-4,2.37-4.63S296.79,21,302.92,21h18.7l-3.39,6.89H302.45a3.17,3.17,0,0,0-2.3,1,27.86,27.86,0,0,0-1.79,3.34h9.94a6.12,6.12,0,0,1,4.62,2.13,5.57,5.57,0,0,1,1.2,5.37c-.34,1-2.5,5.27-2.88,5.91a9.59,9.59,0,0,1-8.39,4.76H254"/><path class="cls-2" d="M52.24,33.6A16.7,16.7,0,0,1,21.1,25.2a17.08,17.08,0,0,1,.53-4.2H4.2L0,29.4H13a25.21,25.21,0,0,0,48.62,4.2Z"/><path class="cls-2" d="M71.4,29.4,75.6,21H62.65A25.21,25.21,0,0,0,14,16.8h9.33a16.71,16.71,0,0,1,31.15,8.4A17.08,17.08,0,0,1,54,29.4Z"/><polygon class="cls-1" points="90.91 27.86 94.32 20.97 117.72 20.97 114.34 27.86 106.47 27.86 95.23 50.41 87.39 50.41 98.68 27.86 90.91 27.86"/><path class="cls-1" d="M107,50.41,121.68,21h13.11a7.94,7.94,0,0,1,7.48,6.92,7.56,7.56,0,0,1-.22,3.08,23.55,23.55,0,0,1-1,2.2A13.35,13.35,0,0,1,139,36.72a8.37,8.37,0,0,1-4.71,2.39c-1.35,0-3,0-3,0L135,50.41h-7.8l-3.76-11.28,3.45-6.86h5.88a2.23,2.23,0,0,0,2.07-2.18,2.27,2.27,0,0,0-2.09-2.21h-6.66L114.82,50.41Z"/><path class="cls-1" d="M160.94,36.73l4.43-8.85h-5.24c-4.75,0-6.79,4.38-6.79,4.38l-2.26,4.47ZM136.43,50.41l9.72-19.5S150.1,21,161,21h15.59L161.86,50.41h-7.8l3.47-6.92h-9.87l-3.46,6.92Z"/><path class="cls-1" d="M165.84,50.41,180.49,21h14.8a7.61,7.61,0,0,1,4.43,2,7.22,7.22,0,0,1,2.05,4.89,8.22,8.22,0,0,1-.77,3.08c-.51,1.13-6.24,12.57-6.24,12.57l21.82,0a2.69,2.69,0,0,0,1.68-.62,6,6,0,0,0,1.35-2l.82-1.77H209.81a5.93,5.93,0,0,1-5.09-7.43c.17-.53,2.19-4.65,2.5-5.29a10.37,10.37,0,0,1,4.89-4.56,11,11,0,0,1,3.6-.84h19.61L232,27.86l-15.8,0a3.28,3.28,0,0,0-2.55,1.48l-1.46,3,10.16,0A6.36,6.36,0,0,1,226.4,34a4.94,4.94,0,0,1,1.64,4,5.16,5.16,0,0,1-.42,2.28c-.38.93-2.37,4.89-2.74,5.53s-3.22,4.54-7.87,4.54H183.42l9.78-19.5a2.09,2.09,0,0,0,.12-1.92,1.91,1.91,0,0,0-1.59-1.13h-6.84L173.64,50.41Z"/><polygon class="cls-1" points="226.66 50.41 241.33 20.98 264.76 20.98 261.44 27.83 245.68 27.86 243.49 32.24 259.19 32.24 255.77 39.11 240.03 39.11 234.43 50.41 226.66 50.41"/><path class="cls-1" d="M254,50.41,268.74,21h23.44l-3.33,6.89H273.18L271,32.24h15.65l-3.44,6.91-15.66,0-2.2,4.4h36.95a3.08,3.08,0,0,0,2.47-.82,17.86,17.86,0,0,0,2-3.58H296.41a6.06,6.06,0,0,1-4.53-2.44c-1.77-2.43-1.11-4.78-.25-6.57s1.95-4,2.37-4.63S296.79,21,302.92,21h18.7l-3.39,6.89H302.45a3.17,3.17,0,0,0-2.3,1,27.86,27.86,0,0,0-1.79,3.34h9.94a6.12,6.12,0,0,1,4.62,2.13,5.57,5.57,0,0,1,1.2,5.37c-.34,1-2.5,5.27-2.88,5.91a9.59,9.59,0,0,1-8.39,4.76H254"/><path class="cls-2" d="M52.24,33.6A16.7,16.7,0,0,1,21.1,25.2a17.08,17.08,0,0,1,.53-4.2H4.2L0,29.4H13a25.21,25.21,0,0,0,48.62,4.2Z"/><path class="cls-2" d="M71.4,29.4,75.6,21H62.65A25.21,25.21,0,0,0,14,16.8h9.33a16.71,16.71,0,0,1,31.15,8.4A17.08,17.08,0,0,1,54,29.4Z"/><path class="cls-1" d="M313.61,50.41l10.54-21.06A15.9,15.9,0,0,1,338.52,21h15.23l-14.7,29.44h-7.83l3.42-6.92h-9.8l-3.47,6.92Zm24.48-13.73,4.38-8.83h-4.62a8,8,0,0,0-7.35,4.38l-2.24,4.45Z"/><text class="cls-3" transform="translate(256.62 74.46)"><tspan class="cls-4">L</tspan><tspan x="8.95" y="0">o</tspan><tspan class="cls-5" x="19.67" y="0">g</tspan><tspan class="cls-6" x="30.47" y="0">istics</tspan></text></g></g></svg>