<svg xmlns="http://www.w3.org/2000/svg" xmlns:xlink="http://www.w3.org/1999/xlink" viewBox="0 0 33.24 33.24"><defs><style>.cls-1{fill:url(#Degradado_sin_nombre_7);}.cls-2{fill:#fff;}</style><linearGradient id="Degradado_sin_nombre_7" x1="-1074.82" y1="-4487.02" x2="-1048.65" y2="-4460.85" gradientTransform="translate(-4457.32 1078.35) rotate(90)" gradientUnits="userSpaceOnUse"><stop offset="0" stop-color="red"/><stop offset="1" stop-color="#9b0000"/></linearGradient></defs><g id="Capa_2" data-name="Capa 2"><g id="Form_Login" data-name="Form Login"><path class="cls-1" d="M9.65,32.24A8.66,8.66,0,0,1,1,23.59V9.65A8.66,8.66,0,0,1,9.65,1H23.59a8.66,8.66,0,0,1,8.65,8.65V23.59a8.66,8.66,0,0,1-8.65,8.65Z"/><path class="cls-2" d="M9.65,2H23.59a7.67,7.67,0,0,1,7.65,7.65V23.59a7.67,7.67,0,0,1-7.65,7.65H9.65A7.67,7.67,0,0,1,2,23.59V9.65A7.67,7.67,0,0,1,9.65,2m0-2h0A9.66,9.66,0,0,0,0,9.65V23.59a9.66,9.66,0,0,0,9.65,9.65H23.59a9.66,9.66,0,0,0,9.65-9.65V9.65A9.66,9.66,0,0,0,23.59,0Z"/><path class="cls-2" d="M24.45,14.5A3.52,3.52,0,0,0,20.94,11H12A3.52,3.52,0,0,0,8.45,14.5v4.17A3.51,3.51,0,0,0,12,22.18h9a3.51,3.51,0,0,0,3.51-3.51Zm-5.28,2.4-4,2c-.15.08-.69,0-.69-.21V14.59c0-.18.54-.29.7-.2L19,16.48C19.16,16.58,19.33,16.81,19.17,16.9Z"/></g></g></svg>