<svg width="28" height="26" viewBox="0 0 28 26" fill="none" xmlns="http://www.w3.org/2000/svg">
<path d="M18.4239 23.9135L25.5862 11.5081C27.3461 8.45993 26.641 4.40996 23.6891 2.49313C22.9492 2.01116 22.1188 1.68501 21.2487 1.53455C20.3786 1.3841 19.4869 1.41251 18.6281 1.61804C17.7694 1.82358 16.9615 2.20193 16.2537 2.73001C15.546 3.2581 14.9533 3.92484 14.5118 4.68956L13.1656 7.02123L11.1524 5.85893C8.10427 4.09908 4.0543 4.80413 2.13746 7.75607C1.6555 8.49598 1.32934 9.32632 1.17889 10.1964C1.02844 11.0666 1.05684 11.9582 1.26238 12.817C1.46791 13.6758 1.84626 14.4837 2.37435 15.1914C2.90243 15.8991 3.56918 16.4918 4.3339 16.9334L17.0579 24.2796C17.2876 24.4122 17.5605 24.4481 17.8167 24.3795C18.0729 24.3108 18.2913 24.1432 18.4239 23.9135Z" fill="#F80000" stroke="#B4282E" stroke-width="2" stroke-linecap="round" stroke-linejoin="round"/>
</svg>
