<svg width="52" height="73" viewBox="0 0 52 73" fill="none" xmlns="http://www.w3.org/2000/svg">
<path d="M47.6977 2.49363C47.5597 1.67677 48.1101 0.902737 48.9269 0.764773C49.7438 0.626808 50.5178 1.17716 50.6558 1.99402L47.6977 2.49363ZM40.8886 40.989L39.6786 40.1025L40.8886 40.989ZM1.24523 65.5488C0.52919 65.1322 0.286477 64.214 0.703111 63.498L7.49257 51.8295C7.9092 51.1134 8.82742 50.8707 9.54345 51.2874C10.2595 51.704 10.5022 52.6222 10.0856 53.3382L4.05049 63.7102L14.4225 69.7453C15.1385 70.1619 15.3812 71.0801 14.9646 71.7962C14.5479 72.5122 13.6297 72.7549 12.9137 72.3383L1.24523 65.5488ZM49.1767 2.24382C50.6558 1.99402 50.6559 1.99457 50.656 1.99521C50.6561 1.99554 50.6562 1.99626 50.6563 1.99691C50.6565 1.99822 50.6568 1.99986 50.6571 2.00185C50.6578 2.00581 50.6586 2.01114 50.6597 2.0178C50.6619 2.03112 50.6649 2.04981 50.6687 2.07376C50.6763 2.12165 50.687 2.19058 50.7001 2.27968C50.7263 2.45787 50.7624 2.71683 50.8036 3.04964C50.886 3.71514 50.9887 4.67676 51.073 5.87921C51.2416 8.28245 51.3376 11.6569 51.0486 15.5577C50.4721 23.337 48.3548 33.3363 42.0987 41.8755L39.6786 40.1025C45.4758 32.1897 47.5025 22.8163 48.0568 15.336C48.3331 11.6071 48.2411 8.38 48.0804 6.08916C48.0001 4.94456 47.9028 4.03601 47.8263 3.41809C47.7881 3.10919 47.7551 2.87313 47.7321 2.71672C47.7206 2.63853 47.7116 2.58027 47.7056 2.5428C47.7027 2.52406 47.7005 2.51052 47.6991 2.50229C47.6984 2.49818 47.698 2.49539 47.6977 2.49394C47.6976 2.49322 47.6976 2.49283 47.6975 2.49278C47.6975 2.49275 47.6976 2.49296 47.6976 2.49295C47.6976 2.49325 47.6977 2.49363 49.1767 2.24382ZM42.0987 41.8755C35.9715 50.2388 25.9661 56.1857 17.6484 60.0211C13.4661 61.9496 9.6601 63.3668 6.89842 64.3025C5.51679 64.7706 4.39444 65.1188 3.61453 65.3509C3.22452 65.4669 2.91998 65.554 2.71129 65.6124C2.60695 65.6416 2.52655 65.6637 2.47139 65.6787C2.44382 65.6862 2.42255 65.6919 2.40775 65.6959C2.40035 65.6979 2.39457 65.6994 2.39043 65.7005C2.38836 65.7011 2.3867 65.7015 2.38545 65.7019C2.38482 65.702 2.3842 65.7022 2.38388 65.7023C2.38336 65.7024 2.38294 65.7025 1.99961 64.2523C1.61628 62.8021 1.61606 62.8022 1.61595 62.8022C1.61605 62.8022 1.61604 62.8022 1.61624 62.8022C1.61664 62.8021 1.61745 62.8018 1.61867 62.8015C1.6211 62.8009 1.62516 62.7998 1.63083 62.7983C1.64216 62.7952 1.65994 62.7904 1.68398 62.7839C1.73207 62.7708 1.80524 62.7507 1.9022 62.7236C2.09613 62.6692 2.38517 62.5867 2.759 62.4755C3.50678 62.253 4.59318 61.916 5.93577 61.4611C8.62254 60.5508 12.3269 59.1713 16.3922 57.2968C24.5699 53.526 34.009 47.8413 39.6786 40.1025L42.0987 41.8755Z" fill="#6D42E8"/>
</svg>
