<svg width="1078" height="72" viewBox="0 0 1078 72" fill="none" xmlns="http://www.w3.org/2000/svg">
<rect x="0.5" y="0.5" width="1077" height="71" rx="3.5" fill="white" stroke="#4D58E2"/>
<path d="M39.592 39.62C39.0053 39.62 38.4986 39.4133 38.072 39C37.6586 38.5867 37.452 38.0667 37.452 37.44C37.452 36.8267 37.6586 36.3133 38.072 35.9C38.4986 35.4867 39.0053 35.28 39.592 35.28C40.1786 35.28 40.6853 35.4867 41.112 35.9C41.5386 36.3133 41.752 36.8267 41.752 37.44C41.752 38.0667 41.5386 38.5867 41.112 39C40.6853 39.4133 40.1786 39.62 39.592 39.62ZM76.9416 29L72.3016 43H69.5416L66.0816 32.64L62.5616 43H59.7816L55.1416 29H57.8416L61.3216 39.64L64.9416 29H67.3416L70.8816 39.7L74.4616 29H76.9416ZM85.1727 32.2C86.5193 32.2 87.5993 32.5933 88.4127 33.38C89.226 34.1667 89.6327 35.3333 89.6327 36.88V43H87.1327V37.2C87.1327 36.2667 86.9127 35.5667 86.4727 35.1C86.0327 34.62 85.406 34.38 84.5927 34.38C83.6727 34.38 82.946 34.66 82.4127 35.22C81.8793 35.7667 81.6127 36.56 81.6127 37.6V43H79.1127V28.16H81.6127V33.56C82.026 33.12 82.5327 32.7867 83.1327 32.56C83.746 32.32 84.426 32.2 85.1727 32.2ZM102.942 37.72C102.942 37.8933 102.928 38.14 102.902 38.46H94.5217C94.6684 39.2467 95.0484 39.8733 95.6617 40.34C96.2884 40.7933 97.0617 41.02 97.9817 41.02C99.1551 41.02 100.122 40.6333 100.882 39.86L102.222 41.4C101.742 41.9733 101.135 42.4067 100.402 42.7C99.6684 42.9933 98.8417 43.14 97.9217 43.14C96.7484 43.14 95.7151 42.9067 94.8217 42.44C93.9284 41.9733 93.2351 41.3267 92.7417 40.5C92.2617 39.66 92.0217 38.7133 92.0217 37.66C92.0217 36.62 92.2551 35.6867 92.7217 34.86C93.2017 34.02 93.8617 33.3667 94.7017 32.9C95.5417 32.4333 96.4884 32.2 97.5417 32.2C98.5817 32.2 99.5084 32.4333 100.322 32.9C101.148 33.3533 101.788 34 102.242 34.84C102.708 35.6667 102.942 36.6267 102.942 37.72ZM97.5417 34.2C96.7417 34.2 96.0617 34.44 95.5017 34.92C94.9551 35.3867 94.6217 36.0133 94.5017 36.8H100.562C100.455 36.0267 100.128 35.4 99.5817 34.92C99.0351 34.44 98.3551 34.2 97.5417 34.2ZM107.723 33.88C108.443 32.76 109.71 32.2 111.523 32.2V34.58C111.31 34.54 111.116 34.52 110.943 34.52C109.97 34.52 109.21 34.8067 108.663 35.38C108.116 35.94 107.843 36.7533 107.843 37.82V43H105.343V32.32H107.723V33.88ZM123.586 37.72C123.586 37.8933 123.573 38.14 123.546 38.46H115.166C115.313 39.2467 115.693 39.8733 116.306 40.34C116.933 40.7933 117.706 41.02 118.626 41.02C119.8 41.02 120.766 40.6333 121.526 39.86L122.866 41.4C122.386 41.9733 121.78 42.4067 121.046 42.7C120.313 42.9933 119.486 43.14 118.566 43.14C117.393 43.14 116.36 42.9067 115.466 42.44C114.573 41.9733 113.88 41.3267 113.386 40.5C112.906 39.66 112.666 38.7133 112.666 37.66C112.666 36.62 112.9 35.6867 113.366 34.86C113.846 34.02 114.506 33.3667 115.346 32.9C116.186 32.4333 117.133 32.2 118.186 32.2C119.226 32.2 120.153 32.4333 120.966 32.9C121.793 33.3533 122.433 34 122.886 34.84C123.353 35.6667 123.586 36.6267 123.586 37.72ZM118.186 34.2C117.386 34.2 116.706 34.44 116.146 34.92C115.6 35.3867 115.266 36.0133 115.146 36.8H121.206C121.1 36.0267 120.773 35.4 120.226 34.92C119.68 34.44 119 34.2 118.186 34.2ZM141.975 28.16V43H139.575V41.62C139.162 42.1267 138.648 42.5067 138.035 42.76C137.435 43.0133 136.768 43.14 136.035 43.14C135.008 43.14 134.082 42.9133 133.255 42.46C132.442 42.0067 131.802 41.3667 131.335 40.54C130.868 39.7 130.635 38.74 130.635 37.66C130.635 36.58 130.868 35.6267 131.335 34.8C131.802 33.9733 132.442 33.3333 133.255 32.88C134.082 32.4267 135.008 32.2 136.035 32.2C136.742 32.2 137.388 32.32 137.975 32.56C138.562 32.8 139.062 33.16 139.475 33.64V28.16H141.975ZM136.335 41C136.935 41 137.475 40.8667 137.955 40.6C138.435 40.32 138.815 39.9267 139.095 39.42C139.375 38.9133 139.515 38.3267 139.515 37.66C139.515 36.9933 139.375 36.4067 139.095 35.9C138.815 35.3933 138.435 35.0067 137.955 34.74C137.475 34.46 136.935 34.32 136.335 34.32C135.735 34.32 135.195 34.46 134.715 34.74C134.235 35.0067 133.855 35.3933 133.575 35.9C133.295 36.4067 133.155 36.9933 133.155 37.66C133.155 38.3267 133.295 38.9133 133.575 39.42C133.855 39.9267 134.235 40.32 134.715 40.6C135.195 40.8667 135.735 41 136.335 41ZM150.045 43.14C148.965 43.14 147.992 42.9067 147.125 42.44C146.259 41.9733 145.579 41.3267 145.085 40.5C144.605 39.66 144.365 38.7133 144.365 37.66C144.365 36.6067 144.605 35.6667 145.085 34.84C145.579 34.0133 146.259 33.3667 147.125 32.9C147.992 32.4333 148.965 32.2 150.045 32.2C151.139 32.2 152.119 32.4333 152.985 32.9C153.852 33.3667 154.525 34.0133 155.005 34.84C155.499 35.6667 155.745 36.6067 155.745 37.66C155.745 38.7133 155.499 39.66 155.005 40.5C154.525 41.3267 153.852 41.9733 152.985 42.44C152.119 42.9067 151.139 43.14 150.045 43.14ZM150.045 41C150.965 41 151.725 40.6933 152.325 40.08C152.925 39.4667 153.225 38.66 153.225 37.66C153.225 36.66 152.925 35.8533 152.325 35.24C151.725 34.6267 150.965 34.32 150.045 34.32C149.125 34.32 148.365 34.6267 147.765 35.24C147.179 35.8533 146.885 36.66 146.885 37.66C146.885 38.66 147.179 39.4667 147.765 40.08C148.365 40.6933 149.125 41 150.045 41ZM168.176 37.72C168.176 37.8933 168.163 38.14 168.136 38.46H159.756C159.903 39.2467 160.283 39.8733 160.896 40.34C161.523 40.7933 162.296 41.02 163.216 41.02C164.389 41.02 165.356 40.6333 166.116 39.86L167.456 41.4C166.976 41.9733 166.369 42.4067 165.636 42.7C164.903 42.9933 164.076 43.14 163.156 43.14C161.983 43.14 160.949 42.9067 160.056 42.44C159.163 41.9733 158.469 41.3267 157.976 40.5C157.496 39.66 157.256 38.7133 157.256 37.66C157.256 36.62 157.489 35.6867 157.956 34.86C158.436 34.02 159.096 33.3667 159.936 32.9C160.776 32.4333 161.723 32.2 162.776 32.2C163.816 32.2 164.743 32.4333 165.556 32.9C166.383 33.3533 167.023 34 167.476 34.84C167.943 35.6667 168.176 36.6267 168.176 37.72ZM162.776 34.2C161.976 34.2 161.296 34.44 160.736 34.92C160.189 35.3867 159.856 36.0133 159.736 36.8H165.796C165.689 36.0267 165.363 35.4 164.816 34.92C164.269 34.44 163.589 34.2 162.776 34.2ZM173.878 43.14C173.011 43.14 172.164 43.0267 171.338 42.8C170.511 42.5733 169.851 42.2867 169.358 41.94L170.318 40.04C170.798 40.36 171.371 40.62 172.038 40.82C172.718 41.0067 173.384 41.1 174.038 41.1C175.531 41.1 176.278 40.7067 176.278 39.92C176.278 39.5467 176.084 39.2867 175.698 39.14C175.324 38.9933 174.718 38.8533 173.878 38.72C172.998 38.5867 172.278 38.4333 171.718 38.26C171.171 38.0867 170.691 37.7867 170.278 37.36C169.878 36.92 169.678 36.3133 169.678 35.54C169.678 34.5267 170.098 33.72 170.938 33.12C171.791 32.5067 172.938 32.2 174.378 32.2C175.111 32.2 175.844 32.2867 176.578 32.46C177.311 32.62 177.911 32.84 178.378 33.12L177.418 35.02C176.511 34.4867 175.491 34.22 174.358 34.22C173.624 34.22 173.064 34.3333 172.678 34.56C172.304 34.7733 172.118 35.06 172.118 35.42C172.118 35.82 172.318 36.1067 172.718 36.28C173.131 36.44 173.764 36.5933 174.618 36.74C175.471 36.8733 176.171 37.0267 176.718 37.2C177.264 37.3733 177.731 37.6667 178.118 38.08C178.518 38.4933 178.718 39.08 178.718 39.84C178.718 40.84 178.284 41.64 177.418 42.24C176.551 42.84 175.371 43.14 173.878 43.14ZM195.718 39.76H188.718L187.338 43H184.658L190.958 29H193.518L199.838 43H197.118L195.718 39.76ZM194.858 37.72L192.218 31.6L189.598 37.72H194.858ZM201.618 29H207.738C209.232 29 210.558 29.2933 211.718 29.88C212.878 30.4533 213.778 31.2733 214.418 32.34C215.058 33.3933 215.378 34.6133 215.378 36C215.378 37.3867 215.058 38.6133 214.418 39.68C213.778 40.7333 212.878 41.5533 211.718 42.14C210.558 42.7133 209.232 43 207.738 43H201.618V29ZM207.618 40.8C208.645 40.8 209.545 40.6067 210.318 40.22C211.105 39.82 211.705 39.26 212.118 38.54C212.545 37.8067 212.758 36.96 212.758 36C212.758 35.04 212.545 34.2 212.118 33.48C211.705 32.7467 211.105 32.1867 210.318 31.8C209.545 31.4 208.645 31.2 207.618 31.2H204.218V40.8H207.618ZM224.162 43.2C222.228 43.2 220.722 42.66 219.642 41.58C218.562 40.4867 218.022 38.9267 218.022 36.9V29H220.622V36.8C220.622 39.5467 221.808 40.92 224.182 40.92C226.542 40.92 227.722 39.5467 227.722 36.8V29H230.282V36.9C230.282 38.9267 229.742 40.4867 228.662 41.58C227.595 42.66 226.095 43.2 224.162 43.2ZM245.21 29C246.424 29 247.477 29.2 248.37 29.6C249.277 30 249.97 30.5733 250.45 31.32C250.93 32.0667 251.17 32.9533 251.17 33.98C251.17 34.9933 250.93 35.88 250.45 36.64C249.97 37.3867 249.277 37.96 248.37 38.36C247.477 38.76 246.424 38.96 245.21 38.96H242.05V43H239.45V29H245.21ZM245.09 36.76C246.224 36.76 247.084 36.52 247.67 36.04C248.257 35.56 248.55 34.8733 248.55 33.98C248.55 33.0867 248.257 32.4 247.67 31.92C247.084 31.44 246.224 31.2 245.09 31.2H242.05V36.76H245.09ZM253.767 29H256.367V40.8H263.687V43H253.767V29ZM274.917 39.76H267.917L266.537 43H263.857L270.157 29H272.717L279.037 43H276.317L274.917 39.76ZM274.057 37.72L271.417 31.6L268.797 37.72H274.057ZM293.258 29V43H291.118L283.398 33.52V43H280.818V29H282.958L290.678 38.48V29H293.258ZM309.449 29V43H307.309L299.589 33.52V43H297.009V29H299.149L306.869 38.48V29H309.449ZM323.7 40.82V43H313.2V29H323.42V31.18H315.8V34.82H322.56V36.96H315.8V40.82H323.7ZM335.759 43L332.899 38.9C332.779 38.9133 332.599 38.92 332.359 38.92H329.199V43H326.599V29H332.359C333.572 29 334.625 29.2 335.519 29.6C336.425 30 337.119 30.5733 337.599 31.32C338.079 32.0667 338.319 32.9533 338.319 33.98C338.319 35.0333 338.059 35.94 337.539 36.7C337.032 37.46 336.299 38.0267 335.339 38.4L338.559 43H335.759ZM335.699 33.98C335.699 33.0867 335.405 32.4 334.819 31.92C334.232 31.44 333.372 31.2 332.239 31.2H329.199V36.78H332.239C333.372 36.78 334.232 36.54 334.819 36.06C335.405 35.5667 335.699 34.8733 335.699 33.98ZM353.295 43.2C351.868 43.2 350.582 42.8933 349.435 42.28C348.288 41.6533 347.388 40.7933 346.735 39.7C346.082 38.5933 345.755 37.36 345.755 36C345.755 34.64 346.082 33.4133 346.735 32.32C347.388 31.2133 348.288 30.3533 349.435 29.74C350.582 29.1133 351.868 28.8 353.295 28.8C354.722 28.8 356.008 29.1133 357.155 29.74C358.302 30.3533 359.202 31.2067 359.855 32.3C360.508 33.3933 360.835 34.6267 360.835 36C360.835 37.3733 360.508 38.6067 359.855 39.7C359.202 40.7933 358.302 41.6533 357.155 42.28C356.008 42.8933 354.722 43.2 353.295 43.2ZM353.295 40.92C354.228 40.92 355.068 40.7133 355.815 40.3C356.562 39.8733 357.148 39.2867 357.575 38.54C358.002 37.78 358.215 36.9333 358.215 36C358.215 35.0667 358.002 34.2267 357.575 33.48C357.148 32.72 356.562 32.1333 355.815 31.72C355.068 31.2933 354.228 31.08 353.295 31.08C352.362 31.08 351.522 31.2933 350.775 31.72C350.028 32.1333 349.442 32.72 349.015 33.48C348.588 34.2267 348.375 35.0667 348.375 36C348.375 36.9333 348.588 37.78 349.015 38.54C349.442 39.2867 350.028 39.8733 350.775 40.3C351.522 40.7133 352.362 40.92 353.295 40.92ZM369.351 29C370.564 29 371.618 29.2 372.511 29.6C373.418 30 374.111 30.5733 374.591 31.32C375.071 32.0667 375.311 32.9533 375.311 33.98C375.311 34.9933 375.071 35.88 374.591 36.64C374.111 37.3867 373.418 37.96 372.511 38.36C371.618 38.76 370.564 38.96 369.351 38.96H366.191V43H363.591V29H369.351ZM369.231 36.76C370.364 36.76 371.224 36.52 371.811 36.04C372.398 35.56 372.691 34.8733 372.691 33.98C372.691 33.0867 372.398 32.4 371.811 31.92C371.224 31.44 370.364 31.2 369.231 31.2H366.191V36.76H369.231ZM388.407 40.82V43H377.907V29H388.127V31.18H380.507V34.82H387.267V36.96H380.507V40.82H388.407ZM400.386 39.76H393.386L392.006 43H389.326L395.626 29H398.186L404.506 43H401.786L400.386 39.76ZM399.526 37.72L396.886 31.6L394.266 37.72H399.526ZM415.446 43L412.586 38.9C412.466 38.9133 412.286 38.92 412.046 38.92H408.886V43H406.286V29H412.046C413.26 29 414.313 29.2 415.206 29.6C416.113 30 416.806 30.5733 417.286 31.32C417.766 32.0667 418.006 32.9533 418.006 33.98C418.006 35.0333 417.746 35.94 417.226 36.7C416.72 37.46 415.986 38.0267 415.026 38.4L418.246 43H415.446ZM415.386 33.98C415.386 33.0867 415.093 32.4 414.506 31.92C413.92 31.44 413.06 31.2 411.926 31.2H408.886V36.78H411.926C413.06 36.78 413.92 36.54 414.506 36.06C415.093 35.5667 415.386 34.8733 415.386 33.98ZM423.56 31.2H418.92V29H430.8V31.2H426.16V43H423.56V31.2ZM443.251 40.82V43H432.751V29H442.971V31.18H435.351V34.82H442.111V36.96H435.351V40.82H443.251ZM448.514 38.36C448.514 37.64 448.674 37.0467 448.994 36.58C449.328 36.1 449.808 35.58 450.434 35.02C450.914 34.5933 451.268 34.2267 451.494 33.92C451.734 33.6 451.854 33.24 451.854 32.84C451.854 32.28 451.628 31.8267 451.174 31.48C450.721 31.1333 450.114 30.96 449.354 30.96C447.914 30.96 446.828 31.4733 446.094 32.5L444.154 31.24C444.728 30.4533 445.468 29.8533 446.374 29.44C447.281 29.0133 448.348 28.8 449.574 28.8C451.068 28.8 452.254 29.1267 453.134 29.78C454.028 30.42 454.474 31.3067 454.474 32.44C454.474 32.9867 454.381 33.4667 454.194 33.88C454.021 34.2933 453.808 34.6467 453.554 34.94C453.301 35.22 452.968 35.5467 452.554 35.92C452.048 36.3733 451.668 36.7733 451.414 37.12C451.174 37.4667 451.054 37.88 451.054 38.36H448.514ZM449.794 43.14C449.328 43.14 448.941 42.9933 448.634 42.7C448.341 42.3933 448.194 42.02 448.194 41.58C448.194 41.14 448.341 40.7733 448.634 40.48C448.941 40.1867 449.328 40.04 449.794 40.04C450.248 40.04 450.621 40.1867 450.914 40.48C451.221 40.7733 451.374 41.14 451.374 41.58C451.374 42.02 451.221 42.3933 450.914 42.7C450.621 42.9933 450.248 43.14 449.794 43.14Z" fill="#494B4A"/>
<path d="M1040.31 32L1030.88 42L1021.46 32" stroke="#4D58E2" stroke-width="2" stroke-linecap="round" stroke-linejoin="round"/>
</svg>
