<svg width="150" height="48" viewBox="0 0 150 48" fill="none" xmlns="http://www.w3.org/2000/svg">
<path fill-rule="evenodd" clip-rule="evenodd" d="M46.2512 41.9346L1.85007 41.9346C1.50948 41.9346 1.23338 41.6585 1.23338 41.3179L1.23336 7.13869C1.23336 6.73614 1.61279 6.44151 2.0028 6.54123L6.94193 7.80402C8.11195 8.10316 9.25024 7.21928 9.25024 6.01162L9.25024 1.85022C9.25024 1.50964 9.52634 1.23354 9.86692 1.23354L14.1837 1.23354C14.5243 1.23354 14.8004 1.50964 14.8004 1.85022L14.8004 8.29442C14.8004 9.13848 15.3717 9.87553 16.1891 10.086L59.972 21.3605C60.2445 21.4307 60.4349 21.6764 60.4349 21.9577L60.4349 42.5513C60.4349 42.8919 60.711 43.168 61.0516 43.168C61.3922 43.168 61.6683 42.8919 61.6683 42.5513L61.6683 21.9577C61.6683 21.1137 61.097 20.3766 60.2796 20.1661L16.4966 8.89162C16.2242 8.82146 16.0337 8.57577 16.0337 8.29442L16.0338 1.85022C16.0338 0.828471 15.2055 0.000174147 14.1837 0.000174236L9.86692 0.000174613C8.84517 0.000174703 8.01688 0.828471 8.01688 1.85022L8.01687 6.01162C8.01687 6.41418 7.63745 6.7088 7.24744 6.60909L2.30831 5.3463C1.13829 5.04716 -3.25536e-06 5.93103 -3.14978e-06 7.13869L1.86212e-05 41.3179C1.87105e-05 42.3397 0.828311 43.168 1.85007 43.168L46.2512 43.168C47.273 43.168 48.1012 42.3397 48.1012 41.3179L48.1012 26.3503C48.1012 25.0999 46.8865 24.2096 45.6941 24.5862L24.7269 31.2074C23.9572 31.4505 23.4339 32.1645 23.4339 32.9716L23.4339 40.0846C23.4339 40.4252 23.71 40.7013 24.0506 40.7013C24.3912 40.7013 24.6673 40.4252 24.6673 40.0846L24.6673 32.9716C24.6673 32.7026 24.8417 32.4646 25.0983 32.3836L46.0655 25.7623C46.463 25.6368 46.8679 25.9335 46.8679 26.3503L46.8679 41.3179C46.8679 41.6585 46.5918 41.9346 46.2512 41.9346Z" fill="#A5CE46"/>
<path d="M70.9912 21.3061H72.1691L74.5474 16.0964H83.4719L85.8503 21.3061H87.0281L79.5986 5.1333H78.4207L70.9912 21.3061ZM79.0097 6.31115L83.0642 15.1904H74.9551L79.0097 6.31115Z" fill="#494B4A"/>
<path d="M88.1278 21.3061H95.512C100.541 21.3061 102.942 17.9538 102.942 13.2197C102.942 6.96803 99.5212 5.1333 95.6932 5.1333H88.1278V21.3061ZM89.1697 6.03934H95.4667C99.2947 6.03934 101.9 8.10059 101.9 13.2197C101.9 18.2029 99.2947 20.4001 95.7159 20.4001H89.1697V6.03934Z" fill="#494B4A"/>
<path d="M105.179 15.3263C105.179 19.4941 107.58 21.6686 112.337 21.6686C117.094 21.6686 119.495 19.4941 119.495 15.3263V5.1333H118.453V15.281C118.453 18.7466 116.822 20.7625 112.337 20.7625C107.852 20.7625 106.221 18.7466 106.221 15.281V5.1333H105.179V15.3263Z" fill="#494B4A"/>
<path d="M72.557 47.16V47.31H72.707H73.1601H73.3101V47.16V40.0675C74.3992 42.3065 76.5614 43.0969 78.7322 43.0969C80.8647 43.0969 82.4202 42.3576 83.4406 41.1881C84.4581 40.0219 84.93 38.4435 84.93 36.7858C84.93 35.1281 84.4581 33.5497 83.4406 32.3835C82.4202 31.214 80.8647 30.4747 78.7322 30.4747C76.256 30.4747 74.3013 31.5077 73.3101 33.4968V30.9871V30.8371H73.1601H72.707H72.557V30.9871V47.16ZM86.4264 42.5845V42.7345H86.5764H87.0294H87.1794V42.5845V26.4116V26.2616H87.0294H86.5764H86.4264V26.4116V42.5845ZM101.696 41.9729V41.774L101.505 41.8286C101.199 41.9159 100.76 41.9814 100.481 41.9814C100.184 41.9814 100.052 41.9124 99.9806 41.8121C99.898 41.6964 99.8613 41.4982 99.8613 41.1574V33.6373C99.8613 33.1081 99.7583 32.6392 99.5379 32.2348C99.3172 31.8298 98.9834 31.4981 98.5354 31.2369C97.6451 30.7181 96.2984 30.4747 94.4563 30.4747C92.977 30.4747 91.6999 30.6669 90.7701 31.272C89.8283 31.8849 89.2684 32.9036 89.1873 34.4904L89.1793 34.648H89.3371H89.7902H89.9295L89.9397 34.509C90.0289 33.2942 90.3548 32.4909 91.0326 31.982C91.7194 31.4662 92.7983 31.2277 94.4563 31.2277C96.0253 31.2277 97.1959 31.4037 97.9699 31.7975C98.3539 31.9929 98.6361 32.2398 98.8232 32.5422C99.0101 32.8446 99.1083 33.2125 99.1083 33.66V34.2942C99.1083 34.9937 99.009 35.3281 98.6809 35.5314C98.5053 35.6402 98.2513 35.7199 97.8787 35.7768C97.5075 35.8335 97.0319 35.8658 96.4214 35.8884L92.5936 36.0243L92.5933 36.0243C91.3487 36.0704 90.3656 36.3995 89.6916 36.987C89.0141 37.5776 88.6662 38.4143 88.6662 39.436C88.6662 40.6472 89.1452 41.5713 89.9906 42.1875C90.8294 42.7989 92.0143 43.0969 93.4143 43.0969C96.5213 43.0969 98.2373 41.9567 99.1083 40.549V41.4293C99.1083 41.8746 99.2293 42.2118 99.4821 42.4338C99.7309 42.6524 100.08 42.7345 100.481 42.7345C100.671 42.7345 100.888 42.7168 101.087 42.6876C101.283 42.6587 101.472 42.617 101.602 42.5652L101.696 42.5275V42.4259V41.9729ZM92.6498 36.7771L92.6499 36.7771L96.1835 36.6412L96.1837 36.6412C97.036 36.6071 97.7429 36.5387 98.2712 36.4226C98.5353 36.3646 98.7605 36.2934 98.9389 36.2054C98.9996 36.1754 99.0565 36.1427 99.1083 36.1069V37.941C99.1083 39.1361 98.6598 40.2313 97.736 41.0298C96.8105 41.8297 95.3935 42.3439 93.437 42.3439C92.276 42.3439 91.2669 42.1089 90.5529 41.6329C89.8463 41.1618 89.4192 40.4494 89.4192 39.4586C89.4192 38.6858 89.6522 38.0451 90.1573 37.5847C90.6655 37.1215 91.4698 36.8217 92.6498 36.7771ZM102.154 42.5845V42.7345H102.304H102.757H102.907V42.5845V36.0836C102.907 35.3468 103.019 34.1315 103.711 33.1038C104.395 32.0869 105.664 31.2277 108.034 31.2277C110.092 31.2277 111.23 31.7863 111.86 32.5493C112.494 33.3178 112.641 34.3269 112.641 35.2908V42.5845V42.7345H112.791H113.244H113.394V42.5845V35.2908C113.394 34.1681 113.2 32.9582 112.419 32.0288C111.633 31.0944 110.281 30.4747 108.034 30.4747C106.749 30.4747 105.641 30.7041 104.734 31.204C103.972 31.6247 103.359 32.2333 102.907 33.0439V30.9871V30.8371H102.757H102.304H102.154V30.9871V42.5845ZM115.581 42.5845V42.7345H115.731H116.184H116.334V42.5845V36.0836C116.334 35.3468 116.446 34.1315 117.138 33.1038C117.822 32.0869 119.091 31.2277 121.461 31.2277C123.519 31.2277 124.657 31.7863 125.287 32.5493C125.921 33.3178 126.068 34.3269 126.068 35.2908V42.5845V42.7345H126.218H126.671H126.821V42.5845V35.2908C126.821 34.1681 126.627 32.9582 125.846 32.0288C125.06 31.0944 123.708 30.4747 121.461 30.4747C120.176 30.4747 119.067 30.7041 118.161 31.204C117.399 31.6247 116.786 32.2333 116.334 33.0439V30.9871V30.8371H116.184H115.731H115.581V30.9871V42.5845ZM141.027 36.9358H141.177V36.7858C141.177 34.7996 140.46 33.2186 139.303 32.1348C138.148 31.0524 136.564 30.4747 134.843 30.4747C132.838 30.4747 131.201 31.1437 130.065 32.2738C128.93 33.4037 128.305 34.9837 128.305 36.7858C128.305 38.5879 128.93 40.1679 130.065 41.2978C131.201 42.4279 132.838 43.0969 134.843 43.0969C137.063 43.0969 138.513 42.3937 139.453 41.4682C140.39 40.5462 140.807 39.4172 140.992 38.5851L141.033 38.4026H140.846H140.393H140.278L140.248 38.5125C140.047 39.2372 139.677 40.1928 138.873 40.9673C138.072 41.7382 136.825 42.3439 134.843 42.3439C132.931 42.3439 131.488 41.6945 130.523 40.683C129.589 39.7039 129.092 38.3744 129.06 36.9358H141.027ZM142.435 42.5845V42.7345H142.585H143.038H143.188V42.5845V36.8537C143.188 34.979 143.717 33.5737 144.556 32.6389C145.395 31.7051 146.553 31.2277 147.84 31.2277C148.105 31.2277 148.483 31.25 148.816 31.2944L148.986 31.317V31.1457V30.6927V30.5569L148.851 30.5434C148.815 30.5398 148.775 30.5355 148.732 30.5309C148.513 30.5072 148.211 30.4747 147.862 30.4747C145.915 30.4747 144.051 31.4389 143.188 33.388V30.9871V30.8371H143.038H142.585H142.435V30.9871V42.5845ZM73.3101 36.7858C73.3101 35.3276 73.7109 33.9385 74.5823 32.9163C75.4504 31.8981 76.7993 31.2277 78.7322 31.2277C80.6767 31.2277 82.0313 31.8983 82.9021 32.9165C83.7762 33.9386 84.177 35.3277 84.177 36.7858C84.177 38.2439 83.7762 39.633 82.9021 40.6551C82.0313 41.6733 80.6767 42.3439 78.7322 42.3439C76.7993 42.3439 75.4504 41.6735 74.5823 40.6552C73.7109 39.6331 73.3101 38.2439 73.3101 36.7858ZM140.411 36.1828H129.072C129.2 34.85 129.731 33.6349 130.655 32.7429C131.614 31.8163 133.008 31.2277 134.843 31.2277C138.241 31.2277 140.169 33.574 140.411 36.1828Z" fill="#6B6D6D" stroke="#6B6D6D" stroke-width="0.3"/>
</svg>
