<svg width="174" height="55" viewBox="0 0 174 55" fill="none" xmlns="http://www.w3.org/2000/svg">
<path fill-rule="evenodd" clip-rule="evenodd" d="M53.9401 48.9053L2.15762 48.9053C1.76042 48.9053 1.43842 48.5833 1.43842 48.1861L1.4384 8.32492C1.4384 7.85545 1.8809 7.51184 2.33575 7.62814L8.09597 9.10085C9.4605 9.44973 10.788 8.41891 10.788 7.01049L10.788 2.15729C10.788 1.76009 11.11 1.43809 11.5072 1.43809L16.5416 1.43809C16.9388 1.43809 17.2608 1.76009 17.2608 2.15729L17.2608 9.67278C17.2608 10.6572 17.9271 11.5167 18.8804 11.7622L69.9418 24.911C70.2596 24.9929 70.4817 25.2794 70.4817 25.6075L70.4817 49.6245C70.4817 50.0217 70.8037 50.3437 71.2009 50.3437C71.5981 50.3437 71.9201 50.0217 71.9201 49.6245L71.9201 25.6075C71.9201 24.6231 71.2538 23.7636 70.3005 23.5181L19.2391 10.3693C18.9213 10.2874 18.6992 10.0009 18.6992 9.67278L18.6992 2.15729C18.6992 0.965682 17.7332 -0.000311018 16.5416 -0.000310913L11.5072 -0.000310473C10.3156 -0.000310369 9.34961 0.965682 9.34961 2.15729L9.34961 7.01049C9.34961 7.47997 8.90711 7.82357 8.45226 7.70728L2.69205 6.23456C1.32752 5.88569 -3.79653e-06 6.9165 -3.6734e-06 8.32492L2.17168e-05 48.1861C2.1821e-05 49.3777 0.966011 50.3437 2.15762 50.3437L53.9401 50.3437C55.1317 50.3437 56.0977 49.3778 56.0977 48.1861L56.0977 30.7303C56.0977 29.272 54.681 28.2338 53.2903 28.6729L28.8375 36.3949C27.9399 36.6783 27.3296 37.511 27.3296 38.4523L27.3296 46.7478C27.3296 47.145 27.6516 47.467 28.0488 47.467C28.446 47.467 28.768 47.145 28.768 46.7478L28.768 38.4523C28.768 38.1386 28.9715 37.861 29.2707 37.7665L53.7235 30.0445C54.187 29.8981 54.6593 30.2442 54.6593 30.7303L54.6593 48.1861C54.6593 48.5833 54.3373 48.9053 53.9401 48.9053Z" fill="#A5CE46"/>
<path d="M82.792 24.8487H84.1657L86.9394 18.7729H97.3475L100.121 24.8487H101.495L92.8303 5.9873H91.4566L82.792 24.8487ZM92.1435 7.36097L96.872 17.7163H87.4149L92.1435 7.36097Z" fill="white"/>
<path d="M102.777 24.8487H111.389C117.254 24.8487 120.054 20.9391 120.054 15.418C120.054 8.12705 116.065 5.9873 111.6 5.9873H102.777V24.8487ZM103.993 7.04397H111.336C115.801 7.04397 118.839 9.44788 118.839 15.418C118.839 21.2297 115.801 23.7921 111.627 23.7921H103.993V7.04397Z" fill="white"/>
<path d="M122.663 17.8748C122.663 22.7354 125.464 25.2714 131.011 25.2714C136.559 25.2714 139.359 22.7354 139.359 17.8748V5.9873H138.144V17.8219C138.144 21.8637 136.242 24.2147 131.011 24.2147C125.781 24.2147 123.879 21.8637 123.879 17.8219V5.9873H122.663V17.8748Z" fill="white"/>
<path d="M85.3213 42.9015C85.3213 39.441 87.2233 36.2445 91.8198 36.2445C96.4427 36.2445 98.3447 39.441 98.3447 42.9015C98.3447 46.3621 96.4427 49.5585 91.8198 49.5585C87.2233 49.5585 85.3213 46.3621 85.3213 42.9015ZM84.793 55.0003H85.3213V45.9923H85.3741C86.4836 49.0302 89.1253 50.0868 91.8198 50.0868C96.7068 50.0868 98.873 46.7055 98.873 42.9015C98.873 39.0975 96.7068 35.7162 91.8198 35.7162C88.729 35.7162 86.378 37.1163 85.3741 39.7844H85.3213V36.1389H84.793V55.0003Z" fill="white"/>
<path d="M100.968 49.6642H101.496V30.8027H100.968V49.6642Z" fill="white"/>
<path d="M118.426 48.9509C118.056 49.0566 117.528 49.1358 117.185 49.1358C116.445 49.1358 116.286 48.7924 116.286 47.9999V39.2296C116.286 36.8521 114.437 35.7162 110.158 35.7162C106.724 35.7162 104.373 36.6144 104.188 40.2334H104.716C104.927 37.354 106.275 36.2445 110.158 36.2445C113.83 36.2445 115.758 37.0635 115.758 39.256V39.9957C115.758 41.6335 115.309 41.9241 112.456 42.0298L107.992 42.1883C105.139 42.2939 103.58 43.694 103.58 45.9923C103.58 48.7132 105.72 50.0868 108.943 50.0868C112.879 50.0868 114.834 48.5018 115.705 46.7055H115.758V48.3169C115.758 49.2943 116.286 49.6642 117.185 49.6642C117.607 49.6642 118.162 49.5849 118.426 49.4792V48.9509ZM115.758 44.2488C115.758 47.1282 113.592 49.5585 108.969 49.5585C106.222 49.5585 104.108 48.449 104.108 46.0187C104.108 44.1431 105.244 42.8223 108.044 42.7166L112.165 42.5581C114.147 42.4789 115.415 42.2411 115.705 41.7392H115.758V44.2488Z" fill="white"/>
<path d="M119.31 49.6642H119.838V42.0826C119.838 40.3391 120.367 36.2445 125.993 36.2445C130.854 36.2445 131.541 38.8862 131.541 41.158V49.6642H132.069V41.158C132.069 38.5692 131.171 35.7162 125.993 35.7162C123.035 35.7162 120.948 36.7729 119.891 39.1768H119.838V36.1389H119.31V49.6642Z" fill="white"/>
<path d="M134.969 49.6642H135.497V42.0826C135.497 40.3391 136.026 36.2445 141.652 36.2445C146.513 36.2445 147.2 38.8862 147.2 41.158V49.6642H147.728V41.158C147.728 38.5692 146.83 35.7162 141.652 35.7162C138.694 35.7162 136.607 36.7729 135.55 39.1768H135.497V36.1389H134.969V49.6642Z" fill="white"/>
<path d="M164.47 42.9015C164.47 38.3579 161.195 35.7162 157.259 35.7162C152.662 35.7162 149.809 38.7805 149.809 42.9015C149.809 47.0225 152.662 50.0868 157.259 50.0868C162.357 50.0868 163.836 46.864 164.259 44.962H163.731C163.255 46.6791 161.961 49.5585 157.259 49.5585C152.715 49.5585 150.337 46.4678 150.337 42.9015H164.47ZM150.337 42.3732C150.575 39.0447 152.9 36.2445 157.259 36.2445C161.406 36.2445 163.731 39.1768 163.942 42.3732H150.337Z" fill="white"/>
<path d="M166.287 49.6642H166.815V42.9808C166.815 38.5428 169.325 36.2445 172.416 36.2445C172.733 36.2445 173.182 36.271 173.578 36.3238V35.7955C173.314 35.769 172.918 35.7162 172.442 35.7162C169.985 35.7162 167.661 37.0635 166.868 39.7844H166.815V36.1389H166.287V49.6642Z" fill="white"/>
</svg>
