<svg width="198" height="63" viewBox="0 0 198 63" fill="none" xmlns="http://www.w3.org/2000/svg">
<path fill-rule="evenodd" clip-rule="evenodd" d="M61.23 55.5152L2.44923 55.5152C1.99834 55.5152 1.63283 55.1497 1.63283 54.6988L1.6328 9.45039C1.6328 8.91747 2.13511 8.52743 2.65142 8.65944L9.19013 10.3312C10.7391 10.7272 12.246 9.55709 12.246 7.95832L12.246 2.44921C12.246 1.99832 12.6115 1.63281 13.0624 1.63281L18.7772 1.63281C19.2281 1.63281 19.5936 1.99832 19.5936 2.44921L19.5936 10.9804C19.5936 12.0978 20.3499 13.0736 21.432 13.3522L79.3944 28.2781C79.7551 28.371 80.0072 28.6962 80.0072 29.0687L80.0072 56.3316C80.0072 56.7825 80.3727 57.148 80.8236 57.148C81.2745 57.148 81.64 56.7825 81.64 56.3316L81.64 29.0687C81.64 27.9513 80.8837 26.9755 79.8016 26.6969L21.8392 11.771C21.4785 11.6781 21.2264 11.3529 21.2264 10.9804L21.2264 2.44921C21.2264 1.09655 20.1299 5.86959e-06 18.7772 5.98784e-06L13.0624 6.48744e-06C11.7097 6.6057e-06 10.6132 1.09655 10.6132 2.44921L10.6132 7.95832C10.6132 8.49124 10.1109 8.88128 9.59458 8.74927L3.05587 7.07751C1.50693 6.6815 -4.30963e-06 7.85162 -4.16986e-06 9.45039L2.46518e-05 54.6988C2.477e-05 56.0515 1.09657 57.148 2.44923 57.148L61.23 57.148C62.5827 57.148 63.6792 56.0515 63.6792 54.6988L63.6792 34.8839C63.6792 33.2285 62.071 32.0499 60.4925 32.5484L32.7349 41.314C31.7159 41.6358 31.0232 42.581 31.0232 43.6495L31.0232 53.0661C31.0232 53.5169 31.3887 53.8825 31.8396 53.8825C32.2905 53.8825 32.656 53.5169 32.656 53.0661L32.656 43.6495C32.656 43.2933 32.8869 42.9783 33.2266 42.871L60.9842 34.1054C61.5104 33.9392 62.0464 34.3321 62.0464 34.8839L62.0464 54.6988C62.0464 55.1497 61.6809 55.5152 61.23 55.5152Z" fill="#A5CE46"/>
<path d="M93.9814 28.2081H95.5408L98.6894 21.3111H110.504L113.653 28.2081H115.212L105.376 6.79752H103.817L93.9814 28.2081ZM104.597 8.35683L109.964 20.1116H99.2291L104.597 8.35683Z" fill="#494B4A"/>
<path d="M116.668 28.2081H126.444C133.101 28.2081 136.279 23.77 136.279 17.5028C136.279 9.22644 131.751 6.79752 126.683 6.79752H116.668V28.2081ZM118.047 7.99699H126.384C131.451 7.99699 134.9 10.7258 134.9 17.5028C134.9 24.0999 131.451 27.0086 126.713 27.0086H118.047V7.99699Z" fill="#494B4A"/>
<path d="M139.242 20.2916C139.242 25.8091 142.42 28.6878 148.717 28.6878C155.015 28.6878 158.193 25.8091 158.193 20.2916V6.79752H156.814V20.2316C156.814 24.8196 154.655 27.4884 148.717 27.4884C142.78 27.4884 140.621 24.8196 140.621 20.2316V6.79752H139.242V20.2916Z" fill="#494B4A"/>
<path d="M96.8536 48.7023C96.8536 44.774 99.0127 41.1456 104.23 41.1456C109.478 41.1456 111.637 44.774 111.637 48.7023C111.637 52.6305 109.478 56.2589 104.23 56.2589C99.0127 56.2589 96.8536 52.6305 96.8536 48.7023ZM96.2539 62.4362H96.8536V52.2107H96.9136C98.1731 55.6592 101.172 56.8587 104.23 56.8587C109.778 56.8587 112.237 53.0204 112.237 48.7023C112.237 44.3842 109.778 40.5459 104.23 40.5459C100.722 40.5459 98.0531 42.1352 96.9136 45.1638H96.8536V41.0257H96.2539V62.4362Z" fill="#6B6D6D"/>
<path d="M114.615 56.3789H115.215V34.9684H114.615V56.3789Z" fill="#6B6D6D"/>
<path d="M134.433 55.5693C134.013 55.6892 133.413 55.7792 133.023 55.7792C132.184 55.7792 132.004 55.3893 132.004 54.4897V44.5341C132.004 41.8353 129.905 40.5459 125.047 40.5459C121.149 40.5459 118.48 41.5654 118.27 45.6736H118.87C119.109 42.4051 120.639 41.1456 125.047 41.1456C129.215 41.1456 131.404 42.0752 131.404 44.5641V45.4037C131.404 47.2629 130.894 47.5928 127.656 47.7127L122.588 47.8926C119.349 48.0126 117.58 49.6019 117.58 52.2107C117.58 55.2994 120.009 56.8587 123.667 56.8587C128.135 56.8587 130.354 55.0595 131.344 53.0204H131.404V54.8496C131.404 55.9591 132.004 56.3789 133.023 56.3789C133.503 56.3789 134.133 56.2889 134.433 56.169V55.5693ZM131.404 50.2316C131.404 53.5002 128.945 56.2589 123.697 56.2589C120.579 56.2589 118.18 54.9995 118.18 52.2407C118.18 50.1117 119.469 48.6123 122.648 48.4924L127.326 48.3125C129.575 48.2225 131.014 47.9526 131.344 47.3829H131.404V50.2316Z" fill="#6B6D6D"/>
<path d="M135.436 56.3789H136.036V47.7727C136.036 45.7936 136.635 41.1456 143.022 41.1456C148.54 41.1456 149.32 44.1443 149.32 46.7232V56.3789H149.919V46.7232C149.919 43.7845 148.9 40.5459 143.022 40.5459C139.664 40.5459 137.295 41.7454 136.096 44.4742H136.036V41.0257H135.436V56.3789Z" fill="#6B6D6D"/>
<path d="M153.211 56.3789H153.811V47.7727C153.811 45.7936 154.411 41.1456 160.798 41.1456C166.315 41.1456 167.095 44.1443 167.095 46.7232V56.3789H167.695V46.7232C167.695 43.7845 166.675 40.5459 160.798 40.5459C157.439 40.5459 155.07 41.7454 153.871 44.4742H153.811V41.0257H153.211V56.3789Z" fill="#6B6D6D"/>
<path d="M186.7 48.7023C186.7 43.5446 182.981 40.5459 178.513 40.5459C173.295 40.5459 170.057 44.0244 170.057 48.7023C170.057 53.3802 173.295 56.8587 178.513 56.8587C184.301 56.8587 185.98 53.2003 186.46 51.0413H185.86C185.32 52.9904 183.851 56.2589 178.513 56.2589C173.355 56.2589 170.657 52.7505 170.657 48.7023H186.7ZM170.657 48.1025C170.927 44.3242 173.565 41.1456 178.513 41.1456C183.221 41.1456 185.86 44.4742 186.1 48.1025H170.657Z" fill="#6B6D6D"/>
<path d="M188.762 56.3789H189.362V48.7922C189.362 43.7545 192.21 41.1456 195.719 41.1456C196.079 41.1456 196.588 41.1756 197.038 41.2356V40.6358C196.738 40.6059 196.288 40.5459 195.749 40.5459C192.96 40.5459 190.321 42.0752 189.422 45.1638H189.362V41.0257H188.762V56.3789Z" fill="#6B6D6D"/>
</svg>
