<svg width="40" height="38" viewBox="0 0 40 38" fill="none" xmlns="http://www.w3.org/2000/svg">
<path d="M12.8022 17.5145C11.817 17.245 10.8318 17.1083 9.87348 17.1083C8.39362 17.1083 7.15879 17.4296 6.2013 17.823C7.12438 14.6126 9.34187 9.07316 13.7592 8.44934C14.1683 8.39154 14.5036 8.11053 14.6152 7.73225L15.5806 4.45171C15.662 4.17428 15.6138 3.87732 15.4472 3.63656C15.2806 3.3958 15.0129 3.23516 14.7129 3.1961C14.3869 3.15385 14.0546 3.13232 13.7252 3.13232C8.42299 3.13232 3.17192 8.38995 0.956109 15.918C-0.344595 20.3346 -0.725995 26.9746 2.47793 31.154C4.27081 33.4926 6.88648 34.7415 10.2524 34.8662C10.2662 34.8666 10.2796 34.867 10.2935 34.867C14.4465 34.867 18.1292 32.2099 19.2495 28.406C19.9187 26.1319 19.6162 23.7471 18.3969 21.6891C17.1906 19.6542 15.2039 18.171 12.8022 17.5145Z" fill="#6D42E8"/>
<path d="M38.7988 21.6895C37.5925 19.6542 35.6058 18.171 33.2041 17.5145C32.219 17.245 31.2338 17.1083 30.2759 17.1083C28.796 17.1083 27.5608 17.4296 26.6033 17.823C27.5263 14.6126 29.7438 9.07316 34.1616 8.44934C34.5707 8.39154 34.9055 8.11053 35.0176 7.73225L35.983 4.45171C36.0644 4.17428 36.0162 3.87732 35.8496 3.63656C35.6834 3.3958 35.4157 3.23516 35.1153 3.1961C34.7897 3.15385 34.4574 3.13232 34.1276 3.13232C28.8254 3.13232 23.5743 8.38995 21.3581 15.918C20.0578 20.3346 19.6764 26.9746 22.8807 31.1548C24.6732 33.493 27.2893 34.7422 30.6547 34.8666C30.6686 34.867 30.682 34.8674 30.6963 34.8674C34.8489 34.8674 38.532 32.2103 39.6523 28.4064C40.3207 26.1323 40.0177 23.7471 38.7988 21.6895Z" fill="#6D42E8"/>
</svg>
