<svg width="98" height="99" viewBox="0 0 98 99" fill="none" xmlns="http://www.w3.org/2000/svg">
<circle cx="49.0011" cy="49.9831" r="40" transform="rotate(15 49.0011 49.9831)" fill="#4D58E2"/>
<path d="M69.832 75.7401L70.0112 74.9313C70.1028 74.518 69.8395 74.1087 69.4288 74.0174C69.0156 73.9258 68.6064 74.1865 68.5149 74.5998L68.3342 75.4151C68.3332 75.42 68.3321 75.425 68.3311 75.4299C68.3007 75.5814 68.2117 75.7097 68.0806 75.7911C67.9502 75.872 67.7969 75.8947 67.649 75.8551L63.3183 74.6947L66.9796 61.0306L67.9904 61.7243C69.7322 62.9198 70.5894 65.0316 70.1756 67.1064L69.546 69.9468C69.4545 70.36 69.7145 70.7698 70.1284 70.8607C70.5417 70.9523 70.9508 70.6916 71.0424 70.2784L71.6736 67.4305C71.6746 67.4255 71.6757 67.4206 71.6767 67.4156C72.215 64.7356 71.1085 62.0056 68.8576 60.4608L66.9859 59.1762C66.9751 59.1678 66.9656 59.1583 66.9543 59.1506L61.3646 55.314C61.3637 55.3133 61.3627 55.3126 61.3617 55.312C61.3409 55.2979 61.3199 55.2851 61.2984 55.2729C61.2875 55.2667 61.2763 55.2615 61.2653 55.2558C60.885 55.0406 60.4108 55.0395 60.0289 55.2604L59.7867 55.4005L58.3766 54.1461L58.7591 52.7178C59.3422 52.5108 59.9142 52.2308 60.4561 51.8926C60.4625 51.8885 60.4689 51.8846 60.4753 51.8805C61.8453 51.0205 63.0162 49.7893 63.6669 48.4288C63.6841 48.3929 63.7013 48.3569 63.7178 48.3208C63.7349 48.2834 63.7516 48.2459 63.7679 48.2084C63.7952 48.1456 63.8212 48.0825 63.8462 48.0193C63.8522 48.0042 63.8588 47.989 63.8646 47.9738C63.8911 47.9049 63.9165 47.8358 63.9402 47.7666L64.2474 47.8489C65.2015 48.1046 66.1858 47.5363 66.4415 46.5822L66.9611 44.6427C66.9857 44.5509 67.0021 44.4579 67.0118 44.3642C67.174 44.1952 67.2978 43.9843 67.3629 43.7416L67.5845 42.9146C67.7529 42.2859 67.4775 41.6423 66.9525 41.3254L66.9837 41.2087C67.0027 41.1381 67.0206 41.0673 67.0377 40.9967C67.5165 39.0095 67.2425 36.932 66.2663 35.1472C65.3758 33.5191 63.9764 32.2646 62.2925 31.5733C62.2786 31.5184 62.2621 31.4645 62.2443 31.4112C62.2397 31.3975 62.2346 31.3842 62.2297 31.3706C62.2112 31.3186 62.1907 31.2675 62.1684 31.2173C62.1645 31.2085 62.1609 31.1996 62.1569 31.1909C62.129 31.1302 62.0985 31.0708 62.0652 31.013C62.0641 31.0111 62.0628 31.0092 62.0616 31.0072C62.0291 30.9512 61.994 30.8969 61.9568 30.844C61.9526 30.8381 61.9486 30.8321 61.9444 30.8262C61.8673 30.7189 61.7805 30.6189 61.6853 30.5268C61.6767 30.5186 61.6683 30.5103 61.6596 30.5021C61.612 30.4575 61.5628 30.4145 61.5113 30.3743C61.5086 30.3723 61.5058 30.3704 61.5031 30.3683C61.4554 30.3313 61.4056 30.2968 61.3546 30.2638C61.3408 30.2548 61.3269 30.2459 61.3129 30.2373C61.2584 30.2037 61.203 30.1716 61.1453 30.1426C61.142 30.141 61.1387 30.1396 61.1354 30.1381C61.0801 30.1107 61.0231 30.0862 60.965 30.0633C60.9491 30.0569 60.933 30.0509 60.9169 30.0449C60.8546 30.022 60.7915 30.0009 60.7265 29.9834L60.0278 29.7962C59.9628 29.7788 59.8975 29.7656 59.8322 29.7543C59.8151 29.7513 59.7982 29.7487 59.7812 29.7461C59.7197 29.7369 59.6581 29.7296 59.5967 29.7257C59.593 29.7255 59.5893 29.7249 59.5855 29.7247C59.5212 29.7209 59.4571 29.7209 59.3932 29.7228C59.3766 29.7232 59.3601 29.724 59.3435 29.7249C59.283 29.7281 59.2228 29.7331 59.163 29.7411C59.1596 29.7416 59.1561 29.7418 59.1527 29.7423C59.0878 29.7514 59.0239 29.7641 58.9604 29.7787C58.9487 29.7815 58.937 29.7845 58.9253 29.7873C58.863 29.8029 58.8013 29.8205 58.7406 29.8414C58.7404 29.8414 58.7402 29.8415 58.7401 29.8416C58.676 29.8636 58.6133 29.8891 58.5515 29.917C58.5448 29.92 58.5382 29.9232 58.5316 29.9264C58.473 29.9535 58.4156 29.9828 58.3596 30.015C58.3576 30.0162 58.3555 30.0172 58.3534 30.0184C58.2958 30.0518 58.2397 30.0879 58.1853 30.1265C58.1774 30.1321 58.1697 30.138 58.1618 30.1437C58.1175 30.1759 58.0743 30.21 58.0323 30.2457C58.0213 30.255 58.01 30.264 57.9992 30.2736C57.9571 30.3108 57.9159 30.3493 57.8765 30.3899C56.0726 30.1466 54.2333 30.5335 52.6482 31.498C51.8013 32.0134 51.0653 32.6731 50.465 33.4401L47.2537 28.2748C46.5946 27.2147 45.2172 26.8476 44.1181 27.4393L38.2932 30.5744L38.4296 30.0619C38.5079 29.7682 38.4671 29.4617 38.3147 29.1987C38.1626 28.9361 37.9177 28.7484 37.6247 28.6699C37.6242 28.6698 37.6236 28.6696 37.6231 28.6695L34.1351 27.7401C33.529 27.5787 32.9043 27.9404 32.7426 28.5468L31.1843 34.4006L25.0491 37.7027C24.4916 38.0027 24.0845 38.5018 23.9026 39.1081C23.7206 39.7144 23.7856 40.3552 24.0856 40.9124C24.3855 41.4698 24.8846 41.8769 25.4908 42.0589C25.5141 42.0659 25.5373 42.0725 25.5606 42.0787C26.146 42.2356 26.7593 42.1644 27.2953 41.8758L29.3729 40.7575L27.9896 45.9489C27.8808 46.3575 28.1234 46.7769 28.5318 46.8863C28.5321 46.8864 28.5325 46.8865 28.5328 46.8866C28.9418 46.9955 29.3617 46.7524 29.4706 46.3435L31.2244 39.761L44.4039 32.6674L47.5703 37.7607L47.401 38.3927C47.3895 38.4356 47.3807 38.4787 47.3732 38.5219C47.3718 38.5299 47.3703 38.5379 47.3692 38.546C47.3393 38.7363 47.3473 38.9274 47.3926 39.1099C47.3548 39.195 47.3228 39.283 47.2984 39.374L46.7788 41.3135C46.5231 42.2676 47.0914 43.2519 48.0456 43.5076L48.3518 43.5896C48.337 43.6641 48.3238 43.7391 48.3118 43.8149C48.3084 43.8362 48.3058 43.8578 48.3027 43.8792C48.2934 43.9421 48.2849 44.0054 48.2775 44.0692C48.2731 44.1074 48.2689 44.1458 48.2651 44.1842C48.2607 44.23 48.2571 44.2762 48.2536 44.3222C48.2463 44.4177 48.2411 44.5139 48.238 44.6105C48.2374 44.6282 48.2365 44.6458 48.2361 44.6636C48.2345 44.7286 48.2341 44.7938 48.2343 44.8592C48.2344 44.8723 48.2344 44.8855 48.2346 44.8986C48.239 45.4094 48.298 45.9312 48.4061 46.4509C48.4073 46.4564 48.4084 46.462 48.4096 46.4675C48.453 46.6745 48.5043 46.8808 48.5629 47.0861C48.5707 47.1133 48.5782 47.1403 48.5862 47.1674C48.6023 47.2219 48.6189 47.2763 48.636 47.3306C48.649 47.3716 48.6624 47.4126 48.676 47.4534C48.6912 47.4994 48.706 47.5455 48.722 47.5914C48.7504 47.6732 48.7802 47.7545 48.8109 47.8357C48.824 47.8704 48.8378 47.9047 48.8513 47.9392C48.8745 47.9985 48.8983 48.0576 48.9229 48.1164C48.9363 48.1485 48.9495 48.1806 48.9632 48.2125C48.9969 48.2911 49.0317 48.3694 49.0676 48.4472C49.0727 48.4584 49.0776 48.4696 49.0828 48.4807C49.1224 48.5657 49.1637 48.6498 49.2059 48.7336C49.2207 48.7632 49.236 48.7924 49.2511 48.8217C49.2811 48.8797 49.3116 48.9375 49.3429 48.9948C49.3602 49.0266 49.3772 49.0584 49.3948 49.0899C49.4327 49.1575 49.4714 49.2246 49.5108 49.2913C49.5392 49.3393 49.5685 49.3866 49.5978 49.434C49.6224 49.4737 49.6469 49.5135 49.672 49.5528C49.7025 49.6005 49.7335 49.6475 49.7648 49.6945C49.7815 49.7194 49.7984 49.7442 49.8153 49.7689C49.9855 50.0189 50.1673 50.2578 50.3597 50.4836L49.981 51.8962L48.1331 52.2778L47.9932 52.035C47.8593 51.8026 47.6548 51.6241 47.417 51.5189C47.3906 51.5073 47.3637 51.4965 47.3366 51.4866C47.3094 51.4768 47.2818 51.4678 47.2539 51.4599C47.2261 51.452 47.1978 51.4449 47.1694 51.439C47.0915 51.4226 47.0116 51.4141 46.9308 51.413C46.9155 51.4122 46.9002 51.4111 46.8848 51.4111C46.8606 51.411 46.8315 51.4118 46.8096 51.4136L43.7672 51.6512L45.1706 46.3843C45.3516 45.7052 44.9468 45.0057 44.2682 44.8239C44.2676 44.8237 44.2671 44.8236 44.2665 44.8234L38.4746 43.2802C38.1454 43.1925 37.8017 43.2382 37.5069 43.4089C37.2121 43.5796 37.0014 43.8551 36.9137 44.1842L34.4987 53.2478C34.4974 53.2487 34.4961 53.2497 34.4946 53.2506C34.4685 53.268 34.4432 53.2865 34.4173 53.3042C34.3759 53.3327 34.3344 53.3609 34.2936 53.3903C34.268 53.4088 34.243 53.4283 34.2177 53.4472C34.1776 53.477 34.1374 53.5065 34.098 53.5372C34.0728 53.5568 34.0484 53.5773 34.0234 53.5973C33.9847 53.6283 33.9457 53.659 33.9076 53.691C33.8831 53.7115 33.8593 53.733 33.8351 53.7539C33.7976 53.7862 33.7598 53.8183 33.723 53.8514C33.699 53.873 33.6758 53.8955 33.6521 53.9175C33.6159 53.951 33.5795 53.9844 33.544 54.0188C33.5209 54.0411 33.4987 54.0643 33.4759 54.0869C33.4408 54.122 33.4053 54.1567 33.3709 54.1924C33.3483 54.2161 33.3264 54.2405 33.304 54.2646C33.2707 54.3004 33.237 54.3358 33.2044 54.3723C33.1815 54.3979 33.1596 54.4243 33.1371 54.4501C33.1059 54.4861 33.0745 54.5218 33.044 54.5585C33.0217 54.5852 33.0003 54.6129 32.9784 54.6401C32.9489 54.6769 32.919 54.7133 32.8901 54.7508C32.8684 54.7789 32.8475 54.808 32.8263 54.8366C32.7984 54.8739 32.7702 54.9108 32.7432 54.9488C32.7219 54.9786 32.7016 55.0091 32.6808 55.0392C32.6548 55.077 32.6283 55.1144 32.6029 55.1527C32.5824 55.1837 32.5629 55.2155 32.543 55.2469C32.5186 55.2852 32.4937 55.3231 32.47 55.3621C32.4503 55.3944 32.4317 55.4274 32.4125 55.46C32.3896 55.499 32.3663 55.5376 32.3442 55.5771C32.3256 55.6102 32.308 55.6442 32.29 55.6778C32.2686 55.7175 32.2466 55.7571 32.2259 55.7974C32.2082 55.832 32.1915 55.8674 32.1743 55.9024C32.1546 55.9425 32.1345 55.9821 32.1155 56.0226C32.0984 56.0591 32.0825 56.0964 32.066 56.1332C32.0483 56.173 32.03 56.2125 32.013 56.2527C31.9968 56.2908 31.9818 56.3296 31.9664 56.3681C31.9504 56.408 31.9338 56.4475 31.9184 56.4878C31.9035 56.5271 31.8897 56.5669 31.8755 56.6066C31.8622 56.6435 31.8482 56.6801 31.8355 56.7174L27.0767 55.4493C27.0601 55.4449 27.0502 55.4277 27.0547 55.4111L28.2448 50.9444C28.3537 50.5358 28.1111 50.1163 27.7027 50.0069C27.7024 50.0068 27.702 50.0067 27.7017 50.0066C27.2927 49.8977 26.8728 50.1408 26.7639 50.5498L25.5737 55.0165C25.3519 55.8491 25.8481 56.7068 26.6801 56.9297C26.6808 56.9299 26.6815 56.9301 26.6821 56.9303L31.3735 58.1804L29.2637 64.8698C29.0834 65.4116 29.1344 66.0102 29.404 66.5134C29.6745 67.0184 30.147 67.393 30.7001 67.5412L67.2524 77.3354C67.8054 77.4836 68.4018 77.3953 68.8886 77.0933C69.3737 76.7923 69.7173 76.2994 69.832 75.7401ZM64.9611 46.1854C64.9241 46.3233 64.7819 46.4054 64.6441 46.3684L64.3484 46.2892L64.8183 44.5357L65.3639 44.6819L64.9611 46.1854ZM58.8678 31.6037C58.8692 31.6012 58.8711 31.5991 58.8725 31.5967C58.9282 31.4977 59.0062 31.4176 59.097 31.3596C59.0993 31.3581 59.1015 31.3567 59.1038 31.3553C59.1324 31.3375 59.1623 31.322 59.1932 31.3087C59.1968 31.3072 59.2005 31.3058 59.2042 31.3043C59.2663 31.279 59.3321 31.2631 59.3997 31.2571C59.4048 31.2566 59.4099 31.256 59.4149 31.2557C59.4472 31.2537 59.4798 31.2541 59.5125 31.2567C59.5183 31.2572 59.5242 31.258 59.53 31.2587C59.5638 31.2624 59.5975 31.2678 59.631 31.2768L60.3296 31.464C60.3632 31.473 60.3952 31.4852 60.4262 31.4988C60.4315 31.5011 60.437 31.5034 60.4423 31.5059C60.4719 31.5199 60.5003 31.5358 60.5272 31.5538C60.5315 31.5567 60.5357 31.5598 60.54 31.5628C60.5954 31.6016 60.6443 31.6482 60.6853 31.7011C60.6879 31.7043 60.6905 31.7075 60.6929 31.7107C60.7129 31.7375 60.731 31.7657 60.7469 31.7953C60.7483 31.7979 60.7494 31.8004 60.7507 31.8029C60.8003 31.8985 60.8278 32.0067 60.8265 32.1202C60.8265 32.123 60.8271 32.1257 60.8271 32.1285C60.826 32.1811 60.8193 32.2344 60.8051 32.2874L60.1359 34.7851C60.0399 35.1432 59.6705 35.3565 59.3125 35.2606L58.6138 35.0734C58.2557 34.9774 58.0424 34.608 58.1384 34.2499L58.8076 31.7522L58.8075 31.7522C58.8217 31.6991 58.8425 31.6499 58.8678 31.6037ZM36.8471 30.0487L36.442 31.5706L33.0354 33.4042L34.122 29.3227L36.8471 30.0487ZM49.5265 34.9559C49.492 35.0281 49.4578 35.1004 49.4253 35.1737C49.4071 35.2148 49.3901 35.2562 49.3726 35.2976C49.3442 35.3648 49.3156 35.4318 49.2888 35.4999C49.2664 35.5569 49.2459 35.6146 49.2247 35.6721C49.2049 35.7261 49.1842 35.7795 49.1654 35.8341C49.1261 35.9481 49.0892 36.0628 49.0551 36.1783C49.0345 36.248 49.0146 36.3183 48.9957 36.3889L48.9645 36.5055C48.9628 36.5055 48.9613 36.5059 48.9597 36.5059C48.9112 36.507 48.8631 36.5115 48.8155 36.5175C48.8 36.5195 48.7847 36.5217 48.7694 36.5241C48.7269 36.5311 48.6848 36.5395 48.6434 36.5503C48.6373 36.5519 48.6309 36.5525 48.6248 36.5541L45.3253 31.2469C45.1116 30.9034 44.6676 30.7849 44.3113 30.9768L26.5688 40.5264C26.372 40.6325 26.1466 40.6566 25.9314 40.5912C25.7172 40.5268 25.541 40.383 25.435 40.1862C25.329 39.9893 25.306 39.763 25.3703 39.5488C25.4346 39.3347 25.5785 39.1584 25.7753 39.0525L44.8444 28.7888C45.0389 28.6841 45.2581 28.6643 45.4576 28.7178C45.6564 28.771 45.8359 28.897 45.952 29.0839L49.5591 34.8857C49.5477 34.9089 49.5376 34.9326 49.5265 34.9559ZM48.4423 42.0273C48.3043 41.9903 48.2222 41.8481 48.2591 41.7102L48.662 40.2068L49.2075 40.3529L48.7377 42.1064L48.4423 42.0273ZM48.9708 38.456L49.0754 38.0657L49.3222 38.1318C49.731 38.2413 50.1512 37.9987 50.2607 37.5899L50.4763 36.7854C50.4918 36.7274 50.508 36.6698 50.525 36.6124C50.5581 36.5004 50.5949 36.3892 50.6339 36.2788C50.6438 36.2507 50.6547 36.223 50.6651 36.195C50.6963 36.1102 50.7288 36.026 50.7635 35.9424C50.7748 35.9151 50.7864 35.8881 50.7981 35.861C50.8361 35.7729 50.8757 35.6856 50.9174 35.5992C50.9267 35.5799 50.9358 35.5604 50.9453 35.5411C50.9974 35.4355 51.0519 35.3309 51.1095 35.228C51.1098 35.2274 51.11 35.2269 51.1103 35.2263C51.6651 34.2383 52.4643 33.4038 53.4447 32.8071C54.5874 32.1117 55.8911 31.7874 57.1911 31.8628L56.6579 33.8527C56.3432 35.0271 57.0427 36.2385 58.2171 36.5532L58.9157 36.7404C60.0901 37.0551 61.3015 36.3556 61.6162 35.1813L62.1493 33.1916C63.3127 33.7762 64.2798 34.709 64.9217 35.8826C65.7148 37.3326 65.9372 39.0213 65.5477 40.6378C65.5337 40.6959 65.5189 40.7539 65.5034 40.8119L65.2878 41.6164C65.1782 42.0252 65.4208 42.4454 65.8297 42.5549L66.0765 42.6211L65.9719 43.0114L48.9708 38.456ZM49.8167 44.1133C49.8184 44.1016 49.8203 44.0899 49.822 44.0781C49.8319 44.0142 49.8432 43.951 49.8557 43.8884C49.8578 43.8784 49.8596 43.8683 49.8616 43.8583C49.8767 43.7862 49.8934 43.7149 49.9122 43.6447L50.6879 40.7496L63.3378 44.1391L62.5662 47.0188C62.5472 47.0897 62.5258 47.1606 62.5026 47.2313C62.4999 47.2394 62.4969 47.2474 62.4942 47.2555C62.4734 47.3174 62.451 47.3793 62.4271 47.4409C62.4229 47.4518 62.4187 47.4626 62.4144 47.4734C62.3876 47.5408 62.3594 47.6081 62.329 47.6751C62.3288 47.6754 62.3287 47.6757 62.3285 47.6761C61.6418 49.1891 60.056 50.5757 58.396 51.2166C58.3841 51.2211 58.3722 51.2259 58.3603 51.2303C58.3078 51.2502 58.2552 51.2687 58.2026 51.287C58.1737 51.297 58.1449 51.3077 58.116 51.3173C58.1007 51.3223 58.0855 51.3267 58.0701 51.3317C58.0172 51.3487 57.9642 51.3657 57.911 51.3813C57.9083 51.3821 57.9058 51.3833 57.903 51.3841C57.4231 51.5245 56.9438 51.598 56.4848 51.5898L56.4022 51.5884C54.718 51.5579 54.3558 51.4599 52.8781 50.6357C52.4806 50.414 52.1062 50.1126 51.764 49.7537C51.7633 49.7528 51.7627 49.7519 51.7619 49.7511C51.7482 49.7368 51.7351 49.7219 51.7215 49.7073C51.6812 49.6642 51.6411 49.6209 51.6018 49.5763C51.592 49.5653 51.5825 49.5538 51.5729 49.5427C50.3178 48.0956 49.5585 45.8763 49.8167 44.1133ZM50.3614 53.3828C50.8615 53.3321 51.2769 52.982 51.4085 52.4908L51.6314 51.659C51.7941 51.7736 51.961 51.879 52.1317 51.9743C52.9795 52.4471 53.5615 52.7256 54.175 52.89C54.7815 53.0525 55.419 53.1036 56.3747 53.1209L56.4573 53.1223C56.6601 53.126 56.8647 53.1178 57.0704 53.0992L56.8434 53.947C56.7117 54.4383 56.8962 54.9493 57.3041 55.2432L58.3307 56.1564C58.3135 56.1635 58.2965 56.1713 58.2794 56.1782C58.2403 56.194 58.2008 56.2088 58.1614 56.2239C58.087 56.2524 58.0124 56.28 57.9373 56.3062C57.8954 56.3208 57.8535 56.3351 57.8113 56.3491C57.7352 56.3742 57.6587 56.3979 57.5819 56.4207C57.5428 56.4323 57.5037 56.4443 57.4645 56.4554C57.3712 56.4816 57.2772 56.5056 57.183 56.5283C57.1608 56.5336 57.1387 56.5398 57.1165 56.545C57 56.5719 56.883 56.596 56.7653 56.6176C56.7338 56.6234 56.7021 56.6279 56.6705 56.6333C56.584 56.6482 56.4972 56.662 56.4103 56.6739C56.3685 56.6797 56.3265 56.6844 56.2845 56.6895C56.2061 56.6989 56.1276 56.7073 56.0489 56.7144C56.0055 56.7183 55.9621 56.722 55.9186 56.7252C55.8373 56.7311 55.7559 56.7354 55.6744 56.7388C55.6354 56.7404 55.5964 56.7426 55.5573 56.7437C55.4504 56.7466 55.3433 56.7473 55.2361 56.7458C55.2232 56.7456 55.2103 56.7461 55.1974 56.7458C55.0769 56.7436 54.9563 56.7382 54.8357 56.7304C54.8011 56.7282 54.7665 56.7248 54.7319 56.7221C54.6456 56.7154 54.5593 56.7079 54.4729 56.6983C54.4302 56.6937 54.3877 56.6883 54.3452 56.6828C54.2652 56.6728 54.1854 56.6615 54.1055 56.649C54.0626 56.6423 54.0195 56.6355 53.9766 56.6281C53.8924 56.6135 53.8082 56.5971 53.7241 56.5798C53.6876 56.5723 53.651 56.5654 53.6144 56.5574C53.4942 56.5309 53.3742 56.5023 53.2546 56.4702C53.1349 56.4382 53.0167 56.4029 52.8994 56.3658C52.8638 56.3545 52.8287 56.3422 52.7934 56.3304C52.7118 56.3033 52.6307 56.2754 52.5503 56.2459C52.5094 56.2309 52.4689 56.2153 52.4284 56.1997C52.3529 56.1706 52.278 56.1404 52.2037 56.1091C52.1642 56.0926 52.1247 56.076 52.0855 56.0588C52.0059 56.0238 51.9272 55.9872 51.8491 55.9497C51.8178 55.9347 51.7861 55.9204 51.7552 55.9051C51.6467 55.8515 51.5396 55.7959 51.4341 55.7374C51.4231 55.7313 51.4125 55.7247 51.4015 55.7186C51.3077 55.6661 51.215 55.6118 51.1235 55.5556C51.0904 55.5353 51.058 55.514 51.0253 55.4932C50.9561 55.4493 50.8875 55.4047 50.8198 55.3588C50.784 55.3345 50.7485 55.3097 50.7131 55.2849C50.6482 55.2392 50.584 55.1923 50.5204 55.1447C50.487 55.1196 50.4534 55.0948 50.4205 55.0692C50.3502 55.0147 50.2813 54.9588 50.213 54.9021C50.1892 54.8823 50.1648 54.8631 50.1412 54.843C50.0499 54.7653 49.9603 54.6856 49.8725 54.6037C49.8568 54.5891 49.8418 54.5737 49.8263 54.559C49.7549 54.4913 49.6846 54.4225 49.6158 54.3521C49.5879 54.3235 49.5607 54.2942 49.5332 54.2652C49.4774 54.2064 49.4222 54.1468 49.3683 54.0862C49.3394 54.0539 49.3109 54.0212 49.2826 53.9883C49.2299 53.9273 49.1783 53.8651 49.1274 53.8023C49.1014 53.7703 49.0753 53.7385 49.0499 53.7061C49.0383 53.6914 49.0273 53.6758 49.0158 53.661L50.3614 53.3828ZM31.0967 66.0608C30.9488 66.0212 30.8274 65.9248 30.7549 65.7896C30.682 65.6535 30.6691 65.4979 30.7185 65.3516C30.7201 65.3468 30.7217 65.342 30.7232 65.3371L33.2828 57.2212C33.6887 56.0233 34.4951 55.0411 35.5279 54.4097C35.5376 54.4044 35.5475 54.3998 35.557 54.394C36.1629 54.0285 36.8438 53.7877 37.5432 53.6886C37.5578 53.6866 37.5725 53.6846 37.5871 53.6828C37.68 53.6704 37.773 53.66 37.8663 53.6526L39.0886 53.5572L35.4273 67.2212L31.0967 66.0608ZM40.0104 51.948L37.7471 52.1248C37.6621 52.1314 37.5776 52.1396 37.4936 52.1493C37.4668 52.1524 37.4404 52.1566 37.4138 52.1599C37.393 52.1626 37.3722 52.1654 37.3514 52.1684C37.3151 52.1733 37.2786 52.1775 37.2425 52.1831C37.2026 52.1891 37.1632 52.1968 37.1235 52.2036C37.0804 52.2109 37.037 52.2176 36.9942 52.2259C36.9538 52.2336 36.9138 52.2427 36.8736 52.2511C36.832 52.2599 36.79 52.2679 36.7485 52.2775C36.7105 52.2863 36.6728 52.2964 36.6349 52.3058C36.5919 52.3165 36.5488 52.3265 36.5061 52.3379C36.4685 52.348 36.4315 52.3595 36.3941 52.3702C36.3668 52.378 36.3395 52.3856 36.3124 52.3937L38.3284 44.8276L43.6235 46.2385L42.1474 51.778L40.0505 51.9417C40.0369 51.9427 40.0239 51.9462 40.0104 51.948ZM36.9077 67.6179L40.7092 53.4307L46.0697 53.0121L45.8911 55.9447C45.8244 57.0416 46.2145 58.133 46.9615 58.939L50.7146 62.9891L48.6325 70.7595L36.9077 67.6179ZM48.0856 57.8973C47.6217 57.3968 47.3796 56.719 47.421 56.0379L47.5313 54.2272C47.5527 54.2578 47.5726 54.2897 47.5943 54.3201C48.8672 56.0991 50.7062 57.3739 52.8583 57.9505C53.4545 58.1103 54.0567 58.2103 54.6582 58.2541C56.2648 58.3711 57.8653 58.0768 59.3332 57.3895L58.5232 59.0127C58.2187 59.6233 57.6701 60.0891 57.0181 60.2906L51.7989 61.9042L48.0856 57.8973ZM61.8379 74.2979L50.113 71.1562L52.1951 63.3859L57.4706 61.755C58.5206 61.4304 59.4041 60.6803 59.8945 59.697L61.2063 57.068L65.6394 60.1107L61.8379 74.2979Z" fill="white"/>
</svg>
