<svg width="140" height="33" viewBox="0 0 140 33" fill="none" xmlns="http://www.w3.org/2000/svg">
<path d="M16.5514 24.3894L22.8558 28.3837C23.6617 28.8942 24.6622 28.1349 24.4231 27.1942L22.6016 20.0289C22.5503 19.8293 22.5564 19.6193 22.6191 19.423C22.6819 19.2268 22.7987 19.0522 22.9563 18.9194L28.6097 14.214C29.3525 13.5957 28.9691 12.3629 28.0147 12.3009L20.6318 11.8218C20.4329 11.8076 20.2422 11.7372 20.0818 11.6188C19.9214 11.5003 19.7979 11.3388 19.7258 11.1529L16.9722 4.21882C16.8974 4.02155 16.7643 3.85172 16.5906 3.73188C16.417 3.61203 16.211 3.54785 16 3.54785C15.789 3.54785 15.583 3.61203 15.4094 3.73188C15.2357 3.85172 15.1026 4.02155 15.0278 4.21882L12.2742 11.1529C12.2021 11.3388 12.0786 11.5003 11.9182 11.6188C11.7578 11.7372 11.5671 11.8076 11.3682 11.8218L3.98525 12.3009C3.03087 12.3629 2.64746 13.5957 3.3903 14.214L9.04371 18.9194C9.20126 19.0522 9.31813 19.2268 9.38088 19.423C9.44362 19.6193 9.4497 19.8293 9.39841 20.0289L7.70918 26.6739C7.42222 27.8027 8.62287 28.7139 9.58991 28.1013L15.4486 24.3894C15.6134 24.2845 15.8047 24.2288 16 24.2288C16.1953 24.2288 16.3866 24.2845 16.5514 24.3894V24.3894Z" fill="#F58220" stroke="#F58220" stroke-width="2" stroke-linecap="round" stroke-linejoin="round"/>
<path d="M43.3356 24.3894L49.64 28.3837C50.4459 28.8942 51.4464 28.1349 51.2073 27.1942L49.3858 20.0289C49.3345 19.8293 49.3406 19.6193 49.4033 19.423C49.4661 19.2268 49.5829 19.0522 49.7405 18.9194L55.3939 14.214C56.1367 13.5957 55.7533 12.3629 54.7989 12.3009L47.4159 11.8218C47.2171 11.8076 47.0264 11.7372 46.866 11.6188C46.7056 11.5003 46.5821 11.3388 46.51 11.1529L43.7564 4.21882C43.6816 4.02155 43.5485 3.85172 43.3748 3.73188C43.2012 3.61203 42.9952 3.54785 42.7842 3.54785C42.5732 3.54785 42.3672 3.61203 42.1935 3.73188C42.0199 3.85172 41.8868 4.02155 41.812 4.21882L39.0584 11.1529C38.9863 11.3388 38.8628 11.5003 38.7024 11.6188C38.542 11.7372 38.3513 11.8076 38.1524 11.8218L30.7694 12.3009C29.815 12.3629 29.4316 13.5957 30.1745 14.214L35.8279 18.9194C35.9854 19.0522 36.1023 19.2268 36.1651 19.423C36.2278 19.6193 36.2339 19.8293 36.1826 20.0289L34.4934 26.6739C34.2064 27.8027 35.407 28.7139 36.3741 28.1013L42.2328 24.3894C42.3976 24.2845 42.5889 24.2288 42.7842 24.2288C42.9795 24.2288 43.1708 24.2845 43.3356 24.3894V24.3894Z" fill="#F58220" stroke="#F58220" stroke-width="2" stroke-linecap="round" stroke-linejoin="round"/>
<path d="M70.1188 24.3894L76.4232 28.3837C77.2291 28.8942 78.2296 28.1349 77.9905 27.1942L76.169 20.0289C76.1177 19.8293 76.1238 19.6193 76.1865 19.423C76.2493 19.2268 76.3661 19.0522 76.5237 18.9194L82.1771 14.214C82.9199 13.5957 82.5365 12.3629 81.5821 12.3009L74.1991 11.8218C74.0003 11.8076 73.8096 11.7372 73.6492 11.6188C73.4888 11.5003 73.3653 11.3388 73.2932 11.1529L70.5396 4.21882C70.4648 4.02155 70.3317 3.85172 70.158 3.73188C69.9844 3.61203 69.7784 3.54785 69.5674 3.54785C69.3564 3.54785 69.1504 3.61203 68.9767 3.73188C68.8031 3.85172 68.67 4.02155 68.5952 4.21882L65.8416 11.1529C65.7695 11.3388 65.646 11.5003 65.4856 11.6188C65.3252 11.7372 65.1345 11.8076 64.9356 11.8218L57.5526 12.3009C56.5983 12.3629 56.2148 13.5957 56.9577 14.214L62.6111 18.9194C62.7686 19.0522 62.8855 19.2268 62.9483 19.423C63.011 19.6193 63.0171 19.8293 62.9658 20.0289L61.2766 26.6739C60.9896 27.8027 62.1903 28.7139 63.1573 28.1013L69.016 24.3894C69.1808 24.2845 69.3721 24.2288 69.5674 24.2288C69.7627 24.2288 69.954 24.2845 70.1188 24.3894V24.3894Z" fill="#F58220" stroke="#F58220" stroke-width="2" stroke-linecap="round" stroke-linejoin="round"/>
<path d="M96.9029 24.3894L103.207 28.3837C104.013 28.8942 105.014 28.1349 104.775 27.1942L102.953 20.0289C102.902 19.8293 102.908 19.6193 102.971 19.423C103.033 19.2268 103.15 19.0522 103.308 18.9194L108.961 14.214C109.704 13.5957 109.321 12.3629 108.366 12.3009L100.983 11.8218C100.784 11.8076 100.594 11.7372 100.433 11.6188C100.273 11.5003 100.149 11.3388 100.077 11.1529L97.3238 4.21882C97.2489 4.02155 97.1159 3.85172 96.9422 3.73188C96.7686 3.61203 96.5626 3.54785 96.3516 3.54785C96.1406 3.54785 95.9346 3.61203 95.7609 3.73188C95.5873 3.85172 95.4542 4.02155 95.3793 4.21882L92.6258 11.1529C92.5537 11.3388 92.4302 11.5003 92.2698 11.6188C92.1094 11.7372 91.9187 11.8076 91.7198 11.8218L84.3368 12.3009C83.3824 12.3629 82.999 13.5957 83.7419 14.214L89.3953 18.9194C89.5528 19.0522 89.6697 19.2268 89.7324 19.423C89.7952 19.6193 89.8013 19.8293 89.75 20.0289L88.0607 26.6739C87.7738 27.8027 88.9744 28.7139 89.9415 28.1013L95.8002 24.3894C95.965 24.2845 96.1562 24.2288 96.3516 24.2288C96.5469 24.2288 96.7382 24.2845 96.9029 24.3894V24.3894Z" fill="#F58220" stroke="#F58220" stroke-width="2" stroke-linecap="round" stroke-linejoin="round"/>
<path d="M123.686 24.3894L129.991 28.3837C130.796 28.8942 131.797 28.1349 131.558 27.1942L129.736 20.0289C129.685 19.8293 129.691 19.6193 129.754 19.423C129.817 19.2268 129.934 19.0522 130.091 18.9194L135.744 14.214C136.487 13.5957 136.104 12.3629 135.15 12.3009L127.767 11.8218C127.568 11.8076 127.377 11.7372 127.217 11.6188C127.056 11.5003 126.933 11.3388 126.861 11.1529L124.107 4.21882C124.032 4.02155 123.899 3.85172 123.725 3.73188C123.552 3.61203 123.346 3.54785 123.135 3.54785C122.924 3.54785 122.718 3.61203 122.544 3.73188C122.37 3.85172 122.237 4.02155 122.163 4.21882L119.409 11.1529C119.337 11.3388 119.213 11.5003 119.053 11.6188C118.893 11.7372 118.702 11.8076 118.503 11.8218L111.12 12.3009C110.166 12.3629 109.782 13.5957 110.525 14.214L116.178 18.9194C116.336 19.0522 116.453 19.2268 116.516 19.423C116.578 19.6193 116.584 19.8293 116.533 20.0289L114.844 26.6739C114.557 27.8027 115.758 28.7139 116.725 28.1013L122.583 24.3894C122.748 24.2845 122.939 24.2288 123.135 24.2288C123.33 24.2288 123.521 24.2845 123.686 24.3894V24.3894Z" fill="#F58220" stroke="#F58220" stroke-width="2" stroke-linecap="round" stroke-linejoin="round"/>
</svg>
