<svg width="80" height="80" viewBox="0 0 80 80" fill="none" xmlns="http://www.w3.org/2000/svg">
<path d="M3.99693 62.6186H37.6938C39.3733 71.4791 46.4413 78.3272 55.3503 79.7259C64.2594 81.1246 73.0859 76.7718 77.3998 68.8524C81.7137 60.9329 80.5836 51.1566 74.5766 44.4302C68.5696 37.7039 58.9828 35.4798 50.6278 38.8742V3.99693C50.6278 1.78949 48.8384 0 46.6309 0H10.6585C10.3122 0.0167511 9.98254 0.153334 9.72587 0.38637L0.399694 9.71255C0.156015 9.96887 0.0139432 10.3051 0 10.6585V58.6217C0 60.8292 1.78949 62.6186 3.99693 62.6186ZM58.6217 39.9693C68.9231 39.9693 77.2741 48.3203 77.2741 58.6217C77.2741 68.9231 68.9231 77.2741 58.6217 77.2741C48.3203 77.2741 39.9693 68.9231 39.9693 58.6217C39.9804 48.3249 48.3249 39.9804 58.6217 39.9693ZM9.32618 4.54851V7.99387C9.32618 8.72968 8.72968 9.32618 7.99387 9.32618H4.54851L9.32618 4.54851ZM2.66462 11.9908H7.99387C10.2013 11.9908 11.9908 10.2013 11.9908 7.99387V2.66462H46.6309C47.3667 2.66462 47.9632 3.26112 47.9632 3.99693V40.1892C46.1977 41.2143 44.5876 42.4861 43.1816 43.9663H27.9785C27.2427 43.9663 26.6462 44.5628 26.6462 45.2986C26.6462 46.0344 27.2427 46.6309 27.9785 46.6309H41.0112C40.4378 47.4809 39.9271 48.3714 39.4831 49.2955H27.9785C27.2427 49.2955 26.6462 49.892 26.6462 50.6278C26.6462 51.3637 27.2427 51.9602 27.9785 51.9602H38.3852C37.6717 54.1087 37.3069 56.3577 37.3047 58.6217C37.3047 59.072 37.3447 59.5117 37.3727 59.954H3.99693C3.26112 59.954 2.66462 59.3575 2.66462 58.6217V11.9908Z" fill="#A5CE46"/>
<path d="M10.313 24.3426C10.7373 24.8514 11.3357 25.1838 11.9918 25.2753V37.3047C11.9918 39.5121 13.7812 41.3016 15.9887 41.3016H34.6411C36.8485 41.3016 38.638 39.5121 38.638 37.3047V25.2739C39.294 25.1825 39.8925 24.85 40.3167 24.3413L42.0247 22.2789C42.4775 21.7317 42.6924 21.026 42.6213 20.3193C42.5502 19.6126 42.1991 18.9638 41.6463 18.5178L38.638 16.0876V9.32615C38.638 7.85452 37.445 6.66153 35.9734 6.66153H33.3087C31.8371 6.66153 30.6441 7.85452 30.6441 9.32615V9.62459L27.0056 6.68284C26.0166 5.89218 24.6118 5.89218 23.6228 6.68284L8.9834 18.5191C8.43067 18.9651 8.07956 19.6139 8.00847 20.3206C7.93737 21.0273 8.15222 21.733 8.60502 22.2802L10.313 24.3426ZM27.9795 38.637H22.6503V31.9754C22.6503 31.2396 23.2467 30.6431 23.9826 30.6431H26.6472C27.383 30.6431 27.9795 31.2396 27.9795 31.9754V38.637ZM35.9734 37.3047C35.9734 38.0405 35.3769 38.637 34.6411 38.637H30.6441V31.9754C30.6441 29.768 28.8546 27.9785 26.6472 27.9785H23.9826C21.7751 27.9785 19.9856 29.768 19.9856 31.9754V38.637H15.9887C15.2529 38.637 14.6564 38.0405 14.6564 37.3047V24.248L25.3149 15.7945L35.9734 24.248V37.3047ZM33.3087 9.32615H35.9734V13.9333L33.3087 11.7789V9.32615ZM25.3309 8.75459L39.9703 20.5815L38.2636 22.6493C38.2543 22.6534 38.2436 22.6534 38.2343 22.6493C38.2263 22.6413 38.2143 22.6373 38.205 22.6293L26.1422 13.0566C25.6575 12.6726 24.9722 12.6726 24.4875 13.0566L12.3661 22.6493L10.6594 20.5922L25.3309 8.75459Z" fill="#A5CE46"/>
<path d="M43.9668 61.2861C43.9644 62.3466 44.386 63.364 45.1379 64.1119L50.4672 69.4412C51.9803 70.9538 54.4163 71.0067 55.9936 69.5611L71.9813 54.9056C73.175 53.814 73.593 52.1104 73.0402 50.5902C72.4873 49.07 71.0727 48.0329 69.4566 47.963C68.396 47.9125 67.3595 48.2903 66.5801 49.0115L53.4142 61.0809L50.7896 58.4576C49.208 56.9481 46.7194 56.9481 45.1379 58.4576C44.3859 59.2065 43.9643 60.2248 43.9668 61.2861ZM47.0218 60.3441C47.5421 59.824 48.3854 59.824 48.9057 60.3441L52.4323 63.8694C52.9366 64.3731 53.7479 64.3907 54.2736 63.9094L68.3801 50.978C68.7309 50.6562 69.2267 50.546 69.6808 50.689C70.1348 50.8319 70.4782 51.2062 70.5814 51.6709C70.6847 52.1356 70.5322 52.62 70.1814 52.9418L54.1936 67.5972C53.6615 68.0617 52.8631 68.0438 52.3524 67.5559L47.0231 62.2267C46.503 61.7064 46.503 60.8631 47.0231 60.3428L47.0218 60.3441Z" fill="#A5CE46"/>
<path fill-rule="evenodd" clip-rule="evenodd" d="M6.66141 46.6314H22.6492C23.385 46.6314 23.9815 46.0349 23.9815 45.2991C23.9815 44.5633 23.385 43.9668 22.6492 43.9668H6.66141C5.9256 43.9668 5.3291 44.5633 5.3291 45.2991C5.3291 46.0349 5.9256 46.6314 6.66141 46.6314Z" fill="#A5CE46"/>
<path fill-rule="evenodd" clip-rule="evenodd" d="M6.66141 51.9601H22.6492C23.385 51.9601 23.9815 51.3636 23.9815 50.6277C23.9815 49.8919 23.385 49.2954 22.6492 49.2954H6.66141C5.9256 49.2954 5.3291 49.8919 5.3291 50.6277C5.3291 51.3636 5.9256 51.9601 6.66141 51.9601Z" fill="#A5CE46"/>
<path fill-rule="evenodd" clip-rule="evenodd" d="M6.66141 57.2896H22.6492C23.385 57.2896 23.9815 56.6931 23.9815 55.9573C23.9815 55.2215 23.385 54.625 22.6492 54.625H6.66141C5.9256 54.625 5.3291 55.2215 5.3291 55.9573C5.3291 56.6931 5.9256 57.2896 6.66141 57.2896Z" fill="#A5CE46"/>
</svg>
