<svg width="71" height="71" viewBox="0 0 71 71" fill="none" xmlns="http://www.w3.org/2000/svg">
<g clip-path="url(#clip0_298_1349)">
<path d="M3.55098 26.0333H15.3843C17.3449 26.0333 18.9343 24.4439 18.9343 22.4833V18.9333H21.301V61.5333H13.0177C9.75163 61.5373 7.10494 64.1839 7.10098 67.45V68.6333C7.10098 69.9404 8.16059 71 9.46769 71H42.601C43.9081 71 44.9677 69.9404 44.9677 68.6333V67.45C44.9637 64.1839 42.317 61.5373 39.051 61.5333H30.7677V39.05H37.9931C38.6566 39.0491 39.3021 38.8336 39.8332 38.4359L46.1049 33.7297C46.8765 33.1504 47.3316 32.2427 47.3344 31.2779V18.9333H54.4344V35.5603C47.5046 36.193 42.2979 42.1639 42.6145 49.1153C42.9312 56.0667 48.6591 61.5397 55.6177 61.5397C62.5763 61.5397 68.3042 56.0667 68.6209 49.1153C68.9376 42.1639 63.7308 36.193 56.801 35.5603V18.9333H68.6343C69.507 18.9332 70.3087 18.4528 70.7204 17.6834C71.1321 16.914 71.0872 15.9804 70.6034 15.2542L67.451 10.521C67.0112 9.86106 66.2703 9.46519 65.4772 9.46659H55.7739L30.6244 2.60325C30.2003 1.07032 28.8083 0.0065221 27.2177 0H24.851C23.2278 0.00524097 21.8148 1.11074 21.4193 2.68501L3.25632 9.49629C1.42128 9.64571 0.00656693 11.1756 0.000976562 13.0167V22.4834C0.000976562 24.444 1.59039 26.0333 3.55098 26.0333ZM66.2677 48.5167C66.2677 52.8242 63.673 56.7076 59.6933 58.356C55.7137 60.0044 51.1329 59.0932 48.087 56.0474C45.0411 53.0015 44.13 48.4207 45.7784 44.4411C47.4269 40.4614 51.3102 37.8667 55.6177 37.8667C61.4966 37.8738 66.2605 42.6379 66.2677 48.5167ZM10.077 9.46671L21.301 5.25762V9.46671H10.077ZM30.7677 5.099L46.7806 9.46671H30.7677V5.099ZM55.6177 11.8333H62.2278L57.9844 16.0767L53.741 11.8333H55.6177ZM39.7444 16.5667H31.2575L35.501 12.3233L39.7444 16.5667ZM38.3575 11.8333H46.8444L42.601 16.0767L38.3575 11.8333ZM45.4576 16.5667L50.1908 11.8334H50.3944L55.1277 16.5667H45.4576ZM32.6444 11.8333L28.401 16.0767L24.1575 11.8333H32.6444ZM18.9343 11.8333H20.811L25.5443 16.5666H18.9342V11.8333H18.9343ZM42.601 67.45V68.6333H9.46769V67.45C9.46769 65.4894 11.0571 63.9 13.0177 63.9H39.051C41.0116 63.9 42.601 65.4894 42.601 67.45ZM23.6677 61.5334V18.9333H28.401V61.5333H23.6677V61.5334ZM38.4119 36.5438C38.2909 36.6341 38.1441 36.6832 37.993 36.6834H30.7676V31.9501H44.5381L38.4119 36.5438ZM44.9677 29.5833H30.7677V18.9333H44.9677V29.5833ZM68.6343 16.5667H60.8361L65.5114 11.8914L68.6343 16.5667ZM23.6677 3.55C23.6677 2.89651 24.1975 2.36671 24.851 2.36671H27.2177C27.8712 2.36671 28.401 2.89651 28.401 3.55V9.46671H23.6677V3.55ZM2.36768 13.0167C2.36768 12.3632 2.89749 11.8334 3.55098 11.8334H5.91768V15.3834C5.91768 16.0369 6.44749 16.5667 7.10098 16.5667C7.75447 16.5667 8.28427 16.0369 8.28427 15.3834V11.8334H10.651V15.3834C10.651 16.0369 11.1808 16.5667 11.8343 16.5667C12.4878 16.5667 13.0176 16.0369 13.0176 15.3834V11.8334H16.5676V22.4834C16.5676 23.1369 16.0378 23.6667 15.3843 23.6667H3.55098C2.89749 23.6667 2.36768 23.1369 2.36768 22.4834V13.0167Z" fill="#A5CE46"/>
<path fill-rule="evenodd" clip-rule="evenodd" d="M36.337 21.6467C35.8749 21.1848 35.1259 21.1848 34.6638 21.6467L33.4805 22.83C33.1729 23.1271 33.0494 23.5671 33.1577 23.9808C33.266 24.3945 33.5891 24.7177 34.0028 24.8259C34.4165 24.9342 34.8565 24.8109 35.1536 24.5032L36.3369 23.3199C36.799 22.8579 36.799 22.1089 36.337 21.6467Z" fill="#A5CE46"/>
<path fill-rule="evenodd" clip-rule="evenodd" d="M40.5809 21.6466L35.8476 26.3799C35.5401 26.677 35.4166 27.117 35.5249 27.5307C35.6332 27.9444 35.9563 28.2676 36.37 28.3758C36.7837 28.4841 37.2237 28.3607 37.5208 28.053L42.2541 23.3198C42.7025 22.8554 42.6961 22.1174 42.2397 21.6609C41.7833 21.2046 41.0453 21.1982 40.5809 21.6466Z" fill="#A5CE46"/>
<path d="M54.4335 40.233V41.4979C51.7012 41.8719 49.7002 43.5202 49.7002 45.5579C49.7002 47.5956 51.7012 49.2439 54.4335 49.6179V53.1312C53.0277 52.8579 52.0668 52.1396 52.0668 51.4745C52.0668 50.821 51.537 50.2912 50.8835 50.2912C50.23 50.2912 49.7002 50.821 49.7002 51.4745C49.7002 53.5122 51.7012 55.1605 54.4335 55.5345V56.7994C54.4335 57.4529 54.9633 57.9827 55.6168 57.9827C56.2703 57.9827 56.8001 57.4529 56.8001 56.7994V55.5345C59.5324 55.1605 61.5334 53.5122 61.5334 51.4745C61.5334 49.4368 59.5324 47.7885 56.8001 47.4145V43.9012C58.2058 44.1745 59.1668 44.8928 59.1668 45.5578C59.1668 46.2113 59.6966 46.7411 60.3501 46.7411C61.0036 46.7411 61.5334 46.2113 61.5334 45.5578C61.5334 43.5201 59.5324 41.8718 56.8001 41.4978V40.2329C56.8001 39.5794 56.2703 39.0496 55.6168 39.0496C54.9633 39.0496 54.4335 39.5795 54.4335 40.233ZM52.0669 45.558C52.0669 44.8942 53.0277 44.1759 54.4336 43.9014V47.2148C53.0277 46.9401 52.0669 46.2219 52.0669 45.558ZM59.1669 51.4747C59.1669 52.1386 58.2061 52.8568 56.8002 53.1315V49.818C58.2061 50.0925 59.1669 50.8109 59.1669 51.4747Z" fill="#A5CE46"/>
</g>
<defs>
<clipPath id="clip0_298_1349">
<rect width="71" height="71" fill="white"/>
</clipPath>
</defs>
</svg>
