<svg width="88" height="71" viewBox="0 0 88 71" fill="none" xmlns="http://www.w3.org/2000/svg">
<path fill-rule="evenodd" clip-rule="evenodd" d="M10.7785 14.5593C10.3477 14.5596 9.93909 14.3683 9.66331 14.0373C9.38753 13.7063 9.27314 13.2699 9.35112 12.8462L10.265 7.99671C10.3733 7.42337 10.8145 6.97071 11.3849 6.84781C13.2906 6.43641 15.2197 6.14187 17.1613 5.96583C17.9593 5.89292 18.6652 6.48069 18.7381 7.27865C18.811 8.0766 18.2233 8.78257 17.4253 8.85548C15.9152 9.00054 14.4095 9.20653 12.9284 9.49085L12.1943 13.3829C12.0635 14.0626 11.4707 14.5552 10.7785 14.5593Z" fill="#A5CE46"/>
<path d="M17.4066 56.5088C15.0031 56.5088 13.0547 58.4572 13.0547 60.8607C13.0547 63.2642 15.0031 65.2126 17.4066 65.2126C19.81 65.2126 21.7585 63.2642 21.7585 60.8607C21.7585 58.4572 19.81 56.5088 17.4066 56.5088ZM17.4066 62.3113C16.6054 62.3113 15.9559 61.6618 15.9559 60.8607C15.9559 60.0595 16.6054 59.41 17.4066 59.41C18.2077 59.41 18.8572 60.0595 18.8572 60.8607C18.8572 61.6618 18.2077 62.3113 17.4066 62.3113Z" fill="#A5CE46"/>
<path d="M40.6136 56.5088C38.2101 56.5088 36.2617 58.4572 36.2617 60.8607C36.2617 63.2642 38.2101 65.2126 40.6136 65.2126C43.0171 65.2126 44.9655 63.2642 44.9655 60.8607C44.9655 58.4572 43.0171 56.5088 40.6136 56.5088ZM40.6136 62.3113C39.8124 62.3113 39.163 61.6618 39.163 60.8607C39.163 60.0595 39.8124 59.41 40.6136 59.41C41.4148 59.41 42.0642 60.0595 42.0642 60.8607C42.0642 61.6618 41.4148 62.3113 40.6136 62.3113Z" fill="#A5CE46"/>
<path d="M71.0843 56.5088C68.6808 56.5088 66.7324 58.4572 66.7324 60.8607C66.7324 63.2642 68.6808 65.2126 71.0843 65.2126C73.4878 65.2126 75.4362 63.2642 75.4362 60.8607C75.4362 58.4572 73.4878 56.5088 71.0843 56.5088ZM71.0843 62.3113C70.2831 62.3113 69.6337 61.6618 69.6337 60.8607C69.6337 60.0595 70.2831 59.41 71.0843 59.41C71.8855 59.41 72.5349 60.0595 72.5349 60.8607C72.5349 61.6618 71.8855 62.3113 71.0843 62.3113Z" fill="#A5CE46"/>
<path d="M84.1364 55.0586V31.1378C84.1298 30.7122 84.0603 30.2898 83.9304 29.8845C83.9203 29.8554 83.9101 29.8279 83.897 29.7989C83.823 29.5421 83.7259 29.2925 83.6069 29.0532L78.5007 19.6938C78.5007 19.6749 78.4804 19.659 78.4717 19.6416L76.0811 15.2578C75.318 13.8593 73.8518 12.9896 72.2587 12.9904H58.0251C57.4129 12.9915 56.808 13.1236 56.251 13.3778C56.1094 12.197 55.4856 11.1274 54.5276 10.4228C41.0452 0.886939 24.0791 -2.30633 8.05243 1.67555C6.43918 2.10775 5.21757 3.4281 4.91182 5.07002L0.767382 27.0615C0.453659 28.702 1.10845 30.3771 2.45156 31.3699C2.49073 31.3975 2.53135 31.4236 2.56906 31.4511L1.13004 36.4355C0.74753 37.7503 1.0062 39.1685 1.82827 40.2637C2.65035 41.3588 3.93994 42.0032 5.3093 42.003H14.5063V44.9043H10.3879C8.82914 44.9089 7.39131 45.7451 6.61631 47.0976L1.9743 55.2211C0.798079 55.6177 0.00445428 56.7186 0 57.9599V60.8612C0 62.4635 1.29894 63.7624 2.90126 63.7624H7.68833C8.98447 68.046 12.9322 70.9759 17.4075 70.9759C21.8829 70.9759 25.8306 68.046 27.1267 63.7624H30.8984C32.1866 68.0581 36.1402 71 40.6248 71C45.1095 71 49.0631 68.0581 50.3513 63.7624H61.3615C62.6497 68.0581 66.6033 71 71.088 71C75.5727 71 79.5263 68.0581 80.8145 63.7624H84.1364C85.7387 63.7624 87.0377 62.4635 87.0377 60.8612V57.9599C87.0377 56.3576 85.7387 55.0586 84.1364 55.0586ZM76.2856 21.6942L80.2429 28.9473H65.2782V21.6942H76.2856ZM3.61787 27.5968L7.76231 5.6082C7.85557 5.06772 8.25027 4.62847 8.77775 4.47816C12.9594 3.40358 17.2606 2.86446 21.5781 2.87377C32.7684 2.84732 43.6889 6.30784 52.8217 12.7743C53.26 13.105 53.4698 13.6577 53.3613 14.1959L49.2299 36.186C49.1367 36.7265 48.742 37.1657 48.2145 37.316C33.0204 41.0933 16.9345 38.0645 4.1546 29.0199C3.71712 28.6881 3.50849 28.1349 3.61787 27.5968ZM53.6732 28.2539V44.9043H47.8707V40.3667C48.229 40.2811 48.596 40.2216 48.9456 40.123C50.5577 39.6871 51.776 38.3638 52.0775 36.7213L53.6732 28.2539ZM44.9695 40.9876V44.9043H17.4075V38.9958C23.1357 40.8963 29.131 41.8679 35.1661 41.8739C38.4538 41.8715 41.7347 41.5749 44.9695 40.9876ZM5.3093 39.1017C4.85168 39.1021 4.4207 38.8866 4.14654 38.5202C3.87238 38.1538 3.78719 37.6795 3.91669 37.2406L5.09751 33.1542C8.07298 35.0479 11.2238 36.651 14.5063 37.9412V39.1017H5.3093ZM7.25314 60.8612H2.90126V57.9599H7.68833C7.4027 58.9006 7.25609 59.878 7.25314 60.8612ZM17.4075 68.1143C13.4017 68.1143 10.1544 64.867 10.1544 60.8612C10.1544 56.8554 13.4017 53.608 17.4075 53.608C21.4133 53.608 24.6607 56.8554 24.6607 60.8612C24.6559 64.865 21.4113 68.1095 17.4075 68.1143ZM30.4632 60.8612H27.5619C27.559 59.878 27.4124 58.9006 27.1267 57.9599H30.8984C30.6127 58.9006 30.4661 59.878 30.4632 60.8612ZM40.6176 68.1143C36.6118 68.1143 33.3644 64.867 33.3644 60.8612C33.3644 56.8554 36.6118 53.608 40.6176 53.608C44.6234 53.608 47.8707 56.8554 47.8707 60.8612C47.8659 64.865 44.6214 68.1095 40.6176 68.1143ZM48.9384 55.0586C47.045 52.3328 43.9365 50.7072 40.6176 50.7072C37.2986 50.7072 34.1902 52.3328 32.2968 55.0586H25.7283C23.8349 52.3328 20.7265 50.7072 17.4075 50.7072C14.0886 50.7072 10.9801 52.3328 9.08673 55.0586H5.40069L9.12735 48.5308C9.38725 48.0807 9.86814 47.804 10.3879 47.8055L53.6732 47.8055V55.0586H48.9384ZM60.9264 60.8612H50.772C50.769 59.878 50.6224 58.9006 50.3368 57.9599H61.3615C61.0759 58.9006 60.9293 59.878 60.9264 60.8612ZM71.0807 68.1143C67.075 68.1143 63.8276 64.867 63.8276 60.8612C63.8276 56.8554 67.075 53.608 71.0807 53.608C75.0865 53.608 78.3339 56.8554 78.3339 60.8612C78.3291 64.865 75.0846 68.1095 71.0807 68.1143ZM79.4016 55.0586C77.5081 52.3328 74.3997 50.7072 71.0807 50.7072C67.7618 50.7072 64.6534 52.3328 62.76 55.0586H56.5745V17.3423C56.5745 16.5412 57.2239 15.8917 58.0251 15.8917H72.2587C72.7895 15.8916 73.278 16.1815 73.5323 16.6475L74.7073 18.793H65.2782C63.6759 18.793 62.377 20.0919 62.377 21.6942V28.9473C62.377 30.5497 63.6759 31.8486 65.2782 31.8486H81.2351V36.2005H75.4326C73.8303 36.2005 72.5314 37.4994 72.5314 39.1017V42.003C72.5314 43.6053 73.8303 44.9043 75.4326 44.9043H81.2351V47.8055H78.3339C77.5327 47.8055 76.8833 48.455 76.8833 49.2561C76.8833 50.0573 77.5327 50.7068 78.3339 50.7068H81.2351V55.0586H79.4016ZM81.2351 39.1017V42.003H75.4326V39.1017H81.2351ZM84.1364 60.8612H81.2351C81.2322 59.878 81.0856 58.9006 80.8 57.9599H84.1364V60.8612Z" fill="#A5CE46"/>
<path fill-rule="evenodd" clip-rule="evenodd" d="M66.7288 36.2017H63.8276C63.0264 36.2017 62.377 36.8511 62.377 37.6523C62.377 38.4534 63.0264 39.1029 63.8276 39.1029H66.7288C67.53 39.1029 68.1795 38.4534 68.1795 37.6523C68.1795 36.8511 67.53 36.2017 66.7288 36.2017Z" fill="#A5CE46"/>
</svg>
