<svg width="80" height="80" viewBox="0 0 80 80" fill="none" xmlns="http://www.w3.org/2000/svg">
<g clip-path="url(#clip0_298_1370)">
<path d="M24.4456 27.3189C24.0872 26.9605 23.5776 26.7984 23.0778 26.8836C22.5783 26.9689 22.1511 27.2912 21.9321 27.7484L0.510673 72.4344C0.498956 72.4587 0.487863 72.4833 0.477552 72.5083C-0.425489 74.6736 -0.0300571 76.9009 1.53526 78.4662C2.54673 79.4777 3.83411 80.0006 5.20289 80.0006C5.95251 80.0006 6.72681 79.8436 7.49314 79.5239C7.51814 79.5136 7.54283 79.5024 7.5672 79.4908L52.2533 58.0696C52.7103 57.8505 53.0325 57.4234 53.1179 56.9237C53.2032 56.4242 53.0411 55.9143 52.6827 55.5559L24.4456 27.3189ZM23.796 31.0884L39.6023 46.8947C33.4865 46.6431 26.7748 44.2894 19.5845 39.8735L23.796 31.0884ZM6.25638 76.6537C5.67816 76.8876 4.61482 77.1267 3.74459 76.2564C2.87483 75.3867 3.11371 74.3232 3.34744 73.7449L7.56486 64.9475C10.583 67.4759 13.6348 69.723 16.6792 71.6575L6.25638 76.6537ZM36.8787 61.9743C35.0051 61.5092 33.0662 60.8676 31.1051 60.0594C30.3073 59.7302 29.3941 60.1106 29.0652 60.9085C28.7365 61.7061 29.1166 62.6194 29.9143 62.9483C30.8399 63.3298 31.7621 63.6757 32.6775 63.9884L20.0296 70.0514C16.3447 67.8527 12.6284 65.162 8.96035 62.0364L13.3317 52.9175C14.6701 53.9743 16.0197 54.9813 17.3613 55.9218C17.6342 56.1132 17.947 56.205 18.2568 56.205C18.749 56.205 19.2334 55.973 19.5375 55.5393C20.0329 54.833 19.8617 53.8585 19.1552 53.3631C17.6778 52.3274 16.1894 51.2074 14.7175 50.0266L18.2267 42.7063C26.2454 47.5815 33.7835 50.0422 40.696 50.0422C41.3629 50.0422 42.0247 50.0184 42.6803 49.9725L48.913 56.2052L36.8787 61.9743Z" fill="#A5CE46"/>
<path d="M30.3412 18.2099C30.6415 18.4827 31.116 18.9136 31.3014 19.1743C31.0855 19.4168 30.6476 19.8144 30.3401 20.0938C29.3382 21.0054 28.7515 22.2528 28.6876 23.606C28.6239 24.9591 29.091 26.256 30.0026 27.2578C30.9143 28.2596 32.1616 28.8466 33.5148 28.9102C33.5965 28.9141 33.6778 28.9159 33.759 28.9159C35.0233 28.9159 36.2253 28.4519 37.1663 27.5956C37.9873 26.8499 38.918 26.0046 39.7798 24.7341C40.9385 23.0259 41.5017 21.1998 41.5017 19.1514C41.5017 14.6443 39.198 12.5523 37.1654 10.7062C36.8653 10.4336 36.3908 10.0027 36.2053 9.74211C36.4208 9.5001 36.8578 9.1031 37.1665 8.82266C39.2346 6.94065 39.386 3.72689 37.5038 1.65864C36.5922 0.656706 35.3448 0.0698859 33.9916 0.00629811C32.6411 -0.056196 31.3428 0.409229 30.3412 1.32008C29.5202 2.06548 28.5896 2.91024 27.7269 4.18216C26.5681 5.89028 26.0049 7.71651 26.0049 9.76507C26.005 14.2725 28.3087 16.3645 30.3412 18.2099ZM33.662 25.789C33.1425 25.7647 32.6638 25.5392 32.3138 25.1547C31.9639 24.7701 31.7847 24.2723 31.809 23.7528C31.8336 23.2333 32.0587 22.7545 32.4421 22.4056C32.8321 22.0514 33.2078 21.7097 33.5198 21.3759L35.0048 22.876C35.6723 23.5503 35.6819 24.6335 35.0342 25.3085C34.6539 25.6417 34.1696 25.8133 33.662 25.789ZM38.3772 19.1514C38.3772 20.0285 38.2336 20.8272 37.9347 21.5897C37.7391 21.2654 37.5035 20.9586 37.2257 20.678L33.2059 16.6174C33.2036 16.6151 33.2009 16.613 33.1984 16.6107C32.952 16.361 32.6927 16.1248 32.4418 15.8968C30.5913 14.2165 29.1296 12.8892 29.1296 9.76523C29.1296 8.88812 29.2732 8.08945 29.572 7.32686C29.7677 7.65121 30.0033 7.95805 30.281 8.23865L34.3007 12.2992C34.3033 12.3019 34.3063 12.3041 34.3089 12.3067C34.5552 12.5561 34.8142 12.7921 35.065 13.0198C36.9156 14.7001 38.3772 16.0276 38.3772 19.1514ZM33.7513 3.12538C33.7824 3.12538 33.8137 3.12616 33.8451 3.12757C34.3646 3.15194 34.8434 3.37739 35.1932 3.76188C35.9158 4.55587 35.8577 5.78966 35.0625 6.51319C34.6734 6.86659 34.2985 7.2075 33.9873 7.54059L32.5021 6.04026C31.8345 5.36595 31.825 4.28262 32.473 3.60768C32.8299 3.29521 33.2789 3.12538 33.7513 3.12538Z" fill="#A5CE46"/>
<path d="M60.4215 21.7906C61.3353 22.7045 62.5355 23.1611 63.7359 23.1611C64.9361 23.1611 66.1363 22.7043 67.0501 21.7906L69.2598 19.581C71.0872 17.7535 71.0872 14.78 69.2598 12.9524L67.0501 10.7429C65.2226 8.9156 62.2492 8.91529 60.4215 10.7429L58.2119 12.9526C57.3291 13.8353 56.8428 15.0125 56.8428 16.2669C56.8428 17.5212 57.329 18.6983 58.2119 19.5812L60.4215 21.7906ZM60.4215 15.162L62.6311 12.9526C62.9238 12.6599 63.3161 12.4987 63.7359 12.4987C64.1557 12.4987 64.5478 12.6599 64.8405 12.9526L67.0501 15.162C67.3427 15.4547 67.504 15.847 67.504 16.2668C67.504 16.6866 67.3427 17.0787 67.0501 17.3714L64.8405 19.581C64.5478 19.8736 64.1555 20.0349 63.7359 20.0349C63.3159 20.0349 62.9238 19.8736 62.6311 19.581L60.4215 17.3714C60.1289 17.0787 59.9676 16.6864 59.9676 16.2668C59.9676 15.8471 60.1287 15.4547 60.4215 15.162Z" fill="#A5CE46"/>
<path d="M78.3425 42.4959C77.3406 41.5839 76.044 41.1184 74.6904 41.1807C73.3372 41.2444 72.0899 41.8313 71.1771 42.8345C70.8989 43.1408 70.5014 43.5786 70.2589 43.7945C69.9983 43.6091 69.5673 43.1344 69.2943 42.834C67.4486 40.8017 65.3566 38.4983 60.8497 38.4983C58.8011 38.4983 56.9749 39.0614 55.2667 40.2202C53.9958 41.0824 53.1505 42.0131 52.4059 42.8332C52.3867 42.8543 52.3689 42.8762 52.3501 42.8976C52.3498 42.8979 52.3494 42.8984 52.349 42.8988C51.4754 43.8915 51.0282 45.1611 51.0907 46.4854C51.1545 47.8385 51.7413 49.0859 52.7431 49.9974C54.8112 51.8797 58.0249 51.728 59.9097 49.6574C60.1875 49.3513 60.5845 48.9144 60.8267 48.6987C61.0873 48.884 61.5182 49.3585 61.7908 49.6588C63.6364 51.6914 65.7286 53.9951 70.236 53.9951C72.2845 53.9951 74.1108 53.4319 75.8189 52.2733C77.0892 51.4115 77.9343 50.4811 78.6799 49.6602C80.5619 47.5917 80.4106 44.3779 78.3425 42.4959ZM73.4894 44.9363C73.8392 44.5516 74.3181 44.3265 74.8376 44.3018C75.3574 44.2796 75.8548 44.4568 76.2395 44.8066C77.0239 45.5206 77.0884 46.7328 76.3927 47.5276C75.7178 48.175 74.6348 48.1647 73.9609 47.4978L72.4608 46.0126C72.7943 45.7009 73.1359 45.3255 73.4894 44.9363ZM57.5965 47.5565C57.2466 47.9412 56.7675 48.1665 56.2482 48.191C55.7267 48.2165 55.231 48.0362 54.8463 47.6862C54.4617 47.3364 54.2365 46.8575 54.2118 46.3382C54.1881 45.8315 54.3593 45.3461 54.6935 44.9644C55.3689 44.3179 56.451 44.3282 57.1245 44.9949L58.6249 46.4801C58.2916 46.7917 57.9504 47.167 57.5965 47.5565ZM64.1042 47.5579C63.8759 47.3065 63.6392 47.0469 63.3891 46.8C63.3872 46.7981 63.3855 46.796 63.3836 46.7939L59.3231 42.7741C59.0425 42.4964 58.7358 42.2609 58.4114 42.0651C59.174 41.7663 59.9729 41.6227 60.8498 41.6227C63.9734 41.6227 65.3008 43.0841 66.9816 44.9347C67.2091 45.1852 67.4448 45.4441 67.6942 45.6901C67.697 45.6929 67.6993 45.6961 67.7021 45.6989L71.7627 49.7187C72.0433 49.9964 72.3501 50.232 72.6745 50.4278C71.9119 50.7267 71.1132 50.8703 70.2361 50.8703C67.1119 50.8701 65.7847 49.4085 64.1042 47.5579Z" fill="#A5CE46"/>
<path d="M74.0913 7.47309C74.954 7.47309 75.6536 6.77347 75.6536 5.91074C75.6536 5.04801 74.954 4.34839 74.0913 4.34839H74.09C73.2273 4.34839 72.5283 5.04801 72.5283 5.91074C72.5283 6.77347 73.2286 7.47309 74.0913 7.47309Z" fill="#A5CE46"/>
<path d="M52.7475 6.34517C53.6103 6.34517 54.3099 5.64555 54.3099 4.78281C54.3099 3.92008 53.6103 3.22046 52.7475 3.22046H52.7464C51.8837 3.22046 51.1846 3.92008 51.1846 4.78281C51.1846 5.64555 51.8848 6.34517 52.7475 6.34517Z" fill="#A5CE46"/>
<path d="M47.8608 20.5141C48.7235 20.5141 49.4232 19.8145 49.4232 18.9518C49.4232 18.089 48.7235 17.3894 47.8608 17.3894H47.8596C46.9968 17.3894 46.2979 18.089 46.2979 18.9518C46.2979 19.8145 46.9981 20.5141 47.8608 20.5141Z" fill="#A5CE46"/>
<path d="M46.6636 34.8991C47.5263 34.8991 48.2259 34.1995 48.2259 33.3368C48.2259 32.474 47.5263 31.7744 46.6636 31.7744H46.6623C45.7996 31.7744 45.1006 32.474 45.1006 33.3368C45.1006 34.1995 45.8008 34.8991 46.6636 34.8991Z" fill="#A5CE46"/>
<path d="M73.6582 27.2545V27.2557C73.6582 28.1185 74.3578 28.8175 75.2206 28.8175C76.0833 28.8175 76.7829 28.1174 76.7829 27.2545C76.7829 26.3916 76.0833 25.6921 75.2206 25.6921C74.3578 25.6921 73.6582 26.3916 73.6582 27.2545Z" fill="#A5CE46"/>
<path d="M59.4883 32.1434V32.1445C59.4883 33.0072 60.1879 33.7064 61.0506 33.7064C61.9134 33.7064 62.613 33.0063 62.613 32.1434C62.613 31.2805 61.9134 30.5811 61.0506 30.5811C60.1879 30.5811 59.4883 31.2805 59.4883 32.1434Z" fill="#A5CE46"/>
<path d="M24.1968 56.8455H24.1955C23.3326 56.8455 22.6338 57.5451 22.6338 58.4078C22.6338 59.2705 23.3339 59.9702 24.1968 59.9702C25.0597 59.9702 25.7591 59.2705 25.7591 58.4078C25.7591 57.5451 25.0597 56.8455 24.1968 56.8455Z" fill="#A5CE46"/>
</g>
<defs>
<clipPath id="clip0_298_1370">
<rect width="80" height="80" fill="white"/>
</clipPath>
</defs>
</svg>
