<svg width="364" height="293" viewBox="0 0 364 293" fill="none" xmlns="http://www.w3.org/2000/svg">
<path d="M123.932 36.4635C168.36 47.2345 184.286 93.8276 173.577 118.358C154.246 162.634 107.905 130.667 74.9388 154.892C37.7966 182.187 2.59599 115.106 23.4728 84.858C51.399 44.3957 78.1823 25.3725 123.932 36.4635Z" fill="#B7A0EE" fill-opacity="0.6"/>
<path d="M239.224 50.1767C315.458 77.4297 338.843 154.577 317.965 190.781C280.28 256.124 202.677 195.007 143.139 225.585C76.0596 260.037 21.0601 146.13 60.139 103.262C112.413 45.9177 160.724 22.1138 239.224 50.1767Z" fill="#B7A0EE" fill-opacity="0.8"/>
<path d="M122.842 169.178C121.252 168.713 119.586 169.625 119.121 171.216C118.656 172.806 119.568 174.472 121.158 174.937L122.842 169.178ZM185.58 155.298L184.31 152.58L185.58 155.298ZM252.536 103.668C252.386 102.018 250.927 100.802 249.277 100.952L222.387 103.39C220.737 103.54 219.521 104.999 219.671 106.649C219.82 108.299 221.279 109.515 222.929 109.366L246.831 107.198L248.999 131.1C249.148 132.75 250.607 133.966 252.258 133.817C253.908 133.667 255.124 132.208 254.974 130.558L252.536 103.668ZM122 172.057C121.158 174.937 121.161 174.938 121.164 174.939C121.165 174.939 121.168 174.94 121.17 174.94C121.174 174.941 121.178 174.943 121.183 174.944C121.192 174.947 121.202 174.95 121.214 174.953C121.236 174.959 121.263 174.966 121.294 174.974C121.357 174.991 121.436 175.01 121.533 175.032C121.727 175.077 121.99 175.131 122.325 175.188C122.996 175.301 123.956 175.423 125.227 175.492C127.77 175.632 131.557 175.563 136.777 174.801C147.21 173.278 163.389 168.982 186.851 158.016L184.31 152.58C161.247 163.36 145.636 167.444 135.91 168.864C131.05 169.574 127.665 169.617 125.556 169.501C124.502 169.443 123.766 169.346 123.322 169.271C123.1 169.234 122.952 169.202 122.873 169.184C122.833 169.175 122.811 169.169 122.806 169.168C122.804 169.167 122.805 169.168 122.811 169.169C122.814 169.17 122.818 169.171 122.824 169.173C122.826 169.173 122.829 169.174 122.832 169.175C122.833 169.176 122.836 169.176 122.837 169.177C122.839 169.177 122.842 169.178 122 172.057ZM186.851 158.016C204.584 149.727 220.841 136.65 232.599 125.744C238.495 120.276 243.296 115.319 246.627 111.726C248.292 109.928 249.592 108.47 250.478 107.458C250.921 106.951 251.261 106.556 251.492 106.286C251.608 106.15 251.696 106.046 251.756 105.975C251.786 105.939 251.81 105.912 251.826 105.892C251.834 105.883 251.84 105.875 251.844 105.87C251.847 105.867 251.848 105.865 251.85 105.864C251.85 105.863 251.851 105.862 251.851 105.862C251.852 105.861 251.852 105.86 249.548 103.939C247.244 102.018 247.244 102.018 247.244 102.018C247.244 102.018 247.244 102.018 247.244 102.018C247.243 102.019 247.242 102.02 247.241 102.021C247.238 102.025 247.234 102.03 247.228 102.037C247.215 102.052 247.196 102.075 247.17 102.107C247.117 102.169 247.036 102.264 246.928 102.391C246.713 102.643 246.389 103.019 245.963 103.506C245.111 104.479 243.85 105.895 242.226 107.647C238.977 111.153 234.284 115.999 228.519 121.345C216.957 132.069 201.23 144.672 184.31 152.58L186.851 158.016Z" fill="#4D58E2"/>
<path d="M60.5951 73.576L53.4141 80.8L54.4461 85.014H57.1981C59.0901 85.014 60.5378 85.3437 61.5411 86.003C62.5731 86.6623 63.0891 87.6227 63.0891 88.884C63.0891 90.0307 62.6878 90.9337 61.8851 91.593C61.1111 92.2523 60.0935 92.582 58.8321 92.582C57.2841 92.582 55.9368 92.281 54.7901 91.679C53.6721 91.0483 52.5971 90.1453 51.5651 88.97L47.0071 93.313C48.2971 94.861 49.8881 96.1223 51.7801 97.097C53.7008 98.043 56.0228 98.516 58.7461 98.516C60.4088 98.516 61.9138 98.2723 63.2611 97.785C64.6085 97.2977 65.7408 96.6097 66.6581 95.721C67.6041 94.8323 68.3208 93.786 68.8081 92.582C69.3241 91.378 69.5821 90.0593 69.5821 88.626C69.5821 87.2213 69.3528 86.0317 68.8941 85.057C68.4355 84.0537 67.8335 83.2223 67.0881 82.563C66.3428 81.875 65.4828 81.3447 64.5081 80.972C63.5335 80.5993 62.5301 80.327 61.4981 80.155L69.1091 72.888V67.9H48.7701V73.576H60.5951ZM101.148 82.907C101.148 80.7283 100.833 78.693 100.202 76.801C99.5715 74.909 98.6685 73.2607 97.4932 71.856C96.3465 70.4513 94.9418 69.362 93.2792 68.588C91.6452 67.7853 89.8248 67.384 87.8182 67.384C85.8115 67.384 83.9768 67.7853 82.3142 68.588C80.6802 69.3907 79.2755 70.4943 78.1002 71.899C76.9248 73.3037 76.0075 74.9663 75.3482 76.887C74.7175 78.779 74.4022 80.8143 74.4022 82.993C74.4022 85.2003 74.7175 87.25 75.3482 89.142C75.9788 91.0053 76.8675 92.6393 78.0142 94.044C79.1895 95.4487 80.5942 96.5523 82.2282 97.355C83.8908 98.129 85.7255 98.516 87.7322 98.516C89.7388 98.516 91.5592 98.1147 93.1932 97.312C94.8558 96.5093 96.2748 95.4057 97.4502 94.001C98.6255 92.5963 99.5285 90.948 100.159 89.056C100.818 87.164 101.148 85.1143 101.148 82.907ZM94.3542 82.993C94.3542 84.369 94.1965 85.6447 93.8812 86.82C93.5945 87.9667 93.1645 88.97 92.5912 89.83C92.0178 90.69 91.3298 91.3637 90.5272 91.851C89.7245 92.3097 88.8215 92.539 87.8182 92.539C86.8148 92.539 85.8975 92.2953 85.0662 91.808C84.2635 91.3207 83.5755 90.647 83.0022 89.787C82.4288 88.927 81.9845 87.9093 81.6692 86.734C81.3538 85.5587 81.1962 84.283 81.1962 82.907C81.1962 81.531 81.3395 80.2553 81.6262 79.08C81.9415 77.9047 82.3858 76.9013 82.9592 76.07C83.5325 75.21 84.2205 74.5507 85.0232 74.092C85.8258 73.6047 86.7288 73.361 87.7322 73.361C88.7355 73.361 89.6385 73.6047 90.4412 74.092C91.2725 74.5793 91.9748 75.253 92.5482 76.113C93.1215 76.973 93.5658 77.9907 93.8812 79.166C94.1965 80.3413 94.3542 81.617 94.3542 82.993ZM120.045 75.21C120.045 74.1493 119.873 73.1603 119.529 72.243C119.185 71.297 118.684 70.48 118.024 69.792C117.394 69.104 116.634 68.5593 115.745 68.158C114.857 67.7567 113.868 67.556 112.778 67.556C111.689 67.556 110.686 67.7567 109.768 68.158C108.88 68.5593 108.106 69.1183 107.446 69.835C106.816 70.523 106.314 71.34 105.941 72.286C105.597 73.232 105.425 74.2353 105.425 75.296C105.425 76.3567 105.597 77.36 105.941 78.306C106.285 79.2233 106.773 80.026 107.403 80.714C108.063 81.402 108.837 81.9467 109.725 82.348C110.614 82.7493 111.603 82.95 112.692 82.95C113.782 82.95 114.771 82.7493 115.659 82.348C116.577 81.9467 117.351 81.402 117.981 80.714C118.641 79.9973 119.142 79.1803 119.486 78.263C119.859 77.317 120.045 76.2993 120.045 75.21ZM135.525 67.9H130.408L108.435 98H113.552L135.525 67.9ZM138.535 90.604C138.535 89.5433 138.363 88.5543 138.019 87.637C137.675 86.691 137.174 85.874 136.514 85.186C135.884 84.498 135.124 83.9533 134.235 83.552C133.347 83.1507 132.358 82.95 131.268 82.95C130.179 82.95 129.176 83.1507 128.258 83.552C127.37 83.9533 126.596 84.5123 125.936 85.229C125.306 85.917 124.804 86.734 124.431 87.68C124.087 88.626 123.915 89.6293 123.915 90.69C123.915 91.7507 124.087 92.754 124.431 93.7C124.775 94.6173 125.263 95.42 125.893 96.108C126.553 96.796 127.327 97.3407 128.215 97.742C129.104 98.1433 130.093 98.344 131.182 98.344C132.272 98.344 133.261 98.1433 134.149 97.742C135.067 97.3407 135.841 96.796 136.471 96.108C137.131 95.3913 137.632 94.5743 137.976 93.657C138.349 92.711 138.535 91.6933 138.535 90.604ZM115.53 75.296C115.53 76.2993 115.301 77.1737 114.842 77.919C114.384 78.6643 113.696 79.037 112.778 79.037C111.918 79.037 111.23 78.6643 110.714 77.919C110.198 77.145 109.94 76.242 109.94 75.21C109.94 74.2067 110.17 73.3323 110.628 72.587C111.087 71.8417 111.775 71.469 112.692 71.469C113.552 71.469 114.24 71.856 114.756 72.63C115.272 73.3753 115.53 74.264 115.53 75.296ZM134.02 90.69C134.02 91.6933 133.791 92.5677 133.332 93.313C132.874 94.0583 132.186 94.431 131.268 94.431C130.408 94.431 129.72 94.0583 129.204 93.313C128.688 92.539 128.43 91.636 128.43 90.604C128.43 89.6007 128.66 88.7263 129.118 87.981C129.577 87.2357 130.265 86.863 131.182 86.863C132.042 86.863 132.73 87.25 133.246 88.024C133.762 88.7693 134.02 89.658 134.02 90.69ZM86.8319 127L82.8989 121.25C83.9263 120.867 84.7543 120.269 85.3829 119.456C86.0269 118.628 86.3489 117.562 86.3489 116.259V116.213C86.3489 114.542 85.8123 113.238 84.7389 112.303C83.6809 111.368 82.1936 110.9 80.2769 110.9H72.9169V127H76.4589V121.848H79.2419L82.6919 127H86.8319ZM82.7609 116.443C82.7609 117.133 82.5233 117.685 82.0479 118.099C81.5879 118.513 80.9209 118.72 80.0469 118.72H76.4589V114.097H79.9779C80.8519 114.097 81.5343 114.289 82.0249 114.672C82.5156 115.055 82.7609 115.63 82.7609 116.397V116.443ZM105.937 118.95V118.904C105.937 117.754 105.722 116.681 105.293 115.684C104.879 114.672 104.289 113.798 103.522 113.062C102.771 112.311 101.874 111.72 100.831 111.291C99.7884 110.846 98.646 110.624 97.404 110.624C96.162 110.624 95.012 110.846 93.954 111.291C92.9114 111.72 92.0067 112.318 91.24 113.085C90.4887 113.836 89.8984 114.718 89.469 115.73C89.0397 116.727 88.825 117.8 88.825 118.95V118.996C88.825 120.146 89.032 121.227 89.446 122.239C89.8754 123.236 90.4657 124.11 91.217 124.861C91.9837 125.597 92.8884 126.187 93.931 126.632C94.9737 127.061 96.116 127.276 97.358 127.276C98.6 127.276 99.7424 127.061 100.785 126.632C101.843 126.187 102.748 125.589 103.499 124.838C104.266 124.071 104.864 123.19 105.293 122.193C105.722 121.181 105.937 120.1 105.937 118.95ZM102.234 118.996C102.234 119.686 102.111 120.338 101.866 120.951C101.636 121.549 101.306 122.078 100.877 122.538C100.463 122.998 99.957 123.358 99.359 123.619C98.761 123.88 98.1094 124.01 97.404 124.01C96.6834 124.01 96.024 123.88 95.426 123.619C94.8434 123.343 94.3297 122.975 93.885 122.515C93.4557 122.055 93.1184 121.518 92.873 120.905C92.643 120.292 92.528 119.64 92.528 118.95V118.904C92.528 118.214 92.643 117.57 92.873 116.972C93.1184 116.359 93.448 115.822 93.862 115.362C94.2914 114.902 94.7974 114.542 95.38 114.281C95.978 114.02 96.6374 113.89 97.358 113.89C98.0634 113.89 98.715 114.028 99.313 114.304C99.911 114.565 100.425 114.925 100.854 115.385C101.299 115.845 101.636 116.382 101.866 116.995C102.111 117.608 102.234 118.26 102.234 118.95V118.996ZM112.782 127V110.9H109.24V127H112.782Z" fill="#262D89"/>
<path d="M202.698 108.037C202.185 106.203 201.208 104.899 199.768 104.126C198.343 103.324 196.292 102.933 193.614 102.953L192.23 98.0089C192.977 97.988 193.738 98.0575 194.513 98.2174C195.281 98.3554 196.054 98.5511 196.831 98.8044L197.952 94.3596C196.88 93.9771 195.787 93.7299 194.673 93.618C193.575 93.4782 192.412 93.4859 191.184 93.6412L190.634 91.6767L187.229 92.6297L187.761 94.5287C186.765 94.925 185.891 95.4169 185.137 96.0044C184.378 96.57 183.772 97.2222 183.319 97.9607C182.883 98.6714 182.605 99.4436 182.485 100.277C182.365 101.111 182.434 101.986 182.69 102.903C182.959 103.864 183.339 104.675 183.831 105.338C184.338 105.973 184.951 106.484 185.672 106.87C186.414 107.251 187.279 107.527 188.269 107.697C189.274 107.84 190.411 107.91 191.681 107.907L193.139 113.113C192.101 113.191 191.096 113.132 190.122 112.933C189.165 112.707 188.144 112.381 187.059 111.955L185.55 116.402C186.874 116.926 188.267 117.277 189.729 117.457C191.207 117.608 192.68 117.572 194.148 117.35L195.073 120.657L198.478 119.704L197.571 116.462C198.588 116.06 199.474 115.565 200.227 114.977C200.981 114.39 201.576 113.741 202.013 113.03C202.465 112.292 202.751 111.505 202.871 110.672C203.012 109.832 202.955 108.953 202.698 108.037ZM190.307 102.996C189.32 102.919 188.622 102.738 188.213 102.452C187.803 102.166 187.528 101.773 187.388 101.271C187.241 100.747 187.291 100.25 187.536 99.7816C187.803 99.3067 188.315 98.9047 189.07 98.5756L190.307 102.996ZM197.991 109.636C198.321 110.815 197.745 111.741 196.262 112.415L194.979 107.831C195.966 107.908 196.675 108.087 197.106 108.366C197.537 108.645 197.832 109.069 197.991 109.636Z" fill="#8088EB"/>
<path d="M282.175 191.823C282.668 189.984 282.492 188.365 281.647 186.965C280.829 185.549 279.264 184.168 276.95 182.82L278.278 177.861C278.932 178.224 279.551 178.671 280.136 179.204C280.727 179.714 281.292 180.276 281.832 180.89L285.062 177.637C284.334 176.761 283.519 175.992 282.618 175.328C281.744 174.648 280.74 174.062 279.604 173.57L280.132 171.599L276.717 170.684L276.206 172.589C275.148 172.423 274.145 172.4 273.197 172.522C272.255 172.621 271.402 172.874 270.636 173.279C269.898 173.668 269.265 174.19 268.737 174.847C268.21 175.503 267.822 176.291 267.576 177.211C267.318 178.174 267.231 179.066 267.317 179.887C267.429 180.691 267.697 181.444 268.12 182.144C268.564 182.849 269.169 183.528 269.933 184.178C270.725 184.813 271.668 185.453 272.763 186.098L271.363 191.32C270.431 190.859 269.596 190.295 268.86 189.628C268.151 188.945 267.439 188.145 266.723 187.225L263.158 190.283C264.03 191.408 265.049 192.42 266.216 193.32C267.411 194.203 268.697 194.923 270.073 195.48L269.184 198.796L272.6 199.712L273.471 196.46C274.551 196.632 275.565 196.658 276.513 196.536C277.46 196.415 278.303 196.16 279.041 195.771C279.807 195.366 280.453 194.835 280.981 194.178C281.531 193.528 281.929 192.743 282.175 191.823ZM274.083 181.172C273.273 180.603 272.765 180.091 272.558 179.637C272.351 179.183 272.315 178.704 272.45 178.2C272.591 177.675 272.886 177.273 273.336 176.994C273.808 176.722 274.453 176.636 275.271 176.738L274.083 181.172ZM277.31 190.801C276.993 191.984 276.026 192.487 274.406 192.311L275.638 187.713C276.448 188.282 276.967 188.797 277.196 189.257C277.425 189.717 277.463 190.232 277.31 190.801Z" fill="#8088EB"/>
<path d="M278.395 152.872C277.966 151.657 277.248 150.821 276.241 150.364C275.243 149.887 273.841 149.715 272.034 149.849L270.878 146.574C271.382 146.526 271.899 146.539 272.428 146.612C272.953 146.67 273.484 146.768 274.019 146.904L274.577 143.853C273.836 143.643 273.087 143.526 272.33 143.5C271.582 143.455 270.798 143.513 269.976 143.672L269.517 142.371L267.261 143.167L267.705 144.425C267.051 144.738 266.483 145.109 266.001 145.539C265.513 145.955 265.134 146.423 264.862 146.942C264.599 147.441 264.446 147.975 264.402 148.543C264.359 149.111 264.445 149.699 264.659 150.306C264.884 150.942 265.177 151.473 265.538 151.898C265.909 152.304 266.346 152.621 266.85 152.85C267.368 153.073 267.964 153.22 268.64 153.291C269.324 153.342 270.095 153.338 270.953 153.279L272.17 156.728C271.474 156.827 270.792 156.832 270.126 156.742C269.47 156.632 268.766 156.458 268.015 156.219L267.196 159.289C268.113 159.583 269.069 159.758 270.064 159.813C271.069 159.848 272.061 159.758 273.042 159.542L273.815 161.733L276.071 160.936L275.313 158.789C275.981 158.472 276.557 158.098 277.039 157.668C277.521 157.237 277.894 156.772 278.156 156.273C278.428 155.754 278.586 155.211 278.629 154.642C278.687 154.069 278.609 153.479 278.395 152.872ZM269.804 150.026C269.135 150.018 268.656 149.927 268.366 149.753C268.077 149.579 267.874 149.325 267.757 148.993C267.634 148.646 267.645 148.309 267.79 147.981C267.949 147.648 268.276 147.354 268.771 147.098L269.804 150.026ZM275.289 154.163C275.565 154.944 275.218 155.595 274.247 156.116L273.175 153.08C273.845 153.088 274.331 153.176 274.635 153.345C274.938 153.515 275.157 153.787 275.289 154.163Z" fill="#8088EB"/>
<path d="M223.719 79.7204C223.956 78.4545 223.754 77.3712 223.111 76.4707C222.487 75.5579 221.36 74.7068 219.729 73.9173L220.37 70.5038C220.829 70.7149 221.27 70.9848 221.692 71.3135C222.117 71.6272 222.527 71.9772 222.923 72.3634L224.933 70.0027C224.397 69.4497 223.808 68.9726 223.166 68.5713C222.541 68.1577 221.834 67.8143 221.042 67.5411L221.297 66.1848L218.946 65.7437L218.7 67.0548C217.978 66.9973 217.3 67.034 216.667 67.1649C216.037 67.2807 215.474 67.4949 214.978 67.8076C214.501 68.108 214.101 68.4932 213.779 68.9632C213.457 69.4332 213.236 69.9846 213.117 70.6176C212.993 71.2807 212.981 71.8868 213.08 72.436C213.198 72.9729 213.418 73.4665 213.739 73.9167C214.075 74.3698 214.518 74.7961 215.067 75.1955C215.634 75.5827 216.303 75.9656 217.074 76.3444L216.4 79.9387C215.747 79.6758 215.155 79.3385 214.624 78.9269C214.111 78.503 213.589 77.9995 213.059 77.4164L210.812 79.6626C211.458 80.3767 212.198 81.0069 213.032 81.5533C213.883 82.0874 214.787 82.5067 215.744 82.811L215.316 85.0942L217.667 85.5352L218.087 83.2972C218.824 83.3576 219.509 83.3223 220.142 83.1915C220.775 83.0606 221.331 82.845 221.808 82.5445C222.304 82.2319 222.713 81.8405 223.035 81.3705C223.372 80.9034 223.6 80.3533 223.719 79.7204ZM217.71 72.9535C217.135 72.6115 216.766 72.2927 216.603 71.9969C216.44 71.7011 216.391 71.3799 216.456 71.0333C216.524 70.6716 216.702 70.3853 216.991 70.1743C217.296 69.9662 217.726 69.8753 218.283 69.9018L217.71 72.9535ZM220.384 79.2821C220.232 80.0959 219.605 80.4853 218.504 80.4503L219.097 77.2855C219.673 77.6275 220.05 77.9478 220.228 78.2464C220.406 78.545 220.458 78.8902 220.384 79.2821Z" fill="#8088EB"/>
<line x1="236.299" y1="180.696" x2="236.299" y2="139.306" stroke="white" stroke-width="4" stroke-linecap="round"/>
<line x1="223.816" y1="180.696" x2="223.816" y2="152.923" stroke="white" stroke-width="4" stroke-linecap="round"/>
<line x1="211.334" y1="180.696" x2="211.334" y2="163.135" stroke="white" stroke-width="4" stroke-linecap="round"/>
<line x1="198.852" y1="180.696" x2="198.852" y2="169.944" stroke="white" stroke-width="4" stroke-linecap="round"/>
<line x1="186.369" y1="180.696" x2="186.369" y2="174.483" stroke="white" stroke-width="4" stroke-linecap="round"/>
<line x1="173.888" y1="180.696" x2="173.888" y2="177.887" stroke="white" stroke-width="4" stroke-linecap="round"/>
</svg>
